<?xml version="1.0" encoding="iso-8859-1"?>
<!-- Generator: Adobe Illustrator 16.0.0, SVG Export Plug-In . SVG Version: 6.00 Build 0)  -->
<!DOCTYPE svg PUBLIC "-//W3C//DTD SVG 1.1//EN" "http://www.w3.org/Graphics/SVG/1.1/DTD/svg11.dtd">
<svg version="1.1" id="Capa_1" xmlns="http://www.w3.org/2000/svg" xmlns:xlink="http://www.w3.org/1999/xlink" x="0px" y="0px"
	 width="580.922px" height="580.922px" viewBox="0 0 580.922 580.922" style="enable-background:new 0 0 580.922 580.922;"
	 xml:space="preserve">
<g>
	<g>
		<path d="M510.398,219.938C510.398,98.666,411.732,0,290.461,0S70.523,98.666,70.523,219.938
			c0,80.86,43.404,153.89,113.861,192.655c-1.827,0.995-3.72,1.989-5.69,2.984c-20.263,10.212-36.653,17.623-49.82,23.581
			c-29.156,13.187-43.663,19.899-45.929,34.271c-0.21,1.329-0.469,2.63-0.469,4.103v103.39h210.375h200.812h9.562v-103.39
			c0-17.93-14.42-24.633-49.257-40.822c-12.239-5.689-27.463-12.766-45.804-22.013c-2.611-1.32-5.202-2.697-7.87-4.208
			C468.419,371.188,510.398,298.943,510.398,219.938z M392.168,288.739c16.858,0.058,32.579-13.951,37.227-33.669
			c4.428-18.819-2.171-37.275-15.778-45.422c2.515-30.151-7.851-59.861-29.404-84.026c-24.098-27.023-58.695-43.146-92.556-43.146
			c-32.436,0-65.886,15.185-89.486,40.622c-22.195,23.916-33.564,53.923-32.245,84.867c-7.488,3.261-13.397,9.562-16.859,18.073
			c-3.806,9.371-4.169,20.377-1.014,30.973c5.69,19.144,21.535,32.408,38.394,31.49c12.584,26.938,30.007,46.215,51.867,57.384
			c-0.182,0.479-0.364,0.966-0.555,1.454c-3.146,8.243-7.774,20.368-15.616,32.34c-64.174-26.976-105.417-88.797-105.417-158.546
			c0-94.908,77.217-172.125,172.125-172.125c94.908,0,172.125,77.217,172.125,172.125c0,68.993-40.564,130.528-103.705,157.877
			c-7.038-11.867-11.666-22.931-14.812-30.485c-0.555-1.329-1.062-2.544-1.54-3.644
			C364.686,333.798,380.186,315.361,392.168,288.739z"/>
	</g>
</g>
<g>
</g>
<g>
</g>
<g>
</g>
<g>
</g>
<g>
</g>
<g>
</g>
<g>
</g>
<g>
</g>
<g>
</g>
<g>
</g>
<g>
</g>
<g>
</g>
<g>
</g>
<g>
</g>
<g>
</g>
</svg>
