<?xml version="1.0" encoding="iso-8859-1"?>
<!-- Generator: Adobe Illustrator 16.0.0, SVG Export Plug-In . SVG Version: 6.00 Build 0)  -->
<!DOCTYPE svg PUBLIC "-//W3C//DTD SVG 1.1//EN" "http://www.w3.org/Graphics/SVG/1.1/DTD/svg11.dtd">
<svg version="1.1" id="Capa_1" xmlns="http://www.w3.org/2000/svg" xmlns:xlink="http://www.w3.org/1999/xlink" x="0px" y="0px"
	 width="548.562px" height="548.562px" viewBox="0 0 548.562 548.562" style="enable-background:new 0 0 548.562 548.562;"
	 xml:space="preserve">
<g>
	<g>
		<path d="M238.776,548.562c108.372,0,196.548-88.166,196.548-196.548c0-82.199-50.748-152.732-122.535-182.032
			c-5.812-2.372-11.752-4.475-17.824-6.292c-17.814-5.327-36.662-8.224-56.188-8.224c-108.372,0-196.548,88.167-196.548,196.548
			C42.228,460.387,130.404,548.562,238.776,548.562z M328.06,198.135c0.527-0.105,1.053-0.239,1.568-0.296
			c0.164-0.019,0.336-0.019,0.508-0.029c33.086,19.68,59.334,49.677,74.252,85.537c-1.605-1.311-3.52-2.075-5.727-2.219
			c-0.814-0.058-1.627-0.163-2.43-0.306c-2.314-0.421-4.016-1.664-4.867-3.893c-0.383-1.014-0.555-2.104-0.852-3.146
			c-0.105-0.363-0.297-0.698-0.469-1.091c-0.277,0.173-0.486,0.239-0.611,0.383c-0.363,0.401-0.707,0.832-1.033,1.263
			c-0.41,0.545-0.773,1.128-1.215,1.645c-1.434,1.683-2.582,1.568-3.623-0.325c-0.23-0.421-0.422-0.86-0.594-1.301
			c-0.238-0.631-0.439-1.291-0.67-1.932c-0.324-0.898-0.631-1.807-1.031-2.668c-0.785-1.664-1.521-1.75-2.641-0.354
			c-0.209,0.268-0.391,0.564-0.621,0.812c-0.373,0.402-0.736,0.813-1.156,1.147c-1.473,1.157-2.984,1.157-4.504,0.029
			c-0.277-0.201-0.508-0.45-0.766-0.68c-0.697-0.631-1.033-1.367-0.994-2.343c0.047-1.224,0.01-2.457-0.115-3.672
			c-0.076-0.727-0.334-1.453-0.611-2.142c-0.23-0.555-0.891-0.708-1.387-0.354c-0.498,0.354-0.947,0.765-1.492,1.214
			c-0.611-0.258-1.242-0.507-1.855-0.784c-2.668-1.214-5.316-2.448-7.994-3.634c-0.918-0.411-1.77-0.879-2.543-1.903
			c-1.436,4.8-1.568,9.515-2.248,14.239c-0.506,0.162-1.004,0.344-1.52,0.479c-2.238,0.573-4.504,1.061-6.723,1.702
			c-3.635,1.052-6.848,0.324-9.783-1.979c-2.123-1.674-3.768-3.739-5.096-6.072c-1.684-2.965-3.318-5.948-4.973-8.932
			c-0.191-0.344-0.336-0.727-0.518-1.109c0.756-0.832,1.75-1.167,2.611-1.664c3.979-2.285,8.205-3.633,12.861-3.184
			c0.574,0.058,1.072-0.048,1.539-0.392c0.326-0.239,0.699-0.43,1.043-0.65c1.721-1.1,3.635-1.989,5.125-3.347
			c1.541-1.406,2.678-3.251,3.959-4.934c0.527-0.698,1.178-1.32,1.502-2.19c-0.602-1.396-1.139-2.802-1.797-4.141
			c-0.537-1.1-0.643-2.19-0.451-3.366c0.23-1.415,0.451-2.83,0.623-4.246c0.066-0.516,0.287-1.071-0.221-1.616
			c-2.229-0.306-4.504-0.698-6.799-0.899c-1.1-0.095-1.74-0.545-2.238-1.453c-0.688-1.253-1.5-2.438-2.17-3.701
			c-0.469-0.89-1.156-1.272-2.113-1.368c-1.281-0.134-2.562-0.373-3.854-0.449c-1.043-0.058-1.809-0.517-2.467-1.262
			c-1.014-1.147-1.645-2.496-2.113-3.93c-0.66-2.027-0.891-4.122-1.053-6.235C327.515,203.671,327.63,200.956,328.06,198.135z
			 M319.464,218.226c-0.422-1.367-0.336-1.884,0.516-2.524c1.08-0.812,2.496-1.004,3.424-0.344c0.545,0.392,1.053,0.88,1.453,1.416
			c1.08,1.434,2.295,2.62,3.998,3.366c1.893,0.841,3.328,2.343,4.627,3.93c2.449,3.002,4.064,6.426,5.031,10.155
			c0.066,0.258,0.057,0.536,0.096,0.957c-1.455,1.425-2.994,2.524-4.695,3.404c-0.604,0.315-1.234,0.583-1.895,0.755
			c-3.91,1.004-6.234-1.167-6.932-4.169c-0.555-2.381-0.918-4.8-1.396-7.344c-0.422,0.105-0.803,0.143-1.139,0.296
			c-1.414,0.65-2.811,1.329-4.293,2.037c-1.166-1.53-1.961-3.146-2.783-4.867c1.512-1.358,3.176-2.419,4.658-3.682
			C320.363,220.358,319.798,219.306,319.464,218.226z M299.498,335.022c0.908-4.896,2.18-9.696,3.566-14.469
			c0.785-2.696,1.225-5.44,1.195-8.262c-0.01-1.176-0.096-2.323-0.717-3.356c-0.545-0.898-0.525-1.846-0.115-2.744
			c0.67-1.482,1.311-3.013,2.162-4.39c2.887-4.676,7.076-7.669,12.363-9.094c1.176-0.315,2.076-0.851,2.84-1.798
			c1.971-2.438,4.055-4.781,6.025-7.229c0.678-0.841,1.453-1.338,2.486-1.635c3.068-0.89,6.119-1.855,9.17-2.792
			c2.688-0.822,5.422-1.263,8.234-1.377c5.096-0.201,10.059,0.382,14.84,2.237c0.803,0.306,1.578,0.344,2.4,0.325
			c2.859-0.038,5.719-0.076,8.568,0.383c2.715,0.439,5.24,1.176,7.459,3.002c3.9,3.194,7.965,6.178,11.963,9.257
			c2.199,1.692,2.199,1.702,4.98,1.635c4.008-0.086,8.004-0.066,11.963,0.698c5.939,17.806,9.199,36.815,9.199,56.591
			c0,60.703-30.352,114.425-76.652,146.88c0.066-0.525,0.201-1.052,0.383-1.587c0.363-1.1,0.697-2.209,1.166-3.271
			c1.406-3.175,2.869-6.321,4.312-9.477c1.588-3.462,3.176-6.933,4.771-10.395c0.986-2.123,1.109-4.312,0.613-6.589
			c-0.584-2.658-1.09-5.335-1.627-8.003c-0.535-2.649-0.564-5.288,0.346-7.87c1.721-4.867,4.053-9.371,7.822-13.024
			c1.176-1.138,2.256-2.362,3.316-3.614c1.377-1.616,2.43-3.452,3.176-5.451c0.947-2.543,1.291-5.115,0.766-7.822
			c-0.412-2.084-1.158-4.054-1.846-6.043c-0.574-1.674-1.186-3.338-1.684-5.03c-0.793-2.734-0.908-5.518-0.162-8.281
			c0.479-1.769,1.109-3.499,1.721-5.23c0.641-1.798,1.367-3.558,2.008-5.354c0.832-2.334,1.311-4.743,1.072-7.22
			c-0.164-1.684-0.459-3.376-0.861-5.021c-0.43-1.77-1.186-2.085-2.84-1.435c-0.631,0.249-1.244,0.555-1.865,0.822
			c-1.941,0.832-3.166,0.469-4.131-0.937c-0.717-1.043-1.789-1.674-3.012-1.989c-1.053-0.277-2.104-0.622-3.176-0.698
			c-3.605-0.258-7.219-0.115-10.824,0.105c-2.648,0.162-5.307,0.238-7.965,0.286c-0.805,0.02-1.617-0.162-2.42-0.315
			c-2.162-0.401-4.18-1.186-6.158-2.123c-3.596-1.702-6.838-3.949-9.945-6.396c-5.039-3.979-9.562-8.53-14.182-12.967
			c-0.621-0.593-1.004-1.311-1.205-2.095c-0.258-0.984-0.467-1.998-0.555-3.003C298.064,344.183,298.636,339.593,299.498,335.022z
			 M281.912,198.355c-1.357,1.147-1.883,2.582-2.275,4.169c-0.135,0.526-0.344,1.023-0.584,1.741
			c-2.781-0.297-5.364-0.794-7.917-1.482c-1.204-0.325-2.266-0.899-3.26-1.616c-0.44-0.315-0.851-0.688-1.186-1.109
			c-1.167-1.425-0.812-3.185,0.87-3.854c3.338-1.319,6.732-2.524,10.099-3.787c0.477-0.182,0.908-0.182,1.367,0.038
			c1.109,0.536,2.15,1.167,2.963,2.113C283.107,195.878,283.222,197.255,281.912,198.355z M240.21,181.926
			c1.214-3.021,2.353-6.072,3.557-9.094c12.613,0.344,24.901,1.989,36.74,4.829c-1.627,2.591-3.223,5.192-4.896,7.679
			c-2.458,0.449-4.724,0.899-7.01,1.252c-0.937,0.144-1.616,0.498-2.228,1.224c-2.496,2.974-5.068,5.891-7.574,8.865
			c-2.189,2.61-4.322,5.269-6.483,7.908c-0.296,0.354-0.641,0.66-0.956,0.985c-1.664-0.603-2.974-1.559-4.179-2.678
			c-2.075-1.941-3.538-4.312-4.638-6.914c-1.473-3.481-2.295-7.115-2.716-10.863C239.694,183.982,239.789,182.979,240.21,181.926z
			 M98.36,292.718c0.096-2.592,0.794-5.04,0.832-7.603c-0.679-0.287-1.301-0.545-1.922-0.812c-3.079-1.319-6.005-2.917-8.625-5.03
			c-1.606-1.291-3.041-2.744-4.131-4.494c-1.415-2.267-2.123-4.695-1.702-7.392c0.239-1.588,0.431-3.175,0.631-4.771
			c30.849-53.388,88.376-89.486,154.253-89.878c0.535,1.167,1.081,2.324,1.606,3.49c0.153,0.354,0.21,0.746,0.315,1.147
			c-2.123,1.635-4.217,3.156-6.206,4.801c-1.989,1.645-3.749,3.547-5.833,5.173c-0.995-1.894-2.534-3.118-4.122-4.284
			c-2.658-1.951-1.731-1.616-5.04-1.511c-2.237,0.076-4.475,0.22-6.579,1.147c-1.138,0.507-2.391,0.487-3.624,0.421
			c-0.937-0.048-1.712-0.402-2.286-1.167c-0.162-0.22-0.296-0.459-0.459-0.679c-0.526-0.679-1.233-0.861-2.008-0.593
			c-0.641,0.22-1.281,0.487-1.836,0.87c-0.957,0.65-1.894,1.348-2.735,2.132c-1.052,0.975-2.19,1.827-3.404,2.601
			c-1.836,1.167-3.653,2.381-5.499,3.538c-0.688,0.43-1.1,0.937-1.214,1.769c-0.182,1.281-0.536,2.534-0.66,3.825
			c-0.172,1.693-0.22,3.404,0.335,5.068c0.746,2.219,2.649,3.194,4.858,2.381c2.629-0.975,5.097-2.266,7.306-4.025
			c1.463-1.167,2.668-2.525,3.337-4.313c0.115-0.315,0.258-0.631,0.439-0.918c0.392-0.612,0.899-0.765,1.568-0.478
			c0.564,0.249,1.1,0.545,1.645,0.812c1.386,0.669,2.773,0.631,4.112-0.124c0.708-0.402,1.377-0.87,2.008-1.387
			c0.583-0.468,1.09-1.033,1.616-1.568c0.87-0.889,1.875-1.578,3.031-2.046c2.161-0.871,3.71-0.469,4.954,1.472
			c0.947,1.482,2.161,2.611,3.586,3.577c0.622,0.421,1.224,0.87,1.759,1.387c0.851,0.812,1.119,1.816,0.842,2.983
			c-0.306,1.281-0.947,2.4-1.635,3.5c-0.574,0.927-1.167,1.836-1.693,2.792c-0.258,0.469-0.401,1.014-0.507,1.54
			c-0.115,0.555,0.402,1.128,0.976,1.033c0.727-0.124,1.444-0.373,2.161-0.574c0.43-0.115,0.851-0.229,1.492-0.411
			c-0.239,4.246-0.88,8.167-2.917,11.752c-0.363,0.641-0.832,1.262-1.358,1.778c-1.521,1.473-3.309,2.085-5.432,1.568
			c-1.473-0.363-2.821-0.889-3.978-1.951c-2.266-2.075-4.36-1.827-6.397,0.392c-0.641,0.698-1.195,1.501-1.635,2.333
			c-0.45,0.87-1.109,1.301-2.008,1.549c-3.987,1.081-8.023,1.54-12.135,0.985c-0.688-0.096-1.329-0.057-2.008,0.144
			c-2.601,0.784-5.23,1.511-7.841,2.257c-1.052,0.296-2.046,0.708-2.984,1.291c-1.74,1.071-3.586,1.96-5.546,2.582
			c-1.989,0.622-3.988,0.966-5.9-0.42c-6.235,5.211-13.167,9.017-20.903,11.484c-0.459,2.897-0.899,5.709-1.349,8.53
			c-0.545,3.433-1.071,6.866-1.625,10.289c-0.144,0.87-0.497,1.195-1.291,1.33c-0.928,0.153-1.817-0.01-2.429-0.746
			c-0.612-0.727-1.176-1.501-1.606-2.343c-1.09-2.142-1.76-4.456-2.008-6.828c-0.354-3.318-2.104-5.556-4.963-6.99
			c-3.768-1.884-7.793-2.515-11.924-1.788c-6.79,1.195-12.594,4.36-17.26,9.429c-3.95,4.284-3.902,4.284-5.011,10.203
			c-0.383,2.065-0.431,4.208,0.229,6.283c0.679,2.123,2.075,3.442,4.284,3.92c1.147,0.249,2.286,0.354,3.443,0.105
			c1.262-0.268,2.524-0.545,3.787-0.784c0.382-0.076,0.832-0.144,1.167-0.01c0.956,0.383,1.798,0.966,2.438,1.798
			c0.803,1.052,1.023,2.19,0.469,3.452c-0.421,0.956-1.023,1.779-1.808,2.448c-0.985,0.842-2.037,1.597-3.069,2.381
			c-0.431,0.325-0.928,0.593-1.32,0.956c-1.673,1.568-1.645,3.443,0.067,4.935c0.411,0.354,0.88,0.641,1.339,0.938
			c0.392,0.248,0.803,0.468,1.262,0.727c-0.115,1.233-0.191,2.391-0.325,3.528c-0.354,2.993-0.373,5.996-0.21,8.989
			c0.153,2.858,1.387,5.278,3.729,6.98c1.54,1.118,3.185,2.104,4.858,3.012c0.947,0.517,2.008,0.832,3.06,1.109
			c3.079,0.804,5.833,0.115,8.071-2.161c0.937-0.956,1.711-2.113,2.429-3.261c1.339-2.123,3.28-3.012,5.728-2.524
			c1.319,0.268,2.448,0.908,3.366,1.826c1.138,1.138,2.505,1.846,3.921,2.524c1.903,0.918,3.787,1.865,5.699,2.764
			c0.669,0.315,1.386,0.545,2.104,0.727c5.384,1.358,9.993,3.959,13.397,8.425c0.708,0.928,1.511,1.444,2.573,1.817
			c5.058,1.769,9.696,4.322,13.846,7.717c5.231,4.284,9.161,9.505,11.179,16.026c0.478,1.53,1.157,2.821,2.305,3.979
			c1.1,1.1,2.008,2.409,2.83,3.738c1.109,1.788,2.066,3.682,3.089,5.527c0.258,0.469,0.526,0.928,0.755,1.329
			c0.985,0.201,1.855,0.354,2.716,0.545c5.766,1.281,11.198,3.376,16.123,6.675c2.562,1.722,4.848,3.749,6.828,6.12
			c0.545,0.65,0.86,1.319,0.879,2.199c0.115,7.765-2.706,14.076-9.18,18.57c-0.832,0.574-1.329,1.272-1.673,2.209
			c-1.664,4.533-3.376,9.065-5.106,13.569c-0.316,0.812-0.727,1.616-1.234,2.333c-2.285,3.232-4.638,6.407-6.904,9.64
			c-0.727,1.032-1.606,1.845-2.716,2.419c-0.842,0.439-1.683,0.898-2.543,1.301c-3.156,1.491-6.445,2.553-9.859,3.251
			c-0.898,0.182-1.606,0.535-2.199,1.31c-2.257,2.993-4.59,5.929-6.895,8.894c-0.249,0.325-0.507,0.65-0.708,1.004
			c-2.209,4.083-4.906,7.851-7.449,11.733c-0.574,0.88-1.281,1.559-2.151,2.133c-3.691,2.447-7.373,4.905-11.035,7.401
			c-1.062,0.727-2.075,1.549-3.012,2.429c-1.846,1.721-3.634,3.5-5.403,5.288c-0.469,0.469-0.909,1.032-1.186,1.625
			c-1.721,3.711-3.375,7.439-5.097,11.15c-0.363,0.794-0.43,1.539-0.277,2.371c1.157,6.158,2.314,12.316,3.452,18.475
			c0.134,0.718,0.287,1.444,0.277,2.171c-0.679,0.028-1.052,0.028-1.396-0.01c-3.146-1.836-6.244-3.738-9.266-5.756
			c-4.466-4.141-7.947-9.056-11.007-14.306c-0.296-0.507-0.449-1.139-0.535-1.731c-0.708-4.848-1.406-9.705-2.075-14.563
			c-0.086-0.631-0.296-1.166-0.641-1.692c-0.813-1.214-1.167-2.582-1.435-4.007c-0.631-3.347-0.258-6.655,0.229-9.964
			c0.583-3.911,1.176-7.812,1.769-11.714c0.086-0.555,0.039-1.052-0.315-1.54c-0.966-1.31-1.243-2.84-1.339-4.437
			c-0.172-3.031,0.363-5.967,1.128-8.884c0.277-1.052,0.526-2.113,0.679-3.185c0.526-3.5,1.004-7.009,1.482-10.519
			c0.201-1.473,0.354-2.955,0.517-4.36c-0.316-0.287-0.517-0.479-0.717-0.66c-1.96-1.645-3.108-3.748-3.586-6.254
			c-0.344-1.759-0.335-3.528-0.01-5.278c0.239-1.319,0.555-2.63,0.842-3.959c-0.688-0.469-1.31-0.889-1.913-1.319
			c-2.964-2.095-5.718-4.418-8.033-7.239c-2.381-2.897-4.724-5.823-7.019-8.787c-0.909-1.177-1.731-2.458-2.4-3.787
			c-1.1-2.171-1.635-4.485-1.081-6.923c0.125-0.564,0.019-1.062-0.172-1.588c-1.406-3.93-1.578-8.004-1.253-12.106
			c0.22-2.83,0.976-5.488,2.582-7.869c0.995-1.473,1.932-2.975,2.955-4.418c1.808-2.563,3.634-5.116,5.479-7.641
			c1.807-2.477,2.831-5.25,3.356-8.243c0.239-1.357,0.382-2.706,0.258-4.063c-0.201-2.104-0.938-3.959-2.754-5.25
			c-1.999-1.415-3.92-2.945-5.948-4.322c-1.042-0.708-1.54-1.636-1.807-2.812c-0.65-2.783-1.416-5.537-2.056-8.329
			c-0.22-0.985-0.641-1.75-1.415-2.391c-1.214-0.994-2.362-2.056-3.538-3.099C99.221,293.55,98.79,293.119,98.36,292.718z
			 M150.514,286.827c0.344-0.211,0.708-0.401,1.081-0.574c1.358-0.631,2.716-1.252,4.074-1.874c1.052-0.487,2.094-0.966,3.146-1.453
			c0.306-0.144,0.622-0.239,1.023-0.393c1.061,0.67,2.189,1.291,3.222,2.047l0.01,0.01c1.071,0.784,2.362,0.984,3.739,1.577
			c-0.344,1.654-0.468,3.204-1.501,4.514c-0.574-0.21-1.033-0.335-1.454-0.535c-2.314-1.129-4.771-1.55-7.315-1.521
			c-0.889,0.01-1.769,0.066-2.649,0.066c-1.023,0-2.046-0.009-3.06-0.066c-0.517-0.029-1.215,0.066-1.32-0.65
			C149.424,287.324,150.064,287.104,150.514,286.827z M145.771,277.379c-4.036-0.563-8.062-1.243-12.087-1.922
			c-1.186-0.2-2.419-0.411-3.328-1.339c0.899-2.936,2.821-4.465,5.699-4.762c2.018-0.21,3.815,0.191,5.307,1.568
			c2.324,2.151,5.059,3.012,8.195,3.051c1.616,0.019,3.232,0.401,4.819,0.735c0.555,0.115,1.119,0.498,1.549,0.89
			c0.325,0.306,0.392,0.736,0.268,1.109c-0.105,0.325-0.334,0.612-0.708,0.698c-1.042,0.268-2.142,0.507-3.213,0.469
			c-0.631-0.02-1.272-0.058-1.913-0.096C148.84,277.704,147.301,277.59,145.771,277.379z"/>
		<path d="M353.373,129.715c0.248,1.425,1.139,2.668,2.41,3.366c0.469,0.249,46.693,26.058,76.451,82.553
			c39.514,74.989,31.682,169.744-22.615,274.023c-1.051,2.027-0.525,4.532,1.271,5.957c0.871,0.688,1.924,1.033,2.975,1.033
			c1.109,0,2.219-0.393,3.117-1.157c1.119-0.966,111.738-97.92,85.26-245.899c-16.84-96.256-79.607-139.938-103.246-156.385
			c-2.535-1.769-4.609-3.204-6.129-4.37c-2-1.54-4.85-1.262-6.514,0.631l-31.871,36.261
			C353.525,126.818,353.115,128.291,353.373,129.715z"/>
		<path d="M246.397,100.961c1.454,2.524,4.274,3.949,7.182,3.643l31.718-3.452l12.863,29.185c1.186,2.677,3.824,4.398,6.75,4.398
			s5.566-1.721,6.742-4.398l12.881-29.185l31.709,3.452c2.85,0.306,5.729-1.119,7.182-3.643c1.453-2.534,1.291-5.69-0.439-8.042
			l-18.84-25.733l18.84-25.742c1.73-2.362,1.893-5.518,0.439-8.042c-1.453-2.525-4.332-3.988-7.182-3.644l-31.709,3.443
			L311.652,4.016c-2.354-5.355-11.121-5.355-13.492,0l-12.854,29.185l-31.718-3.452c-2.907-0.344-5.728,1.109-7.181,3.643
			c-1.454,2.534-1.291,5.69,0.439,8.042l18.838,25.742l-18.838,25.733C245.116,95.271,244.943,98.427,246.397,100.961z
			 M286.865,67.023C286.798,56.38,295.367,47.698,306,47.631c10.635-0.067,19.326,8.501,19.393,19.134
			c0.068,10.643-8.5,19.326-19.135,19.393C295.625,86.225,286.933,77.667,286.865,67.023z"/>
	</g>
</g>
<g>
</g>
<g>
</g>
<g>
</g>
<g>
</g>
<g>
</g>
<g>
</g>
<g>
</g>
<g>
</g>
<g>
</g>
<g>
</g>
<g>
</g>
<g>
</g>
<g>
</g>
<g>
</g>
<g>
</g>
</svg>
