<?xml version="1.0" encoding="iso-8859-1"?>
<!-- Generator: Adobe Illustrator 16.0.0, SVG Export Plug-In . SVG Version: 6.00 Build 0)  -->
<!DOCTYPE svg PUBLIC "-//W3C//DTD SVG 1.1//EN" "http://www.w3.org/Graphics/SVG/1.1/DTD/svg11.dtd">
<svg version="1.1" id="Capa_1" xmlns="http://www.w3.org/2000/svg" xmlns:xlink="http://www.w3.org/1999/xlink" x="0px" y="0px"
	 width="574.888px" height="574.888px" viewBox="0 0 574.888 574.888" style="enable-background:new 0 0 574.888 574.888;"
	 xml:space="preserve">
<g>
	<g>
		<path d="M287.669,362.701c42.027,0.029,76.127-34.014,76.155-76.05c0.029-42.027-34.014-76.127-76.05-76.156
			c-42.027-0.029-76.127,34.014-76.156,76.05C211.59,328.572,245.642,362.673,287.669,362.701z M340.473,285.666
			c3.663,0.736,6.513,3.271,8.205,6.465c0.258,0.459,0.401,0.946,0.612,1.434c0.286,0.708,0.507,1.426,0.679,2.172
			c0.555,2.236,0.803,4.59,0.373,7.008c-3.3,18.361-16.429,34.129-34.951,38.346c-6.369,1.455-12.709-1.482-15.559-7.229
			c-1.032-1.301-1.893-2.83-2.467-4.715c-3.614-11.904-0.812-26.354,8.979-34.701C316.193,286.058,327.755,283.122,340.473,285.666z
			 M228.496,287.445c0-34.464,26.45-62.51,58.943-62.51c5.288,0,9.562,4.284,9.562,9.562c0,5.278-4.274,9.562-9.562,9.562
			c-21.956,0-39.818,19.459-39.818,43.385c0,5.277-4.274,9.562-9.562,9.562S228.496,292.722,228.496,287.445z"/>
		<path d="M287.439,457.943c204.6,0,287.448-144.9,287.448-168.988c0-26.975-103.59-172.01-287.448-172.01
			C96.505,116.945,0,259.904,0,288.955C0,317.49,96.505,457.943,287.439,457.943z M286.779,156.17
			c72.503,0.048,131.227,58.867,131.179,131.36c-0.048,72.502-58.867,131.227-131.36,131.178
			c-72.503-0.047-131.226-58.867-131.178-131.359C155.467,214.855,214.286,156.123,286.779,156.17z"/>
	</g>
</g>
<g>
</g>
<g>
</g>
<g>
</g>
<g>
</g>
<g>
</g>
<g>
</g>
<g>
</g>
<g>
</g>
<g>
</g>
<g>
</g>
<g>
</g>
<g>
</g>
<g>
</g>
<g>
</g>
<g>
</g>
</svg>
