<?xml version="1.0" encoding="iso-8859-1"?>
<!-- Generator: Adobe Illustrator 16.0.0, SVG Export Plug-In . SVG Version: 6.00 Build 0)  -->
<!DOCTYPE svg PUBLIC "-//W3C//DTD SVG 1.1//EN" "http://www.w3.org/Graphics/SVG/1.1/DTD/svg11.dtd">
<svg version="1.1" id="Capa_1" xmlns="http://www.w3.org/2000/svg" xmlns:xlink="http://www.w3.org/1999/xlink" x="0px" y="0px"
	 width="598.124px" height="598.125px" viewBox="0 0 598.124 598.125" style="enable-background:new 0 0 598.124 598.125;"
	 xml:space="preserve">
<g>
	<g>
		<path d="M434.252,558.438c0.067,0,0.134,0,0.191,0c2.64,0,4.781-2.142,4.781-4.781c0-0.535-0.086-1.042-0.248-1.521
			c-2.735-36.815-103.553-82.868-217.844-84.6V309.813h210.375h4.781c2.64,0,4.781-2.142,4.781-4.781V161.594
			c0-2.639-2.142-4.781-4.781-4.781H197.227c-2.639,0-4.781,2.142-4.781,4.781v4.781V468.35C81.989,474.938,0,518.41,0,553.657
			c0,2.64,2.142,4.781,4.781,4.781H434.252L434.252,558.438z M277.762,211.998c-0.994-1.358-1.09-3.165-0.249-4.619
			c0.832-1.444,2.438-2.295,4.122-2.094l23.352,2.534l9.477-21.506c1.357-3.07,6.397-3.07,7.755,0l9.477,21.506l23.361-2.534
			c1.712-0.191,3.289,0.641,4.121,2.094c0.842,1.454,0.746,3.261-0.248,4.619l-13.885,18.953l13.885,18.953
			c0.994,1.358,1.09,3.166,0.248,4.619c-0.832,1.453-2.429,2.313-4.121,2.094l-23.361-2.544l-9.477,21.507
			c-0.679,1.539-2.199,2.524-3.872,2.524c-1.674,0-3.194-0.995-3.873-2.524l-9.477-21.507l-23.352,2.544
			c-1.674,0.229-3.29-0.631-4.122-2.094c-0.841-1.454-0.746-3.261,0.249-4.619l13.875-18.953L277.762,211.998z"/>
		<path d="M111.767,107.202l18.389,4.619l6.627,17.767c0.841,2.257,2.897,3.844,5.288,4.083c0.21,0.019,0.43,0.029,0.641,0.029
			c2.161,0,4.198-1.109,5.364-2.965l10.079-16.074l18.943-0.803c2.4-0.105,4.542-1.568,5.518-3.768
			c0.975-2.2,0.602-4.772-0.938-6.618l-12.163-14.544l5.087-18.274c0.641-2.324-0.086-4.8-1.874-6.407
			c-1.798-1.597-4.341-2.046-6.579-1.157l-17.595,7.076l-15.797-10.48c-1.999-1.329-4.6-1.406-6.675-0.201
			c-2.084,1.205-3.299,3.5-3.136,5.9l1.291,18.924L109.385,96.1c-1.884,1.492-2.754,3.94-2.247,6.292
			C107.636,104.764,109.433,106.619,111.767,107.202z"/>
		<path d="M526.903,286.557l18.686,3.098l7.937,16.974c1.004,2.19,3.165,3.185,5.575,3.185c0.057,0,0.114,0,0.172,0
			c2.343,0,4.504-0.804,5.594-2.878l8.846-16.276l18.828-2.229c2.391-0.287,4.418-1.903,5.222-4.169
			c0.803-2.267,0.248-4.801-1.425-6.531l-13.226-13.589l3.701-18.589c0.469-2.362-0.439-4.791-2.353-6.254
			c-1.912-1.463-4.504-1.722-6.646-0.66l-17.012,8.377l-16.543-9.266c-2.104-1.186-4.687-1.062-6.675,0.306
			c-1.989,1.367-3.022,3.729-2.678,6.11l2.706,18.762l-13.923,12.861c-1.77,1.636-2.458,4.103-1.77,6.417
			C522.591,284.491,524.532,286.155,526.903,286.557z"/>
		<path d="M362.18,365.496c-0.574-2.343-2.419-4.16-4.771-4.676l-12.584-2.821l-4.811-11.963c-0.898-2.228-2.983-3.768-5.384-3.949
			c-2.495-0.239-4.704,1.014-5.929,3.089l-6.569,11.093l-12.861,0.879c-2.4,0.163-4.504,1.674-5.422,3.902
			c-0.918,2.228-0.487,4.781,1.1,6.588l8.521,9.678l-3.137,12.508c-0.593,2.333,0.2,4.8,2.036,6.358
			c1.837,1.568,4.399,1.941,6.608,0.995l11.838-5.116l10.921,6.847c1.022,0.641,2.189,0.966,3.366,0.966
			c1.147,0,2.304-0.315,3.317-0.937c2.047-1.263,3.204-3.586,2.983-5.977l-1.204-12.833l9.888-8.271
			C361.94,370.305,362.754,367.838,362.18,365.496z"/>
		<path d="M420.233,75.771l11.801,5.183l2.419,12.661c0.449,2.372,2.209,4.274,4.532,4.916c0.555,0.153,1.129,0.229,1.684,0.229
			c1.778,0,3.5-0.756,4.724-2.113l8.577-9.62l12.795,1.606c2.419,0.335,4.753-0.774,6.072-2.792c1.329-2.008,1.396-4.6,0.182-6.675
			l-6.503-11.141l5.489-11.666c1.023-2.18,0.727-4.752-0.774-6.636s-3.949-2.754-6.292-2.238l-12.604,2.745l-9.391-8.826
			c-1.76-1.654-4.303-2.161-6.55-1.31c-2.257,0.841-3.835,2.897-4.074,5.297l-1.291,12.833l-11.303,6.215
			c-2.113,1.157-3.385,3.414-3.271,5.824C416.571,72.672,418.024,74.805,420.233,75.771z"/>
	</g>
</g>
<g>
</g>
<g>
</g>
<g>
</g>
<g>
</g>
<g>
</g>
<g>
</g>
<g>
</g>
<g>
</g>
<g>
</g>
<g>
</g>
<g>
</g>
<g>
</g>
<g>
</g>
<g>
</g>
<g>
</g>
</svg>
