<?xml version="1.0" encoding="iso-8859-1"?>
<!-- Generator: Adobe Illustrator 16.0.0, SVG Export Plug-In . SVG Version: 6.00 Build 0)  -->
<!DOCTYPE svg PUBLIC "-//W3C//DTD SVG 1.1//EN" "http://www.w3.org/Graphics/SVG/1.1/DTD/svg11.dtd">
<svg version="1.1" id="Capa_1" xmlns="http://www.w3.org/2000/svg" xmlns:xlink="http://www.w3.org/1999/xlink" x="0px" y="0px"
	 width="573.75px" height="573.75px" viewBox="0 0 573.75 573.75" style="enable-background:new 0 0 573.75 573.75;"
	 xml:space="preserve">
<g>
	<g>
		<path d="M112.646,225.254c-1.712,1.788-2.678,4.16-2.678,6.636v45.422c0,5.278,4.274,9.562,9.562,9.562h89.715l26.048,52.087
			c1.616,3.241,4.925,5.288,8.549,5.288H332c3.625,0,6.934-2.047,8.559-5.288l26.039-52.087h87.621c5.288,0,9.562-4.284,9.562-9.562
			v-45.422c0-2.467-0.956-4.839-2.658-6.617l-96.122-100.272C357.57,17.203,295.529,0.918,292.871,0.268
			C292.125,0.086,291.369,0,290.614,0h-6.427c-0.755,0-1.501,0.086-2.237,0.268c-2.677,0.641-65.216,16.926-72.675,124.724
			L112.646,225.254z M259.383,77.093c0-14.19,12.039-25.704,26.89-25.704s26.89,11.504,26.89,25.704s-12.039,25.704-26.89,25.704
			S259.383,91.293,259.383,77.093z"/>
		<path d="M396.844,573.75h76.5c5.288,0,9.562-4.274,9.562-9.562v-153c0-2.429-0.928-4.771-2.592-6.541l-35.859-38.25
			c-1.807-1.932-4.331-3.021-6.971-3.021H136.266c-2.639,0-5.164,1.09-6.971,3.021l-35.859,38.25
			c-1.664,1.77-2.591,4.112-2.591,6.541v153c0,5.288,4.274,9.562,9.562,9.562h76.5c5.288,0,9.562-4.274,9.562-9.562V500.97
			l47.229-51.532h106.345l47.238,51.532v63.218C387.281,569.476,391.556,573.75,396.844,573.75z"/>
		<path d="M279.263,459c-0.009,0-0.019,0-0.029,0c-13.177,0-23.304,8.31-28.515,20.895c-6.98,16.829-3.567,42.495,7.296,53.779
			c13.875,14.43,19.488,36.251,19.545,36.471c0.517,2.047,2.333,3.605,4.447,3.605c0.067,0,0.134,0,0.191,0
			c2.046,0,3.873-1.435,4.533-3.385l0.545-1.817c1.77-5.623,5.04-16.352,21.812-38.709c10.892-14.535,13.071-34.138,5.556-49.17
			C308.085,467.549,295.491,459,279.263,459z"/>
	</g>
</g>
<g>
</g>
<g>
</g>
<g>
</g>
<g>
</g>
<g>
</g>
<g>
</g>
<g>
</g>
<g>
</g>
<g>
</g>
<g>
</g>
<g>
</g>
<g>
</g>
<g>
</g>
<g>
</g>
<g>
</g>
</svg>
