<?xml version="1.0" encoding="iso-8859-1"?>
<!-- Generator: Adobe Illustrator 16.0.0, SVG Export Plug-In . SVG Version: 6.00 Build 0)  -->
<!DOCTYPE svg PUBLIC "-//W3C//DTD SVG 1.1//EN" "http://www.w3.org/Graphics/SVG/1.1/DTD/svg11.dtd">
<svg version="1.1" id="Capa_1" xmlns="http://www.w3.org/2000/svg" xmlns:xlink="http://www.w3.org/1999/xlink" x="0px" y="0px"
	 width="593.34px" height="593.34px" viewBox="0 0 593.34 593.34" style="enable-background:new 0 0 593.34 593.34;"
	 xml:space="preserve">
<g>
	<g>
		<path d="M209.333,144.98c22.74,0,41.243-18.503,41.243-41.243c0-22.749-18.503-41.252-41.243-41.252
			c-22.749,0-41.253,18.503-41.253,41.252C168.08,126.477,186.583,144.98,209.333,144.98z"/>
		<path d="M584.574,109.35c-2.791,1.329-42.084,13.407-100.186-22.902c-59.709-36.959-95.846-45.623-113.172-47.315
			c-2.018-2.62-5.814-6.254-12.154-6.254c-9.354,0-16.41,7.506-16.41,17.461l0,0v96.858c-1.291,0.325-2.256,1.109-3.059,1.798
			c-0.154,0.086-0.307,0.172-0.451,0.268H175.309c-1.511,0-2.936,0.717-3.834,1.922l-67.578,96.591
			c-1.262,2.084-4.188,7.334-4.188,11.16c0,11.226,10.261,21.065,21.965,21.065c4.045,0,9.324-0.803,14-6.799l2.764-3.098
			l32.092-46.818v42.706v12.689v133.56c0,0,0,6.226,0,7.172c0,1.492,0.315,2.764,0.517,4.121c0.497,3.318,1.367,6.369,3.031,8.826
			C66.392,452.653,0,499.442,0,555.68c0,2.64,2.142,4.781,4.781,4.781l0,0h570.834l0,0c0.066,0,0.123,0,0.191,0
			c2.639,0,4.781-2.142,4.781-4.781c0-0.487-0.078-0.956-0.201-1.396c-1.281-58.397-82.734-109.72-199.484-125.813V186.28
			c1.74-0.067,3.559-0.105,5.451-0.105c25.217,0,49.562,6.56,72.035,19.288c61.4,41.664,99.305,47.889,116.441,47.889l0,0
			c9.295,0,13.99-1.74,14.496-1.941c1.799-0.708,2.994-2.429,3.031-4.361c2.42-132.44-0.182-135.08-1.902-136.839
			C589.068,108.795,586.391,108.499,584.574,109.35z M444.781,134.079c-0.555-0.861-0.564-1.96-0.039-2.831s1.549-1.31,2.516-1.291
			l24.422,2.046l15.529-18.953c0.65-0.794,1.693-1.128,2.678-0.918c0.994,0.229,1.77,1.004,1.998,1.999l5.604,23.858l22.826,8.922
			c0.947,0.373,1.607,1.243,1.693,2.266c0.086,1.014-0.402,1.989-1.281,2.524l-20.961,12.699l-1.426,24.47
			c-0.057,1.014-0.688,1.913-1.625,2.314c-0.336,0.143-0.689,0.21-1.043,0.21c-0.631,0-1.252-0.22-1.75-0.65l-18.551-16.017
			l-23.705,6.196c-0.986,0.277-2.037-0.067-2.697-0.832c-0.67-0.774-0.842-1.855-0.449-2.792l9.496-22.596L444.781,134.079z
			 M337.355,424.396c-15.674-1.281-30.486-2.486-46.024-2.486c-25.226,0-50.165,1.357-74.272,4.045
			c0.966-4.007,1.425-8.816,1.425-14.611c0-0.698-0.039-2.19-0.077-3.673l-0.067-124.522h3.997l40.411,115.907
			c0.105,0.287,0.239,0.573,0.402,0.842c4.619,10.758,17.04,16.973,28.41,13.913c6.254-1.664,11.246-5.46,14.047-10.682
			c2.717-5.059,3.299-11.273,1.625-17.527c-0.486-1.817-1.807-4.504-2.648-6.054L256.59,265.516v-77.992h86.062v237.293
			L337.355,424.396z"/>
	</g>
</g>
<g>
</g>
<g>
</g>
<g>
</g>
<g>
</g>
<g>
</g>
<g>
</g>
<g>
</g>
<g>
</g>
<g>
</g>
<g>
</g>
<g>
</g>
<g>
</g>
<g>
</g>
<g>
</g>
<g>
</g>
</svg>
