<?xml version="1.0" encoding="iso-8859-1"?>
<!-- Generator: Adobe Illustrator 16.0.0, SVG Export Plug-In . SVG Version: 6.00 Build 0)  -->
<!DOCTYPE svg PUBLIC "-//W3C//DTD SVG 1.1//EN" "http://www.w3.org/Graphics/SVG/1.1/DTD/svg11.dtd">
<svg version="1.1" id="Capa_1" xmlns="http://www.w3.org/2000/svg" xmlns:xlink="http://www.w3.org/1999/xlink" x="0px" y="0px"
	 width="535.385px" height="535.385px" viewBox="0 0 535.385 535.385" style="enable-background:new 0 0 535.385 535.385;"
	 xml:space="preserve">
<g>
	<g>
		<path d="M99.144,145.312c-16.361-4.829-54.143-3.902-79.933,34.071c-31.872,46.914-1.454,95.529-0.144,97.576
			c1.826,2.85,4.915,4.408,8.061,4.408c1.769,0,3.548-0.488,5.145-1.512c4.447-2.84,5.747-8.758,2.897-13.205
			c-0.249-0.392-24.996-39.933-0.143-76.529c24.164-35.572,57.289-26.871,58.771-26.459c5.078,1.463,10.337-1.434,11.819-6.493
			C107.11,152.111,104.212,146.794,99.144,145.312z"/>
		<path d="M87.889,201.816c5.001,1.664,10.385-1.071,12.049-6.062c1.673-5.001-1.033-10.423-6.043-12.097
			c-10.882-3.653-34.645-4.705-46.837,17.155c-13.904,24.92-0.708,50.987-0.144,52.087c1.702,3.299,5.04,5.173,8.501,5.173
			c1.482,0,2.983-0.344,4.389-1.071c4.686-2.429,6.521-8.195,4.093-12.891c-0.096-0.182-8.951-18.178-0.144-33.976
			C71.097,196.978,86.12,201.262,87.889,201.816z"/>
		<path d="M151.365,147.473c-1.425,0.143-2.715,0.918-3.509,2.104L40.077,310.389c-0.717,1.072-0.976,2.4-0.698,3.662
			c0.277,1.264,1.052,2.363,2.152,3.051c0.497,0.307,12.45,7.574,31.479,7.574c16.801,0,42.448-5.93,70.734-33.393l23.868,26.938
			c-10.624,19.277-20.359,40.049-28.257,60.512c-0.478,1.234-0.421,2.381,0.163,3.566c0.583,1.195,1.625,1.635,2.888,2.027
			c40.899,12.623,106.058,26.746,184.269,26.746c0.01,0,0.01,0,0.02,0c61.162,0,120.707-8.367,176.944-26.67
			c1.272-0.41,2.314-0.42,2.869-1.635s0.583-2.611,0.058-3.844c-11.581-27.512-27.492-59.393-48.616-97.461
			C398.25,173.846,357.514,150.772,336.304,147.836v-9.562c44.676,6.455,87.162,9.524,105.723,10.863l2.113,0.163
			c2.524,0.182,4.849,0.258,6.99,0.258c11.533,0,19.813-2.438,24.604-7.249c3.825-3.854,4.007-7.812,4.007-8.549V13.636
			C479.741,0,457.738,0,449.457,0c-62.816,0-215.319,39.168-221.563,40.784c-11.542,2.419-19.985,10.184-24.04,17.7l-17.117,0.134
			c-7.755,0-12.996,4.886-12.996,12.164c0,0.009,0,0.019,0,0.028c0,0,0,0,0,0.01l0,0v1.587l0,0c0,0.01,0,0.019,0,0.029
			c0.019,13.464,9.429,13.512,13.464,13.512c0.01,0,0.029,0,0.048,0l14.841,0.115c4.494,19.135,36.022,34.167,95.959,45.795v24.394
			c-21.496,14.42-57.92,48.664-86.541,86.818l-40.603-2.171c5.393-16.323,15.797-60.406-15.692-92.029
			C154.205,147.855,152.771,147.416,151.365,147.473z"/>
		<path d="M517.035,400.773c-1.147-0.574-2.486-0.641-3.701-0.219c-59.077,20.865-121.931,31.441-186.822,31.441
			c-87.172,0-158.135-19.316-192.675-30.83c-1.243-0.393-2.61-0.307-3.768,0.324c-1.157,0.613-2.008,1.693-2.362,2.955
			c-3.95,14.488-6.245,26.871-6.837,36.836c-1.635,27.674,5.336,49.973,20.722,66.297c25.933,27.492,66.077,27.807,67.779,27.807
			l0,0c0,0,90.079,0,224.613,0l0,0c42.133,0,69.816-9.926,84.628-30.352c15.788-21.773,16.075-54.965,0.861-101.457
			C519.071,402.352,518.192,401.338,517.035,400.773z"/>
	</g>
</g>
<g>
</g>
<g>
</g>
<g>
</g>
<g>
</g>
<g>
</g>
<g>
</g>
<g>
</g>
<g>
</g>
<g>
</g>
<g>
</g>
<g>
</g>
<g>
</g>
<g>
</g>
<g>
</g>
<g>
</g>
</svg>
