<?xml version="1.0" encoding="iso-8859-1"?>
<!-- Generator: Adobe Illustrator 16.0.0, SVG Export Plug-In . SVG Version: 6.00 Build 0)  -->
<!DOCTYPE svg PUBLIC "-//W3C//DTD SVG 1.1//EN" "http://www.w3.org/Graphics/SVG/1.1/DTD/svg11.dtd">
<svg version="1.1" id="Capa_1" xmlns="http://www.w3.org/2000/svg" xmlns:xlink="http://www.w3.org/1999/xlink" x="0px" y="0px"
	 width="575.356px" height="575.356px" viewBox="0 0 575.356 575.356" style="enable-background:new 0 0 575.356 575.356;"
	 xml:space="preserve">
<g>
	<g>
		<path d="M89.48,476.748c1.3,1.31,3.002,1.97,4.714,1.97c1.683,0,3.356-0.631,4.647-1.903l141.257-139.393l52.384,50.939
			c1.262,1.225,2.945,1.827,4.704,1.875c1.76-0.02,3.424-0.746,4.647-1.999l85.986-88.434c2.553-2.62,2.486-6.809-0.134-9.362
			l-45.412-44.169L492.98,97.442c2.601-2.572,2.629-6.761,0.057-9.362L407.998,1.97c-1.233-1.252-2.916-1.96-4.666-1.97
			c-1.77,0.334-3.442,0.669-4.695,1.903L246.018,152.627l-89.151-87.698c-1.252-1.224-2.926-1.606-4.714-1.893
			c-1.759,0.019-3.442,0.736-4.667,1.999L61.51,153.459c-2.544,2.61-2.496,6.77,0.105,9.333l82.247,80.975L4.507,381.276
			c-1.243,1.233-1.96,2.916-1.97,4.666c-0.009,1.76,0.669,3.442,1.903,4.695L89.48,476.748z"/>
		<path d="M346.673,355.906c-53.626,57.098-82.831,124.418-74.406,171.494c0.478,2.688,2.419,4.877,5.021,5.681
			c0.708,0.22,1.425,0.324,2.151,0.324c1.932,0,3.815-0.774,5.202-2.189l110.17-112.436l47.736,35.965
			c-1.157,2.725-1.77,5.651-1.77,8.653c0,12.394,10.079,22.472,22.472,22.472c12.394,0,22.472-10.078,22.472-22.472
			c0-12.383-10.078-22.472-22.472-22.472c-2.582,0-5.125,0.479-7.554,1.406l-36.587-48.349l107.024-109.213
			c1.826-1.865,2.524-4.581,1.797-7.096c-0.727-2.515-2.734-4.456-5.278-5.078c-6.12-1.501-12.766-2.257-19.766-2.257
			C456.116,270.332,396.255,303.122,346.673,355.906z"/>
		<path d="M443.561,522.103c-4.026,0.029-7.268,3.462-7.239,7.479c0.038,4.007,3.29,7.525,7.296,7.525c0.02,0,0.039,0,0.048,0
			c54.688,0,98.857-44.322,98.466-98.131c-0.029-4.006-3.29-7.057-7.287-7.057c-0.02,0-0.038,0-0.048,0
			c-4.025,0-7.268,2.926-7.238,6.942C527.892,484.637,490.216,521.759,443.561,522.103z"/>
		<path d="M456.346,560.43c-4.026,0.028-7.268,3.433-7.239,7.458c0.038,4.007,3.289,7.469,7.286,7.469c0.02,0,0.029,0,0.048,0
			c25.877,0,54.698-15.836,79.082-42.524c23.543-25.762,37.485-56.667,37.294-82.275c-0.028-4.026-3.165-7.038-7.344-7.229
			c-4.017,0.028-7.258,3.337-7.229,7.363c0.163,21.697-12.67,49.361-33.479,72.14C503.431,546.182,477.852,560.276,456.346,560.43z"
			/>
	</g>
</g>
<g>
</g>
<g>
</g>
<g>
</g>
<g>
</g>
<g>
</g>
<g>
</g>
<g>
</g>
<g>
</g>
<g>
</g>
<g>
</g>
<g>
</g>
<g>
</g>
<g>
</g>
<g>
</g>
<g>
</g>
</svg>
