<?xml version="1.0" encoding="iso-8859-1"?>
<!-- Generator: Adobe Illustrator 16.0.0, SVG Export Plug-In . SVG Version: 6.00 Build 0)  -->
<!DOCTYPE svg PUBLIC "-//W3C//DTD SVG 1.1//EN" "http://www.w3.org/Graphics/SVG/1.1/DTD/svg11.dtd">
<svg version="1.1" id="Capa_1" xmlns="http://www.w3.org/2000/svg" xmlns:xlink="http://www.w3.org/1999/xlink" x="0px" y="0px"
	 width="548.465px" height="548.464px" viewBox="0 0 548.465 548.464" style="enable-background:new 0 0 548.465 548.464;"
	 xml:space="preserve">
<g>
	<g>
		<path d="M440.18,42.987c-35.143,18.532-81.922,47.755-133.082,91.647c-12.45,10.318-19.852,17.212-20.855,18.159l-21.859,20.693
			l0.316,0.124c-14.86,14.64-29.912,30.476-45.001,47.708c-0.411,0.507-41.587,50.509-75.907,110.839
			c-8.281-1.664-16.304-2.506-23.906-2.506c-23.963,0-42.505,8.147-55.137,24.212C36.403,389.934-2.832,478.09,0.162,498.975
			c0.411,2.859,1.549,4.982,3.395,6.302c1.214,0.86,2.62,1.319,4.083,1.319c5.881,0,10.385-6.665,18.542-18.762
			c11.513-17.078,28.764-43.231,50.193-41.95l-53.101,58.608c-3.031,4.083-6.933,13.665,0.105,20.693
			c6.483,6.474,14.956,5.919,22.845-1.989c1.396-1.396,14.277-13.35,29.204-27.177c9.324-8.645,19.632-18.207,28.984-26.899
			c3.491,23.648-24.986,41.177-44.427,53.13c-12.431,7.659-17.987,11.255-18.991,16.218c-0.382,1.894,0.02,3.796,1.138,5.374
			c2.562,3.576,7.468,3.586,9.084,3.586c0.009,0,0.009,0,0.009,0c23.113,0,104.891-35.362,142.319-64.767
			c27.607-21.688,26-57.213,21.783-78.651c58.14-31.776,111.039-71.308,157.265-117.533
			C486.261,172.808,545.004,10.743,545.577,9.117l2.888-8.08l-8.386,1.798C538.443,3.188,499.448,11.737,440.18,42.987z
			 M261.065,272.879c12.728,12.728,12.728,33.354,0,46.082c-12.728,12.728-33.354,12.728-46.082,0
			c-12.728-12.729-12.728-33.354,0-46.082S248.347,260.161,261.065,272.879z M507.69,37.011c0,0-59.938,138.781-162.352,138.781
			c-14.487,0-29.816-2.773-45.948-9.113C299.391,166.688,386.477,84.259,507.69,37.011z M284.378,203.494
			c12.728-12.728,33.354-12.728,46.081,0c12.728,12.728,12.728,33.354,0,46.082c-12.728,12.728-33.354,12.728-46.081,0
			C271.65,236.848,271.66,216.212,284.378,203.494z"/>
	</g>
</g>
<g>
</g>
<g>
</g>
<g>
</g>
<g>
</g>
<g>
</g>
<g>
</g>
<g>
</g>
<g>
</g>
<g>
</g>
<g>
</g>
<g>
</g>
<g>
</g>
<g>
</g>
<g>
</g>
<g>
</g>
</svg>
