<?xml version="1.0" encoding="iso-8859-1"?>
<!-- Generator: Adobe Illustrator 16.0.0, SVG Export Plug-In . SVG Version: 6.00 Build 0)  -->
<!DOCTYPE svg PUBLIC "-//W3C//DTD SVG 1.1//EN" "http://www.w3.org/Graphics/SVG/1.1/DTD/svg11.dtd">
<svg version="1.1" id="Capa_1" xmlns="http://www.w3.org/2000/svg" xmlns:xlink="http://www.w3.org/1999/xlink" x="0px" y="0px"
	 width="600.889px" height="600.889px" viewBox="0 0 600.889 600.889" style="enable-background:new 0 0 600.889 600.889;"
	 xml:space="preserve">
<g>
	<g>
		<path d="M89.534,321.19L89.534,321.19v102.893H57.212L0,567.521h7.057h277.141h6.455L246.98,424.083H186.01l-0.746-64.051
			c71.719,43.453,126.637,52.871,191.078,53.693l11.398,0.145L233.086,252.388l56.629-72.417c4.227,2.247,9.391,3.595,14.191,3.595
			c14.859,0,27.416-12.278,27.416-26.804c0-14.784-11.896-26.813-26.518-26.813c-14.707,0-26.67,12.029-26.67,26.823
			c0,4.667,1.243,9.17,3.634,13.244l-67.626,56.333L42.735,56.089l-0.526,10.729c-3.768,76.299,25.016,154.406,79.12,215.31
			C107.416,289.385,89.534,303.394,89.534,321.19z M182.232,318.368c0,11.381-9.256,20.646-20.646,20.646
			c-11.389,0-20.645-9.266-20.645-20.646c0-11.379,9.256-20.645,20.645-20.645C172.976,297.723,182.232,306.979,182.232,318.368z"/>
		<path d="M537.201,116.524c2.602,1.128,5.576,1.778,8.377,1.778c10.223,0,18.857-8.434,18.857-18.427
			c0-10.155-8.166-18.427-18.217-18.427c-10.098,0-18.32,8.271-18.32,18.427c0,2.658,0.621,5.298,1.787,7.746l-39.473,32.876
			L382.357,33.368l-0.527,10.729c-2.219,45.173,16.43,93.377,51.332,133.119c-8.367,5.728-15.596,15.74-15.596,26.125l0.076,58.178
			h-25.646l-36.854,105.188h6.74h171.609h6.291l-29.068-104.5l-38.824-0.077l0.105-33.077
			c43.748,25.618,78.871,31.365,117.541,31.862l11.352,0.144l-97.127-102.022L537.201,116.524z M446.617,199.947
			c0-6.043,4.914-10.959,10.957-10.959c6.045,0,10.959,4.916,10.959,10.959s-4.914,10.958-10.959,10.958
			C451.531,210.906,446.617,205.991,446.617,199.947z"/>
	</g>
</g>
<g>
</g>
<g>
</g>
<g>
</g>
<g>
</g>
<g>
</g>
<g>
</g>
<g>
</g>
<g>
</g>
<g>
</g>
<g>
</g>
<g>
</g>
<g>
</g>
<g>
</g>
<g>
</g>
<g>
</g>
</svg>
