<?xml version="1.0" encoding="iso-8859-1"?>
<!-- Generator: Adobe Illustrator 16.0.0, SVG Export Plug-In . SVG Version: 6.00 Build 0)  -->
<!DOCTYPE svg PUBLIC "-//W3C//DTD SVG 1.1//EN" "http://www.w3.org/Graphics/SVG/1.1/DTD/svg11.dtd">
<svg version="1.1" id="Capa_1" xmlns="http://www.w3.org/2000/svg" xmlns:xlink="http://www.w3.org/1999/xlink" x="0px" y="0px"
	 width="535.495px" height="535.495px" viewBox="0 0 535.495 535.495" style="enable-background:new 0 0 535.495 535.495;"
	 xml:space="preserve">
<g>
	<g>
		<path d="M507.239,0.396c-0.306,0.096-7.506,2.276-19,7.631c-4.781,2.219-6.866,7.908-4.638,12.699
			c1.615,3.48,5.067,5.527,8.673,5.527c1.357,0,2.726-0.287,4.025-0.899c10.117-4.695,16.381-6.627,16.448-6.646
			c5.039-1.53,7.908-6.866,6.378-11.915C517.605,1.745,512.279-1.076,507.239,0.396z"/>
		<path d="M394.889,78.025c-8.645,9.505-16.878,19.718-24.471,30.332c-3.069,4.294-2.074,10.271,2.219,13.35
			c1.684,1.205,3.624,1.788,5.556,1.788c2.983,0,5.92-1.396,7.784-3.997c7.162-10.021,14.927-19.651,23.064-28.592
			c3.558-3.911,3.271-9.955-0.641-13.512C404.481,73.846,398.437,74.133,394.889,78.025z"/>
		<path d="M358.59,535.495c1.941,0,3.892-0.593,5.584-1.808c4.284-3.089,5.25-9.065,2.161-13.35
			c-3.5-4.857-6.865-10.002-9.992-15.318c-2.688-4.552-8.549-6.054-13.101-3.376c-4.552,2.688-6.062,8.559-3.376,13.101
			c3.433,5.805,7.124,11.446,10.959,16.772C352.7,534.118,355.616,535.495,358.59,535.495z"/>
		<path d="M171.069,1.974c-0.239,0.191-6.091,4.695-15.08,13.388c-3.796,3.672-3.901,9.725-0.229,13.521
			c1.875,1.941,4.37,2.917,6.875,2.917c2.391,0,4.791-0.899,6.646-2.687c8.128-7.851,13.397-11.934,13.445-11.982
			c4.179-3.223,4.963-9.228,1.741-13.397C181.244-0.445,175.248-1.239,171.069,1.974z"/>
		<path d="M64.868,362.079c0.536,0,1.09-0.048,1.635-0.144c5.202-0.898,8.692-5.843,7.793-11.045
			c-2.018-11.694-3.567-23.418-4.59-34.864c-0.469-5.26-5.03-9.199-10.385-8.664c-5.259,0.479-9.142,5.126-8.664,10.385
			c1.081,11.963,2.696,24.203,4.8,36.404C56.262,358.799,60.307,362.079,64.868,362.079z"/>
		<path d="M116.869,86.947c3.089,0,6.12-1.492,7.956-4.246c6.464-9.668,13.483-19.087,20.856-27.999
			c3.366-4.074,2.792-10.098-1.272-13.464c-4.064-3.375-10.098-2.783-13.464,1.272c-7.784,9.41-15.195,19.354-22.013,29.567
			c-2.936,4.389-1.759,10.327,2.63,13.263C113.197,86.421,115.042,86.947,116.869,86.947z"/>
		<path d="M102.936,99.722c-4.657-2.496-10.452-0.708-12.928,3.949c-5.766,10.844-11.016,22.08-15.606,33.392
			c-1.989,4.896,0.373,10.471,5.269,12.46c1.176,0.479,2.391,0.698,3.586,0.698c3.777,0,7.363-2.247,8.865-5.967
			c4.351-10.71,9.314-21.334,14.765-31.604C109.372,107.984,107.603,102.199,102.936,99.722z"/>
		<path d="M132.016,506.367c-3.729,3.739-3.729,9.792,0.01,13.521c4.81,4.811,9.84,9.343,14.946,13.474
			c1.769,1.425,3.892,2.133,6.005,2.133c2.792,0,5.546-1.215,7.44-3.548c3.328-4.103,2.687-10.127-1.416-13.445
			c-4.59-3.72-9.123-7.793-13.464-12.135C141.817,502.629,135.755,502.629,132.016,506.367z"/>
		<path d="M441.057,78.599c18.953,0,34.377-15.415,34.377-34.377c0-18.943-15.424-34.368-34.377-34.368S406.68,25.278,406.68,44.222
			C406.68,63.174,422.104,78.599,441.057,78.599z"/>
		<path d="M95.611,512.172c30.638,0,55.568-24.92,55.568-55.567c0-30.648-24.92-55.559-55.568-55.559
			c-3.117,0-6.158,0.325-9.132,0.813c-1.692-5.451-3.29-11.017-4.762-16.668c-1.338-5.106-6.579-8.147-11.666-6.837
			c-5.116,1.339-8.167,6.569-6.837,11.676c1.607,6.158,3.356,12.23,5.212,18.169c-16.907,9.533-28.372,27.635-28.372,48.396
			C40.043,487.242,64.973,512.172,95.611,512.172z"/>
		<path d="M523.534,357.843c8.367-30.667-43.251-63.17-90.06-85.766c-3.51-50.166-29.366-93.56-67.482-120.928
			c0.105-0.182,0.191-0.383,0.296-0.564c2.582-4.609,0.928-10.442-3.682-13.015c-4.494-2.496-10.078-0.956-12.746,3.366
			c-23.399-12.929-50.251-20.387-78.93-20.387c-53.569,0-103.198,26.048-133.789,69.94c-14.994-1.348-29.041-2.027-41.816-2.027
			c-6.226,0-12.097,0.153-17.643,0.468c0.976-3.92,1.932-7.851,3.041-11.705c1.463-5.078-1.463-10.375-6.541-11.838
			c-5.049-1.453-10.366,1.463-11.838,6.541c-1.826,6.321-3.442,12.747-4.915,19.201c-26.259,4.131-41.664,13.158-45.489,27.167
			c-5.087,18.646,12.604,38.078,36.586,55.061c0.01,3.021,0.048,6.32,0.125,9.228c0.144,5.192,4.389,10.662,9.553,10.662
			c0.086,0,0.172,0,0.258,0c4.15,0,7.583-3.644,8.807-7.755c14.363,8.567,29.405,16.15,42.381,22.194
			c11.743,79.655,80.239,139.144,161.281,139.144c13.646,0,26.957-1.816,39.8-5.029c0.01,0.048-0.01,0.104,0.01,0.152
			c3.289,13.044,7.286,25.57,11.886,37.246c1.482,3.758,5.087,6.054,8.902,6.054c1.167,0,2.353-0.211,3.5-0.66
			c4.915-1.941,7.325-7.487,5.384-12.412c-4.293-10.901-8.042-22.635-11.131-34.884c-0.104-0.431-0.392-0.756-0.555-1.157
			c26.813-10.175,50.758-27.292,69.357-50.5c15.089,1.368,29.223,2.057,42.065,2.057l0,0
			C490.075,387.678,518.14,377.637,523.534,357.843z M339.456,164.154c0,5.269-2.878,9.83-7.114,12.326
			c-2.133,1.252-4.581,2.018-7.229,2.018c-7.918,0-14.344-6.426-14.344-14.344s6.426-14.344,14.344-14.344
			c6.99,0,12.795,5.011,14.066,11.628C339.35,162.318,339.456,163.227,339.456,164.154z M293.966,164.365
			c0,12.967-10.509,23.476-23.476,23.476c-12.967,0-23.476-10.509-23.476-23.476s10.509-23.476,23.476-23.476
			C283.458,140.889,293.966,151.398,293.966,164.365z"/>
	</g>
</g>
<g>
</g>
<g>
</g>
<g>
</g>
<g>
</g>
<g>
</g>
<g>
</g>
<g>
</g>
<g>
</g>
<g>
</g>
<g>
</g>
<g>
</g>
<g>
</g>
<g>
</g>
<g>
</g>
<g>
</g>
</svg>
