<?xml version="1.0" encoding="iso-8859-1"?>
<!-- Generator: Adobe Illustrator 16.0.0, SVG Export Plug-In . SVG Version: 6.00 Build 0)  -->
<!DOCTYPE svg PUBLIC "-//W3C//DTD SVG 1.1//EN" "http://www.w3.org/Graphics/SVG/1.1/DTD/svg11.dtd">
<svg version="1.1" id="Capa_1" xmlns="http://www.w3.org/2000/svg" xmlns:xlink="http://www.w3.org/1999/xlink" x="0px" y="0px"
	 width="532.829px" height="532.829px" viewBox="0 0 532.829 532.829" style="enable-background:new 0 0 532.829 532.829;"
	 xml:space="preserve">
<g>
	<g>
		<path d="M78.365,236.255h46.799v2.658l0,0v0.01c0.01,14.832,11.494,26.01,26.718,26.01l0,0l0,0h4.054l0,0
			c11.37,0,23.916-7.085,28.143-18.207l27.148,12.499v87.229c0,0,0.029,2.094,0.038,2.141c0.431,2.209,9.812,50.223,49.429,50.223
			h-0.019c-39.618,0-49.448-49.945-49.448-52.154v0.422c0,18.197,16.428,52.631,51.876,52.631l93.024-0.697
			c3.385,6.541,11.752,25.465,2.906,38.193c-4.025,5.805-7.4,8.777-10.117,11.168c-7.258,6.389-8.539,10.299-3.127,23.916
			c0.727,1.816,2.486,3.012,4.438,3.012c-3.328-8.367-3.854-12.23-2.324-15.453c-1.529,3.232-1.004,7.086,2.324,15.453h175.768l0,0
			c2.143,0,4.027-1.424,4.6-3.49c0.555-1.969,13.062-48.807-27.684-96.857c-9.982-11.771-18.951-21.037-26.162-28.486
			c-21.688-22.396-27.512-28.42-13.377-48.74c0.258-0.555,6.33-13.799,1.748-24.711c-2.17-5.172-6.215-8.893-12.039-11.063
			c2.037-2.601,7.535-7.172,11.734-10.653c14.965-12.431,35.467-29.453,35.467-51.198c0-25.188-19.785-36.663-37.246-46.789
			c-9.553-5.546-18.57-10.777-24.402-17.777c-4.123-4.944-7.535-13.837-11.16-23.256c-8.875-23.113-21.027-54.765-56.209-54.765
			c-7.545,0-15.939,1.492-24.939,4.428c-69.854,22.778-119.75,66.612-143.733,87.669c-3.815,3.366-8.004,6.713-11.934,9.869
			c-3.395,2.725-6.273,5.049-8.654,7.095c-2.477-10.825-13.272-16.457-23.944-16.457c-0.622,0-1.233,0.019-1.521,0.048h-2.391
			c-15.166,0.019-28.984,13.301-28.984,27.875v0.832H78.355c-8.166-10.06-21.066-15.998-35.018-15.998
			C19.842,162.882,0,183.556,0,208.026c0,24.471,19.842,45.145,43.337,45.145C56.744,253.171,69.94,246.745,78.365,236.255z
			 M239.914,277.584c2.878-0.316,5.68-0.488,8.377-0.488c25.139,0,34.673,13.723,35.046,14.268
			c13.216,20.367-10.175,52.441-10.413,52.766c-0.89,1.205-1.167,2.744-0.746,4.18c0.41,1.434,1.473,2.59,2.859,3.127
			c4.8,1.863,9.754,2.811,14.727,2.811c23.715,0,42.104-21.066,49.217-30.6c7.479,9.17,9.621,31.002,9.209,46.482h-71.518
			c-27.177,0-35.467-20.617-36.758-24.412V277.584L239.914,277.584z M230.351,346.463L230.351,346.463L230.351,346.463
			L230.351,346.463z M461.447,389.254c16.725,0,30.285,13.561,30.285,30.285s-13.561,30.285-30.285,30.285
			s-30.283-13.561-30.283-30.285S444.723,389.254,461.447,389.254z M354.043,452.51c-1.168,1.225-2.201,2.277-3.1,3.252
			C351.842,454.788,352.875,453.735,354.043,452.51z M156.576,159.726c-0.009,0.01-0.019,0.019-0.038,0.029h-2.391L156.576,159.726z
			"/>
	</g>
</g>
<g>
</g>
<g>
</g>
<g>
</g>
<g>
</g>
<g>
</g>
<g>
</g>
<g>
</g>
<g>
</g>
<g>
</g>
<g>
</g>
<g>
</g>
<g>
</g>
<g>
</g>
<g>
</g>
<g>
</g>
</svg>
