<?xml version="1.0" encoding="iso-8859-1"?>
<!-- Generator: Adobe Illustrator 16.0.0, SVG Export Plug-In . SVG Version: 6.00 Build 0)  -->
<!DOCTYPE svg PUBLIC "-//W3C//DTD SVG 1.1//EN" "http://www.w3.org/Graphics/SVG/1.1/DTD/svg11.dtd">
<svg version="1.1" id="Capa_1" xmlns="http://www.w3.org/2000/svg" xmlns:xlink="http://www.w3.org/1999/xlink" x="0px" y="0px"
	 width="556.7px" height="556.7px" viewBox="0 0 556.7 556.7" style="enable-background:new 0 0 556.7 556.7;" xml:space="preserve"
	>
<g>
	<g>
		<path d="M431.446,556.7c3.604,0,7.22-1.119,10.309-3.338c6.627-4.771,9.104-13.474,5.995-21.027l-76.834-186.612
			c2.313-26.89,2.744-56.074,1.29-86.847c-7.124-151.03-71.364-247.812-74.1-251.896C294.835,2.094,289.337,0,283.447,0h-3.356
			c-5.9,0-11.398,2.094-14.669,7c-2.735,4.093-66.957,101.63-74.081,252.641c-1.195,25.37-1.119,49.514,0.229,72.245l-82.62,200.535
			c-3.107,7.555-0.631,16.189,5.996,20.971c3.088,2.228,6.703,3.299,10.308,3.299c4.122,0,8.233-1.453,11.532-4.303l91.523-79.11
			c0.956,1.348,1.922,2.619,2.897,3.806l-9.333,23.322c-2.438,6.092-1.291,13.512,2.983,18.494
			c2.257,2.63,22.95,26.163,55.233,26.163h3.356c32.283,0,52.986-23.533,55.233-26.163c4.245-4.953,5.412-12.077,3.031-18.149
			l-9.333-23.916l87.535,75.592C423.212,555.285,427.325,556.7,431.446,556.7z"/>
	</g>
</g>
<g>
</g>
<g>
</g>
<g>
</g>
<g>
</g>
<g>
</g>
<g>
</g>
<g>
</g>
<g>
</g>
<g>
</g>
<g>
</g>
<g>
</g>
<g>
</g>
<g>
</g>
<g>
</g>
<g>
</g>
</svg>
