<?xml version="1.0" encoding="iso-8859-1"?>
<!-- Generator: Adobe Illustrator 16.0.0, SVG Export Plug-In . SVG Version: 6.00 Build 0)  -->
<!DOCTYPE svg PUBLIC "-//W3C//DTD SVG 1.1//EN" "http://www.w3.org/Graphics/SVG/1.1/DTD/svg11.dtd">
<svg version="1.1" id="Capa_1" xmlns="http://www.w3.org/2000/svg" xmlns:xlink="http://www.w3.org/1999/xlink" x="0px" y="0px"
	 width="562.246px" height="562.246px" viewBox="0 0 562.246 562.246" style="enable-background:new 0 0 562.246 562.246;"
	 xml:space="preserve">
<g>
	<g>
		<path d="M281.551,562.15l4.638-0.449c25.56-0.258,61.974-10.557,70.724-14.937c6.369-3.185,9.247-8.367,10.825-14.449
			c16.849-6.531,33.114-14.592,43.519-20.053l43.232,33.88c3.471,2.716,7.631,4.074,11.8,4.074c4.312,0,8.616-1.454,12.135-4.342
			c6.933-5.689,8.97-15.424,4.925-23.428l-53.11-104.776c-1.75-3.452-4.504-6.292-7.898-8.147l-44.982-24.537
			c1.425-44.15,3.873-144.26-1.386-189.806c-9.008-78.087-71.93-180.138-74.607-184.365C297.864,5.288,291.763,0,285.213,0h-5.518
			c-6.55,0-12.651,5.288-16.161,10.825c-2.677,4.227-65.599,105.312-74.606,183.399c-5.202,45.116-2.84,144.977-1.454,188.878
			l-47.564,26.182c-3.395,1.855-6.148,4.811-7.898,8.263L78.902,522.39c-4.055,7.994-2.008,17.768,4.924,23.457
			c3.529,2.897,7.832,4.36,12.135,4.36c4.16,0,8.329-1.349,11.8-4.064l43.232-33.879c10.939,5.728,28.353,14.334,46.12,21.027
			c1.568,6.216,4.418,11.332,10.873,14.555c8.3,4.149,45.9,14.4,71.7,14.4C280.317,562.246,280.938,562.218,281.551,562.15z
			 M281.493,415.911c-33.89,0-61.362-27.473-61.362-61.362s27.473-61.362,61.362-61.362c33.889,0,61.363,27.473,61.363,61.362
			S315.382,415.911,281.493,415.911z"/>
	</g>
</g>
<g>
</g>
<g>
</g>
<g>
</g>
<g>
</g>
<g>
</g>
<g>
</g>
<g>
</g>
<g>
</g>
<g>
</g>
<g>
</g>
<g>
</g>
<g>
</g>
<g>
</g>
<g>
</g>
<g>
</g>
</svg>
