<?xml version="1.0" encoding="iso-8859-1"?>
<!-- Generator: Adobe Illustrator 16.0.0, SVG Export Plug-In . SVG Version: 6.00 Build 0)  -->
<!DOCTYPE svg PUBLIC "-//W3C//DTD SVG 1.1//EN" "http://www.w3.org/Graphics/SVG/1.1/DTD/svg11.dtd">
<svg version="1.1" id="Capa_1" xmlns="http://www.w3.org/2000/svg" xmlns:xlink="http://www.w3.org/1999/xlink" x="0px" y="0px"
	 width="588.062px" height="588.062px" viewBox="0 0 588.062 588.062" style="enable-background:new 0 0 588.062 588.062;"
	 xml:space="preserve">
<g>
	<path d="M447.031,323.1v54.2c0,5.3-4.301,9.6-9.6,9.6h-86.1v1.601c1,1.3,1.898,2.6,2.799,3.899c11,16.9,16.1,41.101,14.5,61
		c-1.5,18.7-6.6,38.2-15,51.301c-3.1,4.8-4.199,4-2.5-1.5c8.6-27.5-8.1-49.4-11.9-34.801c-6.5,25.101-2.5,47.301-19.6,65.5
		c-9.799,10.4-19.799,19.7-30.299,28.9c-6.3,5.6-12.7,13.1-15.6,21.1c-1.9,5.4-3,5.7-3.4,0c-0.7-11.199,3.3-21.399,13.2-34.8
		c10.9-14.7,22.4-21.5,17.5-40.899c-2.4-9.301-10.5,13.1-26.2,20.6c-5.1,2.5-5.2,1.1-1.3-3.1c8-8.7,10-25,3.7-35.9
		c-9-15.5-14.4-28.6-18.3-48c-1-4.8-8.1,2.9-8.4,21.6c0.4,9.301,3.1,19.7,1.4,29.101c-1,5.1-2.7,9.5-5.3,13.399
		c-3.2,4.7-4,3.801-2.1-1.5c6.5-18.6-8.9-35.6-15.4-54.399c-7.3-21.101-3.6-42.5,7.4-60.2v-2.9h-85.9c-5.3,0-9.6-4.3-9.6-9.6v-54.2
		c0-3.1,1.5-5.9,3.9-7.7c41.3-30.1,99.7-81.6,100.2-102c0.5-21.8,9.4-88,18.9-125.3c1.1-4.2,4.9-7.2,9.3-7.2h50.899
		c4.4,0,8.201,3,9.301,7.2c10,39.2,13.6,105.2,14.1,125.3c0.5,20.5,56.201,72,95.6,102.101
		C445.631,317.3,447.031,320.1,447.031,323.1z M275.531,71.4h46.6c2.9,0,5.701-1.3,7.5-3.6c1.801-2.3,2.5-5.3,1.801-8.1
		c-9.9-43-19-59.7-32.6-59.7c-13.601,0-22.701,16.7-32.601,59.7c-0.7,2.8,0,5.8,1.8,8.1C269.832,70,272.631,71.4,275.531,71.4z"/>
</g>
<g>
</g>
<g>
</g>
<g>
</g>
<g>
</g>
<g>
</g>
<g>
</g>
<g>
</g>
<g>
</g>
<g>
</g>
<g>
</g>
<g>
</g>
<g>
</g>
<g>
</g>
<g>
</g>
<g>
</g>
</svg>
