<?xml version="1.0" encoding="iso-8859-1"?>
<!-- Generator: Adobe Illustrator 16.0.0, SVG Export Plug-In . SVG Version: 6.00 Build 0)  -->
<!DOCTYPE svg PUBLIC "-//W3C//DTD SVG 1.1//EN" "http://www.w3.org/Graphics/SVG/1.1/DTD/svg11.dtd">
<svg version="1.1" id="Capa_1" xmlns="http://www.w3.org/2000/svg" xmlns:xlink="http://www.w3.org/1999/xlink" x="0px" y="0px"
	 width="592.875px" height="592.875px" viewBox="0 0 592.875 592.875" style="enable-background:new 0 0 592.875 592.875;"
	 xml:space="preserve">
<g>
	<g>
		<path d="M335.424,556.184l76.644,35.793c3.614,1.683,7.966,0.937,10.815-1.913s3.595-7.182,1.884-10.824l-63.926-135.816
			c3.137-103.61,5.681-272.283,1.271-310.408c-6.578-57.012-52.823-125.91-54.793-128.807C305.541,1.578,302.576,0,299.402,0h-4.093
			c-3.175,0-6.149,1.578-7.918,4.198c-1.97,2.907-48.224,71.795-54.793,128.807c-4.36,37.791-1.97,201.271,1.138,306.794
			l-65.627,139.44c-1.712,3.643-0.966,7.965,1.884,10.824c1.836,1.836,4.293,2.812,6.77,2.812c1.377,0,2.754-0.297,4.045-0.898
			l76.166-35.573l-10.117,23.074c-1.3,2.955-1.004,6.369,0.755,9.065c1.76,2.697,4.781,4.332,8.004,4.332h78.47
			c0.076,0,0.144,0,0.191,0c5.288,0,9.562-4.284,9.562-9.562c0-1.989-0.593-3.825-1.636-5.355l-10.652-25.082
			C332.498,554.281,333.817,555.438,335.424,556.184z M268.161,154.874c0-17.193,13.942-31.135,31.136-31.135
			s31.136,13.942,31.136,31.135s-13.942,31.136-31.136,31.136S268.161,172.067,268.161,154.874z"/>
	</g>
</g>
<g>
</g>
<g>
</g>
<g>
</g>
<g>
</g>
<g>
</g>
<g>
</g>
<g>
</g>
<g>
</g>
<g>
</g>
<g>
</g>
<g>
</g>
<g>
</g>
<g>
</g>
<g>
</g>
<g>
</g>
</svg>
