<?xml version="1.0" encoding="iso-8859-1"?>
<!-- Generator: Adobe Illustrator 16.0.0, SVG Export Plug-In . SVG Version: 6.00 Build 0)  -->
<!DOCTYPE svg PUBLIC "-//W3C//DTD SVG 1.1//EN" "http://www.w3.org/Graphics/SVG/1.1/DTD/svg11.dtd">
<svg version="1.1" id="Capa_1" xmlns="http://www.w3.org/2000/svg" xmlns:xlink="http://www.w3.org/1999/xlink" x="0px" y="0px"
	 width="594.003px" height="594.003px" viewBox="0 0 594.003 594.003" style="enable-background:new 0 0 594.003 594.003;"
	 xml:space="preserve">
<g>
	<g>
		<path d="M110.303,519.512c3.663,4.437,9.094,6.942,14.746,6.942c1.042,0,2.094-0.086,3.136-0.259l122.649-20.406l-16.658,64.289
			c-1.912,7.373,0.736,15.166,6.732,19.861c3.433,2.687,7.603,4.063,11.781,4.063c3.117,0,6.254-0.765,9.113-2.313
			c9.266-4.992,26.498-12.039,35.773-12.039c1.31,0,2.61-0.134,3.892-0.402l0.287-0.057c10.576,0.736,27.473,7.975,34.377,11.57
			c2.782,1.453,5.823,2.171,8.836,2.171c4.236,0,8.434-1.406,11.886-4.141c5.91-4.686,8.521-12.422,6.646-19.728l-16.065-62.73
			l118.403,19.584c1.042,0.173,2.084,0.259,3.127,0.259c5.651,0,11.083-2.506,14.745-6.952c4.341-5.26,5.556-12.422,3.185-18.81
			l-63.018-170.317c3.462-21.994,4.198-43.022,2.314-65.723C414.295,120.42,318.469,11.016,314.396,6.426
			C310.762,2.343,305.56,0,300.09,0h-2.515c-5.47,0-10.672,2.343-14.296,6.426c-4.074,4.59-99.899,113.995-111.795,257.958
			c-1.674,20.244-1.263,39.694,1.252,59.288l-65.627,177.011C104.737,507.08,105.952,514.252,110.303,519.512z M339.841,356.758
			c0.297,1.73-0.411,3.471-1.826,4.504c-0.804,0.583-1.76,0.88-2.706,0.88c-0.736,0-1.463-0.172-2.143-0.526l-35.582-18.704
			l-35.591,18.704c-1.54,0.804-3.414,0.679-4.848-0.354c-1.415-1.033-2.132-2.783-1.826-4.504l6.799-39.617l-28.783-28.057
			c-1.253-1.224-1.712-3.05-1.167-4.724c0.545-1.673,1.979-2.878,3.72-3.136l39.78-5.776l17.786-36.051
			c0.774-1.578,2.372-2.572,4.131-2.572c1.76,0,3.356,0.995,4.132,2.572l17.776,36.051l39.78,5.776
			c1.74,0.249,3.175,1.463,3.72,3.136c0.545,1.674,0.096,3.5-1.167,4.724l-28.773,28.057L339.841,356.758z"/>
	</g>
</g>
<g>
</g>
<g>
</g>
<g>
</g>
<g>
</g>
<g>
</g>
<g>
</g>
<g>
</g>
<g>
</g>
<g>
</g>
<g>
</g>
<g>
</g>
<g>
</g>
<g>
</g>
<g>
</g>
<g>
</g>
</svg>
