<?xml version="1.0" encoding="iso-8859-1"?>
<!-- Generator: Adobe Illustrator 16.0.0, SVG Export Plug-In . SVG Version: 6.00 Build 0)  -->
<!DOCTYPE svg PUBLIC "-//W3C//DTD SVG 1.1//EN" "http://www.w3.org/Graphics/SVG/1.1/DTD/svg11.dtd">
<svg version="1.1" id="Capa_1" xmlns="http://www.w3.org/2000/svg" xmlns:xlink="http://www.w3.org/1999/xlink" x="0px" y="0px"
	 width="592.799px" height="592.799px" viewBox="0 0 592.799 592.799" style="enable-background:new 0 0 592.799 592.799;"
	 xml:space="preserve">
<g>
	<g>
		<path d="M126.182,589.451c1.817,2.123,4.466,3.348,7.258,3.348h80.401c5.221,0,9.477-4.189,9.562-9.41l0.612-38.402h20.263
			c1.281,10.279,3.978,16.457,8.539,19.994c19.842,15.377,35.859,17.93,37.619,18.17c0.536,0.066,1.062,0.113,1.606,0.076
			l7.181-0.258c0.765-0.086,19.059-2.258,39.35-17.988c4.562-3.537,7.249-9.715,8.54-19.994h21.678l0.612,38.402
			c0.086,5.221,4.341,9.41,9.562,9.41h80.392c2.792,0,5.441-1.225,7.258-3.348c1.817-2.123,2.61-4.924,2.19-7.688
			c-15.233-98.389-71.337-196.127-81.358-212.977c0.115-13.961-0.698-76.519-21.229-168.204
			c-17.978-80.296-44.781-102.893-58.704-109.251l-1.913-44.456c8.225-4.026,13.972-12.604,13.972-22.281
			C319.574,11.035,308.605,0,295.123,0s-24.451,10.93-24.451,24.365c0,9.715,5.623,18.073,13.875,21.994l-2.84,45.278
			c-15.549,8.463-38.853,33.526-55.195,106.507c-20.579,91.915-21.315,156.652-21.2,170.9
			c-10.021,16.85-66.096,114.35-81.319,212.719C123.571,584.537,124.365,587.338,126.182,589.451z M300.344,239.98
			c24.519,0,44.456,19.938,44.456,44.456s-19.938,44.466-44.456,44.466c-24.509,0-44.456-19.947-44.456-44.466
			S275.835,239.98,300.344,239.98z"/>
	</g>
</g>
<g>
</g>
<g>
</g>
<g>
</g>
<g>
</g>
<g>
</g>
<g>
</g>
<g>
</g>
<g>
</g>
<g>
</g>
<g>
</g>
<g>
</g>
<g>
</g>
<g>
</g>
<g>
</g>
<g>
</g>
</svg>
