<?xml version="1.0" encoding="iso-8859-1"?>
<!-- Generator: Adobe Illustrator 16.0.0, SVG Export Plug-In . SVG Version: 6.00 Build 0)  -->
<!DOCTYPE svg PUBLIC "-//W3C//DTD SVG 1.1//EN" "http://www.w3.org/Graphics/SVG/1.1/DTD/svg11.dtd">
<svg version="1.1" id="Capa_1" xmlns="http://www.w3.org/2000/svg" xmlns:xlink="http://www.w3.org/1999/xlink" x="0px" y="0px"
	 width="511.182px" height="511.182px" viewBox="0 0 511.182 511.182" style="enable-background:new 0 0 511.182 511.182;"
	 xml:space="preserve">
<g>
	<g>
		<path d="M497.846,17.667l-3.271-3.251C493.322,13,481.397,0.53,450.865,0.53c-34.177,0-97.261,16.104-204.485,92.125
			l-59.947-37.103c-2.84-1.76-6.397-1.903-9.381-0.392L5.214,142.926c-2.725,1.396-4.619,3.997-5.097,7.028
			c-0.478,3.022,0.526,6.091,2.687,8.252l42.381,42.381c2.505,2.515,6.206,3.423,9.572,2.381l63.849-19.68l7.22,108.132
			c0.153,2.314,1.138,4.486,2.782,6.131l84.485,84.484c1.635,1.635,3.815,2.619,6.12,2.783l108.132,7.229l-19.68,63.85
			c-1.042,3.385-0.134,7.066,2.382,9.57l42.381,42.383c1.807,1.807,4.245,2.801,6.761,2.801c0.487,0,0.984-0.039,1.473-0.115
			c3.012-0.469,5.622-2.352,7.028-5.059l89.094-172.555c1.587-3.07,1.396-6.752-0.497-9.629l-38.078-58.064
			C552.428,75.864,503.563,22.792,497.846,17.667z M328.828,186.942c-26.641-26.641-26.641-69.998,0-96.648
			c12.909-12.909,30.074-20.014,48.329-20.014s35.419,7.105,48.319,20.014c26.641,26.651,26.641,70.007,0,96.648
			c-12.909,12.909-30.074,20.014-48.319,20.014C358.902,206.966,341.737,199.851,328.828,186.942z"/>
		<path d="M80.586,386.874c-0.354,18.686-11.169,37.064-11.274,37.246c-2.171,3.652-1.683,8.301,1.205,11.408
			c1.855,1.998,4.417,3.061,7.019,3.061c1.444,0,2.907-0.336,4.255-1.004l1.635-0.842c4.963-2.602,14.2-7.449,41.081-11.293
			c19.928-2.85,36.548-16.219,42.324-34.062c5.154-15.912,0.86-32.033-11.771-44.227c-6.923-6.693-15.338-10.223-24.337-10.223
			C105.381,336.938,80.997,365.071,80.586,386.874z"/>
	</g>
</g>
<g>
</g>
<g>
</g>
<g>
</g>
<g>
</g>
<g>
</g>
<g>
</g>
<g>
</g>
<g>
</g>
<g>
</g>
<g>
</g>
<g>
</g>
<g>
</g>
<g>
</g>
<g>
</g>
<g>
</g>
</svg>
