<?xml version="1.0" encoding="iso-8859-1"?>
<!-- Generator: Adobe Illustrator 16.0.0, SVG Export Plug-In . SVG Version: 6.00 Build 0)  -->
<!DOCTYPE svg PUBLIC "-//W3C//DTD SVG 1.1//EN" "http://www.w3.org/Graphics/SVG/1.1/DTD/svg11.dtd">
<svg version="1.1" id="Capa_1" xmlns="http://www.w3.org/2000/svg" xmlns:xlink="http://www.w3.org/1999/xlink" x="0px" y="0px"
	 width="591.4px" height="591.4px" viewBox="0 0 591.4 591.4" style="enable-background:new 0 0 591.4 591.4;" xml:space="preserve"
	>
<g>
	<path d="M427.322,479.1l-23-74c17.2-101.4-18.4-178.1-19.9-181.3L316.223,55c6.8-5.8,10.8-14.4,10.8-23.7c0-17.3-14-31.3-31.3-31.3
		s-31.3,14-31.3,31.3c0,9.2,4.1,17.8,10.8,23.7l-68.2,168.8c-1.5,3.2-37.1,79.899-19.9,181.3l-23,74c-0.9,2.801-0.4,6.1,1.3,8.6
		l55.3,79.5c1.8,2.602,4.8,5.102,7.8,5.102c0.1,0,0.1,0,0.2,0c5.3,0,9.6-5.201,9.6-10.5c0-1.301-0.3-3.5-0.7-4.602l-14.6-75.6
		l9-10.4c6.6,5.4,17.4,13.301,31.6,20.701l-6.7,23.1c-0.6,2.1-0.5,4.801,0.4,6.801l26.7,62.398c1.5,3.5,5,7.201,8.8,7.201
		c0.1,0,0.2,0,0.2,0c0.9,0,1.8-0.201,2.7-0.6c0.9,0.398,1.8,0.6,2.7,0.6c0.1,0,0.2,0,0.2,0c3.8,0,7.299-3.701,8.799-7.201
		l26.7-62.398c0.9-2,1-4.701,0.4-6.801l-6.7-23.1c14.2-7.4,24.9-15.301,31.6-20.701l9,10.4l-14.6,75.6
		c-0.5,1.102-0.7,3.301-0.7,4.602c0,5.299,4.3,10.5,9.601,10.5c0.1,0,0.1,0,0.199,0c3.101,0,6-2.4,7.801-5.102l55.3-79.5
		C427.723,485.199,428.122,481.9,427.322,479.1z M295.723,412.5c-41.4,0-75-33.6-75-75s33.6-75,75-75c41.399,0,75,33.6,75,75
		S337.122,412.5,295.723,412.5z"/>
</g>
<g>
</g>
<g>
</g>
<g>
</g>
<g>
</g>
<g>
</g>
<g>
</g>
<g>
</g>
<g>
</g>
<g>
</g>
<g>
</g>
<g>
</g>
<g>
</g>
<g>
</g>
<g>
</g>
<g>
</g>
</svg>
