<?xml version="1.0" encoding="iso-8859-1"?>
<!-- Generator: Adobe Illustrator 16.0.0, SVG Export Plug-In . SVG Version: 6.00 Build 0)  -->
<!DOCTYPE svg PUBLIC "-//W3C//DTD SVG 1.1//EN" "http://www.w3.org/Graphics/SVG/1.1/DTD/svg11.dtd">
<svg version="1.1" id="Capa_1" xmlns="http://www.w3.org/2000/svg" xmlns:xlink="http://www.w3.org/1999/xlink" x="0px" y="0px"
	 width="582.627px" height="582.627px" viewBox="0 0 582.627 582.627" style="enable-background:new 0 0 582.627 582.627;"
	 xml:space="preserve">
<g>
	<g>
		<path d="M378.813,467.127l-52.2,17.8c-0.8,0.3-1.5,0.7-2,1.3l-30.199,33.5h-6.1l-30.2-33.5c-0.5-0.6-1.2-1.1-2-1.3l-52.2-17.8
			c-2-0.7-4.3-0.101-5.5,1.7c-1.2,1.8-1.1,3.899,0.3,5.5l91.7,107.699c0.3,0.301,0.6,0.5,1,0.601c0.399-0.101,0.699-0.3,1-0.601
			l91.699-107.699c1.4-1.601,1.5-3.801,0.301-5.5C383.113,467.026,380.914,466.427,378.813,467.127z"/>
		<path d="M524.613,516.227c0-0.399,0.101-0.8,0.101-1c0-0.7-0.101-1.399-0.101-2c-1.8-46-3.6-92.1-5.399-138.1
			c-1.101-28.101-2.2-56.3-3.4-84.4c-0.899-20.8,4-61.9-27.3-60.6c-12.2,0.5-22.6,9.4-26.4,20.8c-1.699,4.9-7.5,50.8-3.399,52.1
			l-22.3-6.6c2.3-18.2,7.5-90.9-43.5-174.9c-30.101-49.2-95.4-119.3-96.101-120c-1.399-1.5-3.6-1.9-5.5-1.1c-1.8-0.8-4-0.5-5.5,1.1
			c-0.7,0.7-66,70.9-96.1,120c-51,84-45.9,156.7-43.5,174.9c0,0-22.2,6.6-22.3,6.6c4.1-1.199-1.7-47.1-3.4-52.1
			c-3.8-11.4-14.2-20.3-26.4-20.8c-31.2-1.2-26.4,39.8-27.3,60.6c-1.2,28.101-2.3,56.3-3.4,84.4c-1.8,46-3.6,92.1-5.4,138.1
			c0,0.7-0.1,1.4-0.1,2c0,0.2,0,0.601,0.1,1c-1,10.8,2.8,21.601,10.2,29.101c13.4,13.399,37,13.199,50.6-0.4
			c6.8-6.8,9.8-13.6,10.3-23.2c0.1-0.3,0.1-0.6,0.1-0.899l3.2-68.5c17.9-11,37.1-22.5,44.2-26.301c8.7,11.4,52.3,44.9,104,44.9h5
			c1.9,0,3.7,0,5.5-0.1c1.8,0,3.6,0.1,5.5,0.1h5c51.7,0,95.301-33.4,104-44.9c7.101,3.801,26.301,15.301,44.2,26.301l3.2,68.5
			c0,0.3,0.1,0.6,0.1,0.899c0.5,9.601,3.5,16.4,10.301,23.2c13.6,13.6,37.199,13.8,50.6,0.4
			C521.813,537.927,525.613,527.127,524.613,516.227z M338.113,303.127c-12.5,12.5-29.1,19.399-46.799,19.399
			s-34.3-6.899-46.8-19.399c-25.8-25.8-25.8-67.8,0-93.5c12.5-12.5,29.1-19.4,46.8-19.4s34.299,6.9,46.799,19.4
			C363.914,235.427,363.914,277.327,338.113,303.127z"/>
	</g>
</g>
<g>
</g>
<g>
</g>
<g>
</g>
<g>
</g>
<g>
</g>
<g>
</g>
<g>
</g>
<g>
</g>
<g>
</g>
<g>
</g>
<g>
</g>
<g>
</g>
<g>
</g>
<g>
</g>
<g>
</g>
</svg>
