<?xml version="1.0" encoding="iso-8859-1"?>
<!-- Generator: Adobe Illustrator 16.0.0, SVG Export Plug-In . SVG Version: 6.00 Build 0)  -->
<!DOCTYPE svg PUBLIC "-//W3C//DTD SVG 1.1//EN" "http://www.w3.org/Graphics/SVG/1.1/DTD/svg11.dtd">
<svg version="1.1" id="Capa_1" xmlns="http://www.w3.org/2000/svg" xmlns:xlink="http://www.w3.org/1999/xlink" x="0px" y="0px"
	 width="555.815px" height="555.816px" viewBox="0 0 555.815 555.816" style="enable-background:new 0 0 555.815 555.816;"
	 xml:space="preserve">
<g>
	<g>
		<path d="M105.415,538.616c0,1.7,1,3.3,2.5,4.2c1.5,0.8,3.4,0.699,4.9-0.2l82-53.8h13.6l-19.3,60.699c-0.5,1.5-0.2,3,0.7,4.301
			c0.9,1.199,2.3,2,3.9,2l0,0h166.4l0,0c0.1,0,0.1,0,0.199,0c2.602,0,4.801-2.101,4.801-4.801c0-1-0.301-1.899-0.801-2.6l-19.1-59.5
			h18.801l77.6,54.5c1.4,1,3.199,1.2,4.699,0.5s2.602-2.1,2.801-3.8c0.199-1.4,17-141.8-73.4-222.5
			c0.201-25.2-1.1-232.901-95-316.401c-1.9-1.7-4.8-1.6-6.6,0.2c-2.1,2.1-52.7,53.2-76.9,164.6c-0.8,4.3-19.2,103.2-16.5,150.301
			C166.915,326.015,102.915,380.916,105.415,538.616z M271.015,297.515h3.3c22.8,0,41.4,18.601,41.4,41.4v89.3
			c0,22.8-18.6,41.4-41.4,41.4h-3.3c-0.3,0-0.5-0.101-0.8-0.101c-0.3,0-0.5,0.101-0.8,0.101h-3.3c-20.2,0-36.6-16.4-36.6-36.601
			v-4.8v-84.5v-4.8C229.615,316.015,248.215,297.515,271.015,297.515z M239.215,235.315v-4.8v-62.2v-4.8c0-21.1,17.2-38.2,38.2-38.2
			c21.001,0,38.2,17.2,38.2,38.2v66.9c0,21.1-17.199,38.2-38.2,38.2c-0.8,0-1.6-0.2-2.4-0.2c-0.8,0.1-1.6,0.2-2.4,0.2
			C254.215,268.815,239.215,253.815,239.215,235.315z"/>
		<path d="M267.915,383.515c0.8,0,1.6-0.1,2.4-0.199c0.8,0.1,1.6,0.199,2.4,0.199c13.2,0,23.9-10.699,23.9-23.899v-19.101
			c0-13.199-10.7-23.899-23.9-23.899c-13.2,0-23.9,10.7-23.9,23.899v4.801v14.3v4.8
			C248.815,375.015,257.315,383.515,267.915,383.515z"/>
	</g>
</g>
<g>
</g>
<g>
</g>
<g>
</g>
<g>
</g>
<g>
</g>
<g>
</g>
<g>
</g>
<g>
</g>
<g>
</g>
<g>
</g>
<g>
</g>
<g>
</g>
<g>
</g>
<g>
</g>
<g>
</g>
</svg>
