<?xml version="1.0" encoding="iso-8859-1"?>
<!-- Generator: Adobe Illustrator 16.0.0, SVG Export Plug-In . SVG Version: 6.00 Build 0)  -->
<!DOCTYPE svg PUBLIC "-//W3C//DTD SVG 1.1//EN" "http://www.w3.org/Graphics/SVG/1.1/DTD/svg11.dtd">
<svg version="1.1" id="Capa_1" xmlns="http://www.w3.org/2000/svg" xmlns:xlink="http://www.w3.org/1999/xlink" x="0px" y="0px"
	 width="591.688px" height="591.688px" viewBox="0 0 591.688 591.688" style="enable-background:new 0 0 591.688 591.688;"
	 xml:space="preserve">
<g>
	<g>
		<path d="M432.562,191.344c0.048,3.452-0.028,6.837-0.268,10.146c-0.249,3.404-0.65,6.732-1.215,9.983
			c-2.868,16.514-9.744,31.021-20.654,43.28c-30.715,34.511-84.877,41.816-124.944,41.816c-22.759,0-43.185-2.313-53.445-4.752
			c-21.745-5.164-59.154-28.85-74.75-65.991c-1.96-4.676-3.337-9.381-4.456-14.105c-0.765-3.242-1.339-6.493-1.712-9.744
			c-0.382-3.366-0.564-6.732-0.526-10.107c-98.13,31.633-145.694,87.784-148.4,91.063c-3.07,3.71-2.897,9.123,0.401,12.632
			c2.563,2.726,60.359,63.62,150.074,104.461L124.2,418.175c-3.28,2.085-4.963,5.958-4.265,9.773l11.771,64.346
			c0.794,4.294,4.38,7.517,8.74,7.812c0.22,0.02,0.45,0.029,0.679,0.029c4.083,0,7.765-2.611,9.065-6.541l14.114-42.343
			l44.676-30.18c63.352,18.609,125.699,19.45,185.924,2.697l40.688,27.482l14.114,42.343c1.387,4.141,5.374,6.875,9.744,6.512
			c4.36-0.296,7.946-3.519,8.74-7.812l11.771-64.346c0.698-3.815-0.994-7.698-4.265-9.773l-24.403-15.558
			c86.521-40.947,136.218-104.92,138.417-107.779c2.812-3.662,2.601-8.807-0.497-12.23
			C586.232,279.328,533.954,222.804,432.562,191.344z M493.543,273.466c14.2-3.538,27.654,1.406,30.055,11.045
			c2.4,9.639-7.162,20.32-21.362,23.858c-14.201,3.538-27.655-1.406-30.056-11.045C469.78,287.686,479.343,277.004,493.543,273.466z
			 M395.125,303.75c14.201-3.538,27.655,1.406,30.065,11.045c2.399,9.639-7.163,20.32-21.363,23.858s-27.654-1.405-30.064-11.045
			C371.353,317.97,380.925,307.29,395.125,303.75z M287.441,318.429c14.584,1.253,25.714,10.279,24.873,20.177
			c-0.852,9.897-13.359,16.906-27.933,15.654c-14.573-1.253-25.714-10.28-24.872-20.177
			C260.351,324.186,272.859,317.176,287.441,318.429z M57.597,279.462c4.294-8.96,18.465-11.092,31.671-4.762
			c13.196,6.321,20.416,18.714,16.122,27.664c-4.293,8.961-18.465,11.093-31.671,4.763
			C60.523,300.805,53.304,288.422,57.597,279.462z M178.477,304.295c13.751,5.002,22.156,16.61,18.762,25.953
			c-3.395,9.343-17.289,12.852-31.05,7.851c-13.75-5.001-22.156-16.61-18.761-25.952
			C150.822,302.804,164.726,299.304,178.477,304.295z"/>
		<path d="M291.582,91.549h-0.65c-7.239,0-73.431,0.717-110.074,61.497c-7.028,11.666-10.576,22.816-11.561,33.315
			c-0.325,3.443-0.363,6.818-0.153,10.108c0.21,3.337,0.669,6.579,1.358,9.753c7.984,36.892,46.206,62.348,65.723,66.985
			c7.937,1.884,26.679,4.657,49.151,4.657c50.309,0,119.13-12.183,127.182-71.948c0.431-3.204,0.832-6.436,0.899-9.926
			c0.066-3.222-0.239-6.713-0.497-10.174c-0.115-1.53-0.048-2.936-0.239-4.514C412.721,181.293,396.627,91.549,291.582,91.549z
			 M248.149,254.112c-0.029,0-0.067,0-0.096,0c-0.172,0-0.344,0.44-0.517,0.421c-1.54-0.172-37.8-4.169-53.502-30.141
			c-4.103-6.78-6.292-14.373-6.78-22.654c-0.191-3.203-0.201-6.483,0.153-9.906c0.344-3.347,1.033-6.828,1.894-10.375
			c1.062-4.37,2.41-8.855,4.255-13.531c0.832-2.056,20.607-49.17,76.882-53.129c1.875-0.105,3.596,0.851,4.495,2.448
			c0.908,1.606,0.803,3.605-0.249,5.125c-0.229,0.316-13.397,19.613-20.951,49.706c-0.794,3.156-1.501,6.426-2.151,9.811
			c-0.612,3.204-1.138,6.493-1.578,9.888c-2.19,16.811-2.17,35.792,2.429,56.132c0.383,0.688,0.603,1.042,0.603,1.884
			C253.017,252.458,250.684,254.112,248.149,254.112z"/>
	</g>
</g>
<g>
</g>
<g>
</g>
<g>
</g>
<g>
</g>
<g>
</g>
<g>
</g>
<g>
</g>
<g>
</g>
<g>
</g>
<g>
</g>
<g>
</g>
<g>
</g>
<g>
</g>
<g>
</g>
<g>
</g>
</svg>
