<?xml version="1.0" encoding="iso-8859-1"?>
<!-- Generator: Adobe Illustrator 16.0.0, SVG Export Plug-In . SVG Version: 6.00 Build 0)  -->
<!DOCTYPE svg PUBLIC "-//W3C//DTD SVG 1.1//EN" "http://www.w3.org/Graphics/SVG/1.1/DTD/svg11.dtd">
<svg version="1.1" id="Capa_1" xmlns="http://www.w3.org/2000/svg" xmlns:xlink="http://www.w3.org/1999/xlink" x="0px" y="0px"
	 width="551.259px" height="551.259px" viewBox="0 0 551.259 551.259" style="enable-background:new 0 0 551.259 551.259;"
	 xml:space="preserve">
<g>
	<g>
		<path d="M133.292,70.81c1.635,0,3.29-0.411,4.801-1.3c14.43-8.396,29.758-15.291,45.565-20.464
			c5.011-1.645,7.755-7.047,6.11-12.068c-1.635-5.011-7-7.765-12.068-6.11c-17.079,5.594-33.641,13.034-49.218,22.108
			c-4.571,2.659-6.111,8.511-3.452,13.072C126.799,69.108,130.002,70.81,133.292,70.81z"/>
		<path d="M331.359,48.597c15.855,5.087,31.231,11.886,45.681,20.187c1.501,0.86,3.137,1.271,4.752,1.271
			c3.318,0,6.541-1.721,8.301-4.8c2.63-4.581,1.042-10.423-3.528-13.053c-15.625-8.97-32.226-16.313-49.362-21.812
			c-4.991-1.597-10.413,1.157-12.029,6.177C323.557,41.587,326.33,46.98,331.359,48.597z"/>
		<path d="M499.497,337.307c0.67,0.144,1.339,0.201,1.989,0.201c4.428,0,8.377-3.089,9.333-7.583
			c3.7-17.519,5.556-35.563,5.556-53.904v-0.765c0-5.278-4.274-9.562-9.562-9.562s-9.562,4.284-9.562,9.562v1.022
			c0,16.754-1.722,33.469-5.145,49.696C491.016,331.139,494.333,336.217,499.497,337.307z"/>
		<path d="M12.881,234.473c0.65,0.134,1.319,0.201,1.96,0.201c4.437,0,8.406-3.098,9.353-7.602
			c3.404-16.295,8.558-32.283,15.31-47.545c2.142-4.829-0.039-10.48-4.877-12.613c-4.8-2.142-10.48,0.047-12.604,4.876
			c-7.306,16.486-12.862,33.766-16.534,51.37C4.389,228.324,7.708,233.392,12.881,234.473z"/>
		<path d="M129.361,500.099c1.511,0.87,3.146,1.281,4.772,1.281c3.309,0,6.521-1.712,8.291-4.781
			c2.639-4.58,1.062-10.423-3.5-13.062c-14.42-8.319-28.037-18.188-40.449-29.347c-3.901-3.52-9.974-3.204-13.502,0.727
			c-3.528,3.93-3.203,9.974,0.727,13.502C99.106,480.458,113.794,491.12,129.361,500.099z"/>
		<path d="M178.704,522.016c17.098,5.527,34.865,9.267,52.794,11.112c0.334,0.038,0.66,0.047,0.995,0.047
			c4.848,0,8.998-3.662,9.505-8.587c0.536-5.249-3.29-9.954-8.539-10.49c-16.61-1.702-33.048-5.163-48.874-10.289
			c-5.049-1.606-10.414,1.138-12.039,6.158C170.92,514.988,173.674,520.381,178.704,522.016z"/>
		<path d="M476.72,373.482c-6.771,15.186-15.186,29.739-24.997,43.251c-3.107,4.274-2.17,10.251,2.113,13.359
			c1.702,1.233,3.663,1.826,5.613,1.826c2.965,0,5.872-1.367,7.746-3.939c10.604-14.593,19.698-30.304,26.995-46.723
			c2.161-4.819-0.02-10.48-4.839-12.622C484.484,366.492,478.852,368.663,476.72,373.482z"/>
		<path d="M15.032,338.015c0.66,0,1.339-0.125,2.008-0.269c5.164-1.1,8.463-6.244,7.354-11.407
			c-3.462-16.229-5.231-33.067-5.269-49.812c-0.01-5.278-4.284-9.792-9.562-9.792c-0.01,0-0.01,0-0.019,0
			c-5.288,0-9.553,4.542-9.543,9.83c0.038,18.083,1.951,36.366,5.699,53.885C6.646,334.936,10.614,338.015,15.032,338.015z"/>
		<path d="M231.46,38.623c0.334,0,0.679-0.02,1.023-0.058c16.467-1.759,33.45-1.807,49.974-0.144
			c5.364,0.564,9.955-3.309,10.48-8.558c0.535-5.25-3.309-9.945-8.559-10.471c-17.824-1.798-36.136-1.74-53.923,0.153
			c-5.25,0.564-9.046,5.269-8.491,10.519C222.491,34.979,226.631,38.623,231.46,38.623z"/>
		<path d="M56.677,140.177c2.964,0,5.881-1.377,7.755-3.959c9.763-13.483,20.99-26,33.364-37.208
			c3.911-3.548,4.208-9.591,0.66-13.512c-3.548-3.92-9.61-4.207-13.512-0.669c-13.35,12.096-25.456,25.618-36.003,40.172
			c-3.098,4.274-2.151,10.251,2.132,13.349C52.775,139.584,54.736,140.177,56.677,140.177z"/>
		<path d="M382.701,501.132c1.625,0,3.279-0.412,4.781-1.291c15.548-8.999,30.217-19.689,43.614-31.758
			c3.921-3.538,4.227-9.581,0.688-13.512c-3.538-3.93-9.591-4.227-13.502-0.697c-12.403,11.178-25.981,21.085-40.383,29.414
			c-4.571,2.639-6.139,8.491-3.48,13.062C376.188,499.42,379.393,501.132,382.701,501.132z"/>
		<path d="M284.417,533.128c0.335,0,0.67-0.02,1.005-0.048c17.938-1.884,35.687-5.661,52.784-11.227
			c5.021-1.636,7.766-7.028,6.14-12.049s-7.048-7.774-12.059-6.13c-15.807,5.145-32.254,8.635-48.854,10.385
			c-5.25,0.555-9.065,5.26-8.511,10.51C275.438,529.475,279.579,533.128,284.417,533.128z"/>
		<path d="M27.292,369.102c-4.829,2.161-6.981,7.812-4.829,12.633c7.344,16.39,16.457,32.082,27.09,46.655
			c1.865,2.562,4.781,3.92,7.736,3.92c1.951,0,3.93-0.593,5.632-1.836c4.265-3.117,5.202-9.094,2.084-13.358
			c-9.849-13.493-18.284-28.019-25.073-43.193C37.762,369.122,32.101,366.941,27.292,369.102z"/>
		<path d="M113.918,172.641c2.964,0,5.881-1.377,7.755-3.958c6.809-9.4,14.621-18.111,23.218-25.886
			c3.911-3.538,4.217-9.582,0.679-13.502c-3.557-3.92-9.601-4.217-13.512-0.679c-9.582,8.664-18.284,18.37-25.867,28.85
			c-3.098,4.274-2.151,10.26,2.142,13.349C110.017,172.048,111.977,172.641,113.918,172.641z"/>
		<path d="M307.405,107.712c11.035,3.548,21.727,8.262,31.786,14.047c1.501,0.861,3.137,1.272,4.753,1.272
			c3.317,0,6.531-1.722,8.3-4.801c2.63-4.58,1.052-10.423-3.528-13.053c-11.217-6.445-23.151-11.724-35.468-15.673
			c-5.049-1.625-10.423,1.157-12.029,6.177C299.612,100.712,302.386,106.105,307.405,107.712z"/>
		<path d="M86.866,191.068c-5.24,11.81-9.237,24.231-11.886,36.901c-1.081,5.173,2.228,10.242,7.392,11.322
			c0.66,0.134,1.319,0.201,1.97,0.201c4.427,0,8.405-3.098,9.352-7.602c2.381-11.36,5.967-22.491,10.653-33.077
			c2.142-4.829-0.039-10.48-4.868-12.613C94.63,184.059,88.998,186.249,86.866,191.068z"/>
		<path d="M283.863,92.068c0.525-5.259-3.309-9.945-8.568-10.471c-12.785-1.281-25.953-1.233-38.719,0.125
			c-5.25,0.555-9.046,5.269-8.491,10.519c0.526,4.906,4.667,8.549,9.495,8.549c0.335,0,0.679-0.019,1.023-0.057
			c11.427-1.215,23.285-1.262,34.779-0.105C278.613,101.209,283.337,97.327,283.863,92.068z"/>
		<path d="M168.74,428.179c3.309,0,6.522-1.711,8.291-4.781c2.639-4.58,1.071-10.423-3.5-13.062
			c-10.05-5.795-19.517-12.66-28.152-20.425c-3.902-3.52-9.964-3.204-13.502,0.727c-3.529,3.93-3.204,9.974,0.727,13.502
			c9.629,8.645,20.177,16.305,31.365,22.759C165.47,427.768,167.114,428.179,168.74,428.179z"/>
		<path d="M439.875,266.134v-0.717c0-5.278-3.223-9.199-8.511-9.199s-8.511,4.638-8.511,9.926c0,11.666-1.205,23.303-3.596,34.578
			c-1.09,5.173,2.209,10.241,7.373,11.341c0.67,0.144,1.339,0.201,1.989,0.201c4.428,0,7.344-3.089,8.29-7.583
			C439.588,292.086,439.875,279.12,439.875,266.134z"/>
		<path d="M247.841,442.083c0.536-5.25-3.29-9.955-8.539-10.49c-11.561-1.186-22.998-3.596-34.014-7.162
			c-5.039-1.597-10.414,1.138-12.039,6.158c-1.625,5.03,1.128,10.413,6.158,12.049c12.278,3.978,25.044,6.655,37.935,7.975
			c0.334,0.039,0.66,0.048,0.995,0.048C243.184,450.67,247.334,447.008,247.841,442.083z"/>
		<path d="M275.065,450.632c0.325,0,0.669-0.02,1.004-0.048c12.881-1.357,25.637-4.064,37.906-8.062
			c5.02-1.635,7.765-7.028,6.139-12.049c-1.626-5.02-7.048-7.783-12.059-6.129c-10.997,3.576-22.434,6.005-33.985,7.22
			c-5.25,0.555-9.056,5.259-8.511,10.509C266.077,446.989,270.227,450.632,275.065,450.632z"/>
		<path d="M380.692,403.9c3.921-3.538,4.227-9.581,0.698-13.502c-3.557-3.939-9.601-4.236-13.512-0.698
			c-8.616,7.765-18.073,14.659-28.095,20.483c-4.57,2.648-6.129,8.501-3.471,13.071c1.778,3.061,4.981,4.763,8.281,4.763
			c1.625,0,3.279-0.411,4.79-1.291C360.545,420.233,371.082,412.564,380.692,403.9z"/>
		<path d="M90.155,266.593c-0.01-5.269-4.284-9.419-9.562-9.419c-0.01,0-0.019,0-0.019,0c-5.288,0-9.553,4.188-9.543,9.467
			c0.029,12.986,1.406,25.828,4.103,38.403c0.956,4.494,4.924,7.563,9.342,7.563c0.66,0,1.339-0.038,2.008-0.182
			c5.164-1.109,8.463-6.158,7.354-11.322C91.417,289.83,90.184,278.258,90.155,266.593z"/>
		<path d="M91.981,329.255c-4.819,2.161-6.971,7.822-4.81,12.642c5.278,11.771,11.819,23.046,19.45,33.497
			c1.864,2.572,4.781,3.931,7.736,3.931c1.951,0,3.93-0.593,5.632-1.836c4.255-3.108,5.202-9.094,2.084-13.359
			c-6.847-9.38-12.718-19.497-17.451-30.055C102.462,329.246,96.801,327.094,91.981,329.255z"/>
		<path d="M393.248,377.211c1.692,1.233,3.663,1.826,5.613,1.826c2.965,0,5.871-1.367,7.746-3.939
			c7.621-10.48,14.143-21.773,19.393-33.564c2.151-4.819-0.02-10.48-4.849-12.622c-4.819-2.133-10.471,0.019-12.612,4.848
			c-4.715,10.576-10.558,20.703-17.395,30.094C388.027,368.127,388.974,374.113,393.248,377.211z"/>
		<path d="M428.457,238.431c0.67,0,1.349-0.067,2.027-0.21c5.164-1.119,8.444-6.207,7.335-11.36
			c-2.735-12.642-6.809-25.035-12.116-36.825c-2.18-4.81-7.841-6.981-12.642-4.791c-4.819,2.171-6.971,7.822-4.8,12.642
			c4.762,10.567,8.415,21.669,10.862,33C420.09,235.362,424.049,238.431,428.457,238.431z"/>
		<path d="M366.636,128.616c-3.519,3.939-3.185,9.983,0.746,13.502c8.645,7.736,16.515,16.4,23.361,25.752
			c1.874,2.553,4.781,3.911,7.727,3.911c1.96,0,3.939-0.603,5.651-1.855c4.255-3.127,5.173-9.104,2.056-13.359
			c-7.65-10.423-16.409-20.072-26.039-28.688C376.188,124.341,370.155,124.686,366.636,128.616z"/>
		<path d="M477.321,180.636c6.321,14.478,11.265,29.586,14.593,45.001c0.976,4.485,4.935,7.545,9.343,7.545
			c0.669,0,1.349-0.067,2.027-0.21c5.163-1.119,8.443-6.197,7.334-11.36c-3.185-14.774-7.774-29.271-13.521-43.27
			c31.136-8.062,54.162-36.261,54.162-69.921c0-39.933-32.378-72.312-72.312-72.312c-39.933,0-72.312,32.369-72.312,72.312
			C406.626,147.789,438.135,179.756,477.321,180.636z"/>
		<circle cx="182.347" cy="110.256" r="36.366"/>
		<circle cx="251.867" cy="266.736" r="86.129"/>
		<polygon points="253.454,116.328 241.645,143.724 229.834,171.111 253.454,171.111 277.073,171.111 265.264,143.724 		"/>
		<polygon points="103.686,266.096 128.348,277.905 153,289.714 153,266.096 153,242.476 128.348,254.286 		"/>
		<polygon points="170.107,324.56 161.071,350.302 152.034,376.044 177.776,367.008 203.519,357.962 186.813,341.266 		"/>
		<polygon points="263.504,388.227 275.314,362.361 251.694,362.361 228.075,362.361 239.885,388.227 251.694,414.103 		"/>
		<polygon points="326.693,340.855 309.987,357.56 335.902,366.769 361.816,375.978 352.607,350.064 343.398,324.159 		"/>
		<polygon points="142.261,154.903 152.541,181.888 162.83,208.874 179.526,192.168 196.232,175.472 169.247,165.183 		"/>
		<polygon points="344.25,242.476 344.25,266.096 344.25,289.714 373.731,277.905 403.222,266.096 373.731,254.286 		"/>
		<polygon points="333.798,208.874 344.078,181.888 354.367,154.903 327.372,165.183 300.387,175.472 317.093,192.168 		"/>
	</g>
</g>
<g>
</g>
<g>
</g>
<g>
</g>
<g>
</g>
<g>
</g>
<g>
</g>
<g>
</g>
<g>
</g>
<g>
</g>
<g>
</g>
<g>
</g>
<g>
</g>
<g>
</g>
<g>
</g>
<g>
</g>
</svg>
