<?xml version="1.0" encoding="iso-8859-1"?>
<!-- Generator: Adobe Illustrator 16.0.0, SVG Export Plug-In . SVG Version: 6.00 Build 0)  -->
<!DOCTYPE svg PUBLIC "-//W3C//DTD SVG 1.1//EN" "http://www.w3.org/Graphics/SVG/1.1/DTD/svg11.dtd">
<svg version="1.1" id="Capa_1" xmlns="http://www.w3.org/2000/svg" xmlns:xlink="http://www.w3.org/1999/xlink" x="0px" y="0px"
	 width="529.278px" height="529.278px" viewBox="0 0 529.278 529.278" style="enable-background:new 0 0 529.278 529.278;"
	 xml:space="preserve">
<g>
	<g>
		<path d="M353.6,176.939c13.5-8.2,22-22.9,22-39c0-6.3-1.3-12.2-3.6-17.7c2.2,0.6,4.399,0.9,6.7,0.9
			c14.699,0,26.699-12,26.699-26.7c0-14.7-12-26.7-26.699-26.7c-14.7,0-26.7,12-26.7,26.7c0,1.4,0.2,2.7,0.399,4
			c-6.6-3.8-14.199-6.1-22.399-6.1c-15.101,0-29,7.5-37.4,19.9c-11.5-8.1-34.1-11.8-71.9-11.8c-19.7,0-40.6,1-60.8,1.9
			c-11.9,0.5-23.3,1.1-33.7,1.4c-0.2,0-0.3,0-0.5,0c-42.2,0.5-78.2,24.8-94.5,63.8c-21,3.1-31.2,16.9-31.2,42.3
			c0,24.9,9.9,38.7,30.1,42.1c16.3,41.1,56.5,68.5,100.8,68.5c1.5,0,3.1,0,4.4-0.2c0.3,0,0.5,0.1,0.8,0l146.601-6.6
			c-2.101,30.8-23.5,42-24.5,42.5c-1.801,0.899-2.9,2.899-2.601,4.899c0.3,2,1.8,3.7,3.8,4.101c3.4,0.699,7,1,10.5,1
			c31.601,0,60.5-27,69.101-35.801c6.7,3.7,23.899,15,40.899,39.801c6.101,8.899,8.9,14.8,8.4,17.399c-0.3,1.5-2.5,3-6,5.3
			c-5.7,3.801-13.6,9-20.1,20.601c-5.5,9.8-6.801,19.1-4,27.399c4.6,13.301,18.1,19.2,18.699,19.4c0.601,0.2,1.301,0.8,1.9,0.7
			c0,0,64.2,0.6,114.1,0.6h0.7c16.601,0,27.7-5.1,32.7-14c8.2-14.3-3.1-34.3-3.4-34.8C484.1,331.739,410.3,240.639,353.6,176.939z
			 M99.9,213.039h186.5c9.2,0,16.7,7.5,16.7,16.7v4.8c0,9.2-7.5,16.7-16.7,16.7h-4.8H99.9h-4.8c-6.6,0-12-5.4-12-12v-4.8v-4.8
			C83.2,220.539,90.7,213.039,99.9,213.039z M83.2,191.439v-4.8v-4.8c0-9.2,7.5-16.7,16.7-16.7h186.5c9.2,0,16.7,7.5,16.7,16.7v4.8
			c0,9.2-7.5,16.7-16.7,16.7h-4.8H99.9h-4.8C88.5,203.439,83.2,198.039,83.2,191.439z"/>
	</g>
</g>
<g>
</g>
<g>
</g>
<g>
</g>
<g>
</g>
<g>
</g>
<g>
</g>
<g>
</g>
<g>
</g>
<g>
</g>
<g>
</g>
<g>
</g>
<g>
</g>
<g>
</g>
<g>
</g>
<g>
</g>
</svg>
