<?xml version="1.0" encoding="iso-8859-1"?>
<!-- Generator: Adobe Illustrator 16.0.0, SVG Export Plug-In . SVG Version: 6.00 Build 0)  -->
<!DOCTYPE svg PUBLIC "-//W3C//DTD SVG 1.1//EN" "http://www.w3.org/Graphics/SVG/1.1/DTD/svg11.dtd">
<svg version="1.1" id="Capa_1" xmlns="http://www.w3.org/2000/svg" xmlns:xlink="http://www.w3.org/1999/xlink" x="0px" y="0px"
	 width="543.867px" height="543.867px" viewBox="0 0 543.867 543.867" style="enable-background:new 0 0 543.867 543.867;"
	 xml:space="preserve">
<g>
	<g>
		<path d="M338.273,104.59v-4.781c0-2.63-2.142-4.781-4.781-4.781c-0.765,0-1.463,0.22-2.104,0.545
			C335.338,96.749,338.273,100.258,338.273,104.59z"/>
		<path d="M204.398,104.59v-4.781c0-2.63-2.142-4.781-4.781-4.781c-0.765,0-1.463,0.22-2.104,0.545
			C201.463,96.749,204.398,100.258,204.398,104.59z"/>
		<path d="M266.555,95.027c-0.765,0-1.463,0.22-2.104,0.545c3.949,1.176,6.885,4.686,6.885,9.018v-4.781
			C271.336,97.179,269.194,95.027,266.555,95.027z"/>
		<path d="M420.74,202.529c-0.803-138.666-35.888-145.751-43.021-145.751H166.12c-7.105,0-42.189,7.086-42.993,145.751
			c-13.665,0.306-52.135,4.935-74.703,44.935C23.275,292.053,0,345.574,0,434.496c0,2.64,2.142,4.781,4.781,4.781h60.033
			l16.763,44.714c0.708,1.865,2.496,3.099,4.485,3.099h89.648c2.018,0,3.815-1.271,4.504-3.165l16.036-44.647h12.001l16.763,44.714
			c0.708,1.865,2.496,3.099,4.485,3.099h89.648c2.018,0,3.815-1.271,4.504-3.165l16.036-44.647h12.001l16.764,44.714
			c0.707,1.865,2.495,3.099,4.484,3.099h89.648c2.018,0,3.815-1.271,4.504-3.165l16.036-44.647h55.96
			c2.64,0,4.781-2.142,4.781-4.781c0-88.922-23.275-142.443-48.425-187.033C472.875,207.463,434.396,202.835,420.74,202.529z
			 M319.148,181.09v-4.781V104.59v-4.781c0-7.908,6.436-14.344,14.344-14.344s14.344,6.436,14.344,14.344v76.5
			c0,7.908-6.436,14.344-14.344,14.344c-1.052,0-2.075-0.134-3.06-0.344c-0.584,0.105-1.109,0.344-1.722,0.344
			C323.433,190.652,319.148,186.368,319.148,181.09z M280.898,176.309c0,7.908-6.436,14.344-14.344,14.344
			c-1.052,0-2.075-0.134-3.06-0.344c-0.583,0.105-1.109,0.344-1.721,0.344c-5.278,0-9.562-4.284-9.562-9.562v-4.781V104.59v-4.781
			c0-7.908,6.436-14.344,14.344-14.344s14.344,6.436,14.344,14.344V176.309z M185.273,181.09v-4.781V104.59v-4.781
			c0-7.908,6.436-14.344,14.344-14.344s14.344,6.436,14.344,14.344v76.5c0,7.908-6.436,14.344-14.344,14.344
			c-1.052,0-2.075-0.134-3.06-0.344c-0.583,0.105-1.109,0.344-1.721,0.344C189.558,190.652,185.273,186.368,185.273,181.09z"/>
	</g>
</g>
<g>
</g>
<g>
</g>
<g>
</g>
<g>
</g>
<g>
</g>
<g>
</g>
<g>
</g>
<g>
</g>
<g>
</g>
<g>
</g>
<g>
</g>
<g>
</g>
<g>
</g>
<g>
</g>
<g>
</g>
</svg>
