<?xml version="1.0" encoding="iso-8859-1"?>
<!-- Generator: Adobe Illustrator 16.0.0, SVG Export Plug-In . SVG Version: 6.00 Build 0)  -->
<!DOCTYPE svg PUBLIC "-//W3C//DTD SVG 1.1//EN" "http://www.w3.org/Graphics/SVG/1.1/DTD/svg11.dtd">
<svg version="1.1" id="Capa_1" xmlns="http://www.w3.org/2000/svg" xmlns:xlink="http://www.w3.org/1999/xlink" x="0px" y="0px"
	 width="512.072px" height="512.072px" viewBox="0 0 512.072 512.072" style="enable-background:new 0 0 512.072 512.072;"
	 xml:space="preserve">
<g>
	<g>
		<path d="M359.307,384.402c0.211-1.482-0.287-2.982-1.357-4.055l-1.76-1.76l19.861-20.721l3.873,3.873
			c1.605,1.615,4.15,1.846,6.043,0.592c1.205-0.803,29.73-20.023,49.438-40.287c12.135-12.479,35.668-44.895,29.041-51.588
			l-15.07-15.062l6.646-30.839c0.334-1.587-0.152-3.242-1.301-4.389l-33.947-33.947c3.318-2.707,7.02-5.183,11.371-6.206
			c20.684-4.868,26.746-15.319,27.549-16.878c0.221-0.545,5.508-13.474-2.4-28.898c-9.381-18.303-32.637-31.814-69.127-40.163
			c-25.418-5.814-45.633-5.699-59.23,0.325l-57.26-57.26C270.146,35.639,232.89,0,175.2,0C130.6,0,86.68,21.286,45.006,62.94
			c-1.587,1.31-38.872,32.723-41.635,90.681c-2.658,55.845,27.387,115.687,89.342,177.853c-5.489,13.645-5.402,33.076,0.258,57.824
			c14.621,63.926,42.438,73.469,57.719,73.469c6.541,0,10.873-1.75,11.724-2.123c1.186-0.621,11.647-6.684,16.515-27.357
			c0.918-3.873,2.917-7.164,5.336-10.262l40.162,40.162c1.062,1.062,2.553,1.541,4.055,1.359c0.517-0.078,11.896-1.836,28.64-15.902
			l14.871,15.338c0.908,0.938,2.15,1.453,3.432,1.453c0.162,0,0.326-0.01,0.498-0.029c1.836-0.191,18.857-2.695,48.07-31.91
			C329.557,427.51,357.49,397.092,359.307,384.402z M47.961,213.645c-31.738-31.738-20.607-94.343,24.863-139.813
			c45.479-45.47,108.075-56.61,139.813-24.863c31.738,31.748,20.607,94.344-24.862,139.813
			C142.295,234.252,79.699,245.383,47.961,213.645z M195.109,196.098c19.603-19.603,51.389-19.603,71.002,0
			c19.602,19.603,19.602,51.389,0,71.001c-19.604,19.604-51.39,19.604-71.002,0C175.506,247.487,175.506,215.701,195.109,196.098z"
			/>
		<path d="M373.861,455.643c4.379,0.078,8.203,2.564,11.359,5.346c0.889,0.766,2.027,3.271,3.166,3.271c0.096,0,0.152,0,0.191,0
			c2.639,0,4.781-4.207,4.781-6.857c0-0.592-0.105-3.232-0.297-3.748c-0.604-5.824-4.553-25.895-30.074-41.52
			c-1.186-0.719-2.648-0.822-3.959-0.383c-1.33,0.42-2.4,1.578-2.945,2.859c-0.125,0.287-12.383,29.051-45.633,45.822
			c-2.236,1.119-3.232,4.457-2.266,6.771c0.707,1.721,18.121,44.867,69.652,44.867c0.039,0,0.078,0,0.115,0
			c1.932,0,3.682-2.344,4.418-4.141c0.756-1.826,0.307-5.117-1.129-6.475c-6.281-5.938-14.344-14.658-19.793-23.217
			c8.414,7.096,20.129,14.707,34.215,14.707c0.008,0,0.027,0,0.047,0c0.076,0,0.152,0,0.191,0c2.639,0,4.781-2.535,4.781-5.184
			c0-1.873-1.08-3.91-2.658-4.686C389.801,476.318,377.82,464.766,373.861,455.643z"/>
		<path d="M482.061,345.818c4.379,0.076,8.195,0.918,11.359,3.701c0.891,0.773,2.018,0,3.156,0c0.096,0,0.152,0,0.191,0
			c2.639,0,4.781-0.977,4.781-3.625c0-0.592-0.105,0-0.297-0.516c-0.602-5.824-4.551-26.002-30.074-41.627
			c-1.186-0.717-2.629-1.021-3.949-0.582c-1.328,0.42-2.4,1.166-2.955,2.447c-0.123,0.277-12.535,28.314-45.631,45.002
			c-2.238,1.119-3.232,2.811-2.268,5.135c0.709,1.711,18.111,41.568,69.664,41.568c0.037,0,0.076,0,0.113,0
			c1.932,0,3.682,1.301,4.418-0.488c0.756-1.826,0.307-1.463-1.127-2.82c-6.273-5.93-14.326-13.904-19.775-22.443
			c8.404,7.086,20.109,16.189,34.166,16.189c0.02,0,0.039,0,0.057,0c0.078,0,0.154,0,0.191,0c2.641,0,4.781-4.447,4.781-7.086
			c0-1.875-1.08-5.814-2.658-6.59C497.992,367.295,486.02,354.932,482.061,345.818z"/>
	</g>
</g>
<g>
</g>
<g>
</g>
<g>
</g>
<g>
</g>
<g>
</g>
<g>
</g>
<g>
</g>
<g>
</g>
<g>
</g>
<g>
</g>
<g>
</g>
<g>
</g>
<g>
</g>
<g>
</g>
<g>
</g>
</svg>
