<?xml version="1.0" encoding="iso-8859-1"?>
<!-- Generator: Adobe Illustrator 16.0.0, SVG Export Plug-In . SVG Version: 6.00 Build 0)  -->
<!DOCTYPE svg PUBLIC "-//W3C//DTD SVG 1.1//EN" "http://www.w3.org/Graphics/SVG/1.1/DTD/svg11.dtd">
<svg version="1.1" id="Capa_1" xmlns="http://www.w3.org/2000/svg" xmlns:xlink="http://www.w3.org/1999/xlink" x="0px" y="0px"
	 width="582.117px" height="582.117px" viewBox="0 0 582.117 582.117" style="enable-background:new 0 0 582.117 582.117;"
	 xml:space="preserve">
<g>
	<g>
		<path d="M67.406,266.541c-0.315,1.865-0.478,3.777-0.478,5.718c0,49.553,109.625,115.945,221.735,115.945
			c104.824,0,228.907-63.495,228.907-117.141c0-1.884-0.172-3.739-0.497-5.546c42.572-19.067,65.044-42.515,65.044-67.97
			c0-35.267-44.227-66.029-113.822-85.412c0.918,1.999,1.96,3.939,2.82,5.977c0.804,1.922,1.415,3.939,2.161,5.9
			c8.405,21.937,13.216,45.642,13.216,70.495c0,6.436-3.242,12.441-8.616,15.979c-5.059,3.328-53.378,32.542-189.213,32.542
			c-135.826,0-184.145-29.213-189.213-32.542c-5.374-3.538-8.616-9.543-8.616-15.979c0-24.25,4.6-47.392,12.623-68.878
			c0.736-1.97,1.377-3.978,2.17-5.91c0.832-2.018,1.741-3.997,2.64-5.977C41.893,133.191,0,163.237,0,197.557
			C-0.01,223.48,23.285,247.291,67.406,266.541z M418.053,282.414c12.814,0,23.209,10.395,23.209,23.208
			c0,12.814-10.395,23.208-23.209,23.208c-12.813,0-23.208-10.394-23.208-23.208C394.845,292.809,405.229,282.414,418.053,282.414z
			 M360.678,291.977c12.814,0,23.209,10.395,23.209,23.208c0,12.814-10.395,23.208-23.209,23.208
			c-12.813,0-23.208-10.394-23.208-23.208C337.47,302.371,347.854,291.977,360.678,291.977z M236.366,291.977
			c12.813,0,23.208,10.395,23.208,23.208c0,12.814-10.395,23.208-23.208,23.208c-12.814,0-23.208-10.394-23.208-23.208
			C213.158,302.371,223.542,291.977,236.366,291.977z M178.991,282.414c12.813,0,23.208,10.395,23.208,23.208
			c0,12.814-10.395,23.208-23.208,23.208c-12.814,0-23.208-10.394-23.208-23.208C155.783,292.809,166.167,282.414,178.991,282.414z"
			/>
		<path d="M189.395,496.261c-5.604,5.594-5.604,15.338,0,20.941c30.667,30.667,71.069,49.104,113.766,49.104c0.19,0,0.382,0,0.573,0
			c41.97,0,81.195-17.403,110.485-46.703c5.604-5.604,5.604-15.979,0-21.573c-5.604-5.604-14.688-5.565-20.282,0.038
			c-23.982,23.983-56.477,37.17-90.672,37.084c-35.065-0.125-68.305-13.952-93.578-39.226
			C204.073,490.322,194.998,490.657,189.395,496.261z"/>
		<path d="M210.729,448.151c-5.604,5.594-5.604,14.688,0,20.282c25.714,25.714,59.383,38.623,92.823,38.623
			c32.531,0,64.824-12.221,89.343-36.729c5.604-5.595,5.604-14.679,0-20.282s-14.679-5.604-20.282,0
			c-38.518,38.518-102.032,37.667-141.592-1.894C225.407,442.548,216.332,442.548,210.729,448.151z"/>
		<path d="M357.398,421.759c5.604-5.594,5.604-14.688,0-20.282c-5.604-5.604-14.679-5.604-20.282,0
			c-21.037,21.038-55.769,20.521-77.418-1.138c-5.604-5.604-14.679-5.604-20.282,0c-5.604,5.594-5.604,14.688,0,20.282
			c16.629,16.629,38.413,24.968,60.043,24.968C320.544,445.589,341.496,437.661,357.398,421.759z"/>
		<path d="M443.776,106.015c-30.791-53.837-88.654-90.203-155.113-90.203c-67.004,0-125.317,36.931-155.907,91.504
			c-1.071,1.912-2.056,3.863-3.06,5.823c-0.994,1.941-1.922,3.921-2.84,5.9c-10.729,22.95-16.887,48.462-16.887,75.467
			c0,0,44.676,29.396,178.704,29.396s178.685-29.396,178.685-29.396c0-27.54-6.416-53.521-17.538-76.815
			c-0.927-1.941-1.807-3.92-2.802-5.823C445.976,109.888,444.876,107.946,443.776,106.015z M217.241,166.277
			c-12.814,0-23.208-10.394-23.208-23.208c0-12.813,10.394-23.208,23.208-23.208c12.813,0,23.208,10.395,23.208,23.208
			C240.449,155.883,230.054,166.277,217.241,166.277z M293.74,166.277c-12.813,0-23.208-10.394-23.208-23.208
			c0-12.813,10.394-23.208,23.208-23.208c12.814,0,23.209,10.395,23.209,23.208C316.949,155.883,306.555,166.277,293.74,166.277z
			 M370.24,166.277c-12.813,0-23.208-10.394-23.208-23.208c0-12.813,10.395-23.208,23.208-23.208
			c12.814,0,23.209,10.395,23.209,23.208C393.449,155.883,383.055,166.277,370.24,166.277z"/>
	</g>
</g>
<g>
</g>
<g>
</g>
<g>
</g>
<g>
</g>
<g>
</g>
<g>
</g>
<g>
</g>
<g>
</g>
<g>
</g>
<g>
</g>
<g>
</g>
<g>
</g>
<g>
</g>
<g>
</g>
<g>
</g>
</svg>
