<?xml version="1.0" encoding="iso-8859-1"?>
<!-- Generator: Adobe Illustrator 16.0.0, SVG Export Plug-In . SVG Version: 6.00 Build 0)  -->
<!DOCTYPE svg PUBLIC "-//W3C//DTD SVG 1.1//EN" "http://www.w3.org/Graphics/SVG/1.1/DTD/svg11.dtd">
<svg version="1.1" id="Capa_1" xmlns="http://www.w3.org/2000/svg" xmlns:xlink="http://www.w3.org/1999/xlink" x="0px" y="0px"
	 width="588.132px" height="588.132px" viewBox="0 0 588.132 588.132" style="enable-background:new 0 0 588.132 588.132;"
	 xml:space="preserve">
<g>
	<g>
		<path d="M566.398,360.013c-0.191-0.707-0.449-1.664-0.659-2.43c0.707-6.377,0.057-13.855-3.213-22.299
			c-2.927-9.668-28.42-92.642-56.429-139.211c-0.717-1.214-17.882-29.921-41.195-48.778c0.038-9.878-1.425-20.741-7.038-27.444
			c-3.682-4.389-8.635-6.703-14.354-6.703c-17.882,0-40.707,11.8-52.642,23.801c-1.798-0.172-3.978-0.287-6.521-0.287
			c-24.078,0-88.96,11.389-174.258,116.242l-72.637,15.797c-3.624,0.793-6.464,3.605-7.287,7.22
			c-0.172,0.746-3.595,16.313,1.396,37.255l-37.035,12.354c-3.539,1.176-6.072,4.303-6.483,8.014
			c-0.354,3.223-8.281,79.492,34.96,121.033c2.123,2.045,5.03,2.973,8.013,2.572c2.993-0.441,71.642-10.682,113.296-31.461
			c19.479,8.404,100.207,40.324,202.898,40.324c12.039,0,24.088-0.449,35.869-1.348c5.995,3.527,18.876,10.318,29.366,10.318
			c2.524,0,4.877-0.383,6.98-1.129c12.795-4.543,19.058-22.348,20.406-32.656c3.299-3.26,8.53-8.674,12.689-14.113
			c2.974,0.975,6.455,1.75,10.031,1.75c8.281,0,15.032-4.113,18.714-11.332c4.666-6.312,10.098-20.33,4.456-38.422
			C580.848,363.371,572.538,360.033,566.398,360.013z M292.107,290.025c0.784-1.692,5.633-10.901,23.726-25.905
			c5.201-3.672,20.922-14.095,31.441-14.095c4.341,0,7.268,1.587,8.96,2.917c8.166,6.417,52.775,76.472,33.946,113.124
			c-1.453,2.994-8.615,13.406-35.706,13.406c-9.438,0-20.578-1.262-33.105-3.748c-1.922-0.373-3.691-1.348-5.039-2.754
			c-1.081-1.129-26.47-28.199-25.112-79.167C291.247,292.502,291.553,291.211,292.107,290.025z M489.707,205.923
			c28.229,46.933,54.736,135.635,54.736,135.635c2.648,6.531,2.936,12.162,1.702,17.012c-5.26,20.645-38.499,27.023-38.499,27.023
			c-3.863,0.938-7.631,1.387-11.303,1.387c-67.588,0-102.998-151.451-110.256-179.278c-5.881-22.539,35.152-38.546,35.152-38.546
			l23.705-9.897l2.649-1.109c2.208,1.521,4.351,3.213,6.464,4.963c3.634,3.022,7.124,6.311,10.385,9.725
			C479.352,188.434,489.707,205.923,489.707,205.923z"/>
		<path d="M75.947,356.839c0.105-1.531-0.536-3.014-1.712-3.998c-1.176-0.994-2.725-1.367-4.236-0.965
			c-2.41,0.602-59.154,15.27-69.73,45.287c-0.564,1.607-0.229,3.385,0.87,4.676c1.1,1.301,2.821,1.885,4.485,1.617
			c0.144-0.029,14.544-2.564,28.104-2.564c5.078,0,8.903,0.346,11.762,0.861c-12.097,3.787-29.759,10.711-35.027,20.072
			c-0.909,1.596-0.813,3.566,0.239,5.078c1.052,1.49,2.897,2.275,4.676,1.988c0.191-0.039,18.264-2.916,31.001-2.916
			c2.438,0,4.265,0.113,5.632,0.248c-2.458,2.084-6.856,4.447-14.544,5.25c-1.941,0.201-3.567,1.568-4.112,3.441
			c-0.536,1.885,0.134,3.893,1.683,5.088c0.488,0.383,12.154,9.209,31.423,9.209c8.128,0,16.466-1.578,24.795-4.686
			c1.281-0.488,2.295-1.482,2.783-2.754c0.497-1.281,0.42-2.697-0.201-3.912C93.638,437.47,73.203,397.193,75.947,356.839z"/>
	</g>
</g>
<g>
</g>
<g>
</g>
<g>
</g>
<g>
</g>
<g>
</g>
<g>
</g>
<g>
</g>
<g>
</g>
<g>
</g>
<g>
</g>
<g>
</g>
<g>
</g>
<g>
</g>
<g>
</g>
<g>
</g>
</svg>
