<?xml version="1.0" encoding="iso-8859-1"?>
<!-- Generator: Adobe Illustrator 16.0.0, SVG Export Plug-In . SVG Version: 6.00 Build 0)  -->
<!DOCTYPE svg PUBLIC "-//W3C//DTD SVG 1.1//EN" "http://www.w3.org/Graphics/SVG/1.1/DTD/svg11.dtd">
<svg version="1.1" id="Capa_1" xmlns="http://www.w3.org/2000/svg" xmlns:xlink="http://www.w3.org/1999/xlink" x="0px" y="0px"
	 width="564.79px" height="564.79px" viewBox="0 0 564.79 564.79" style="enable-background:new 0 0 564.79 564.79;"
	 xml:space="preserve">
<g>
	<g>
		<path d="M115.341,534.907c21.678,0,31.021-65.618,34.157-95.615c15.31,6.903,34.865,12.029,58.427,15.31
			c15.396,55.194,56.141,100.817,60.014,105.062c2.132,2.572,5.89,5.126,10.557,5.126c3.883,0,7.603-1.798,10.299-4.867
			c1.855-2.018,44.093-48.243,60.062-104.633c27.358-3.414,49.581-9.189,66.345-17.241c3.146,30.647,12.479,96.858,34.243,96.858
			c5.584,0,11.437-3.567,18.427-11.227c23.725-26.029,56.323-92.029,50.863-151.021c-3.538-38.374-28.869-57.824-70.008-53.636
			c-10.107-101.975-39.101-172.259-40.459-175.52C345.396,4.026,287.955,0,281.614,0h-1.138c-6.378,0-64.097,4.007-126.751,142.959
			c-1.262,3.041-30.217,73.755-40.344,175.816c-39.675-3.051-63.858,16.361-67.33,53.885
			c-5.451,58.991,27.138,124.991,50.863,151.021C103.905,531.331,109.767,534.907,115.341,534.907z M281.796,298.312
			c-45.527,0-82.562-37.035-82.562-82.562c0-45.527,37.035-82.562,82.562-82.562c45.527,0,82.563,37.036,82.563,82.562
			C364.359,261.276,327.313,298.312,281.796,298.312z"/>
	</g>
</g>
<g>
</g>
<g>
</g>
<g>
</g>
<g>
</g>
<g>
</g>
<g>
</g>
<g>
</g>
<g>
</g>
<g>
</g>
<g>
</g>
<g>
</g>
<g>
</g>
<g>
</g>
<g>
</g>
<g>
</g>
</svg>
