<?xml version="1.0" encoding="iso-8859-1"?>
<!-- Generator: Adobe Illustrator 16.0.0, SVG Export Plug-In . SVG Version: 6.00 Build 0)  -->
<!DOCTYPE svg PUBLIC "-//W3C//DTD SVG 1.1//EN" "http://www.w3.org/Graphics/SVG/1.1/DTD/svg11.dtd">
<svg version="1.1" id="Capa_1" xmlns="http://www.w3.org/2000/svg" xmlns:xlink="http://www.w3.org/1999/xlink" x="0px" y="0px"
	 width="586.898px" height="586.898px" viewBox="0 0 586.898 586.898" style="enable-background:new 0 0 586.898 586.898;"
	 xml:space="preserve">
<g>
	<g>
		<path d="M474.004,295.998c0.363-4.973,0.535-9.764,0.535-14.507c0-47.038-15.472-91.322-43.7-125.47
			c6.837-11.714,16.6-21.64,30.103-30.657c9.744,8.521,22.156,13.282,35.104,13.282c29.663,0,53.789-24.126,53.789-53.789
			c0-29.663-24.126-53.789-53.789-53.789c-23.256,0-43.901,15.271-51.063,37.017c-0.746,0.335-1.473,0.698-2.189,1.1
			c-24.375,13.674-43.185,30.045-56.027,48.75c-26.813-16.189-57.623-24.7-89.734-24.7c-33.469,0-65.245,9.113-92.488,26.459
			c-16.496-23.935-36.108-40.918-58.437-50.557c-0.105-0.048-0.21-0.096-0.325-0.134c-6.866-22.281-27.617-37.915-51.36-37.915
			c-29.663,0-53.789,24.126-53.789,53.789c0,29.663,24.126,53.789,53.789,53.789c12.996,0,25.475-4.801,35.238-13.388
			c12.25,7.554,22.606,18.456,31.997,33.669c-26.44,33.708-40.928,76.95-40.928,122.562c0,4.017,0.115,8.138,0.344,12.307
			C43.997,313.966,0,346.096,0,382.51c0,38.785,48.721,72.092,134.047,91.905c3.854,45.977,73.01,81.415,160.603,81.415
			c87.965,0,157.341-35.735,160.641-81.999c83.768-19.89,131.608-52.985,131.608-91.321
			C586.898,347.559,545.875,316.231,474.004,295.998z M152.751,316.815c-1.387-1.712-2.142-3.835-2.142-6.034
			c0-97.547,64.881-176.906,144.633-176.906c79.751,0,144.633,79.359,144.633,176.906c0,2.371-0.88,4.657-2.477,6.426
			c-1.53,1.692-38.719,41.387-143.954,41.387C187.913,358.594,154.138,318.518,152.751,316.815z"/>
	</g>
</g>
<g>
</g>
<g>
</g>
<g>
</g>
<g>
</g>
<g>
</g>
<g>
</g>
<g>
</g>
<g>
</g>
<g>
</g>
<g>
</g>
<g>
</g>
<g>
</g>
<g>
</g>
<g>
</g>
<g>
</g>
</svg>
