<?xml version="1.0" encoding="iso-8859-1"?>
<!-- Generator: Adobe Illustrator 16.0.0, SVG Export Plug-In . SVG Version: 6.00 Build 0)  -->
<!DOCTYPE svg PUBLIC "-//W3C//DTD SVG 1.1//EN" "http://www.w3.org/Graphics/SVG/1.1/DTD/svg11.dtd">
<svg version="1.1" id="Capa_1" xmlns="http://www.w3.org/2000/svg" xmlns:xlink="http://www.w3.org/1999/xlink" x="0px" y="0px"
	 width="566.892px" height="566.893px" viewBox="0 0 566.892 566.893" style="enable-background:new 0 0 566.892 566.893;"
	 xml:space="preserve">
<g>
	<g>
		<path d="M565.713,325.444c-0.784-10.012-3.461-18.762-6.187-24.346c-0.048-0.105-0.153-0.316-0.258-0.545
			c-8.826-23.667-24.079-44.581-39.149-61.019c-9.83-12.383-21.392-25.168-34.597-36.94c15.405-24.231,2.477-49.754-7.727-60.846
			c-14.344-15.998-36.146-24.107-64.814-24.107c-40.02,0-81.129,15.74-91.169,19.833c-10.519-2.706-28.506-3.471-38.479-3.691
			c-0.354-9.018-3.366-16.715-8.97-22.95c-12.508-13.885-34.75-16.801-51.208-16.801c-7.114,0-12.068,0.574-11.934,0.574
			c-95.013,4.6-196.901,73.249-196.069,213.072c0.105,18.532,3.978,35.649,11.513,50.958
			c-27.903,32.131-34.673,67.703-16.677,89.543c12.154,14.766,49.4,24.682,92.689,24.682c41.1,0,81.081-9.123,112.857-25.705
			c24.557,2.277,51.934,3.424,81.406,3.424c31.757,0,66.574-1.301,106.439-3.986c165.154-11.121,163.634-102.855,163.5-106.508
			C566.871,335.132,566.402,330.265,565.713,325.444z M418.327,182.811c77.39,28.659,124.007,126.675,124.007,126.675
			s36.452,74.721-95.711,74.721c-137.337,0-190.571-65.742-213.875-122.333s22.472-85.718,22.472-85.718
			c13.684-13.779,34.091-18.57,55.884-18.57C361.085,157.584,418.327,182.811,418.327,182.811z M246.47,148.414
			c-7.66,0-13.866-6.206-13.866-13.875c0-7.66,6.206-13.866,13.866-13.866s13.866,6.206,13.866,13.866
			C260.345,142.208,254.129,148.414,246.47,148.414z M230.386,161.17c0,8.271-6.704,14.975-14.975,14.975
			s-14.975-6.704-14.975-14.975s6.703-14.984,14.975-14.984S230.386,152.899,230.386,161.17z"/>
	</g>
</g>
<g>
</g>
<g>
</g>
<g>
</g>
<g>
</g>
<g>
</g>
<g>
</g>
<g>
</g>
<g>
</g>
<g>
</g>
<g>
</g>
<g>
</g>
<g>
</g>
<g>
</g>
<g>
</g>
<g>
</g>
</svg>
