<?xml version="1.0" encoding="iso-8859-1"?>
<!-- Generator: Adobe Illustrator 16.0.0, SVG Export Plug-In . SVG Version: 6.00 Build 0)  -->
<!DOCTYPE svg PUBLIC "-//W3C//DTD SVG 1.1//EN" "http://www.w3.org/Graphics/SVG/1.1/DTD/svg11.dtd">
<svg version="1.1" id="Capa_1" xmlns="http://www.w3.org/2000/svg" xmlns:xlink="http://www.w3.org/1999/xlink" x="0px" y="0px"
	 width="582.251px" height="582.251px" viewBox="0 0 582.251 582.251" style="enable-background:new 0 0 582.251 582.251;"
	 xml:space="preserve">
<g>
	<path d="M79.851,268.275h422.5c1.7,0,3.2-0.9,4.1-2.3c0.9-1.4,0.9-3.2,0.2-4.7c-3.1-6.2-5.8-11.6-8.2-16.8
		c-10.6-22.1-18.3-38.1-49.399-75.6c-49.7-60.2-133.7-63.3-150-63.3h-2.2h-12.8c-16.1,0-99.2,3.1-148.9,63.3
		c-37.4,45.2-45,61.4-58.7,90.7l-0.8,1.8c-0.7,1.5-0.6,3.2,0.3,4.6C76.65,267.375,78.25,268.275,79.851,268.275z M405.45,194.875
		c16.5,0,29.9,13.4,29.9,29.9s-13.4,29.9-29.9,29.9s-29.899-13.4-29.899-29.9S388.95,194.875,405.45,194.875z M326.65,194.875
		c16.5,0,29.9,13.4,29.9,29.9s-13.4,29.9-29.9,29.9s-29.9-13.4-29.9-29.9C296.851,208.275,310.251,194.875,326.65,194.875z
		 M247.951,194.875c16.5,0,29.9,13.4,29.9,29.9s-13.4,29.9-29.9,29.9s-29.9-13.4-29.9-29.9S231.451,194.875,247.951,194.875z
		 M169.15,194.875c16.5,0,29.9,13.4,29.9,29.9s-13.4,29.9-29.9,29.9s-29.9-13.4-29.9-29.9S152.65,194.875,169.15,194.875z
		 M582.251,406.876c0,2.699-2.101,4.699-4.9,4.799h-0.1h-91.2c0,35.9-29.101,65-65,65c-35.9,0-65-29.1-65-65l0,0
		c0,35.9-29.101,65-65,65c-35.9,0-65-29.1-65-65l0,0c0,35.9-29.1,65-65,65c-35.9,0-65-29.1-65-65h-6l0,0H4.75
		c-1.4,0-2.7-0.6-3.6-1.699c-0.9-1.1-1.3-2.5-1.1-3.9c11.1-67.1,32.6-93.699,33.5-94.801c18.4-23.899,24.5-23.899,26.6-23.899h461.7
		c8,0,26,23.2,26.2,23.501c1.1,1.299,31.6,36.898,34,94.6C582.15,405.876,582.251,406.376,582.251,406.876z"/>
</g>
<g>
</g>
<g>
</g>
<g>
</g>
<g>
</g>
<g>
</g>
<g>
</g>
<g>
</g>
<g>
</g>
<g>
</g>
<g>
</g>
<g>
</g>
<g>
</g>
<g>
</g>
<g>
</g>
<g>
</g>
</svg>
