<?xml version="1.0" encoding="iso-8859-1"?>
<!-- Generator: Adobe Illustrator 16.0.0, SVG Export Plug-In . SVG Version: 6.00 Build 0)  -->
<!DOCTYPE svg PUBLIC "-//W3C//DTD SVG 1.1//EN" "http://www.w3.org/Graphics/SVG/1.1/DTD/svg11.dtd">
<svg version="1.1" id="Capa_1" xmlns="http://www.w3.org/2000/svg" xmlns:xlink="http://www.w3.org/1999/xlink" x="0px" y="0px"
	 width="575.634px" height="575.634px" viewBox="0 0 575.634 575.634" style="enable-background:new 0 0 575.634 575.634;"
	 xml:space="preserve">
<g>
	<g>
		<circle cx="287.478" cy="287.34" r="115.495"/>
		<path d="M572.89,283.745L457.776,242.1l78.899-93.607c1.139-1.348,1.311-3.27,0.421-4.791c-0.88-1.521-2.61-2.324-4.36-2.027
			l-120.525,21.621l21.62-120.525c0.316-1.741-0.497-3.481-2.027-4.361c-1.511-0.889-3.442-0.717-4.79,0.421l-93.607,78.891
			L291.771,2.617c-1.214-3.318-6.665-3.318-7.879,0l-41.635,115.104L148.649,38.83c-1.358-1.128-3.29-1.31-4.791-0.421
			c-1.53,0.88-2.343,2.62-2.027,4.361l21.621,120.516L42.917,141.675c-1.721-0.296-3.471,0.507-4.36,2.027
			c-0.89,1.53-0.717,3.442,0.42,4.791l78.891,93.607L2.754,283.745C1.1,284.338,0,285.916,0,287.685s1.1,3.336,2.754,3.939
			l115.113,41.645l-78.9,93.599c-1.138,1.348-1.31,3.27-0.421,4.79s2.658,2.353,4.36,2.027l120.526-21.62l-21.611,120.525
			c-0.315,1.74,0.498,3.48,2.027,4.36c1.492,0.88,3.433,0.708,4.791-0.421l93.598-78.891l41.645,115.104
			c0.603,1.654,2.181,2.763,3.939,2.763c1.76,0,3.338-1.108,3.94-2.763l41.635-115.104l93.598,78.891
			c1.358,1.138,3.28,1.311,4.791,0.421c1.53-0.88,2.343-2.62,2.027-4.36l-21.611-120.517l120.517,21.621
			c0.276,0.048,0.554,0.048,0.841,0.067c2.276-0.211,4.274-1.855,4.274-4.188c0-1.425-0.717-2.688-1.798-3.442l-78.269-92.853
			l115.113-41.645c1.654-0.593,2.754-2.171,2.754-3.939C575.634,285.925,574.544,284.347,572.89,283.745z M287.86,443.38
			c-83.615,0-151.403-69.614-151.403-155.486c0-85.871,67.789-155.486,151.403-155.486c83.614,0,151.402,69.615,151.402,155.486
			C439.263,373.766,371.475,443.38,287.86,443.38z"/>
	</g>
</g>
<g>
</g>
<g>
</g>
<g>
</g>
<g>
</g>
<g>
</g>
<g>
</g>
<g>
</g>
<g>
</g>
<g>
</g>
<g>
</g>
<g>
</g>
<g>
</g>
<g>
</g>
<g>
</g>
<g>
</g>
</svg>
