<?xml version="1.0" encoding="iso-8859-1"?>
<!-- Generator: Adobe Illustrator 16.0.0, SVG Export Plug-In . SVG Version: 6.00 Build 0)  -->
<!DOCTYPE svg PUBLIC "-//W3C//DTD SVG 1.1//EN" "http://www.w3.org/Graphics/SVG/1.1/DTD/svg11.dtd">
<svg version="1.1" id="Capa_1" xmlns="http://www.w3.org/2000/svg" xmlns:xlink="http://www.w3.org/1999/xlink" x="0px" y="0px"
	 width="583.312px" height="583.312px" viewBox="0 0 583.312 583.312" style="enable-background:new 0 0 583.312 583.312;"
	 xml:space="preserve">
<g>
	<g>
		<path d="M184.685,557.083c2.821,3.079,7.315,3.997,11.093,2.208l35.467-16.514l-6.417,28.888
			c-0.631,2.831,0.057,5.786,1.874,8.062c1.817,2.257,4.562,3.576,7.459,3.576h24.04c0.029,0,0.067,0,0.096,0
			c5.049,0.134,9.658-4.236,9.658-9.562c0-0.774-0.096-1.53-0.268-2.247l-0.621-16.868h7.162l0.115,9.678
			c0.057,5.24,4.322,9.447,9.562,9.447h17.327c5.174,0,9.41-4.121,9.563-9.285l0.286-9.782l5.298-0.02l-0.201,18.981
			c-0.028,2.563,0.976,5.011,2.764,6.828c1.798,1.826,4.246,2.84,6.799,2.84h26.919c0.066,0,0.134-0.01,0.191,0
			c5.278,0,9.562-4.274,9.562-9.562c0-1.606-0.401-3.117-1.091-4.446l-7.114-24.203l33.201,16.056
			c3.787,1.836,8.339,0.985,11.188-2.133c2.859-3.088,3.356-7.688,1.214-11.321L332.597,433.19l0.574-244.542
			c0-0.593-0.048-1.176-0.163-1.75L300.162,7.832C299.33,3.299,295.371,0,290.762,0c-4.609,0-8.568,3.299-9.4,7.832l-32.857,179.067
			c-0.115,0.574-0.163,1.157-0.163,1.731v245.145l-64.881,112.062C181.376,549.451,181.864,554.004,184.685,557.083z
			 M263.317,295.998c0.564-1.731,2.056-2.993,3.863-3.252l0.287-0.048l12.986-1.894l5.938-12.02c1.606-3.271,6.971-3.271,8.568,0
			l5.938,12.02l12.909,1.885l0.363,0.057c1.798,0.259,3.299,1.521,3.863,3.252c0.564,1.73,0.096,3.634-1.205,4.905l-3.041,2.964
			l-6.569,6.397l2.267,13.216c0.306,1.798-0.431,3.614-1.903,4.676c-0.832,0.603-1.816,0.918-2.812,0.918
			c-0.765,0-1.529-0.182-2.228-0.555l-11.867-6.234l-11.867,6.234c-1.607,0.86-3.558,0.708-5.04-0.363
			c-1.473-1.062-2.209-2.888-1.903-4.676l2.266-13.216l-6.665-6.502l-2.936-2.859C263.231,299.632,262.763,297.729,263.317,295.998z
			"/>
	</g>
</g>
<g>
</g>
<g>
</g>
<g>
</g>
<g>
</g>
<g>
</g>
<g>
</g>
<g>
</g>
<g>
</g>
<g>
</g>
<g>
</g>
<g>
</g>
<g>
</g>
<g>
</g>
<g>
</g>
<g>
</g>
</svg>
