<?xml version="1.0" encoding="iso-8859-1"?>
<!-- Generator: Adobe Illustrator 16.0.0, SVG Export Plug-In . SVG Version: 6.00 Build 0)  -->
<!DOCTYPE svg PUBLIC "-//W3C//DTD SVG 1.1//EN" "http://www.w3.org/Graphics/SVG/1.1/DTD/svg11.dtd">
<svg version="1.1" id="Capa_1" xmlns="http://www.w3.org/2000/svg" xmlns:xlink="http://www.w3.org/1999/xlink" x="0px" y="0px"
	 width="592.875px" height="592.875px" viewBox="0 0 592.875 592.875" style="enable-background:new 0 0 592.875 592.875;"
	 xml:space="preserve">
<g>
	<g>
		<path d="M335.64,554.625c5.288,0,9.562-4.284,9.562-9.562h41.482c3.069,0,5.967-1.482,7.765-3.979
			c1.798-2.495,2.285-5.708,1.311-8.615l-57.586-172.297l-9.858-263.093c-0.02-0.66-0.115-1.31-0.269-1.941l-21.793-87.87
			C305.203,2.993,301.369,0,296.979,0c-0.019,0-0.048,0-0.066,0c-4.418,0.029-8.243,3.089-9.247,7.392l-21.841,93.655
			c-0.144,0.583-0.22,1.186-0.239,1.788L255.43,352.952l-1.349,6.129l-56.983,173.445c-0.956,2.916-0.459,6.11,1.349,8.587
			c1.798,2.486,4.676,3.959,7.746,3.959h41.453c0,2.467,0.957,4.839,2.659,6.617c1.798,1.874,4.293,2.936,6.895,2.936h10.328
			c-0.727,0.105-1.32,0.421-1.693,1.271l-13.693,30.323c-0.622,1.473-0.478,3.175,0.411,4.514s2.391,2.142,3.997,2.142l0,0h26.737
			l0,0c1.597,0,3.079-0.383,3.968-1.712c0.89-1.329,1.052-2.591,0.459-4.063l-1.788-4.274c0.603,0.277,1.243,0.487,1.922,0.487l0,0
			l0,0h20.865c1.014,0,1.903-0.564,2.706-1.271l-1.884,4.169c-0.621,1.473-0.479,3.175,0.411,4.514
			c0.88,1.339,2.381,2.151,3.987,2.151l0,0l0,0h26.728l0,0l0,0c1.597,0,3.079-0.383,3.969-1.702
			c0.889-1.319,1.052-2.592,0.459-4.064l-13.034-31.145c-0.373-0.918-1.014-1.243-1.808-1.339h5.212
			C335.526,554.635,335.602,554.625,335.64,554.625z M276.333,456.935c0-10.921,8.855-19.775,19.775-19.775
			c10.921,0,19.775,8.854,19.775,19.775c0,10.92-8.854,19.775-19.775,19.775C285.188,476.71,276.333,467.864,276.333,456.935z
			 M283.458,576.647c-0.028,0.067-0.009,0.144-0.028,0.21l-8.75-20.894c-0.373-0.918-1.014-1.243-1.807-1.339h19.374
			L283.458,576.647z M313.388,577.68c-0.01-0.659-0.019-1.348-0.248-1.893l-8.319-21.162h20.1c-0.727,0.105-1.319,0.421-1.692,1.271
			L313.388,577.68z"/>
	</g>
</g>
<g>
</g>
<g>
</g>
<g>
</g>
<g>
</g>
<g>
</g>
<g>
</g>
<g>
</g>
<g>
</g>
<g>
</g>
<g>
</g>
<g>
</g>
<g>
</g>
<g>
</g>
<g>
</g>
<g>
</g>
</svg>
