<?xml version="1.0" encoding="iso-8859-1"?>
<!-- Generator: Adobe Illustrator 19.0.0, SVG Export Plug-In . SVG Version: 6.00 Build 0)  -->
<svg xmlns="http://www.w3.org/2000/svg" xmlns:xlink="http://www.w3.org/1999/xlink" version="1.1" id="Layer_1" x="0px" y="0px" viewBox="0 0 511.999 511.999" style="enable-background:new 0 0 511.999 511.999;" xml:space="preserve">
<g>
	<g>
		<g>
			<path d="M110.908,111.872c52.758,22.666,130.881,23.907,186.634,2.442c60.796-23.451,73.92-61.769,16.055-91.735     c-58.13-30.111-154.611-30.099-212.745,0C45.835,51.081,54.496,87.481,110.908,111.872z"/>
			<path d="M116.71,410.852c-17.973-5.675-37.65-14.431-53.022-25.428v61.752c0,28.014,49.468,58.014,118.725,63.8     C150.684,485.967,127.265,450.996,116.71,410.852z"/>
			<path d="M110.566,366.585c0-27.384,3.772-52.483,16.173-80.275c-0.013,0-0.026,0-0.039-0.013     c-21.796-5.987-45.227-15.476-63.012-28.067c0,62.857-0.058,62.318,0.092,63.524C63.78,341.043,92.196,358.713,110.566,366.585z"/>
			<path d="M63.675,130.566c0,67.577-0.029,63.438,0.381,65.821c5.632,29.884,53.81,47.75,83.268,54.453c0,0,0-0.013,0.013-0.013     c0.026,0.013,0.066,0.026,0.092,0.026c45.612-61.651,124.969-91.395,203.332-69.523v-50.751     C276.807,182.519,134.813,181.196,63.675,130.566z"/>
		</g>
	</g>
</g>
<g>
	<g>
		<path d="M299.117,213.571c-82.27,0-149.208,66.937-149.208,149.221c0,83.37,67.755,149.208,149.208,149.208    c82.283,0,149.208-66.937,149.208-149.208C448.325,280.609,381.726,213.571,299.117,213.571z M289.899,439.936    c0,10.875-8.816,19.691-19.691,19.691h-48.236c-10.875,0-19.691-8.816-19.691-19.691V391.7c0-10.875,8.816-19.691,19.691-19.691    h48.236c10.875,0,19.691,8.816,19.691,19.691V439.936z M289.899,333.869c0,10.875-8.816,19.691-19.691,19.691h-48.236    c-10.875,0-19.691-8.816-19.691-19.691v-48.236c0-10.875,8.816-19.691,19.691-19.691h48.236c10.875,0,19.691,8.816,19.691,19.691    V333.869z M395.964,439.936c0,10.875-8.816,19.691-19.691,19.691h-48.236c-10.875,0-19.691-8.816-19.691-19.691V391.7    c0-10.875,8.816-19.691,19.691-19.691h48.236c10.875,0,19.691,8.816,19.691,19.691V439.936z M395.964,333.869    c0,10.875-8.816,19.691-19.691,19.691h-48.236c-10.875,0-19.691-8.816-19.691-19.691v-48.236c0-10.875,8.816-19.691,19.691-19.691    h48.236c10.875,0,19.691,8.816,19.691,19.691V333.869z"/>
	</g>
</g>
<g>
</g>
<g>
</g>
<g>
</g>
<g>
</g>
<g>
</g>
<g>
</g>
<g>
</g>
<g>
</g>
<g>
</g>
<g>
</g>
<g>
</g>
<g>
</g>
<g>
</g>
<g>
</g>
<g>
</g>
</svg>
