<?xml version="1.0" encoding="iso-8859-1"?>
<!-- Generator: Adobe Illustrator 19.0.0, SVG Export Plug-In . SVG Version: 6.00 Build 0)  -->
<svg xmlns="http://www.w3.org/2000/svg" xmlns:xlink="http://www.w3.org/1999/xlink" version="1.1" id="Layer_1" x="0px" y="0px" viewBox="0 0 512 512" style="enable-background:new 0 0 512 512;" xml:space="preserve">
<g>
	<g>
		<path d="M348.826,218.059l-90.419-90.419c-3.327-3.327-7.771-4.998-12.067-4.998H52.587c-9.425,0-17.067,7.641-17.067,17.067    v355.226c0,9.425,7.641,17.067,17.067,17.067H336.77c9.425,0,17.067-7.641,17.067-17.067V230.138    C353.837,225.765,352.044,221.275,348.826,218.059z M263.406,213.06v-32.15l32.15,32.15H263.406z"/>
	</g>
</g>
<g>
	<g>
		<path d="M471.506,95.458c-0.011-0.011-0.022-0.024-0.033-0.034L381.048,4.999C377.809,1.759,373.379,0,368.981,0H175.229    c-9.425,0-17.067,7.641-17.067,17.067v71.441h88.178c12.597,0,25.278,4.7,35.105,13.931c0.42,0.367,91.125,91.09,91.519,91.484    c9.562,9.562,15.007,22.674,15.007,36.214v159.221h71.441c9.425,0,17.067-7.641,17.067-17.067V107.497    C476.478,103.174,474.772,98.742,471.506,95.458z M386.047,90.432V58.269l32.162,32.163H386.047z"/>
	</g>
</g>
<g>
</g>
<g>
</g>
<g>
</g>
<g>
</g>
<g>
</g>
<g>
</g>
<g>
</g>
<g>
</g>
<g>
</g>
<g>
</g>
<g>
</g>
<g>
</g>
<g>
</g>
<g>
</g>
<g>
</g>
</svg>
