<?xml version="1.0" encoding="iso-8859-1"?>
<!-- Generator: Adobe Illustrator 19.0.0, SVG Export Plug-In . SVG Version: 6.00 Build 0)  -->
<svg xmlns="http://www.w3.org/2000/svg" xmlns:xlink="http://www.w3.org/1999/xlink" version="1.1" id="Layer_1" x="0px" y="0px" viewBox="0 0 512 512" style="enable-background:new 0 0 512 512;" xml:space="preserve">
<g>
	<g>
		<path d="M256,0C114.512,0,0,114.497,0,256c0,141.488,114.497,256,256,256c141.488,0,256-114.497,256-256    C512,114.512,397.503,0,256,0z M249.507,356.399c-12.411,0-21.935-10.391-21.935-22.224c0-12.123,9.813-22.224,21.935-22.224    s22.224,10.101,22.224,22.224C271.731,346.007,261.918,356.399,249.507,356.399z M282.41,244.123    c-15.874,12.411-16.162,21.07-16.162,36.078c0,5.484-2.887,11.834-17.03,11.834c-11.833,0-15.874-4.33-15.874-19.338    c0-24.822,10.968-36.657,19.339-43.873c9.524-8.082,25.688-17.029,25.688-32.614c0-13.278-11.545-19.627-25.977-19.627    c-29.44,0-23.09,22.224-38.676,22.224c-7.793,0-17.318-5.195-17.318-16.452c0-15.585,17.896-38.676,56.86-38.676    c36.945,0,61.478,20.494,61.478,47.624C314.737,218.433,290.204,238.061,282.41,244.123z"/>
	</g>
</g>
<g>
</g>
<g>
</g>
<g>
</g>
<g>
</g>
<g>
</g>
<g>
</g>
<g>
</g>
<g>
</g>
<g>
</g>
<g>
</g>
<g>
</g>
<g>
</g>
<g>
</g>
<g>
</g>
<g>
</g>
</svg>
