<?xml version="1.0" encoding="iso-8859-1"?>
<!-- Generator: Adobe Illustrator 19.0.0, SVG Export Plug-In . SVG Version: 6.00 Build 0)  -->
<svg xmlns="http://www.w3.org/2000/svg" xmlns:xlink="http://www.w3.org/1999/xlink" version="1.1" id="Layer_1" x="0px" y="0px" viewBox="0 0 512 512" style="enable-background:new 0 0 512 512;" xml:space="preserve">
<g>
	<g>
		<path d="M324.743,33.183c-11.795-3.453-24.164,3.311-27.618,15.112c-3.455,11.799,3.31,24.164,15.111,27.618    c82.769,24.227,143.556,100.767,143.556,191.774c0,110.166-89.626,199.791-199.791,199.791S56.209,377.853,56.209,267.687    c0-92.158,61.92-167.878,143.555-191.774c11.799-3.454,18.566-15.819,15.111-27.618c-3.454-11.798-15.816-18.564-27.618-15.111    C86.357,62.719,11.687,156.042,11.687,267.687C11.687,402.73,120.97,512,256,512c135.043,0,244.313-109.282,244.313-244.313    C500.313,155.945,425.544,62.689,324.743,33.183z"/>
	</g>
</g>
<g>
	<g>
		<path d="M256,0c-12.295,0-22.261,9.966-22.261,22.261v157.558c0,12.295,9.966,22.261,22.261,22.261s22.261-9.966,22.261-22.261    V22.261C278.261,9.966,268.295,0,256,0z"/>
	</g>
</g>
<g>
</g>
<g>
</g>
<g>
</g>
<g>
</g>
<g>
</g>
<g>
</g>
<g>
</g>
<g>
</g>
<g>
</g>
<g>
</g>
<g>
</g>
<g>
</g>
<g>
</g>
<g>
</g>
<g>
</g>
</svg>
