<?xml version="1.0" encoding="iso-8859-1"?>
<!-- Generator: Adobe Illustrator 19.0.0, SVG Export Plug-In . SVG Version: 6.00 Build 0)  -->
<svg xmlns="http://www.w3.org/2000/svg" xmlns:xlink="http://www.w3.org/1999/xlink" version="1.1" id="Layer_1" x="0px" y="0px" viewBox="0 0 512 512" style="enable-background:new 0 0 512 512;" xml:space="preserve">
<g>
	<g>
		<path d="M256,0C114.498,0,0,114.509,0,256s114.498,256,256,256c141.503,0,256-114.51,256-256S397.503,0,256,0z M44.522,256    C44.522,139.39,139.39,44.522,256,44.522c50.304,0,96.552,17.665,132.893,47.103L91.625,388.893    C62.187,352.552,44.522,306.304,44.522,256z M256,467.478c-50.304,0-96.552-17.665-132.893-47.103l297.268-297.268    c29.438,36.341,47.103,82.589,47.103,132.893C467.478,372.61,372.61,467.478,256,467.478z"/>
	</g>
</g>
<g>
</g>
<g>
</g>
<g>
</g>
<g>
</g>
<g>
</g>
<g>
</g>
<g>
</g>
<g>
</g>
<g>
</g>
<g>
</g>
<g>
</g>
<g>
</g>
<g>
</g>
<g>
</g>
<g>
</g>
</svg>
