<?xml version="1.0" encoding="iso-8859-1"?>
<!-- Generator: Adobe Illustrator 19.0.0, SVG Export Plug-In . SVG Version: 6.00 Build 0)  -->
<svg xmlns="http://www.w3.org/2000/svg" xmlns:xlink="http://www.w3.org/1999/xlink" version="1.1" id="Layer_1" x="0px" y="0px" viewBox="0 0 512 512" style="enable-background:new 0 0 512 512;" xml:space="preserve">
<g>
	<g>
		<path d="M499.205,372.791l-92.066-92.066l4.682-4.682c7.315-7.314,7.31-19.181,0-26.49l-39.07-39.07    c-7.314-7.314-19.175-7.315-26.49,0l-135.761,135.76c-7.315,7.314-7.31,19.181,0,26.49l39.07,39.07    c7.315,7.317,19.175,7.314,26.49,0l4.682-4.682l92.067,92.066c17.081,17.082,44.729,17.083,61.81,0l0.215-0.215l-51.302-51.302    c-17.688-17.689-17.688-46.469,0-64.157c17.689-17.688,46.468-17.689,64.157,0l51.302,51.302l0.215-0.215    C516.246,417.561,516.246,389.832,499.205,372.791z"/>
	</g>
</g>
<g>
	<g>
		<path d="M161.911,91.63l-3.42-27.098c-0.696-5.502-3.793-10.415-8.458-13.413L75.096,2.973    c-7.411-4.762-17.142-3.716-23.371,2.514L5.502,51.707c-6.23,6.23-7.277,15.959-2.515,23.371l48.15,74.938    c2.997,4.667,7.91,7.764,13.412,8.458l27.097,3.422l125.111,125.109l70.265-70.263L161.911,91.63z"/>
	</g>
</g>
<g>
</g>
<g>
</g>
<g>
</g>
<g>
</g>
<g>
</g>
<g>
</g>
<g>
</g>
<g>
</g>
<g>
</g>
<g>
</g>
<g>
</g>
<g>
</g>
<g>
</g>
<g>
</g>
<g>
</g>
</svg>
