<?xml version="1.0" encoding="iso-8859-1"?>
<!-- Generator: Adobe Illustrator 19.0.0, SVG Export Plug-In . SVG Version: 6.00 Build 0)  -->
<svg xmlns="http://www.w3.org/2000/svg" xmlns:xlink="http://www.w3.org/1999/xlink" version="1.1" id="Layer_1" x="0px" y="0px" viewBox="0 0 512 512" style="enable-background:new 0 0 512 512;" xml:space="preserve">
<g>
	<g>
		<path d="M435.938,84.975C387.739,44.426,323.835,22.093,256,22.093c-139.067,0-256,95.46-256,218.074    C0,308.28,36.741,371.5,99.275,412.669l-41,49.199c-10.633,12.759,1.541,31.885,17.712,27.361l127.252-35.622    C360.473,481.621,512,380.468,512,240.168C512,181.354,484.987,126.238,435.938,84.975z M256.139,138.544    c10.67,0,19.698,6.019,19.698,16.689c0,32.557-3.831,79.342-3.831,111.9c0,8.481-9.302,12.038-15.869,12.038    c-8.755,0-16.143-3.557-16.143-12.038c0-32.558-3.83-79.342-3.83-111.9C236.166,144.563,244.921,138.544,256.139,138.544z     M256.412,340.182c-12.038,0-21.067-9.849-21.067-21.067c0-11.49,9.029-21.067,21.067-21.067c11.217,0,20.793,9.577,20.793,21.067    C277.205,330.333,267.629,340.182,256.412,340.182z"/>
	</g>
</g>
<g>
</g>
<g>
</g>
<g>
</g>
<g>
</g>
<g>
</g>
<g>
</g>
<g>
</g>
<g>
</g>
<g>
</g>
<g>
</g>
<g>
</g>
<g>
</g>
<g>
</g>
<g>
</g>
<g>
</g>
</svg>
