<?xml version="1.0" encoding="iso-8859-1"?>
<!-- Generator: Adobe Illustrator 19.0.0, SVG Export Plug-In . SVG Version: 6.00 Build 0)  -->
<svg xmlns="http://www.w3.org/2000/svg" xmlns:xlink="http://www.w3.org/1999/xlink" version="1.1" id="Layer_1" x="0px" y="0px" viewBox="0 0 512 512" style="enable-background:new 0 0 512 512;" xml:space="preserve">
<g>
	<g>
		<path d="M235.762,157.867c-7.497-7.497-19.654-7.497-27.153,0l-50.74,50.74c-7.498,7.497-7.498,19.654,0,27.153l40.534,40.534    l77.893-77.893L235.762,157.867z"/>
	</g>
</g>
<g>
	<g>
		<path d="M506.376,428.481L303.448,225.554l-77.893,77.893l202.927,202.927c7.498,7.498,19.654,7.498,27.153,0l50.74-50.74    C513.875,448.136,513.875,435.978,506.376,428.481z"/>
	</g>
</g>
<g>
	<g>
		<path d="M163.968,136.819l-57.633-57.635c-7.498-7.5-19.654-7.498-27.153,0s-7.498,19.656,0,27.153l57.633,57.635    C154.401,181.56,182.218,155.068,163.968,136.819z"/>
	</g>
</g>
<g>
	<g>
		<path d="M100.705,251.149H19.2c-10.604,0-19.2,8.596-19.2,19.2s8.596,19.2,19.2,19.2h81.505c10.604,0,19.2-8.596,19.2-19.2    S111.309,251.149,100.705,251.149z"/>
	</g>
</g>
<g>
	<g>
		<path d="M270.346,0.002c-10.604,0-19.2,8.596-19.2,19.2v81.505c0,10.604,8.596,19.2,19.2,19.2s19.2-8.596,19.2-19.2V19.202    C289.546,8.599,280.95,0.002,270.346,0.002z"/>
	</g>
</g>
<g>
</g>
<g>
</g>
<g>
</g>
<g>
</g>
<g>
</g>
<g>
</g>
<g>
</g>
<g>
</g>
<g>
</g>
<g>
</g>
<g>
</g>
<g>
</g>
<g>
</g>
<g>
</g>
<g>
</g>
</svg>
