<?xml version="1.0" encoding="iso-8859-1"?>
<!-- Generator: Adobe Illustrator 19.0.0, SVG Export Plug-In . SVG Version: 6.00 Build 0)  -->
<svg xmlns="http://www.w3.org/2000/svg" xmlns:xlink="http://www.w3.org/1999/xlink" version="1.1" id="Layer_1" x="0px" y="0px" viewBox="0 0 512 512" style="enable-background:new 0 0 512 512;" xml:space="preserve">
<g>
	<g>
		<rect x="149.854" width="212.293" height="512"/>
	</g>
</g>
<g>
	<g>
		<rect x="399.61" y="156.098" width="112.39" height="81.171"/>
	</g>
</g>
<g>
	<g>
		<rect y="274.732" width="112.39" height="81.171"/>
	</g>
</g>
<g>
	<g>
		<rect y="156.098" width="112.39" height="81.171"/>
	</g>
</g>
<g>
	<g>
		<path d="M0,393.366v99.902C0,503.613,8.387,512,18.732,512h93.659V393.366H0z"/>
	</g>
</g>
<g>
	<g>
		<path d="M399.61,393.366V512h93.659c10.345,0,18.732-8.387,18.732-18.732v-99.902H399.61z"/>
	</g>
</g>
<g>
	<g>
		<path d="M18.732,0C8.387,0,0,8.387,0,18.732v99.902h112.39V0H18.732z"/>
	</g>
</g>
<g>
	<g>
		<rect x="399.61" y="274.732" width="112.39" height="81.171"/>
	</g>
</g>
<g>
	<g>
		<path d="M493.268,0H399.61v118.634H512V18.732C512,8.387,503.613,0,493.268,0z"/>
	</g>
</g>
<g>
</g>
<g>
</g>
<g>
</g>
<g>
</g>
<g>
</g>
<g>
</g>
<g>
</g>
<g>
</g>
<g>
</g>
<g>
</g>
<g>
</g>
<g>
</g>
<g>
</g>
<g>
</g>
<g>
</g>
</svg>
