<?xml version="1.0" encoding="iso-8859-1"?>
<!-- Generator: Adobe Illustrator 19.0.0, SVG Export Plug-In . SVG Version: 6.00 Build 0)  -->
<svg xmlns="http://www.w3.org/2000/svg" xmlns:xlink="http://www.w3.org/1999/xlink" version="1.1" id="Layer_1" x="0px" y="0px" viewBox="0 0 512 512" style="enable-background:new 0 0 512 512;" xml:space="preserve">
<g>
	<g>
		<path d="M495.304,54.667c-9.205,0-213.474,0-222.609,0V33.389c0-9.22-7.475-16.696-16.696-16.696s-16.696,7.475-16.696,16.696    v21.278c-9.135,0-213.404,0-222.609,0C7.475,54.667,0,62.142,0,71.362s7.475,16.696,16.696,16.696h11.13v248.085    c0,9.22,7.475,16.696,16.696,16.696h422.957c9.22,0,16.696-7.475,16.696-16.696V88.058h11.13c9.22,0,16.696-7.475,16.696-16.696    S504.525,54.667,495.304,54.667z"/>
	</g>
</g>
<g>
	<g>
		<path d="M340.326,471.302l-41.391-85.072h-37.134l48.499,99.681c4.036,8.296,14.03,11.743,22.318,7.709    C340.909,489.586,344.36,479.593,340.326,471.302z"/>
	</g>
</g>
<g>
	<g>
		<path d="M213.064,386.23l-41.391,85.072c-4.035,8.291-0.582,18.284,7.709,22.318c8.291,4.034,18.283,0.582,22.318-7.709    l48.499-99.681H213.064z"/>
	</g>
</g>
<g>
</g>
<g>
</g>
<g>
</g>
<g>
</g>
<g>
</g>
<g>
</g>
<g>
</g>
<g>
</g>
<g>
</g>
<g>
</g>
<g>
</g>
<g>
</g>
<g>
</g>
<g>
</g>
<g>
</g>
</svg>
