<?xml version="1.0" encoding="iso-8859-1"?>
<!-- Generator: Adobe Illustrator 19.0.0, SVG Export Plug-In . SVG Version: 6.00 Build 0)  -->
<svg xmlns="http://www.w3.org/2000/svg" xmlns:xlink="http://www.w3.org/1999/xlink" version="1.1" id="Layer_1" x="0px" y="0px" viewBox="0 0 512 512" style="enable-background:new 0 0 512 512;" xml:space="preserve">
<g>
	<g>
		<path d="M81.559,173.832c-6.172-6.172-16.178-6.172-22.349,0L4.629,228.414c-6.172,6.172-6.172,16.177,0,22.349l142.95,142.949    c6.172,6.173,16.178,6.172,22.348,0l54.582-54.582c2.964-2.964,4.629-6.983,4.629-11.174    C229.137,318.717,236.554,328.826,81.559,173.832z"/>
	</g>
</g>
<g>
	<g>
		<path d="M503.863,150.481c-14.905-20.541-44.359-23.693-63.274-6.749l-81.813,71.083l-37.933-15.189    c15.357-7.199,26.02-22.808,26.02-40.86c0-24.872-20.23-45.107-45.096-45.107H169.458c-3.926,0-7.71,1.461-10.618,4.098    l-46.489,42.169C256.52,304.095,247.267,294.793,248.6,296.274l126.751,19.785c4.864,0.755,9.801-0.791,13.359-4.192    L498.598,206.8C514.206,192.057,516.474,167.859,503.863,150.481z"/>
	</g>
</g>
<g>
</g>
<g>
</g>
<g>
</g>
<g>
</g>
<g>
</g>
<g>
</g>
<g>
</g>
<g>
</g>
<g>
</g>
<g>
</g>
<g>
</g>
<g>
</g>
<g>
</g>
<g>
</g>
<g>
</g>
</svg>
