<?xml version="1.0" encoding="iso-8859-1"?>
<!-- Generator: Adobe Illustrator 19.0.0, SVG Export Plug-In . SVG Version: 6.00 Build 0)  -->
<svg xmlns="http://www.w3.org/2000/svg" xmlns:xlink="http://www.w3.org/1999/xlink" version="1.1" id="Layer_1" x="0px" y="0px" viewBox="0 0 512 512" style="enable-background:new 0 0 512 512;" xml:space="preserve">
<g>
	<g>
		<path d="M495.304,61.217H16.696C7.475,61.217,0,68.693,0,77.913v83.12h512v-83.12C512,68.693,504.525,61.217,495.304,61.217z     M382.926,133.386c-12.275,0-22.261-9.986-22.261-22.261c0-12.275,9.986-22.261,22.261-22.261s22.261,9.986,22.261,22.261    C405.187,123.4,395.201,133.386,382.926,133.386z M443.568,133.386c-12.275,0-22.261-9.986-22.261-22.261    c0-12.275,9.986-22.261,22.261-22.261s22.261,9.986,22.261,22.261C465.829,123.4,455.843,133.386,443.568,133.386z"/>
	</g>
</g>
<g>
	<g>
		<path d="M0,194.424v239.663c0,9.22,7.475,16.696,16.696,16.696h478.609c9.22,0,16.696-7.475,16.696-16.696V194.424H0z     M456.348,395.13c0,9.22-7.475,16.696-16.696,16.696H72.348c-9.22,0-16.696-7.475-16.696-16.696V250.076    c0-9.22,7.475-16.696,16.696-16.696h367.304c9.22,0,16.696,7.475,16.696,16.696V395.13z"/>
	</g>
</g>
<g>
</g>
<g>
</g>
<g>
</g>
<g>
</g>
<g>
</g>
<g>
</g>
<g>
</g>
<g>
</g>
<g>
</g>
<g>
</g>
<g>
</g>
<g>
</g>
<g>
</g>
<g>
</g>
<g>
</g>
</svg>
