<?xml version="1.0" encoding="iso-8859-1"?>
<!-- Generator: Adobe Illustrator 19.0.0, SVG Export Plug-In . SVG Version: 6.00 Build 0)  -->
<svg xmlns="http://www.w3.org/2000/svg" xmlns:xlink="http://www.w3.org/1999/xlink" version="1.1" id="Layer_1" x="0px" y="0px" viewBox="0 0 512 512" style="enable-background:new 0 0 512 512;" xml:space="preserve">
<g>
	<g>
		<path d="M465.888,43.517h-63.587v-25.45C402.301,8.089,394.212,0,384.234,0s-18.067,8.089-18.067,18.067v25.45H145.833v-25.45    C145.833,8.089,137.743,0,127.766,0s-18.067,8.089-18.067,18.067v25.45H46.112c-9.978,0-18.067,8.089-18.067,18.067v76.631    h455.909V61.584C483.954,51.606,475.865,43.517,465.888,43.517z"/>
	</g>
</g>
<g>
	<g>
		<path d="M28.046,174.348v319.585c0,9.978,8.089,18.067,18.067,18.067h419.775c9.978,0,18.067-8.089,18.067-18.067V174.348H28.046z     M287.012,438.153c0,9.543-11.63,14.314-23.26,14.314c-11.63,0-23.259-4.771-23.259-14.314V286.375l-8.648,5.367    c-17.589,11.724-31.908-20.812-13.418-31.906l39.361-23.855c8.882-5.554,29.224,0.34,29.224,12.523V438.153z"/>
	</g>
</g>
<g>
</g>
<g>
</g>
<g>
</g>
<g>
</g>
<g>
</g>
<g>
</g>
<g>
</g>
<g>
</g>
<g>
</g>
<g>
</g>
<g>
</g>
<g>
</g>
<g>
</g>
<g>
</g>
<g>
</g>
</svg>
