<?xml version="1.0" encoding="iso-8859-1"?>
<!-- Generator: Adobe Illustrator 19.0.0, SVG Export Plug-In . SVG Version: 6.00 Build 0)  -->
<svg xmlns="http://www.w3.org/2000/svg" xmlns:xlink="http://www.w3.org/1999/xlink" version="1.1" id="Layer_1" x="0px" y="0px" viewBox="0 0 512 512" style="enable-background:new 0 0 512 512;" xml:space="preserve">
<g>
	<g>
		<path d="M459.238,126.724L337.415,4.901C334.224,1.706,329.84,0,325.599,0H64.557c-9.22,0-16.696,7.475-16.696,16.696v478.609    c0,9.22,7.475,16.696,16.696,16.696h382.887c9.22,0,16.696-7.475,16.696-16.696V138.541    C464.139,134.338,462.464,129.95,459.238,126.724z M346.021,314.074L229.01,431.084c-17.466,17.466-45.884,17.467-63.352,0.001    c-17.465-17.466-17.466-45.886-0.001-63.353L277.24,256.15c6.519-6.52,17.091-6.52,23.611,0c6.52,6.519,6.52,17.091,0,23.611    L189.269,391.343c-4.447,4.447-4.447,11.684,0,16.13c4.448,4.445,11.682,4.445,16.13,0l117.011-117.01    c15.402-15.403,15.402-40.465,0-55.868c-15.407-15.405-40.468-15.401-55.868,0l-93.412,93.411c-6.519,6.52-17.091,6.52-23.611,0    c-6.52-6.519-6.52-17.091,0-23.611l93.412-93.411c28.422-28.424,74.669-28.422,103.09,0    C374.441,239.406,374.441,285.653,346.021,314.074z M342.305,121.834v-64.82l64.82,64.82H342.305z"/>
	</g>
</g>
<g>
</g>
<g>
</g>
<g>
</g>
<g>
</g>
<g>
</g>
<g>
</g>
<g>
</g>
<g>
</g>
<g>
</g>
<g>
</g>
<g>
</g>
<g>
</g>
<g>
</g>
<g>
</g>
<g>
</g>
</svg>
