<?xml version="1.0" encoding="iso-8859-1"?>
<!-- Generator: Adobe Illustrator 19.0.0, SVG Export Plug-In . SVG Version: 6.00 Build 0)  -->
<svg xmlns="http://www.w3.org/2000/svg" xmlns:xlink="http://www.w3.org/1999/xlink" version="1.1" id="Layer_1" x="0px" y="0px" viewBox="0 0 512 512" style="enable-background:new 0 0 512 512;" xml:space="preserve">
<g>
	<g>
		<path d="M351.721,0H132.084c-4.458,0-8.752,1.843-11.792,4.877c-0.006,0.006-0.011,0.01-0.017,0.016L42.113,83.056    c-0.006,0.006-0.01,0.011-0.016,0.017c-3.207,3.213-4.877,7.568-4.877,11.792v294.077c0,9.22,7.475,16.696,16.696,16.696h297.806    c9.22,0,16.696-7.475,16.696-16.696V16.696C368.417,7.475,360.942,0,351.721,0z M115.389,78.169H94.222l21.167-21.167V78.169z"/>
	</g>
</g>
<g>
	<g>
		<path d="M404.902,53.181h-3.094v335.761c0,27.618-22.469,50.087-50.087,50.087H90.401v3.094c0,9.22,7.475,16.696,16.696,16.696    h297.806c9.22,0,16.696-7.475,16.696-16.696V69.877C421.598,60.656,414.123,53.181,404.902,53.181z"/>
	</g>
</g>
<g>
	<g>
		<path d="M458.085,106.362h-3.094v335.761c0,27.618-22.469,50.087-50.087,50.087H143.582v3.094c0,9.22,7.475,16.696,16.696,16.696    h297.807c9.22,0,16.696-7.475,16.696-16.696V123.058C474.78,113.838,467.305,106.362,458.085,106.362z"/>
	</g>
</g>
<g>
</g>
<g>
</g>
<g>
</g>
<g>
</g>
<g>
</g>
<g>
</g>
<g>
</g>
<g>
</g>
<g>
</g>
<g>
</g>
<g>
</g>
<g>
</g>
<g>
</g>
<g>
</g>
<g>
</g>
</svg>
