<?xml version="1.0" encoding="iso-8859-1"?>
<!-- Generator: Adobe Illustrator 19.0.0, SVG Export Plug-In . SVG Version: 6.00 Build 0)  -->
<svg xmlns="http://www.w3.org/2000/svg" xmlns:xlink="http://www.w3.org/1999/xlink" version="1.1" id="Layer_1" x="0px" y="0px" viewBox="0 0 512 512" style="enable-background:new 0 0 512 512;" xml:space="preserve">
<g>
	<g>
		<path d="M494.413,238.414H383.534c-9.713,0-17.587,7.874-17.587,17.587c0,9.713,7.874,17.587,17.587,17.587h110.879    c9.713,0,17.587-7.874,17.587-17.587C512,246.289,504.126,238.414,494.413,238.414z"/>
	</g>
</g>
<g>
	<g>
		<path d="M17.587,162.015C7.874,162.015,0,169.889,0,179.602v152.799c0,9.713,7.874,17.587,17.587,17.587h109.086V162.015H17.587z"/>
	</g>
</g>
<g>
	<g>
		<path d="M288.089,50.884l-126.24,93.752v222.732l126.24,93.752c11.517,8.554,28.073,0.404,28.073-14.119V65.003    C316.162,50.563,299.665,42.286,288.089,50.884z"/>
	</g>
</g>
<g>
</g>
<g>
</g>
<g>
</g>
<g>
</g>
<g>
</g>
<g>
</g>
<g>
</g>
<g>
</g>
<g>
</g>
<g>
</g>
<g>
</g>
<g>
</g>
<g>
</g>
<g>
</g>
<g>
</g>
</svg>
