<?xml version="1.0" encoding="iso-8859-1"?>
<!-- Generator: Adobe Illustrator 19.0.0, SVG Export Plug-In . SVG Version: 6.00 Build 0)  -->
<svg xmlns="http://www.w3.org/2000/svg" xmlns:xlink="http://www.w3.org/1999/xlink" version="1.1" id="Layer_1" x="0px" y="0px" viewBox="0 0 512 512" style="enable-background:new 0 0 512 512;" xml:space="preserve">
<g>
	<g>
		<path d="M445.357,216.993c-0.005-1.769-0.379-3.931-1.089-5.757l-46.578-119.5c-2.395-6.144-8.314-10.189-14.908-10.189H129.226    c-6.594,0-12.512,4.045-14.908,10.189L67.74,211.237c-0.704,1.806-1.084,3.964-1.089,5.755c0,0.019-0.003,0.036-0.003,0.055    v130.937v45.135c0,20.586,16.748,37.333,37.333,37.333h29.83c20.586,0,37.333-16.748,37.333-37.333v-29.135h169.718v29.135    c0,20.586,16.748,37.333,37.333,37.333h29.83c20.586,0,37.333-16.748,37.333-37.333v-45.135V217.047    C445.36,217.029,445.357,217.011,445.357,216.993z M152.695,319.866h-4.81c-20.595,0-37.35-16.755-37.35-37.35    c0-20.595,16.755-37.35,37.35-37.35h4.81c20.595,0,37.35,16.755,37.35,37.35C190.046,303.11,173.29,319.866,152.695,319.866z     M281.104,298.516h-50.202c-8.836,0-16-7.164-16-16s7.164-16,16-16h50.202c8.836,0,16,7.164,16,16S289.94,298.516,281.104,298.516    z M363.666,319.867h-4.809c-20.595-0.001-37.35-16.756-37.35-37.35c0-20.595,16.755-37.35,37.35-37.35h4.809    c20.595,0,37.35,16.755,37.35,37.35C401.017,303.111,384.261,319.867,363.666,319.867z M106.054,201.047l34.107-87.5h231.684    l34.106,87.5H106.054z"/>
	</g>
</g>
<g>
	<g>
		<path d="M496,201.047h-18.64v76.118H496c8.836,0,16-7.164,16-16v-44.118C512,208.211,504.836,201.047,496,201.047z"/>
	</g>
</g>
<g>
	<g>
		<path d="M16,201.047c-8.836,0-16,7.164-16,16v44.118c0,8.836,7.164,16,16,16h18.647v-76.118H16z"/>
	</g>
</g>
<g>
</g>
<g>
</g>
<g>
</g>
<g>
</g>
<g>
</g>
<g>
</g>
<g>
</g>
<g>
</g>
<g>
</g>
<g>
</g>
<g>
</g>
<g>
</g>
<g>
</g>
<g>
</g>
<g>
</g>
</svg>
