<?xml version="1.0" encoding="iso-8859-1"?>
<!-- Generator: Adobe Illustrator 19.0.0, SVG Export Plug-In . SVG Version: 6.00 Build 0)  -->
<svg xmlns="http://www.w3.org/2000/svg" xmlns:xlink="http://www.w3.org/1999/xlink" version="1.1" id="Layer_1" x="0px" y="0px" viewBox="0 0 512.002 512.002" style="enable-background:new 0 0 512.002 512.002;" xml:space="preserve">
<g>
	<g>
		<path d="M466.751,45.251c-60.333-60.334-157.988-60.337-218.334,0.009c-40.26,40.26-54.86,99.108-38.886,153.043L5.769,402.066    c-3.94,3.94-6.027,9.364-5.742,14.928l3.712,72.608c0.516,10.084,8.576,18.145,18.66,18.66l72.608,3.712    c0.336,0.017,0.671,0.026,1.006,0.026c5.208,0,10.221-2.065,13.923-5.768l24.674-24.674l-38.253-38.253    c-7.69-7.69-7.69-20.157,0-27.847c7.689-7.69,20.157-7.69,27.847,0l38.253,38.253l15.35-15.35l-38.253-38.253    c-7.69-7.69-7.69-20.157,0-27.847c7.689-7.69,20.157-7.69,27.847,0l38.253,38.253L313.7,302.472    c53.932,15.975,112.783,1.374,153.043-38.886C527.073,203.253,527.098,105.597,466.751,45.251z M430.023,184.812    c-22.339,22.339-62.419,17.245-91.25-11.585c-28.833-28.831-33.921-68.914-11.585-91.25c22.335-22.336,62.418-17.247,91.25,11.583    C447.271,122.394,452.359,162.477,430.023,184.812z"/>
	</g>
</g>
<g>
</g>
<g>
</g>
<g>
</g>
<g>
</g>
<g>
</g>
<g>
</g>
<g>
</g>
<g>
</g>
<g>
</g>
<g>
</g>
<g>
</g>
<g>
</g>
<g>
</g>
<g>
</g>
<g>
</g>
</svg>
