<?xml version="1.0" encoding="iso-8859-1"?>
<!-- Generator: Adobe Illustrator 19.0.0, SVG Export Plug-In . SVG Version: 6.00 Build 0)  -->
<svg xmlns="http://www.w3.org/2000/svg" xmlns:xlink="http://www.w3.org/1999/xlink" version="1.1" id="Layer_1" x="0px" y="0px" viewBox="0 0 512 512" style="enable-background:new 0 0 512 512;" xml:space="preserve">
<g>
	<g>
		<path d="M222.844,26.912H17.067C7.641,26.912,0,34.554,0,43.979v424.042c0,9.425,7.641,17.067,17.067,17.067h205.777    c9.425,0,17.067-7.641,17.067-17.067V43.979C239.911,34.554,232.271,26.912,222.844,26.912z M151.48,392.236H88.43    c-9.425,0-17.067-7.641-17.067-17.067s7.641-17.067,17.067-17.067h63.05c9.425,0,17.067,7.641,17.067,17.067    S160.906,392.236,151.48,392.236z M151.48,312.79H88.43c-9.425,0-17.067-7.641-17.067-17.067c0-9.425,7.641-17.067,17.067-17.067    h63.05c9.425,0,17.067,7.641,17.067,17.067C168.547,305.149,160.906,312.79,151.48,312.79z M151.48,233.344H88.43    c-9.425,0-17.067-7.641-17.067-17.067s7.641-17.067,17.067-17.067h63.05c9.425,0,17.067,7.641,17.067,17.067    S160.906,233.344,151.48,233.344z M151.48,153.899H88.43c-9.425,0-17.067-7.641-17.067-17.067s7.641-17.067,17.067-17.067h63.05    c9.425,0,17.067,7.641,17.067,17.067S160.906,153.899,151.48,153.899z"/>
	</g>
</g>
<g>
	<g>
		<path d="M494.933,26.912H289.156c-9.425,0-17.067,7.641-17.067,17.067v424.042c0,9.425,7.641,17.067,17.067,17.067h205.777    c9.425,0,17.067-7.641,17.067-17.067V43.979C512,34.554,504.359,26.912,494.933,26.912z M423.57,392.236h-63.05    c-9.425,0-17.067-7.641-17.067-17.067s7.641-17.067,17.067-17.067h63.05c9.425,0,17.067,7.641,17.067,17.067    S432.996,392.236,423.57,392.236z M423.57,312.79h-63.05c-9.425,0-17.067-7.641-17.067-17.067c0-9.425,7.641-17.067,17.067-17.067    h63.05c9.425,0,17.067,7.641,17.067,17.067C440.636,305.149,432.996,312.79,423.57,312.79z M423.57,233.344h-63.05    c-9.425,0-17.067-7.641-17.067-17.067s7.641-17.067,17.067-17.067h63.05c9.425,0,17.067,7.641,17.067,17.067    S432.996,233.344,423.57,233.344z M423.57,153.899h-63.05c-9.425,0-17.067-7.641-17.067-17.067s7.641-17.067,17.067-17.067h63.05    c9.425,0,17.067,7.641,17.067,17.067S432.996,153.899,423.57,153.899z"/>
	</g>
</g>
<g>
</g>
<g>
</g>
<g>
</g>
<g>
</g>
<g>
</g>
<g>
</g>
<g>
</g>
<g>
</g>
<g>
</g>
<g>
</g>
<g>
</g>
<g>
</g>
<g>
</g>
<g>
</g>
<g>
</g>
</svg>
