<?xml version="1.0" encoding="iso-8859-1"?>
<!-- Generator: Adobe Illustrator 19.0.0, SVG Export Plug-In . SVG Version: 6.00 Build 0)  -->
<svg xmlns="http://www.w3.org/2000/svg" xmlns:xlink="http://www.w3.org/1999/xlink" version="1.1" id="Layer_1" x="0px" y="0px" viewBox="0 0 511.999 511.999" style="enable-background:new 0 0 511.999 511.999;" xml:space="preserve">
<g>
	<g>
		<path d="M509.378,21.527c-0.154-10.381-8.532-18.76-18.913-18.912L313.76,0.002c-5.224-0.083-10.191,1.949-13.86,5.622    L5.624,299.9c-7.498,7.497-7.498,19.654,0,27.153l179.323,179.323c7.498,7.498,19.654,7.498,27.153,0L506.375,212.1    c3.671-3.67,5.699-8.669,5.622-13.861L509.378,21.527z M430.401,212.1L212.099,430.4c-7.498,7.498-19.656,7.5-27.153,0    L81.6,327.053c-7.498-7.497-7.498-19.654,0-27.153L299.9,81.599c7.491-7.493,19.657-7.498,27.153,0l103.348,103.349    C437.894,192.438,437.899,204.604,430.401,212.1z M451.898,113.857c-14.857,14.859-38.9,14.861-53.759,0    c-14.856-14.853-14.858-38.898,0.003-53.756c14.851-14.853,38.899-14.857,53.755,0.001    C466.753,74.955,466.755,99.001,451.898,113.857z"/>
	</g>
</g>
<g>
</g>
<g>
</g>
<g>
</g>
<g>
</g>
<g>
</g>
<g>
</g>
<g>
</g>
<g>
</g>
<g>
</g>
<g>
</g>
<g>
</g>
<g>
</g>
<g>
</g>
<g>
</g>
<g>
</g>
</svg>
