<?xml version="1.0" encoding="iso-8859-1"?>
<!-- Generator: Adobe Illustrator 19.0.0, SVG Export Plug-In . SVG Version: 6.00 Build 0)  -->
<svg xmlns="http://www.w3.org/2000/svg" xmlns:xlink="http://www.w3.org/1999/xlink" version="1.1" id="Layer_1" x="0px" y="0px" viewBox="0 0 512 512" style="enable-background:new 0 0 512 512;" xml:space="preserve">
<g>
	<g>
		<path d="M448.682,87.454l-156.91,156.909l219.204,34.563C511.644,271.346,512,263.701,512,256    C512,193.34,489.626,134.128,448.682,87.454z"/>
	</g>
</g>
<g>
	<g>
		<path d="M256,0C193.34,0,134.128,22.374,87.454,63.318L256,231.864L424.546,63.318C377.872,22.374,318.66,0,256,0z"/>
	</g>
</g>
<g>
	<g>
		<path d="M253.342,272.858c-3.463-0.546-6.888-2.27-9.411-4.791L63.318,87.454C22.373,134.128,0,193.34,0,256    c0,141.488,114.497,256,256,256c124.423,0,224.653-87.74,249.743-199.343L253.342,272.858z"/>
	</g>
</g>
<g>
</g>
<g>
</g>
<g>
</g>
<g>
</g>
<g>
</g>
<g>
</g>
<g>
</g>
<g>
</g>
<g>
</g>
<g>
</g>
<g>
</g>
<g>
</g>
<g>
</g>
<g>
</g>
<g>
</g>
</svg>
