<?xml version="1.0" encoding="iso-8859-1"?>
<!-- Generator: Adobe Illustrator 19.0.0, SVG Export Plug-In . SVG Version: 6.00 Build 0)  -->
<svg xmlns="http://www.w3.org/2000/svg" xmlns:xlink="http://www.w3.org/1999/xlink" version="1.1" id="Layer_1" x="0px" y="0px" viewBox="0 0 512 512" style="enable-background:new 0 0 512 512;" xml:space="preserve">
<g>
	<g>
		<path d="M511.185,482.151l-50.052-155.219c-1.306-4.046-4.105-7.443-7.826-9.495l-26.835-14.803    c0.824-12.114,0.508-34.316,0.508-123.498c0-101.169-86.734-175.036-174.037-170.945c-0.116,0.001-0.234,0.001-0.351,0.003    C160,10.008,85.053,85.45,85.022,179.092c0,89.465-0.283,111.789,0.5,123.548l-26.829,14.797c-3.722,2.054-6.52,5.449-7.826,9.495    L0.816,482.151c-3.475,10.778,4.582,21.819,15.889,21.819h478.589C506.62,503.97,514.655,492.913,511.185,482.151z     M232.953,148.535c29.406,24.365,66.024,36.712,101.161,36.338c-0.057,120.029-155.389,113.892-156.156,5.438    C198.903,180.707,217.844,166.366,232.953,148.535z M157.364,301.147l31.291-17.258c39.82,30.313,95.181,30.179,134.719,0.01    l31.272,17.25C299.618,352.556,213.315,353.275,157.364,301.147z"/>
	</g>
</g>
<g>
</g>
<g>
</g>
<g>
</g>
<g>
</g>
<g>
</g>
<g>
</g>
<g>
</g>
<g>
</g>
<g>
</g>
<g>
</g>
<g>
</g>
<g>
</g>
<g>
</g>
<g>
</g>
<g>
</g>
</svg>
