<?xml version="1.0" encoding="iso-8859-1"?>
<!-- Generator: Adobe Illustrator 19.0.0, SVG Export Plug-In . SVG Version: 6.00 Build 0)  -->
<svg xmlns="http://www.w3.org/2000/svg" xmlns:xlink="http://www.w3.org/1999/xlink" version="1.1" id="Layer_1" x="0px" y="0px" viewBox="0 0 511.999 511.999" style="enable-background:new 0 0 511.999 511.999;" xml:space="preserve">
<g>
	<g>
		<path d="M435.696,0H126.482C89.606,0,59.606,29.994,59.606,66.862v378.276c0,36.868,30,66.862,66.876,66.862h309.216    c9.22,0,16.696-7.475,16.696-16.696c0-17.453,0-461.153,0-478.609C452.392,7.475,444.917,0,435.696,0z M255.999,417.345    c-90.968,0-143.561-103.93-89.54-177.149c-8.273-9.283-3.836-24.023,8.141-27.231l27.987-7.499    c12.407-3.326,23.766,8.062,20.448,20.448l-7.499,27.987c-2.894,10.795-15.309,15.718-24.819,9.912    c-33.47,51.558,3.535,120.141,65.282,120.141c9.22,0,16.696,7.475,16.696,16.696S265.219,417.345,255.999,417.345z     M337.398,399.381l-27.987,7.499c-12.442,3.336-23.757-8.097-20.448-20.448l7.499-27.987c2.881-10.745,15.295-15.74,24.824-9.921    c33.457-51.554-3.541-120.132-65.288-120.132c-9.22,0-16.696-7.475-16.696-16.696c0-9.22,7.475-16.696,16.696-16.696    c90.968,0,143.56,103.93,89.54,177.149C353.812,381.434,349.373,396.173,337.398,399.381z M419.002,100.346h-292.52    c-17.887,0-32.543-14.097-33.441-31.764c-0.029-0.57-0.043-1.144-0.043-1.721c0-18.455,15.022-33.47,33.485-33.47h292.52V100.346z    "/>
	</g>
</g>
<g>
</g>
<g>
</g>
<g>
</g>
<g>
</g>
<g>
</g>
<g>
</g>
<g>
</g>
<g>
</g>
<g>
</g>
<g>
</g>
<g>
</g>
<g>
</g>
<g>
</g>
<g>
</g>
<g>
</g>
</svg>
