<?xml version="1.0" encoding="iso-8859-1"?>
<!-- Generator: Adobe Illustrator 19.0.0, SVG Export Plug-In . SVG Version: 6.00 Build 0)  -->
<svg xmlns="http://www.w3.org/2000/svg" xmlns:xlink="http://www.w3.org/1999/xlink" version="1.1" id="Layer_1" x="0px" y="0px" viewBox="0 0 512 512" style="enable-background:new 0 0 512 512;" xml:space="preserve">
<g>
	<g>
		<path d="M420.707,44.05h-34.203V16.696c0-9.22-7.475-16.696-16.696-16.696c-9.22,0-16.696,7.475-16.696,16.696V44.05h-42.482    V16.696c0-9.22-7.475-16.696-16.696-16.696S277.24,7.475,277.24,16.696V44.05h-42.482V16.696c0-9.22-7.475-16.696-16.696-16.696    s-16.696,7.475-16.696,16.696V44.05h-42.48V16.696c0-9.22-7.475-16.696-16.696-16.696c-9.22,0-16.696,7.475-16.696,16.696V44.05    H91.293c-9.22,0-16.696,7.475-16.696,16.696v434.559c0,9.22,7.475,16.696,16.696,16.696h329.414    c9.22,0,16.696-7.475,16.696-16.696V60.745C437.403,51.525,429.927,44.05,420.707,44.05z M322.148,409.756H189.852    c-9.22,0-16.696-7.475-16.696-16.696s7.475-16.696,16.696-16.696h132.296c9.22,0,16.696,7.475,16.696,16.696    S331.369,409.756,322.148,409.756z M322.148,294.721H189.852c-9.22,0-16.696-7.475-16.696-16.696s7.475-16.696,16.696-16.696    h132.296c9.22,0,16.696,7.475,16.696,16.696S331.369,294.721,322.148,294.721z M322.148,179.686H189.852    c-9.22,0-16.696-7.475-16.696-16.696c0-9.22,7.475-16.696,16.696-16.696h132.296c9.22,0,16.696,7.475,16.696,16.696    C338.844,172.211,331.369,179.686,322.148,179.686z"/>
	</g>
</g>
<g>
</g>
<g>
</g>
<g>
</g>
<g>
</g>
<g>
</g>
<g>
</g>
<g>
</g>
<g>
</g>
<g>
</g>
<g>
</g>
<g>
</g>
<g>
</g>
<g>
</g>
<g>
</g>
<g>
</g>
</svg>
