<?xml version="1.0" encoding="iso-8859-1"?>
<!-- Generator: Adobe Illustrator 19.0.0, SVG Export Plug-In . SVG Version: 6.00 Build 0)  -->
<svg xmlns="http://www.w3.org/2000/svg" xmlns:xlink="http://www.w3.org/1999/xlink" version="1.1" id="Layer_1" x="0px" y="0px" viewBox="0 0 512 512" style="enable-background:new 0 0 512 512;" xml:space="preserve">
<g>
	<g>
		<path d="M243.369,68.835H16c-8.836,0-16,7.164-16,16v227.369c0,8.836,7.164,16,16,16h97.069l88.73-153.684    c11.303-19.573,35.324-29.122,57.57-21.223V84.835C259.369,75.999,252.205,68.835,243.369,68.835z"/>
	</g>
</g>
<g>
	<g>
		<path d="M396.526,431.796c-91.767-158.957-63.199-109.474-139.301-241.278c-6.145-10.642-21.556-10.66-27.713,0.001    l-139.3,241.277c-6.145,10.642,1.546,24,13.856,24h278.602C394.959,455.796,402.68,442.459,396.526,431.796z"/>
	</g>
</g>
<g>
	<g>
		<path d="M369.684,56.204c-28.915,0-55.838,8.673-78.316,23.548v105.905c68.191,118.1,49.297,85.377,89.35,154.754    C454.054,334.761,512,273.28,512,198.519C512,120.047,448.157,56.204,369.684,56.204z"/>
	</g>
</g>
<g>
</g>
<g>
</g>
<g>
</g>
<g>
</g>
<g>
</g>
<g>
</g>
<g>
</g>
<g>
</g>
<g>
</g>
<g>
</g>
<g>
</g>
<g>
</g>
<g>
</g>
<g>
</g>
<g>
</g>
</svg>
