<?xml version="1.0" encoding="iso-8859-1"?>
<!-- Generator: Adobe Illustrator 19.0.0, SVG Export Plug-In . SVG Version: 6.00 Build 0)  -->
<svg xmlns="http://www.w3.org/2000/svg" xmlns:xlink="http://www.w3.org/1999/xlink" version="1.1" id="Layer_1" x="0px" y="0px" viewBox="0 0 512 512" style="enable-background:new 0 0 512 512;" xml:space="preserve">
<g>
	<g>
		<path d="M492.8,11.602h-99.803c-10.603,0-19.2,8.596-19.2,19.2v295.432c0,10.603,8.596,19.2,19.2,19.2H492.8    c10.603,0,19.2-8.595,19.2-19.199V30.802C512,20.199,503.403,11.602,492.8,11.602z"/>
	</g>
</g>
<g>
	<g>
		<path d="M344.619,410.501l-11.579-44.832c-2.026-7.848-0.995-15.854,2.405-22.678c-0.076-2.529-0.049-317.408-0.049-319.992    c-19.081-7.578-26.227-11.398-39.803-11.398L87.383,11.6c-28.935,0-53.67,21.627-57.532,50.304L0.528,279.631    c-4.689,34.823,22.431,65.8,57.533,65.8h122.631l26.224,101.554c8.161,31.6,36.716,53.415,68.981,53.414    C323.531,500.4,356.849,457.858,344.619,410.501z"/>
	</g>
</g>
<g>
</g>
<g>
</g>
<g>
</g>
<g>
</g>
<g>
</g>
<g>
</g>
<g>
</g>
<g>
</g>
<g>
</g>
<g>
</g>
<g>
</g>
<g>
</g>
<g>
</g>
<g>
</g>
<g>
</g>
</svg>
