<?xml version="1.0" encoding="iso-8859-1"?>
<!-- Generator: Adobe Illustrator 19.0.0, SVG Export Plug-In . SVG Version: 6.00 Build 0)  -->
<svg xmlns="http://www.w3.org/2000/svg" xmlns:xlink="http://www.w3.org/1999/xlink" version="1.1" id="Layer_1" x="0px" y="0px" viewBox="0 0 512 512" style="enable-background:new 0 0 512 512;" xml:space="preserve">
<g>
	<g>
		<path d="M191.713,166.84c-12.876,0-23.352,10.477-23.352,23.353s10.476,23.353,23.352,23.353    c12.876,0,23.353-10.477,23.353-23.353S204.59,166.84,191.713,166.84z"/>
	</g>
</g>
<g>
	<g>
		<path d="M343.636,190.127c-0.036-12.847-10.495-23.287-23.348-23.287c-12.876,0-23.353,10.477-23.353,23.353    c0,12.876,10.477,23.353,23.353,23.353c12.855,0,23.313-10.44,23.348-23.287c-0.001-0.023-0.003-0.044-0.003-0.066    C343.633,190.171,343.636,190.15,343.636,190.127z"/>
	</g>
</g>
<g>
	<g>
		<path d="M256,22.094c-139.009,0-256,95.417-256,218.074c0,68.111,36.742,131.331,99.275,172.501l-41,49.199    c-10.635,12.761,1.542,31.884,17.712,27.361l127.252-35.623C359.702,481.484,512,381.084,512,240.168    C512,117.489,394.983,22.094,256,22.094z M256,377.585c-50.365,0-91.339-40.975-91.339-91.339c0-9.425,7.641-17.067,17.067-17.067    s17.067,7.641,17.067,17.067c0,31.544,25.663,57.205,57.205,57.205s57.205-25.663,57.205-57.205    c0-9.425,7.641-17.067,17.067-17.067c9.425,0,17.067,7.641,17.067,17.067C347.339,336.611,306.365,377.585,256,377.585z     M380.142,207.26h-4.956c-7.286,23.39-29.142,40.42-54.899,40.42s-47.614-17.029-54.9-40.42h-18.773    c-7.287,23.39-29.143,40.42-54.9,40.42s-47.613-17.029-54.899-40.42h-4.964c-9.425,0-17.067-7.641-17.067-17.067    s7.641-17.067,17.067-17.067h4.964c7.286-23.39,29.142-40.42,54.899-40.42s47.614,17.029,54.9,40.42h18.773    c7.287-23.39,29.143-40.42,54.9-40.42s47.613,17.029,54.899,40.42h4.956c9.425,0,17.067,7.641,17.067,17.067    S389.568,207.26,380.142,207.26z"/>
	</g>
</g>
<g>
</g>
<g>
</g>
<g>
</g>
<g>
</g>
<g>
</g>
<g>
</g>
<g>
</g>
<g>
</g>
<g>
</g>
<g>
</g>
<g>
</g>
<g>
</g>
<g>
</g>
<g>
</g>
<g>
</g>
</svg>
