<?xml version="1.0" encoding="iso-8859-1"?>
<!-- Generator: Adobe Illustrator 19.0.0, SVG Export Plug-In . SVG Version: 6.00 Build 0)  -->
<svg xmlns="http://www.w3.org/2000/svg" xmlns:xlink="http://www.w3.org/1999/xlink" version="1.1" id="Layer_1" x="0px" y="0px" viewBox="0 0 511.999 511.999" style="enable-background:new 0 0 511.999 511.999;" xml:space="preserve">
<g>
	<g>
		<path d="M24.317,377.545v55.01c0,8.836,7.164,15.999,15.999,15.999h431.367c8.836,0,16-7.164,16-15.999v-55.01H24.317z"/>
	</g>
</g>
<g>
	<g>
		<path d="M483.947,100.028L373.854,225.934l-104.58-155.43c-6.332-9.412-20.213-9.417-26.55,0l-104.58,155.431L28.053,100.028    C17.83,88.34-1.476,96.699,0.09,112.171l23.606,233.376h464.608l23.606-233.376C513.473,96.723,494.182,88.322,483.947,100.028z     M256,308.405c-28.634,0-51.929-23.295-51.929-51.929s23.295-51.929,51.929-51.929c28.635,0,51.93,23.295,51.93,51.929    C307.93,285.11,284.635,308.405,256,308.405z"/>
	</g>
</g>
<g>
</g>
<g>
</g>
<g>
</g>
<g>
</g>
<g>
</g>
<g>
</g>
<g>
</g>
<g>
</g>
<g>
</g>
<g>
</g>
<g>
</g>
<g>
</g>
<g>
</g>
<g>
</g>
<g>
</g>
</svg>
