<?xml version="1.0" encoding="iso-8859-1"?>
<!-- Generator: Adobe Illustrator 19.0.0, SVG Export Plug-In . SVG Version: 6.00 Build 0)  -->
<svg xmlns="http://www.w3.org/2000/svg" xmlns:xlink="http://www.w3.org/1999/xlink" version="1.1" id="Layer_1" x="0px" y="0px" viewBox="0 0 512 512" style="enable-background:new 0 0 512 512;" xml:space="preserve">
<g>
	<g>
		<path d="M256.001,18.882c-61.41,0-111.369,49.96-111.369,111.369v54.104c0,61.41,49.96,111.369,111.369,111.369    s111.368-49.959,111.369-111.369v-54.104C367.369,68.841,317.41,18.882,256.001,18.882z"/>
	</g>
</g>
<g>
	<g>
		<path d="M511.184,471.299l-50.052-155.216c-1.304-4.046-4.105-7.443-7.827-9.495l-76.682-42.295    c-25.956,39.037-70.333,64.821-120.623,64.821c-50.291,0-94.668-25.785-120.623-64.822l-76.683,42.295    c-3.722,2.053-6.521,5.449-7.827,9.495L0.817,471.299c-3.477,10.778,4.581,21.819,15.889,21.819h478.589    C506.619,493.117,514.656,482.063,511.184,471.299z"/>
	</g>
</g>
<g>
</g>
<g>
</g>
<g>
</g>
<g>
</g>
<g>
</g>
<g>
</g>
<g>
</g>
<g>
</g>
<g>
</g>
<g>
</g>
<g>
</g>
<g>
</g>
<g>
</g>
<g>
</g>
<g>
</g>
</svg>
