<?xml version="1.0" encoding="iso-8859-1"?>
<!-- Generator: Adobe Illustrator 19.0.0, SVG Export Plug-In . SVG Version: 6.00 Build 0)  -->
<svg xmlns="http://www.w3.org/2000/svg" xmlns:xlink="http://www.w3.org/1999/xlink" version="1.1" id="Layer_1" x="0px" y="0px" viewBox="0 0 512 512" style="enable-background:new 0 0 512 512;" xml:space="preserve">
<g>
	<g>
		<path d="M504.571,379.422L311.891,226.143c-7.835-6.236-19.104-5.597-26.183,1.486l-15.096,15.096l-11.229-11.229    c52.444-69.1,32.464-170.07-44.499-213.139C162.718-10.835,96.144-5.145,49.591,35.423    c-64.177,55.919-65.476,152.79-7.315,210.951c51.516,51.518,132.663,55.919,189.257,12.971l11.23,11.23l-15.096,15.096    c-7.081,7.081-7.721,18.348-1.486,26.183l153.279,192.679c7.332,9.22,21.038,9.962,29.335,1.666l97.442-97.442    C514.552,400.443,513.759,386.73,504.571,379.422z M133.698,133.662c5.892-5.895,15.469-5.824,21.292-0.001    c5.87,5.871,5.87,15.421,0,21.292c-5.87,5.87-15.422,5.87-21.292,0C127.828,149.081,127.828,139.532,133.698,133.662z     M218.562,218.525c-58.147,58.148-157.842,29.468-176.371-50.316c14.433-12.896,30.736-22.589,47.984-29.069    c-4.785,50.637,56.684,79.64,92.664,43.661c11.926-11.926,17.15-28.054,15.674-43.661c17.248,6.48,33.551,16.173,47.985,29.069    C242.213,186.66,232.914,204.173,218.562,218.525z"/>
	</g>
</g>
<g>
</g>
<g>
</g>
<g>
</g>
<g>
</g>
<g>
</g>
<g>
</g>
<g>
</g>
<g>
</g>
<g>
</g>
<g>
</g>
<g>
</g>
<g>
</g>
<g>
</g>
<g>
</g>
<g>
</g>
</svg>
