<?xml version="1.0" encoding="iso-8859-1"?>
<!-- Generator: Adobe Illustrator 19.0.0, SVG Export Plug-In . SVG Version: 6.00 Build 0)  -->
<svg xmlns="http://www.w3.org/2000/svg" xmlns:xlink="http://www.w3.org/1999/xlink" version="1.1" id="Layer_1" x="0px" y="0px" viewBox="0 0 512.001 512.001" style="enable-background:new 0 0 512.001 512.001;" xml:space="preserve">
<g>
	<g>
		<path d="M256,99.002c-44.981,0-81.695,36.341-81.695,81.696v37.551c0,45.584,37.086,81.696,81.695,81.696    c45.18,0,81.696-36.604,81.696-81.696v-37.551C337.696,135.301,301.004,99.002,256,99.002z"/>
	</g>
</g>
<g>
	<g>
		<path d="M437.29,416.012l-34.732-107.707c-1.25-3.877-3.933-7.133-7.501-9.1l-41.361-22.812    C332.656,311.6,295.54,331.945,256,331.945c-38.555,0-76.336-19.828-97.705-55.548l-41.353,22.808    c-3.568,1.968-6.25,5.222-7.5,9.1L74.71,416.012c-3.333,10.331,4.39,20.912,15.226,20.912h332.128    C432.919,436.924,440.618,426.325,437.29,416.012z"/>
	</g>
</g>
<g>
	<g>
		<path d="M511.219,392.148l-34.733-107.721c-1.25-3.877-3.933-7.133-7.499-9.099l-41.292-22.777    c-4.236,7.08-9.273,13.741-15.077,19.868c9.681,5.991,16.879,15.162,20.395,26.064c37.893,117.511,35.529,109.458,36.374,114.574    h26.604C506.846,413.057,514.544,402.461,511.219,392.148z"/>
	</g>
</g>
<g>
	<g>
		<path d="M306.192,78.66c38.506,18.853,63.503,58.13,63.503,102.038v37.551c0,9.711-1.225,19.242-3.597,28.439l17.232,9.505    c18.171-15.715,28.303-37.883,28.303-61.821v-37.551C411.634,102.413,358.908,62.636,306.192,78.66z"/>
	</g>
</g>
<g>
	<g>
		<path d="M84.306,252.551l-41.292,22.777c-3.567,1.967-6.249,5.222-7.499,9.099L0.782,392.148    c-3.326,10.312,4.373,20.909,15.227,20.909h26.604c0.845-5.116-1.518,2.936,36.375-114.574    c3.516-10.902,10.714-20.073,20.395-26.064C93.579,266.293,88.542,259.632,84.306,252.551z"/>
	</g>
</g>
<g>
	<g>
		<path d="M205.809,78.66c-52.716-16.024-105.441,23.753-105.441,78.161v37.551c0,23.937,10.132,46.106,28.303,61.821l17.232-9.505    c-2.372-9.198-3.597-18.729-3.597-28.439v-37.551C142.306,136.79,167.303,97.513,205.809,78.66z"/>
	</g>
</g>
<g>
</g>
<g>
</g>
<g>
</g>
<g>
</g>
<g>
</g>
<g>
</g>
<g>
</g>
<g>
</g>
<g>
</g>
<g>
</g>
<g>
</g>
<g>
</g>
<g>
</g>
<g>
</g>
<g>
</g>
</svg>
