<?xml version="1.0" encoding="iso-8859-1"?>
<!-- Generator: Adobe Illustrator 19.0.0, SVG Export Plug-In . SVG Version: 6.00 Build 0)  -->
<svg xmlns="http://www.w3.org/2000/svg" xmlns:xlink="http://www.w3.org/1999/xlink" version="1.1" id="Layer_1" x="0px" y="0px" viewBox="0 0 512 512" style="enable-background:new 0 0 512 512;" xml:space="preserve">
<g>
	<g>
		<path d="M495.658,202.79H16.342c-9.628,0-17.18,8.297-16.267,17.892l18.754,196.643c0.801,8.386,7.844,14.789,16.267,14.789    h441.806c8.423,0,15.467-6.403,16.267-14.788l18.755-196.644C512.837,211.096,505.296,202.79,495.658,202.79z"/>
	</g>
</g>
<g>
	<g>
		<path d="M464.932,116.758H233.457v-20.53c0-9.024-7.316-16.34-16.34-16.34H47.164c-9.024,0-16.34,7.316-16.34,16.34v73.88h450.448    v-37.01C481.272,124.074,473.956,116.758,464.932,116.758z"/>
	</g>
</g>
<g>
</g>
<g>
</g>
<g>
</g>
<g>
</g>
<g>
</g>
<g>
</g>
<g>
</g>
<g>
</g>
<g>
</g>
<g>
</g>
<g>
</g>
<g>
</g>
<g>
</g>
<g>
</g>
<g>
</g>
</svg>
