<?xml version="1.0" encoding="iso-8859-1"?>
<!-- Generator: Adobe Illustrator 19.0.0, SVG Export Plug-In . SVG Version: 6.00 Build 0)  -->
<svg xmlns="http://www.w3.org/2000/svg" xmlns:xlink="http://www.w3.org/1999/xlink" version="1.1" id="Layer_1" x="0px" y="0px" viewBox="0 0 512.001 512.001" style="enable-background:new 0 0 512.001 512.001;" xml:space="preserve">
<g>
	<g>
		<path d="M401.678,173.332c-0.057,0-0.111-0.008-0.167-0.008h-63.038v-18.312c0-20.585-16.747-37.333-37.333-37.333h-90.252    c-20.585,0-37.333,16.748-37.333,37.333v18.312h-63.037c-0.053,0-0.105,0.007-0.158,0.007C49.495,173.406,0,222.943,0,283.826    c0,60.928,49.568,110.497,110.496,110.497c47.35,0,87.834-29.94,103.528-71.881h83.953    c15.695,41.941,56.179,71.881,103.528,71.881c60.927,0,110.496-49.568,110.496-110.497    C512,222.956,462.526,173.426,401.678,173.332z M110.497,334.687c-28.046,0-50.861-22.816-50.861-50.86    c0-28.046,22.816-50.861,50.861-50.861c28.044,0,50.86,22.816,50.86,50.861C161.357,311.871,138.541,334.687,110.497,334.687z     M266.438,263.881H245.59c-8.836,0-16-7.164-16-16c0-8.836,7.164-16,16-16h20.848c8.836,0,16,7.164,16,16    C282.438,256.718,275.274,263.881,266.438,263.881z M306.473,173.324H205.555v-18.312c0-2.941,2.393-5.333,5.333-5.333h90.252    c2.941,0,5.333,2.393,5.333,5.333V173.324z M401.504,334.687c-28.044,0-50.86-22.816-50.86-50.86    c0-28.046,22.816-50.861,50.86-50.861c28.045,0,50.861,22.816,50.861,50.861C452.366,311.871,429.549,334.687,401.504,334.687z"/>
	</g>
</g>
<g>
</g>
<g>
</g>
<g>
</g>
<g>
</g>
<g>
</g>
<g>
</g>
<g>
</g>
<g>
</g>
<g>
</g>
<g>
</g>
<g>
</g>
<g>
</g>
<g>
</g>
<g>
</g>
<g>
</g>
</svg>
