<?xml version="1.0" encoding="iso-8859-1"?>
<!-- Generator: Adobe Illustrator 19.0.0, SVG Export Plug-In . SVG Version: 6.00 Build 0)  -->
<svg xmlns="http://www.w3.org/2000/svg" xmlns:xlink="http://www.w3.org/1999/xlink" version="1.1" id="Layer_1" x="0px" y="0px" viewBox="0 0 512.001 512.001" style="enable-background:new 0 0 512.001 512.001;" xml:space="preserve">
<g>
	<g>
		<path d="M507.008,34.539c-6.667-6.667-17.476-6.667-24.144,0L446.933,70.47v48.276l60.075-60.075    C513.665,52.004,513.665,41.206,507.008,34.539z"/>
	</g>
</g>
<g>
	<g>
		<path d="M120.924,192.737l101.877,101.866L446.933,70.47V52.596c0-9.432-7.646-17.067-17.067-17.067h-412.8    C7.646,35.529,0,43.163,0,52.596v412.8c0,9.421,7.646,17.067,17.067,17.067h412.8c9.421,0,17.067-7.646,17.067-17.067V118.746    l-212.072,212.06c-6.645,6.667-17.451,6.681-24.132,0L96.791,216.869c-6.667-6.667-6.667-17.465,0-24.132    S114.256,186.069,120.924,192.737z"/>
	</g>
</g>
<g>
</g>
<g>
</g>
<g>
</g>
<g>
</g>
<g>
</g>
<g>
</g>
<g>
</g>
<g>
</g>
<g>
</g>
<g>
</g>
<g>
</g>
<g>
</g>
<g>
</g>
<g>
</g>
<g>
</g>
</svg>
