<?xml version="1.0" encoding="iso-8859-1"?>
<!-- Generator: Adobe Illustrator 19.0.0, SVG Export Plug-In . SVG Version: 6.00 Build 0)  -->
<svg xmlns="http://www.w3.org/2000/svg" xmlns:xlink="http://www.w3.org/1999/xlink" version="1.1" id="Layer_1" x="0px" y="0px" viewBox="0 0 512 512" style="enable-background:new 0 0 512 512;" xml:space="preserve">
<g>
	<g>
		<rect x="216.386" y="352.467" width="79.226" height="69.838"/>
	</g>
</g>
<g>
	<g>
		<rect x="216.386" y="249.233" width="79.226" height="69.838"/>
	</g>
</g>
<g>
	<g>
		<path d="M368.613,56.307h-39.611V16.696c0-9.22-7.475-16.696-16.696-16.696H199.693c-9.22,0-16.696,7.475-16.696,16.696v39.611    h-39.611c-9.22,0-16.696,7.475-16.696,16.696v422.302c0,9.22,7.475,16.696,16.696,16.696h225.228    c9.22,0,16.696-7.475,16.696-16.696V73.002C385.308,63.782,377.833,56.307,368.613,56.307z M329.003,438.998h-0.001    c0,9.22-7.475,16.696-16.696,16.696H199.693c-9.22,0-16.696-7.475-16.696-16.696V232.539c0-9.22,7.475-16.696,16.696-16.696    h112.614c9.22,0,16.696,7.475,16.696,16.696V438.998z"/>
	</g>
</g>
<g>
</g>
<g>
</g>
<g>
</g>
<g>
</g>
<g>
</g>
<g>
</g>
<g>
</g>
<g>
</g>
<g>
</g>
<g>
</g>
<g>
</g>
<g>
</g>
<g>
</g>
<g>
</g>
<g>
</g>
</svg>
