<?xml version="1.0" encoding="iso-8859-1"?>
<!-- Generator: Adobe Illustrator 19.0.0, SVG Export Plug-In . SVG Version: 6.00 Build 0)  -->
<svg xmlns="http://www.w3.org/2000/svg" xmlns:xlink="http://www.w3.org/1999/xlink" version="1.1" id="Layer_1" x="0px" y="0px" viewBox="0 0 512 512" style="enable-background:new 0 0 512 512;" xml:space="preserve">
<g>
	<g>
		<path d="M479.891,59.962l-57.122,57.122l17.626,17.626c10.717,10.717,5.784,29.033-8.83,32.951l-86.2,23.097    c-14.471,3.881-28.079-9.355-24.121-24.121l23.097-86.2c3.925-14.639,22.254-19.528,32.951-8.83l17.626,17.626l57.122-57.122    c-60.515-46.793-148.079-42.446-203.573,13.05c-40.269,40.269-54.871,99.131-38.894,153.077L5.769,402.042    c-3.94,3.94-6.028,9.367-5.743,14.932l3.712,72.625c0.516,10.088,8.577,18.148,18.664,18.664l72.625,3.712    c5.754,0.285,11.112-1.922,14.932-5.743l24.678-24.678l-38.261-38.261c-7.692-7.69-7.692-20.161,0-27.853    c7.69-7.69,20.161-7.69,27.853,0l38.261,38.261l15.354-15.354l-38.261-38.261c-7.692-7.69-7.692-20.161,0-27.853    c7.69-7.69,20.161-7.69,27.853,0l38.261,38.261l108.067-108.067c53.946,15.977,112.806,1.373,153.077-38.894    C522.332,208.04,526.683,120.476,479.891,59.962z"/>
	</g>
</g>
<g>
</g>
<g>
</g>
<g>
</g>
<g>
</g>
<g>
</g>
<g>
</g>
<g>
</g>
<g>
</g>
<g>
</g>
<g>
</g>
<g>
</g>
<g>
</g>
<g>
</g>
<g>
</g>
<g>
</g>
</svg>
