<?xml version="1.0" encoding="iso-8859-1"?>
<!-- Generator: Adobe Illustrator 19.0.0, SVG Export Plug-In . SVG Version: 6.00 Build 0)  -->
<svg xmlns="http://www.w3.org/2000/svg" xmlns:xlink="http://www.w3.org/1999/xlink" version="1.1" id="Layer_1" x="0px" y="0px" viewBox="0 0 512.002 512.002" style="enable-background:new 0 0 512.002 512.002;" xml:space="preserve">
<g>
	<g>
		<path d="M466.849,45.152c-60.204-60.205-158.17-60.204-218.38,0.009c-40.269,40.269-54.87,99.131-38.894,153.077L5.77,402.043    c-3.94,3.94-6.028,9.367-5.743,14.932L3.739,489.6c0.516,10.088,8.577,18.148,18.664,18.664l72.625,3.712    c0.336,0.017,0.672,0.026,1.007,0.026c5.209,0,10.223-2.065,13.924-5.769l24.678-24.678l-38.261-38.261    c-7.692-7.69-7.692-20.161,0-27.853c7.69-7.69,20.161-7.69,27.853,0l38.261,38.261l15.354-15.354l-38.262-38.261    c-7.692-7.69-7.692-20.161,0-27.853c7.69-7.69,20.161-7.69,27.853,0l38.262,38.261l108.067-108.067    c53.946,15.977,112.806,1.373,153.077-38.894C527.051,203.322,527.054,105.358,466.849,45.152z M389.749,182.758l-19.322-0.247    c-2.593-0.033-5.035,1.212-6.532,3.328l-11.158,15.777c-3.77,5.331-12.017,4.024-13.955-2.21l-5.737-18.453    c-0.769-2.476-2.709-4.414-5.184-5.184l-18.453-5.737c-6.235-1.938-7.542-10.185-2.21-13.955l15.777-11.158    c2.117-1.497,3.361-3.94,3.328-6.532l-0.247-19.322c-0.083-6.528,7.355-10.32,12.589-6.414l15.487,11.557    c2.078,1.551,4.786,1.98,7.241,1.148l18.301-6.205c6.183-2.097,12.088,3.806,9.991,9.991l-6.205,18.301    c-0.832,2.455-0.403,5.164,1.148,7.241l11.557,15.487C400.068,175.402,396.278,182.842,389.749,182.758z"/>
	</g>
</g>
<g>
</g>
<g>
</g>
<g>
</g>
<g>
</g>
<g>
</g>
<g>
</g>
<g>
</g>
<g>
</g>
<g>
</g>
<g>
</g>
<g>
</g>
<g>
</g>
<g>
</g>
<g>
</g>
<g>
</g>
</svg>
