<?xml version="1.0" encoding="iso-8859-1"?>
<!-- Generator: Adobe Illustrator 19.0.0, SVG Export Plug-In . SVG Version: 6.00 Build 0)  -->
<svg xmlns="http://www.w3.org/2000/svg" xmlns:xlink="http://www.w3.org/1999/xlink" version="1.1" id="Layer_1" x="0px" y="0px" viewBox="0 0 512 512" style="enable-background:new 0 0 512 512;" xml:space="preserve">
<g>
	<g>
		<path d="M495.66,45.544H139.599c-9.024,0-16.34,7.316-16.34,16.34v57.914H512V61.885C512,52.86,504.684,45.544,495.66,45.544z     M366.943,93.876c-6.179,0-11.205-5.026-11.205-11.205c0-6.178,5.026-11.205,11.205-11.205c6.179,0,11.205,5.026,11.205,11.205    C378.148,88.85,373.121,93.876,366.943,93.876z M412.056,93.876c-6.179,0-11.205-5.026-11.205-11.205    c0-6.178,5.026-11.205,11.205-11.205c6.179,0,11.205,5.026,11.205,11.205C423.262,88.85,418.235,93.876,412.056,93.876z     M457.171,93.876c-6.179,0-11.205-5.026-11.205-11.205c0-6.178,5.026-11.205,11.205-11.205c6.179,0,11.205,5.026,11.205,11.205    C468.376,88.85,463.35,93.876,457.171,93.876z"/>
	</g>
</g>
<g>
	<g>
		<path d="M408.915,152.479c7.77,8.678,12.507,20.126,12.507,32.664v158.055h74.237c9.024,0,16.34-7.316,16.34-16.34V152.479    H408.915z"/>
	</g>
</g>
<g>
	<g>
		<path d="M372.401,168.802H16.34c-9.024,0-16.34,7.316-16.34,16.34v57.914h388.742v-57.914    C388.742,176.119,381.426,168.802,372.401,168.802z M243.683,218.19c-6.179,0-11.205-5.026-11.205-11.205    c0-6.179,5.027-11.205,11.205-11.205c6.179,0,11.205,5.027,11.205,11.205C254.888,213.163,249.862,218.19,243.683,218.19z     M288.798,218.19c-6.179,0-11.205-5.026-11.205-11.205c0-6.179,5.026-11.205,11.205-11.205s11.205,5.027,11.205,11.205    C300.003,213.163,294.977,218.19,288.798,218.19z M333.912,218.19c-6.179,0-11.205-5.026-11.205-11.205    c0-6.179,5.027-11.205,11.205-11.205c6.179,0,11.205,5.027,11.205,11.205C345.117,213.163,340.091,218.19,333.912,218.19z"/>
	</g>
</g>
<g>
	<g>
		<path d="M0,275.738v174.378c0,9.024,7.316,16.34,16.34,16.34h356.061c9.024,0,16.34-7.316,16.34-16.34V275.738H0z"/>
	</g>
</g>
<g>
</g>
<g>
</g>
<g>
</g>
<g>
</g>
<g>
</g>
<g>
</g>
<g>
</g>
<g>
</g>
<g>
</g>
<g>
</g>
<g>
</g>
<g>
</g>
<g>
</g>
<g>
</g>
<g>
</g>
</svg>
