<?xml version="1.0" encoding="iso-8859-1"?>
<!-- Generator: Adobe Illustrator 19.0.0, SVG Export Plug-In . SVG Version: 6.00 Build 0)  -->
<svg xmlns="http://www.w3.org/2000/svg" xmlns:xlink="http://www.w3.org/1999/xlink" version="1.1" id="Layer_1" x="0px" y="0px" viewBox="0 0 511.999 511.999" style="enable-background:new 0 0 511.999 511.999;" xml:space="preserve">
<g>
	<g>
		<path d="M435.696,0H126.482C89.607,0,59.606,29.994,59.606,66.862v378.276c0,36.867,30.001,66.862,66.876,66.862h309.216    c9.22,0,16.696-7.475,16.696-16.696c0-17.453,0-461.153,0-478.609C452.392,7.475,444.917,0,435.696,0z M338.936,396.226    c0,13.746-15.706,21.53-26.648,13.404l-68.326-50.737h-54.203c-9.22,0-16.696-7.475-16.696-16.696v-72.048    c0-9.22,7.475-16.696,16.696-16.696h54.203l68.326-50.737c11.008-8.174,26.648-0.28,26.648,13.404V396.226z M419.002,100.346    h-292.52c-18.463,0-33.485-15.022-33.485-33.485c0-18.455,15.021-33.47,33.485-33.47h292.52V100.346z"/>
	</g>
</g>
<g>
	<g>
		<rect x="206.457" y="286.842" width="26.332" height="38.657"/>
	</g>
</g>
<g>
	<g>
		<polygon points="266.178,278.547 266.178,333.799 305.545,363.032 305.545,249.314   "/>
	</g>
</g>
<g>
</g>
<g>
</g>
<g>
</g>
<g>
</g>
<g>
</g>
<g>
</g>
<g>
</g>
<g>
</g>
<g>
</g>
<g>
</g>
<g>
</g>
<g>
</g>
<g>
</g>
<g>
</g>
<g>
</g>
</svg>
