<?xml version="1.0" encoding="iso-8859-1"?>
<!-- Generator: Adobe Illustrator 19.0.0, SVG Export Plug-In . SVG Version: 6.00 Build 0)  -->
<svg xmlns="http://www.w3.org/2000/svg" xmlns:xlink="http://www.w3.org/1999/xlink" version="1.1" id="Layer_1" x="0px" y="0px" viewBox="0 0 512 512" style="enable-background:new 0 0 512 512;" xml:space="preserve">
<g>
	<g>
		<path d="M256,0C161.331,0,84.313,77.018,84.313,171.687c0,54.379,25.584,105.125,68.875,137.498v35.919h86.116v-36.169    l-38.901-67.379c-4.61-7.986-1.874-18.197,6.111-22.806c7.986-4.614,18.196-1.875,22.806,6.111L256,271.071l26.68-46.21    c4.61-7.985,14.819-10.724,22.806-6.111c7.985,4.61,10.721,14.82,6.111,22.806l-38.901,67.379v36.169h86.116v-35.919    c43.291-32.373,68.875-83.119,68.875-137.498C427.687,77.018,350.669,0,256,0z"/>
	</g>
</g>
<g>
	<g>
		<path d="M196.573,484.319C210.851,501.23,232.186,512,256,512c23.814,0,45.149-10.77,59.427-27.681H196.573z"/>
	</g>
</g>
<g>
	<g>
		<path d="M153.188,378.496v55.736c0,9.22,7.475,16.696,16.696,16.696h172.232c9.22,0,16.696-7.475,16.696-16.696v-55.736H153.188z"/>
	</g>
</g>
<g>
</g>
<g>
</g>
<g>
</g>
<g>
</g>
<g>
</g>
<g>
</g>
<g>
</g>
<g>
</g>
<g>
</g>
<g>
</g>
<g>
</g>
<g>
</g>
<g>
</g>
<g>
</g>
<g>
</g>
</svg>
