<?xml version="1.0" encoding="iso-8859-1"?>
<!-- Generator: Adobe Illustrator 19.0.0, SVG Export Plug-In . SVG Version: 6.00 Build 0)  -->
<svg xmlns="http://www.w3.org/2000/svg" xmlns:xlink="http://www.w3.org/1999/xlink" version="1.1" id="Layer_1" x="0px" y="0px" viewBox="0 0 512 512" style="enable-background:new 0 0 512 512;" xml:space="preserve">
<g>
	<g>
		<path d="M495.304,263.755h-42.873c2.531-11.52,3.867-23.38,3.867-35.484c0-9.22-7.475-16.696-16.696-16.696H16.696    C7.475,211.575,0,219.05,0,228.271c0,107.234,102.471,193.11,228.149,193.11c57.929,0,110.356-18.083,150.305-47.741h40.357    c51.385,0,93.188-41.805,93.188-93.188C512,271.23,504.525,263.755,495.304,263.755z M414.078,340.247    c11.129-13.242,20.32-27.713,27.257-43.102h34.902C469.316,320.917,448.723,340.247,414.078,340.247z"/>
	</g>
</g>
<g>
	<g>
		<path d="M191.344,83.17c-12.108-5.121-12.235-22.348-0.194-27.642c8.44-3.712,12.274-13.564,8.562-22.005    c-3.712-8.44-13.565-12.273-22.005-8.562c-38.879,17.099-38.443,72.436,0.628,88.962c12.108,5.121,12.236,22.345,0.194,27.641    c-8.44,3.712-12.274,13.564-8.562,22.005c3.712,8.44,13.562,12.274,22.005,8.562C230.841,155.038,230.428,99.7,191.344,83.17z"/>
	</g>
</g>
<g>
	<g>
		<path d="M277.965,83.17c-12.107-5.121-12.236-22.347-0.194-27.642c8.44-3.712,12.274-13.564,8.562-22.005    c-3.712-8.44-13.565-12.273-22.005-8.562c-38.865,17.093-38.457,72.43,0.628,88.962c12.108,5.121,12.236,22.345,0.194,27.641    c-8.44,3.712-12.274,13.564-8.562,22.005c3.712,8.44,13.562,12.274,22.005,8.562C317.461,155.037,317.048,99.7,277.965,83.17z"/>
	</g>
</g>
<g>
	<g>
		<path d="M401.135,398.399c-45.371,34.581-105.875,56.371-172.986,56.371c-67.237,0-127.706-21.861-172.986-56.371    c-12.84,8.352-19.32,18.257-19.32,29.687c0,52.705,139.607,60.369,192.305,60.369s192.305-7.663,192.305-60.369    C420.454,416.658,413.974,406.752,401.135,398.399z"/>
	</g>
</g>
<g>
</g>
<g>
</g>
<g>
</g>
<g>
</g>
<g>
</g>
<g>
</g>
<g>
</g>
<g>
</g>
<g>
</g>
<g>
</g>
<g>
</g>
<g>
</g>
<g>
</g>
<g>
</g>
<g>
</g>
</svg>
