<?xml version="1.0" encoding="iso-8859-1"?>
<!-- Generator: Adobe Illustrator 19.0.0, SVG Export Plug-In . SVG Version: 6.00 Build 0)  -->
<svg xmlns="http://www.w3.org/2000/svg" xmlns:xlink="http://www.w3.org/1999/xlink" version="1.1" id="Layer_1" x="0px" y="0px" viewBox="0 0 512 512" style="enable-background:new 0 0 512 512;" xml:space="preserve">
<g>
	<g>
		<path d="M256,107.844c-74.503,0-128.424,30.411-128.424,57.998c0,27.331,53.458,57.998,128.424,57.998    c75.129,0,128.424-30.736,128.424-57.998C384.424,138.212,330.379,107.844,256,107.844z"/>
	</g>
</g>
<g>
	<g>
		<g>
			<path d="M127.576,224.663c2.313,1.646,2.595,1.834,0-0.012V224.663z"/>
			<path d="M384.424,224.663v-0.012C382.107,226.277,382.296,226.157,384.424,224.663z"/>
		</g>
	</g>
</g>
<g>
	<g>
		<path d="M294.259,77.595c58.526,7.744,122.882,37.317,122.882,88.243v8.311c56.352-7.338,94.842-32.609,94.842-55.873    C511.983,72.815,381.585,37.522,294.259,77.595z"/>
	</g>
</g>
<g>
	<g>
		<path d="M384.424,224.651c-35.612,24.998-85.04,34.426-128.424,34.426s-92.812-9.426-128.424-34.426    c0,57.747-0.217,55.799,0.329,58.973c5.668,32.888,66.727,52.521,128.094,53.365c61.367-0.845,122.426-20.477,128.094-53.365    C384.639,280.451,384.424,282.398,384.424,224.651z"/>
	</g>
</g>
<g>
	<g>
		<path d="M384.424,338.675c-34.395,24.45-84.482,34.426-128.424,34.426s-94.028-9.975-128.424-34.426    c0,58.169-0.207,55.813,0.329,58.985c6.876,37.136,82.871,54.229,128.094,54.229c45.223,0,121.218-17.092,128.094-54.229    C384.631,394.489,384.424,396.844,384.424,338.675z"/>
	</g>
</g>
<g>
	<g>
		<path d="M511.983,291.109c-26.301,18.668-63.916,29.462-94.842,32.534c0,76.894,0.222,73.08-0.654,78.646    c48.807-6.108,90.967-27.816,95.169-52.198C512.11,347.444,511.983,350.896,511.983,291.109z"/>
	</g>
</g>
<g>
	<g>
		<path d="M511.983,177.083c-26.339,18.809-62.408,28.855-94.842,32.545v78.548c60.477-9.08,93.553-33.057,94.787-54.368    C512.011,232.581,511.983,234.291,511.983,177.083z"/>
	</g>
</g>
<g>
	<g>
		<path d="M0.016,118.276c0,23.264,38.49,48.536,94.842,55.873v-8.311c0-50.926,64.356-80.5,122.882-88.243    C130.415,37.522,0.016,72.815,0.016,118.276z"/>
	</g>
</g>
<g>
	<g>
		<path d="M94.858,323.643c-30.926-3.071-68.541-13.865-94.842-32.534c0,59.787-0.127,56.335,0.327,58.982    c4.202,24.382,46.362,46.09,95.169,52.198C94.636,396.723,94.858,400.537,94.858,323.643z"/>
	</g>
</g>
<g>
	<g>
		<path d="M0.016,177.083c0,57.208-0.027,55.498,0.055,56.724c1.235,21.311,34.31,45.289,94.787,54.368v-78.548    C62.425,205.938,26.355,195.892,0.016,177.083z"/>
	</g>
</g>
<g>
</g>
<g>
</g>
<g>
</g>
<g>
</g>
<g>
</g>
<g>
</g>
<g>
</g>
<g>
</g>
<g>
</g>
<g>
</g>
<g>
</g>
<g>
</g>
<g>
</g>
<g>
</g>
<g>
</g>
</svg>
