<?xml version="1.0" encoding="iso-8859-1"?>
<!-- Generator: Adobe Illustrator 19.0.0, SVG Export Plug-In . SVG Version: 6.00 Build 0)  -->
<svg xmlns="http://www.w3.org/2000/svg" xmlns:xlink="http://www.w3.org/1999/xlink" version="1.1" id="Layer_1" x="0px" y="0px" viewBox="0 0 511.999 511.999" style="enable-background:new 0 0 511.999 511.999;" xml:space="preserve">
<g>
	<g>
		<path d="M422.095,74.897c-99.863-99.863-262.351-99.863-362.215,0c-8.695,8.695-8.695,22.79,0,31.483    c8.693,8.693,22.789,8.695,31.483,0c82.503-82.503,216.745-82.503,299.248,0c82.503,82.504,82.503,216.746,0.001,299.249    c-78.533,78.531-203.939,82.307-286.982,11.337l9.14-9.14c9.068-9.067,4.924-24.61-7.485-27.934L36.04,361.338    c-12.388-3.316-23.775,8.039-20.449,20.449l18.554,69.246c3.332,12.436,18.876,16.544,27.934,7.485l9.999-9.999    c100.487,88.283,254.124,84.486,350.019-11.407C521.959,337.25,521.959,174.761,422.095,74.897z"/>
	</g>
</g>
<g>
	<g>
		<path d="M304.86,251.003h-54.579v-92.995c0-9.221-7.476-16.697-16.697-16.697s-16.697,7.476-16.697,16.697V267.7    c0,9.221,7.476,16.697,16.697,16.697h71.276c9.221,0,16.697-7.476,16.697-16.697S314.081,251.003,304.86,251.003z"/>
	</g>
</g>
<g>
</g>
<g>
</g>
<g>
</g>
<g>
</g>
<g>
</g>
<g>
</g>
<g>
</g>
<g>
</g>
<g>
</g>
<g>
</g>
<g>
</g>
<g>
</g>
<g>
</g>
<g>
</g>
<g>
</g>
</svg>
