<?xml version="1.0" encoding="iso-8859-1"?>
<!-- Generator: Adobe Illustrator 19.0.0, SVG Export Plug-In . SVG Version: 6.00 Build 0)  -->
<svg xmlns="http://www.w3.org/2000/svg" xmlns:xlink="http://www.w3.org/1999/xlink" version="1.1" id="Layer_1" x="0px" y="0px" viewBox="0 0 511.998 511.998" style="enable-background:new 0 0 511.998 511.998;" xml:space="preserve">
<g>
	<g>
		<path d="M273.107,138.921l-61.822-43.714l0.968-75.739c0.201-15.89-17.95-25.128-30.681-15.632l-60.688,45.293l-71.72-24.315    c-15.046-5.101-29.445,9.31-24.346,24.346l24.314,71.72L3.836,181.571c-9.436,12.643-0.381,30.683,15.386,30.683    c0.081,0,0.165,0,0.246-0.001l75.739-0.968l43.714,61.822c9.249,13.081,29.326,9.673,34.008-5.383l22.485-72.31l72.31-22.485    C282.898,168.211,286.073,148.087,273.107,138.921z"/>
	</g>
</g>
<g>
	<g>
		<path d="M428.559,156.235h-14.863v-14.864c0-10.603-8.596-19.199-19.199-19.199s-19.199,8.596-19.199,19.199v14.864h-14.863    c-10.603,0-19.199,8.596-19.199,19.199s8.596,19.199,19.199,19.199h14.863v14.863c0,10.603,8.596,19.199,19.199,19.199    s19.199-8.596,19.199-19.199v-14.863h14.863c10.603,0,19.199-8.596,19.199-19.199S439.162,156.235,428.559,156.235z"/>
	</g>
</g>
<g>
	<g>
		<path d="M207.339,377.455h-14.863v-14.863c0-10.603-8.596-19.199-19.199-19.199s-19.199,8.596-19.199,19.199v14.863h-14.863    c-10.603,0-19.199,8.596-19.199,19.199c0,10.603,8.596,19.199,19.199,19.199h14.863v14.863c0,10.603,8.596,19.199,19.199,19.199    s19.199-8.596,19.199-19.199v-14.863h14.863c10.603,0,19.199-8.596,19.199-19.199    C226.538,386.051,217.943,377.455,207.339,377.455z"/>
	</g>
</g>
<g>
	<g>
		<path d="M505.734,423.264L273.292,211.409l-47.203,14.677l-14.677,47.203l211.855,232.443c7.38,8.098,20.026,8.382,27.764,0.643    l55.346-55.346C514.118,443.287,513.825,430.638,505.734,423.264z"/>
	</g>
</g>
<g>
</g>
<g>
</g>
<g>
</g>
<g>
</g>
<g>
</g>
<g>
</g>
<g>
</g>
<g>
</g>
<g>
</g>
<g>
</g>
<g>
</g>
<g>
</g>
<g>
</g>
<g>
</g>
<g>
</g>
</svg>
