<?xml version="1.0" encoding="iso-8859-1"?>
<!-- Generator: Adobe Illustrator 19.0.0, SVG Export Plug-In . SVG Version: 6.00 Build 0)  -->
<svg xmlns="http://www.w3.org/2000/svg" xmlns:xlink="http://www.w3.org/1999/xlink" version="1.1" id="Layer_1" x="0px" y="0px" viewBox="0 0 512 512" style="enable-background:new 0 0 512 512;" xml:space="preserve">
<g>
	<g>
		<path d="M506.513,124.122L387.879,5.488c-3.528-3.528-8.223-5.563-13.364-5.486c-14.938,0-341.444,0-355.782,0    c-10.345,0-18.732,8.387-18.732,18.732v474.534C0.001,503.613,8.388,512,18.733,512c22.177,0,451.995,0,474.534,0    c10.345,0,18.732-8.387,18.732-18.732V137.367C512,132.4,510.027,127.634,506.513,124.122z M156.099,37.465h199.804v110.829    H156.099V37.465z M400.447,474.536H111.555V316.941h288.891V474.536z"/>
	</g>
</g>
<g>
	<g>
		<path d="M309.514,55.016c-10.345,0-18.732,8.387-18.732,18.732v38.257c0,10.345,8.387,18.732,18.732,18.732    c10.345,0,18.732-8.387,18.732-18.732V73.747C328.245,63.402,319.858,55.016,309.514,55.016z"/>
	</g>
</g>
<g>
</g>
<g>
</g>
<g>
</g>
<g>
</g>
<g>
</g>
<g>
</g>
<g>
</g>
<g>
</g>
<g>
</g>
<g>
</g>
<g>
</g>
<g>
</g>
<g>
</g>
<g>
</g>
<g>
</g>
</svg>
