<?xml version="1.0" encoding="iso-8859-1"?>
<!-- Generator: Adobe Illustrator 19.0.0, SVG Export Plug-In . SVG Version: 6.00 Build 0)  -->
<svg xmlns="http://www.w3.org/2000/svg" xmlns:xlink="http://www.w3.org/1999/xlink" version="1.1" id="Layer_1" x="0px" y="0px" viewBox="0 0 512 512" style="enable-background:new 0 0 512 512;" xml:space="preserve">
<g>
	<g>
		<path d="M139.13,89.044v333.913H372.87V89.044H139.13z M317.217,289.391c-18.412,0-33.391-14.979-33.391-33.391    c0-18.412,14.979-33.391,33.391-33.391c18.412,0,33.391,14.979,33.391,33.391C350.609,274.412,335.629,289.391,317.217,289.391z"/>
	</g>
</g>
<g>
	<g>
		<path d="M445.217,0H66.783c-9.22,0-16.696,7.475-16.696,16.696v478.609c0,9.22,7.475,16.696,16.696,16.696h378.435    c9.22,0,16.696-7.475,16.696-16.696V16.696C461.913,7.475,454.438,0,445.217,0z M406.261,439.652    c0,9.22-7.475,16.696-16.696,16.696h-267.13c-9.22,0-16.696-7.475-16.696-16.696V72.348c0-9.22,7.475-16.696,16.696-16.696h267.13    c9.22,0,16.696,7.475,16.696,16.696V439.652z"/>
	</g>
</g>
<g>
</g>
<g>
</g>
<g>
</g>
<g>
</g>
<g>
</g>
<g>
</g>
<g>
</g>
<g>
</g>
<g>
</g>
<g>
</g>
<g>
</g>
<g>
</g>
<g>
</g>
<g>
</g>
<g>
</g>
</svg>
