<?xml version="1.0" encoding="iso-8859-1"?>
<!-- Generator: Adobe Illustrator 19.0.0, SVG Export Plug-In . SVG Version: 6.00 Build 0)  -->
<svg xmlns="http://www.w3.org/2000/svg" xmlns:xlink="http://www.w3.org/1999/xlink" version="1.1" id="Layer_1" x="0px" y="0px" viewBox="0 0 511.999 511.999" style="enable-background:new 0 0 511.999 511.999;" xml:space="preserve">
<g>
	<g>
		<path d="M453.305,256.001l53.805-53.805c6.52-6.52,6.52-17.091,0-23.611c-6.518-6.519-17.09-6.52-23.611,0l-53.805,53.805    l-53.805-53.805c-6.519-6.52-17.091-6.52-23.611,0c-6.52,6.52-6.52,17.091,0,23.611l53.805,53.805l-53.805,53.805    c-6.52,6.52-6.52,17.091,0,23.611c6.519,6.52,17.091,6.52,23.611,0l53.805-53.805l53.805,53.805c6.519,6.52,17.091,6.521,23.611,0    c6.52-6.52,6.52-17.091,0-23.611L453.305,256.001z"/>
	</g>
</g>
<g>
	<g>
		<path d="M16.696,166.779C7.475,166.779,0,174.254,0,183.475v145.052c0,9.22,7.475,16.696,16.696,16.696h103.552V166.779H16.696z"/>
	</g>
</g>
<g>
	<g>
		<path d="M273.484,61.283l-119.845,88.996v211.447l119.845,88.996c10.924,8.116,26.648,0.39,26.648-13.403V74.688    C300.132,60.976,284.471,53.124,273.484,61.283z"/>
	</g>
</g>
<g>
</g>
<g>
</g>
<g>
</g>
<g>
</g>
<g>
</g>
<g>
</g>
<g>
</g>
<g>
</g>
<g>
</g>
<g>
</g>
<g>
</g>
<g>
</g>
<g>
</g>
<g>
</g>
<g>
</g>
</svg>
