<?xml version="1.0" encoding="iso-8859-1"?>
<!-- Generator: Adobe Illustrator 19.0.0, SVG Export Plug-In . SVG Version: 6.00 Build 0)  -->
<svg xmlns="http://www.w3.org/2000/svg" xmlns:xlink="http://www.w3.org/1999/xlink" version="1.1" id="Layer_1" x="0px" y="0px" viewBox="0 0 512 512" style="enable-background:new 0 0 512 512;" xml:space="preserve">
<g>
	<g>
		<path d="M348.827,218.059l-90.419-90.419c-3.273-3.275-7.744-4.998-12.067-4.998H52.588c-9.425,0-17.067,7.641-17.067,17.067    v355.226c0,9.425,7.641,17.067,17.067,17.067h284.183c9.425,0,17.067-7.641,17.067-17.067V230.138    C353.838,225.832,352.097,221.328,348.827,218.059z M257.739,444.386H131.624c-9.425,0-17.067-7.641-17.067-17.067    s7.641-17.067,17.067-17.067h126.115c9.425,0,17.067,7.641,17.067,17.067S267.164,444.386,257.739,444.386z M257.739,379.599    H131.624c-9.425,0-17.067-7.641-17.067-17.067s7.641-17.067,17.067-17.067h126.115c9.425,0,17.067,7.641,17.067,17.067    S267.164,379.599,257.739,379.599z M257.739,314.812H131.624c-9.425,0-17.067-7.641-17.067-17.067s7.641-17.067,17.067-17.067    h126.115c9.425,0,17.067,7.641,17.067,17.067S267.164,314.812,257.739,314.812z M263.407,213.06v-32.15l32.15,32.15H263.407z"/>
	</g>
</g>
<g>
	<g>
		<path d="M471.468,95.419l-90.419-90.42C377.87,1.82,373.457,0,368.981,0H175.229c-9.425,0-17.067,7.641-17.067,17.067v71.441    h88.178c14.229,0,24.891,4.997,35.375,14.168l91.249,91.247c9.866,9.866,15.007,23.117,15.007,36.214v159.221h71.441    c9.425,0,17.067-7.641,17.067-17.067V107.497C476.479,103.103,474.729,98.679,471.468,95.419z M386.048,90.432V58.27    l32.162,32.162H386.048z"/>
	</g>
</g>
<g>
</g>
<g>
</g>
<g>
</g>
<g>
</g>
<g>
</g>
<g>
</g>
<g>
</g>
<g>
</g>
<g>
</g>
<g>
</g>
<g>
</g>
<g>
</g>
<g>
</g>
<g>
</g>
<g>
</g>
</svg>
