<?xml version="1.0" encoding="iso-8859-1"?>
<!-- Generator: Adobe Illustrator 19.0.0, SVG Export Plug-In . SVG Version: 6.00 Build 0)  -->
<svg xmlns="http://www.w3.org/2000/svg" xmlns:xlink="http://www.w3.org/1999/xlink" version="1.1" id="Layer_1" x="0px" y="0px" viewBox="0 0 512 512" style="enable-background:new 0 0 512 512;" xml:space="preserve">
<g>
	<g>
		<path d="M400.696,0H111.304C89.824,0,72.348,17.476,72.348,38.957v434.087c0,21.481,17.476,38.957,38.957,38.957h289.391    c21.481,0,38.956-17.476,38.956-38.957V38.957C439.652,17.476,422.176,0,400.696,0z M356.174,451.896    c-12.889,0-23.374-10.485-23.374-23.374s10.485-23.374,23.374-23.374c12.889,0,23.374,10.485,23.374,23.374    S369.063,451.896,356.174,451.896z M256,349.062c-14.129,0-27.849-2.283-40.964-6.783l-18.263,29.615    c-10.965,17.776-36.961,25.139-58.079,3.927c-16.237-16.215-13.058-43.412,6.516-55.492l18.451-11.38    c-21.658-23.225-34.114-54.114-34.114-86.34c0-69.727,56.726-126.453,126.453-126.453s126.453,56.726,126.453,126.453    S325.727,349.062,256,349.062z"/>
	</g>
</g>
<g>
	<g>
		<path d="M256,129.547c-51.315,0-93.062,41.747-93.062,93.062c0,26.004,11.015,50.836,29.907,68.34l26.951-16.623    c14.906-9.193,32.17,8.067,22.977,22.974c-2.498,4.049-1.161,1.881-9.601,15.568c7.395,1.864,15.025,2.803,22.827,2.803    c51.315,0,93.062-41.747,93.062-93.062S307.315,129.547,256,129.547z M256,261.565c-21.481,0-38.957-17.476-38.957-38.957    c0-21.481,17.476-38.957,38.957-38.957c21.481,0,38.957,17.476,38.957,38.957C294.957,244.089,277.481,261.565,256,261.565z"/>
	</g>
</g>
<g>
</g>
<g>
</g>
<g>
</g>
<g>
</g>
<g>
</g>
<g>
</g>
<g>
</g>
<g>
</g>
<g>
</g>
<g>
</g>
<g>
</g>
<g>
</g>
<g>
</g>
<g>
</g>
<g>
</g>
</svg>
