<?xml version="1.0" encoding="iso-8859-1"?>
<!-- Generator: Adobe Illustrator 19.0.0, SVG Export Plug-In . SVG Version: 6.00 Build 0)  -->
<svg xmlns="http://www.w3.org/2000/svg" xmlns:xlink="http://www.w3.org/1999/xlink" version="1.1" id="Layer_1" x="0px" y="0px" viewBox="0 0 512.001 512.001" style="enable-background:new 0 0 512.001 512.001;" xml:space="preserve">
<g>
	<g>
		<path d="M425.016,373.031L222.762,121.34c7.76-28.936,2.125-60.508-17.861-85.381C171.673-5.379,111.013-11.983,69.682,21.235    c-41.433,33.283-48.036,93.763-14.73,135.204c19.897,24.777,49.483,37.215,79.539,35.844L386.3,505.625    c5.904,7.346,16.647,8.516,23.994,2.612C451.63,475.016,458.234,414.362,425.016,373.031z M166.593,146.236    c-26.491,19.432-64.013,15.001-85.033-11.172c-21.478-26.725-17.243-65.737,9.5-87.221c26.665-21.43,65.798-17.171,87.235,9.499    C200.171,84.564,195.487,125.008,166.593,146.236z"/>
	</g>
</g>
<g>
	<g>
		<path d="M442.322,21.231C400.885-12.065,340.404-5.484,307.105,35.957c-19.967,24.848-25.527,56.672-17.824,85.324l-11.389,14.176    l72.638,90.394l26.972-33.565c30.575,1.387,59.955-11.459,79.544-35.836C490.346,115.013,483.765,54.532,442.322,21.231z     M430.442,135.069c-22.533,28.04-63.69,30.908-89.989,7.137c-24.268-21.931-27.341-59.237-6.743-84.869    c21.536-26.799,60.558-30.935,87.232-9.5C447.672,69.317,451.926,108.334,430.442,135.069z"/>
	</g>
</g>
<g>
	<g>
		<path d="M161.468,280.341l-74.47,92.685c-33.316,41.432-26.73,101.913,14.722,135.212c7.347,5.902,18.088,4.731,23.99-2.615    l108.401-134.89L161.468,280.341z"/>
	</g>
</g>
<g>
</g>
<g>
</g>
<g>
</g>
<g>
</g>
<g>
</g>
<g>
</g>
<g>
</g>
<g>
</g>
<g>
</g>
<g>
</g>
<g>
</g>
<g>
</g>
<g>
</g>
<g>
</g>
<g>
</g>
</svg>
