<?xml version="1.0" encoding="iso-8859-1"?>
<!-- Generator: Adobe Illustrator 19.0.0, SVG Export Plug-In . SVG Version: 6.00 Build 0)  -->
<svg xmlns="http://www.w3.org/2000/svg" xmlns:xlink="http://www.w3.org/1999/xlink" version="1.1" id="Layer_1" x="0px" y="0px" viewBox="0 0 512 512" style="enable-background:new 0 0 512 512;" xml:space="preserve">
<g>
	<g>
		<path d="M493.268,0H18.732C8.387,0,0,8.387,0,18.732v474.537C0,503.613,8.387,512,18.732,512h474.537    c10.345,0,18.732-8.387,18.732-18.732V18.732C512,8.387,503.613,0,493.268,0z M256,103.712c19.958,0,36.138,16.18,36.138,36.138    s-16.18,36.138-36.138,36.138s-36.138-16.179-36.138-36.137S236.042,103.712,256,103.712z M256,408.288    c-19.958,0-36.138-16.18-36.138-36.138s16.179-36.137,36.138-36.137s36.138,16.179,36.138,36.137S275.958,408.288,256,408.288z     M374.015,274.732H137.984c-10.345,0-18.732-8.387-18.732-18.732s8.387-18.732,18.732-18.732h236.031    c10.345,0,18.732,8.387,18.732,18.732S384.36,274.732,374.015,274.732z"/>
	</g>
</g>
<g>
</g>
<g>
</g>
<g>
</g>
<g>
</g>
<g>
</g>
<g>
</g>
<g>
</g>
<g>
</g>
<g>
</g>
<g>
</g>
<g>
</g>
<g>
</g>
<g>
</g>
<g>
</g>
<g>
</g>
</svg>
