<?xml version="1.0" encoding="iso-8859-1"?>
<!-- Generator: Adobe Illustrator 19.0.0, SVG Export Plug-In . SVG Version: 6.00 Build 0)  -->
<svg xmlns="http://www.w3.org/2000/svg" xmlns:xlink="http://www.w3.org/1999/xlink" version="1.1" id="Layer_1" x="0px" y="0px" viewBox="0 0 512 512" style="enable-background:new 0 0 512 512;" xml:space="preserve">
<g>
	<g>
		<path d="M119.003,166.564H19.2c-10.603,0-19.2,8.596-19.2,19.2v295.433c0,10.603,8.596,19.2,19.2,19.2h99.803    c10.603,0,19.2-8.596,19.2-19.2V185.764C138.203,175.16,129.607,166.564,119.003,166.564z"/>
	</g>
</g>
<g>
	<g>
		<path d="M453.938,166.568H331.308L305.083,65.013c-8.161-31.6-36.716-53.415-68.981-53.414c-1.619,0-3.25,0.055-4.886,0.168    c-46.044,3.139-75.443,44.784-63.836,89.732l11.579,44.83c2.026,7.848,0.995,15.854-2.405,22.678    c0.021,0.698,0.049,1.394,0.049,2.098V489c19.081,7.578,26.227,11.398,39.803,11.398l208.211,0.003    c28.935,0,53.67-21.627,57.532-50.304l29.323-217.729C516.16,197.545,489.041,166.568,453.938,166.568z"/>
	</g>
</g>
<g>
</g>
<g>
</g>
<g>
</g>
<g>
</g>
<g>
</g>
<g>
</g>
<g>
</g>
<g>
</g>
<g>
</g>
<g>
</g>
<g>
</g>
<g>
</g>
<g>
</g>
<g>
</g>
<g>
</g>
</svg>
