<?xml version="1.0" encoding="iso-8859-1"?>
<!-- Generator: Adobe Illustrator 19.0.0, SVG Export Plug-In . SVG Version: 6.00 Build 0)  -->
<svg xmlns="http://www.w3.org/2000/svg" xmlns:xlink="http://www.w3.org/1999/xlink" version="1.1" id="Layer_1" x="0px" y="0px" viewBox="0 0 511.999 511.999" style="enable-background:new 0 0 511.999 511.999;" xml:space="preserve">
<g>
	<g>
		<path d="M435.696,0H126.482C89.606,0,59.606,29.994,59.606,66.862v378.276c0,36.868,30,66.862,66.876,66.862h309.216    c9.22,0,16.696-7.475,16.696-16.696c0-17.453,0-461.153,0-478.609C452.392,7.475,444.917,0,435.696,0z M347.748,400.587    l-26.282,12.553c-29.697,14.184-65.277,8.073-88.539-15.191l-68.704-68.704c-23.267-23.266-29.372-58.848-15.19-88.539    l12.553-26.283c11.91-24.933,44.974-30.61,64.516-11.069l14.604,14.605c0,0,0,0,0.001,0c11.987,11.989,15.132,30.322,7.825,45.62    l-7.239,15.156l42.142,42.142l15.156-7.238c15.298-7.307,33.633-4.162,45.621,7.828l14.603,14.604    C378.356,355.61,372.687,388.676,347.748,400.587z M419.002,100.346h-0.001H126.482c-17.887,0-32.543-14.097-33.441-31.764    c-0.029-0.57-0.043-1.143-0.043-1.721c0-18.455,15.022-33.47,33.485-33.47h292.52V100.346z"/>
	</g>
</g>
<g>
</g>
<g>
</g>
<g>
</g>
<g>
</g>
<g>
</g>
<g>
</g>
<g>
</g>
<g>
</g>
<g>
</g>
<g>
</g>
<g>
</g>
<g>
</g>
<g>
</g>
<g>
</g>
<g>
</g>
</svg>
