<?xml version="1.0" encoding="iso-8859-1"?>
<!-- Generator: Adobe Illustrator 19.0.0, SVG Export Plug-In . SVG Version: 6.00 Build 0)  -->
<svg xmlns="http://www.w3.org/2000/svg" xmlns:xlink="http://www.w3.org/1999/xlink" version="1.1" id="Layer_1" x="0px" y="0px" viewBox="0 0 512 512" style="enable-background:new 0 0 512 512;" xml:space="preserve">
<g>
	<g>
		<path d="M499.162,68.597c-5.7-11.491-20.998-13.953-30.023-4.923l-37.01,37.01L411.315,79.87l37.01-37.01    c9.053-9.053,6.539-24.337-4.923-30.023c-47.43-23.512-104.467-14.141-141.929,23.321c-34.193,34.192-44.985,84.695-28.728,129.31    L165.47,272.743c-44.622-16.255-95.116-5.466-129.311,28.728c-37.463,37.462-46.834,94.5-23.321,141.929    c5.69,11.469,20.977,13.969,30.023,4.923l37.01-37.01l20.814,20.814l-37.01,37.01c-9.053,9.053-6.539,24.337,4.923,30.023    c47.452,23.524,104.482,14.128,141.929-23.321c34.193-34.191,44.985-84.693,28.728-129.311l107.274-107.275    c44.618,16.251,95.118,5.464,129.312-28.728C513.305,173.064,522.675,116.026,499.162,68.597z"/>
	</g>
</g>
<g>
</g>
<g>
</g>
<g>
</g>
<g>
</g>
<g>
</g>
<g>
</g>
<g>
</g>
<g>
</g>
<g>
</g>
<g>
</g>
<g>
</g>
<g>
</g>
<g>
</g>
<g>
</g>
<g>
</g>
</svg>
