<?xml version="1.0" encoding="iso-8859-1"?>
<!-- Generator: Adobe Illustrator 19.0.0, SVG Export Plug-In . SVG Version: 6.00 Build 0)  -->
<svg xmlns="http://www.w3.org/2000/svg" xmlns:xlink="http://www.w3.org/1999/xlink" version="1.1" id="Layer_1" x="0px" y="0px" viewBox="0 0 512 512" style="enable-background:new 0 0 512 512;" xml:space="preserve">
<g>
	<g>
		<path d="M124.52,239.304H16.696C7.475,239.304,0,246.78,0,256v215.647c0,9.22,7.475,16.696,16.696,16.696H124.52    c9.22,0,16.696-7.475,16.696-16.696V256C141.215,246.78,133.74,239.304,124.52,239.304z"/>
	</g>
</g>
<g>
	<g>
		<path d="M309.912,23.658H202.089c-9.22,0-16.696,7.475-16.696,16.696v431.293c0,9.22,7.475,16.696,16.696,16.696h107.824    c9.22,0,16.696-7.474,16.696-16.695V40.353C326.608,31.133,319.133,23.658,309.912,23.658z"/>
	</g>
</g>
<g>
	<g>
		<path d="M495.304,131.48H387.481c-9.22,0-16.696,7.475-16.696,16.696v323.47c0,9.22,7.475,16.696,16.696,16.696h107.824    c9.22,0,16.696-7.475,16.696-16.696v-323.47C512,138.956,504.525,131.48,495.304,131.48z"/>
	</g>
</g>
<g>
</g>
<g>
</g>
<g>
</g>
<g>
</g>
<g>
</g>
<g>
</g>
<g>
</g>
<g>
</g>
<g>
</g>
<g>
</g>
<g>
</g>
<g>
</g>
<g>
</g>
<g>
</g>
<g>
</g>
</svg>
