<?xml version="1.0" encoding="iso-8859-1"?>
<!-- Generator: Adobe Illustrator 19.0.0, SVG Export Plug-In . SVG Version: 6.00 Build 0)  -->
<svg xmlns="http://www.w3.org/2000/svg" xmlns:xlink="http://www.w3.org/1999/xlink" version="1.1" id="Layer_1" x="0px" y="0px" viewBox="0 0 512 512" style="enable-background:new 0 0 512 512;" xml:space="preserve">
<g>
	<g>
		<path d="M63.92,70.781H35.317c-9.421,0-17.067,7.635-17.067,17.067c0,9.421,7.646,17.067,17.067,17.067h23.905    C57.421,81.613,56.622,87.205,63.92,70.781z"/>
	</g>
</g>
<g>
	<g>
		<path d="M476.683,70.781H448.08c7.309,16.444,6.498,10.851,4.699,34.133h23.905c9.421,0,17.067-7.646,17.067-17.067    C493.75,78.416,486.104,70.781,476.683,70.781z"/>
	</g>
</g>
<g>
	<g>
		<path d="M421.148,10.138C418.406,3.971,412.297,0,405.549,0H106.451c-6.747,0-12.857,3.971-15.599,10.138L63.92,70.781H448.08    L421.148,10.138z"/>
	</g>
</g>
<g>
	<g>
		<path d="M59.221,104.914l30.208,391.327C90.123,505.139,97.53,512,106.451,512h299.099c8.92,0,16.327-6.861,17.021-15.758    l30.208-391.327H59.221z M198.944,420.121c0,9.425-7.641,17.067-17.067,17.067s-17.067-7.641-17.067-17.067V196.793    c0-9.425,7.641-17.067,17.067-17.067s17.067,7.641,17.067,17.067V420.121z M273.067,420.121c0,9.425-7.641,17.067-17.067,17.067    s-17.067-7.641-17.067-17.067V196.793c0-9.425,7.641-17.067,17.067-17.067s17.067,7.641,17.067,17.067V420.121z M347.19,420.121    c0,9.425-7.641,17.067-17.067,17.067s-17.067-7.641-17.067-17.067V196.793c0-9.425,7.641-17.067,17.067-17.067    s17.067,7.641,17.067,17.067V420.121z"/>
	</g>
</g>
<g>
</g>
<g>
</g>
<g>
</g>
<g>
</g>
<g>
</g>
<g>
</g>
<g>
</g>
<g>
</g>
<g>
</g>
<g>
</g>
<g>
</g>
<g>
</g>
<g>
</g>
<g>
</g>
<g>
</g>
</svg>
