<?xml version="1.0" encoding="iso-8859-1"?>
<!-- Generator: Adobe Illustrator 19.0.0, SVG Export Plug-In . SVG Version: 6.00 Build 0)  -->
<svg xmlns="http://www.w3.org/2000/svg" xmlns:xlink="http://www.w3.org/1999/xlink" version="1.1" id="Layer_1" x="0px" y="0px" viewBox="0 0 512 512" style="enable-background:new 0 0 512 512;" xml:space="preserve">
<g>
	<g>
		<path d="M494.738,105.745H17.284C8.184,105.429,0,112.691,0,122.439v267.13c0,9.22,7.475,16.696,16.696,16.696h478.609    c9.22,0,16.696-7.475,16.696-16.696v-267.13C512,112.8,503.949,105.435,494.738,105.745z M92.365,324.95    c-7.601,5.218-17.993,3.288-23.214-4.312c-5.219-7.601-3.289-17.995,4.313-23.214l108.296-74.362l34.231,17.001L92.365,324.95z     M87.848,139.135h336.304c-5.829,2.896-163.241,81.074-168.152,83.513C163.552,176.733,128.934,159.54,87.848,139.135z     M442.849,320.638c-5.22,7.602-15.616,9.53-23.214,4.312l-123.625-84.888l34.229-17.001l108.296,74.362    C446.138,302.643,448.068,313.036,442.849,320.638z"/>
	</g>
</g>
<g>
</g>
<g>
</g>
<g>
</g>
<g>
</g>
<g>
</g>
<g>
</g>
<g>
</g>
<g>
</g>
<g>
</g>
<g>
</g>
<g>
</g>
<g>
</g>
<g>
</g>
<g>
</g>
<g>
</g>
</svg>
