<?xml version="1.0" encoding="iso-8859-1"?>
<!-- Generator: Adobe Illustrator 19.0.0, SVG Export Plug-In . SVG Version: 6.00 Build 0)  -->
<svg xmlns="http://www.w3.org/2000/svg" xmlns:xlink="http://www.w3.org/1999/xlink" version="1.1" id="Layer_1" x="0px" y="0px" viewBox="0 0 512 512" style="enable-background:new 0 0 512 512;" xml:space="preserve">
<g>
	<g>
		<path d="M452.26,111.299c-7.584,0-97.234-0.006-104.82-0.006V17.067C347.44,7.641,339.798,0,330.373,0    c-9.425,0-17.067,7.641-17.067,17.067v94.225H198.681V17.067C198.681,7.641,191.04,0,181.614,0s-17.067,7.641-17.067,17.067    v94.225c-7.714,0-97.093,0.006-104.807,0.006c-9.425,0-17.067,7.641-17.067,17.067s7.641,17.067,17.067,17.067h30.857v121.215    c0,2.846,0.711,5.647,2.07,8.148l61.944,114.021c2.987,5.497,8.742,8.919,14.997,8.919h25.84v37.442    c0,9.425,7.641,17.067,17.067,17.067h26.419v42.691c0,9.425,7.641,17.067,17.067,17.067s17.067-7.641,17.067-17.067v-42.689    h26.419c9.425,0,17.067-7.641,17.067-17.067v-37.442h25.84c6.255,0,12.01-3.422,14.997-8.919l61.944-114.021    c1.359-2.501,2.07-5.301,2.07-8.148V145.432h30.857c9.425,0,17.067-7.641,17.067-17.067S461.685,111.299,452.26,111.299z     M364.514,252.192c0,2.846-0.711,5.647-2.07,8.148l-38.892,71.588c-2.987,5.497-8.742,8.919-14.997,8.919H203.444    c-6.255,0-12.01-3.422-14.997-8.919l-38.892-71.588c-1.359-2.501-2.07-5.301-2.07-8.148v-66.943    c0-9.425,7.641-17.067,17.067-17.067h182.895c9.425,0,17.067,7.641,17.067,17.067V252.192z"/>
	</g>
</g>
<g>
</g>
<g>
</g>
<g>
</g>
<g>
</g>
<g>
</g>
<g>
</g>
<g>
</g>
<g>
</g>
<g>
</g>
<g>
</g>
<g>
</g>
<g>
</g>
<g>
</g>
<g>
</g>
<g>
</g>
</svg>
