<?xml version="1.0" encoding="iso-8859-1"?>
<!-- Generator: Adobe Illustrator 19.0.0, SVG Export Plug-In . SVG Version: 6.00 Build 0)  -->
<svg xmlns="http://www.w3.org/2000/svg" xmlns:xlink="http://www.w3.org/1999/xlink" version="1.1" id="Layer_1" x="0px" y="0px" viewBox="0 0 512 512" style="enable-background:new 0 0 512 512;" xml:space="preserve">
<g>
	<g>
		<path d="M215.507,0H18.732C8.387,0,0,8.387,0,18.732v196.775c0,10.345,8.387,18.732,18.732,18.732h196.775    c10.345,0,18.732-8.387,18.732-18.732V18.732C234.239,8.387,225.852,0,215.507,0z M150.694,135.851h-14.843v14.843    c0,10.345-8.387,18.732-18.732,18.732c-10.345,0-18.732-8.387-18.732-18.732v-14.843H83.543c-10.345,0-18.732-8.387-18.732-18.732    s8.387-18.732,18.732-18.732h14.844V83.543c0-10.345,8.387-18.732,18.732-18.732s18.732,8.387,18.732,18.732v14.843h14.843    c10.345,0,18.732,8.387,18.732,18.732C169.426,127.464,161.04,135.851,150.694,135.851z"/>
	</g>
</g>
<g>
	<g>
		<path d="M215.507,277.761H18.732C8.387,277.761,0,286.148,0,296.493v196.775C0,503.613,8.387,512,18.732,512h196.775    c10.345,0,18.732-8.387,18.732-18.732V296.493C234.239,286.148,225.852,277.761,215.507,277.761z M150.694,413.612H83.543    c-10.345,0-18.732-8.387-18.732-18.732c0-10.345,8.387-18.732,18.732-18.732h67.151c10.345,0,18.732,8.387,18.732,18.732    C169.426,405.226,161.04,413.612,150.694,413.612z"/>
	</g>
</g>
<g>
	<g>
		<path d="M493.268,0H296.493c-10.345,0-18.732,8.387-18.732,18.732v196.775c0,10.345,8.387,18.732,18.732,18.732h196.775    c10.345,0,18.732-8.387,18.732-18.732V18.732C512,8.387,503.613,0,493.268,0z M431.867,127.615c7.315,7.315,7.315,19.175,0,26.49    c-7.314,7.315-19.175,7.317-26.49,0l-10.496-10.496l-10.496,10.496c-7.314,7.315-19.175,7.317-26.49,0    c-7.315-7.315-7.315-19.175,0-26.49l10.496-10.496l-10.496-10.496c-7.315-7.315-7.315-19.175,0-26.49    c7.314-7.315,19.175-7.315,26.49,0l10.496,10.496l10.496-10.496c7.314-7.315,19.175-7.315,26.49,0    c7.315,7.315,7.315,19.175,0,26.49l-10.496,10.496L431.867,127.615z"/>
	</g>
</g>
<g>
	<g>
		<path d="M493.268,277.761H296.493c-10.345,0-18.732,8.387-18.732,18.732v196.775c0,10.345,8.387,18.732,18.732,18.732h196.775    c10.345,0,18.732-8.387,18.732-18.732V296.493C512,286.148,503.613,277.761,493.268,277.761z M394.881,331.732    c8.276,0,14.985,6.71,14.985,14.985s-6.71,14.985-14.985,14.985c-8.276,0-14.985-6.71-14.985-14.985    C379.895,338.442,386.605,331.732,394.881,331.732z M394.881,458.029c-8.276,0-14.985-6.71-14.985-14.985    s6.71-14.985,14.985-14.985c8.276,0,14.985,6.71,14.985,14.985S403.158,458.029,394.881,458.029z M428.457,413.612h-67.151    c-10.345,0-18.732-8.387-18.732-18.732c0-10.345,8.387-18.732,18.732-18.732h67.151c10.345,0,18.732,8.387,18.732,18.732    C447.188,405.226,438.802,413.612,428.457,413.612z"/>
	</g>
</g>
<g>
</g>
<g>
</g>
<g>
</g>
<g>
</g>
<g>
</g>
<g>
</g>
<g>
</g>
<g>
</g>
<g>
</g>
<g>
</g>
<g>
</g>
<g>
</g>
<g>
</g>
<g>
</g>
<g>
</g>
</svg>
