<?xml version="1.0" encoding="iso-8859-1"?>
<!-- Generator: Adobe Illustrator 19.0.0, SVG Export Plug-In . SVG Version: 6.00 Build 0)  -->
<svg xmlns="http://www.w3.org/2000/svg" xmlns:xlink="http://www.w3.org/1999/xlink" version="1.1" id="Layer_1" x="0px" y="0px" viewBox="0 0 512 512" style="enable-background:new 0 0 512 512;" xml:space="preserve">
<g>
	<g>
		<path d="M302.805,61.994c-51.199,0-92.852,41.653-92.852,92.852v43.523c0,51.905,42.098,92.851,92.852,92.851    c50.817,0,92.85-41.014,92.851-92.851v-43.523C395.656,103.647,354.003,61.994,302.805,61.994z"/>
	</g>
</g>
<g>
	<g>
		<path d="M511.186,428.188l-40.263-124.86c-1.306-4.046-4.105-7.443-7.827-9.495l-52.804-29.124    c-22.391,36.083-62.22,59.902-107.488,59.902c-45.354,0-85.142-23.896-107.488-59.902l-52.805,29.124    c-3.723,2.053-6.521,5.449-7.827,9.495l-40.261,124.86c-3.475,10.778,4.582,21.819,15.889,21.819h384.983    C506.641,450.007,514.648,438.928,511.186,428.188z"/>
	</g>
</g>
<g>
	<g>
		<path d="M102.906,293.081c1.811-5.613,4.567-10.778,8.096-15.329c-3.39-4.173-6.491-8.528-9.292-13.042l-52.805,29.122    c-3.723,2.054-6.521,5.449-7.827,9.495L0.816,428.19c-3.475,10.778,4.582,21.819,15.889,21.819h46.409    c-3.607-10.236-3.867-21.531-0.47-32.068L102.906,293.081z"/>
	</g>
</g>
<g>
	<g>
		<path d="M217.026,62.315c-54.684-4.512-100.684,38.724-100.684,92.534v43.521c0,22.19,7.674,43.054,21.779,59.755l43.531-24.01    c-3.35-11.44-5.089-23.442-5.089-35.744v-43.523C176.563,118.327,192.156,85.387,217.026,62.315z"/>
	</g>
</g>
<g>
</g>
<g>
</g>
<g>
</g>
<g>
</g>
<g>
</g>
<g>
</g>
<g>
</g>
<g>
</g>
<g>
</g>
<g>
</g>
<g>
</g>
<g>
</g>
<g>
</g>
<g>
</g>
<g>
</g>
</svg>
