<?xml version="1.0" encoding="iso-8859-1"?>
<!-- Generator: Adobe Illustrator 19.0.0, SVG Export Plug-In . SVG Version: 6.00 Build 0)  -->
<svg xmlns="http://www.w3.org/2000/svg" xmlns:xlink="http://www.w3.org/1999/xlink" version="1.1" id="Layer_1" x="0px" y="0px" viewBox="0 0 512 512" style="enable-background:new 0 0 512 512;" xml:space="preserve">
<g>
	<g>
		<path d="M495.304,61.217H16.696C7.475,61.217,0,68.693,0,77.913v239.662c4.359,0,467.804,0,512,0V77.913    C512,68.693,504.525,61.217,495.304,61.217z M311.717,195.361c9.22,0,16.696,7.475,16.696,16.696s-7.475,16.696-16.696,16.696    h-13.222l-1.443,11.108c-1.19,9.167-9.59,15.594-18.707,14.406c-9.144-1.188-15.595-9.562-14.406-18.707l0.884-6.808h-26.449    l-1.443,11.108c-1.191,9.174-9.599,15.594-18.707,14.406c-9.144-1.188-15.594-9.562-14.406-18.707l0.884-6.809h-4.417    c-9.22,0-16.696-7.475-16.696-16.696s7.475-16.696,16.696-16.696h8.753l3.47-26.73h-12.223v0c-9.22,0-16.696-7.475-16.696-16.696    s7.475-16.696,16.696-16.696h16.56l1.443-11.108c1.188-9.144,9.567-15.596,18.707-14.406c9.144,1.188,15.594,9.562,14.406,18.707    l-0.884,6.808h26.449l1.443-11.108c1.186-9.144,9.55-15.603,18.707-14.406c9.144,1.188,15.595,9.562,14.406,18.707l-0.884,6.808    h1.079c9.22,0,16.696,7.475,16.696,16.696s-7.475,16.696-16.696,16.696h-5.415l-3.47,26.73H311.717z"/>
	</g>
</g>
<g>
	<g>
		<polygon points="246.181,168.629 242.709,195.359 269.158,195.359 272.629,168.629   "/>
	</g>
</g>
<g>
	<g>
		<path d="M0,350.966v83.121c0,9.22,7.475,16.696,16.696,16.696h222.609v-99.817H0z"/>
	</g>
</g>
<g>
	<g>
		<path d="M272.696,350.966L272.696,350.966v99.817h222.609c9.22,0,16.696-7.475,16.696-16.696v-83.121H272.696z"/>
	</g>
</g>
<g>
</g>
<g>
</g>
<g>
</g>
<g>
</g>
<g>
</g>
<g>
</g>
<g>
</g>
<g>
</g>
<g>
</g>
<g>
</g>
<g>
</g>
<g>
</g>
<g>
</g>
<g>
</g>
<g>
</g>
</svg>
