<?xml version="1.0" encoding="iso-8859-1"?>
<!-- Generator: Adobe Illustrator 19.0.0, SVG Export Plug-In . SVG Version: 6.00 Build 0)  -->
<svg xmlns="http://www.w3.org/2000/svg" xmlns:xlink="http://www.w3.org/1999/xlink" version="1.1" id="Layer_1" x="0px" y="0px" viewBox="0 0 512 512" style="enable-background:new 0 0 512 512;" xml:space="preserve">
<g>
	<g>
		<path d="M495.304,61.217H16.696C7.475,61.217,0,68.693,0,77.913v83.121h512V77.913C512,68.693,504.525,61.217,495.304,61.217z     M322.284,133.386c-12.275,0-22.261-9.986-22.261-22.261c0-12.275,9.986-22.261,22.261-22.261s22.261,9.986,22.261,22.261    C344.545,123.4,334.559,133.386,322.284,133.386z M382.926,133.386c-12.275,0-22.261-9.986-22.261-22.261    c0-12.275,9.986-22.261,22.261-22.261s22.261,9.986,22.261,22.261C405.187,123.4,395.201,133.386,382.926,133.386z     M443.568,133.386c-12.275,0-22.261-9.986-22.261-22.261c0-12.275,9.986-22.261,22.261-22.261s22.261,9.986,22.261,22.261    C465.829,123.4,455.843,133.386,443.568,133.386z"/>
	</g>
</g>
<g>
	<g>
		<path d="M0,194.425v239.662c0,9.22,7.475,16.696,16.696,16.696h478.609c9.22,0,16.696-7.475,16.696-16.696V194.425H0z     M222.992,390.603c0,9.22-7.475,16.696-16.696,16.696H85.975c-9.22,0-16.696-7.475-16.696-16.696V254.605    c0-9.22,7.475-16.696,16.696-16.696h120.321c9.22,0,16.696,7.475,16.696,16.696V390.603z M426.025,401.963H284.364    c-9.22,0-16.696-7.475-16.696-16.696s7.475-16.696,16.696-16.696h141.66c9.22,0,16.696,7.475,16.696,16.696    S435.246,401.963,426.025,401.963z M426.025,339.299H284.364c-9.22,0-16.696-7.475-16.696-16.696s7.475-16.696,16.696-16.696    h141.66c9.22,0,16.696,7.475,16.696,16.696S435.246,339.299,426.025,339.299z M426.025,276.636H284.364    c-9.22,0-16.696-7.475-16.696-16.696s7.475-16.696,16.696-16.696h141.66c9.22,0,16.696,7.475,16.696,16.696    S435.246,276.636,426.025,276.636z"/>
	</g>
</g>
<g>
</g>
<g>
</g>
<g>
</g>
<g>
</g>
<g>
</g>
<g>
</g>
<g>
</g>
<g>
</g>
<g>
</g>
<g>
</g>
<g>
</g>
<g>
</g>
<g>
</g>
<g>
</g>
<g>
</g>
</svg>
