<?xml version="1.0" encoding="iso-8859-1"?>
<!-- Generator: Adobe Illustrator 19.0.0, SVG Export Plug-In . SVG Version: 6.00 Build 0)  -->
<svg xmlns="http://www.w3.org/2000/svg" xmlns:xlink="http://www.w3.org/1999/xlink" version="1.1" id="Layer_1" x="0px" y="0px" viewBox="0 0 512 512" style="enable-background:new 0 0 512 512;" xml:space="preserve">
<g>
	<g>
		<path d="M256.001,43.944c-60.605,0-109.917,49.301-109.917,109.917v53.399c0,60.605,49.312,109.917,109.917,109.917    c42.018,0,78.62-23.706,97.097-58.452c-13.589,5.317-28.221,8.151-43.182,8.151h-31.945c-9.107,0-16.478-7.382-16.478-16.478    c0-9.107,7.371-16.478,16.478-16.478h31.945c20.663,0,40.447-7.492,55.837-20.663c0.11-1.988,0.165-3.988,0.165-5.998v-53.399    C365.918,93.245,316.606,43.944,256.001,43.944z"/>
	</g>
</g>
<g>
	<g>
		<path d="M410.81,136.525h-1.932C400.236,59.817,334.978,0,256.001,0S111.765,59.817,103.124,136.524h-1.932    c-24.044,0-43.605,19.562-43.605,43.605c0,24.043,19.561,43.605,43.605,43.605h17.428c9.1,0,16.478-7.378,16.478-16.478v-53.399    c0-66.666,54.238-120.903,120.904-120.903c66.666,0,120.904,54.237,120.904,120.904v47.892    c-3.372,4.205-7.114,8.055-11.152,11.506c-0.879,16.357-5.361,31.769-12.655,45.467c18.679-7.296,35.415-19.271,48.403-34.989    h9.309c24.044,0,43.604-19.562,43.604-43.605S434.853,136.525,410.81,136.525z"/>
	</g>
</g>
<g>
	<g>
		<path d="M507.863,490.465l-49.4-153.196c-1.289-3.994-4.051-7.346-7.725-9.371l-75.684-41.745    c-22.742,34.205-59.815,58.09-102.58,63.024V512h219.706C503.378,512,511.28,501.065,507.863,490.465z"/>
	</g>
</g>
<g>
	<g>
		<path d="M136.947,286.153l-75.684,41.744c-3.673,2.027-6.436,5.378-7.725,9.371L4.139,490.465C0.709,501.104,8.661,512,19.821,512    h219.698V349.176C196.757,344.241,159.688,320.356,136.947,286.153z"/>
	</g>
</g>
<g>
</g>
<g>
</g>
<g>
</g>
<g>
</g>
<g>
</g>
<g>
</g>
<g>
</g>
<g>
</g>
<g>
</g>
<g>
</g>
<g>
</g>
<g>
</g>
<g>
</g>
<g>
</g>
<g>
</g>
</svg>
