<?xml version="1.0" encoding="iso-8859-1"?>
<!-- Generator: Adobe Illustrator 19.0.0, SVG Export Plug-In . SVG Version: 6.00 Build 0)  -->
<svg xmlns="http://www.w3.org/2000/svg" xmlns:xlink="http://www.w3.org/1999/xlink" version="1.1" id="Layer_1" x="0px" y="0px" viewBox="0 0 512 512" style="enable-background:new 0 0 512 512;" xml:space="preserve">
<g>
	<g>
		<g>
			<path d="M0,101.209v309.581c0,9.859,8.001,17.86,17.86,17.86H238.14V286.934l-76.395,44.115     c-11.883,6.846-26.791-1.715-26.791-15.467V196.418c0-13.741,14.908-22.326,26.791-15.467l76.395,44.115V83.349H17.86     C8.001,83.349,0,91.35,0,101.209z"/>
			<path d="M494.14,83.349H273.86v141.717l76.395-44.115c11.907-6.87,26.791,1.75,26.791,15.467v119.165     c0,13.824-14.991,22.278-26.791,15.467l-76.395-44.115v141.717H494.14c9.859,0,17.86-8.002,17.86-17.86V101.209     C512,91.35,503.999,83.349,494.14,83.349z"/>
		</g>
	</g>
</g>
<g>
	<g>
		<path d="M256,33.542c-9.859,0-17.86,8.002-17.86,17.86v31.946h35.721V51.402C273.86,41.543,265.859,33.542,256,33.542z"/>
	</g>
</g>
<g>
	<g>
		<path d="M238.14,428.651v31.946c0,9.859,8.002,17.86,17.86,17.86s17.86-8.001,17.86-17.86v-31.946H238.14z"/>
	</g>
</g>
<g>
</g>
<g>
</g>
<g>
</g>
<g>
</g>
<g>
</g>
<g>
</g>
<g>
</g>
<g>
</g>
<g>
</g>
<g>
</g>
<g>
</g>
<g>
</g>
<g>
</g>
<g>
</g>
<g>
</g>
</svg>
