<?xml version="1.0" encoding="iso-8859-1"?>
<!-- Generator: Adobe Illustrator 19.0.0, SVG Export Plug-In . SVG Version: 6.00 Build 0)  -->
<svg xmlns="http://www.w3.org/2000/svg" xmlns:xlink="http://www.w3.org/1999/xlink" version="1.1" id="Layer_1" x="0px" y="0px" viewBox="0 0 512 512" style="enable-background:new 0 0 512 512;" xml:space="preserve">
<g>
	<g>
		<path d="M494.14,83.349H273.86v64.75c0,9.871-8.002,17.86-17.86,17.86s-17.86-7.99-17.86-17.86v-64.75H17.86    C8.001,83.349,0,91.35,0,101.209v309.581c0,9.859,8.001,17.86,17.86,17.86H238.14v-64.75c0-9.871,8.002-17.86,17.86-17.86    s17.86,7.99,17.86,17.86v64.75H494.14c9.859,0,17.86-8.002,17.86-17.86V101.209C512,91.35,503.999,83.349,494.14,83.349z     M163.28,298.901c0,13.818-14.981,22.287-26.791,15.467l-74.311-42.901c-11.881-6.862-11.901-24.06,0-30.934l74.311-42.901    c11.897-6.872,26.791,1.747,26.791,15.467V298.901z M273.86,288.387c0,9.871-8.002,17.86-17.86,17.86s-17.86-7.99-17.86-17.86    v-64.774c0-9.871,8.002-17.86,17.86-17.86s17.86,7.99,17.86,17.86V288.387z M449.822,271.467l-74.311,42.901    c-11.893,6.868-26.791-1.731-26.791-15.467v-85.802c0-13.738,14.909-22.33,26.791-15.467l74.311,42.901    C461.703,247.395,461.724,264.593,449.822,271.467z"/>
	</g>
</g>
<g>
	<g>
		<path d="M256,65.465c-9.859,0-17.86,7.99-17.86,17.86v0.024h35.721v-0.024C273.86,73.454,265.859,65.465,256,65.465z"/>
	</g>
</g>
<g>
	<g>
		<path d="M238.14,428.651v0.024c0,9.871,8.002,17.86,17.86,17.86s17.86-7.99,17.86-17.86v-0.024H238.14z"/>
	</g>
</g>
<g>
</g>
<g>
</g>
<g>
</g>
<g>
</g>
<g>
</g>
<g>
</g>
<g>
</g>
<g>
</g>
<g>
</g>
<g>
</g>
<g>
</g>
<g>
</g>
<g>
</g>
<g>
</g>
<g>
</g>
</svg>
