<?xml version="1.0" encoding="iso-8859-1"?>
<!-- Generator: Adobe Illustrator 19.0.0, SVG Export Plug-In . SVG Version: 6.00 Build 0)  -->
<svg xmlns="http://www.w3.org/2000/svg" xmlns:xlink="http://www.w3.org/1999/xlink" version="1.1" id="Layer_1" x="0px" y="0px" viewBox="0 0 512 512" style="enable-background:new 0 0 512 512;" xml:space="preserve">
<g>
	<g>
		<path d="M493.178,54.036c-22.628,0-454.729,0-474.356,0C8.427,54.036,0,62.464,0,72.858v86.938    c0,10.395,8.427,18.822,18.822,18.822c19.645,0,451.75,0,474.356,0c10.395,0,18.822-8.427,18.822-18.822V72.858    C512,62.464,503.573,54.036,493.178,54.036z M155.008,153.973H85.915c-10.395,0-18.822-8.427-18.822-18.822    s8.427-18.822,18.822-18.822h69.092c10.395,0,18.822,8.427,18.822,18.822S165.402,153.973,155.008,153.973z M290.386,153.973    h-69.092c-10.395,0-18.822-8.427-18.822-18.822s8.427-18.822,18.822-18.822h69.092c10.395,0,18.822,8.427,18.822,18.822    S300.781,153.973,290.386,153.973z M426.085,153.973h-69.092c-10.395,0-18.822-8.427-18.822-18.822s8.427-18.822,18.822-18.822    h69.092c10.395,0,18.822,8.427,18.822,18.822S436.479,153.973,426.085,153.973z"/>
	</g>
</g>
<g>
	<g>
		<path d="M62.841,359.798c-10.395,0-18.822,8.427-18.822,18.822v60.522c0,10.395,8.427,18.822,18.822,18.822h172.582v-98.166    H62.841z"/>
	</g>
</g>
<g>
	<g>
		<path d="M449.159,359.798H276.936v98.166h172.224c10.395,0,18.822-8.427,18.822-18.822V378.62    C467.981,368.225,459.554,359.798,449.159,359.798z"/>
	</g>
</g>
<g>
	<g>
		<path d="M449.159,220.133H276.936v98.151h172.224c10.395,0,18.822-8.427,18.822-18.822v-60.507    C467.981,228.56,459.554,220.133,449.159,220.133z"/>
	</g>
</g>
<g>
	<g>
		<path d="M62.841,220.133c-10.395,0-18.822,8.427-18.822,18.822v60.507c0,10.395,8.427,18.822,18.822,18.822h172.582v-98.151    H62.841z"/>
	</g>
</g>
<g>
</g>
<g>
</g>
<g>
</g>
<g>
</g>
<g>
</g>
<g>
</g>
<g>
</g>
<g>
</g>
<g>
</g>
<g>
</g>
<g>
</g>
<g>
</g>
<g>
</g>
<g>
</g>
<g>
</g>
</svg>
