<?xml version="1.0" encoding="iso-8859-1"?>
<!-- Generator: Adobe Illustrator 19.0.0, SVG Export Plug-In . SVG Version: 6.00 Build 0)  -->
<svg xmlns="http://www.w3.org/2000/svg" xmlns:xlink="http://www.w3.org/1999/xlink" version="1.1" id="Layer_1" x="0px" y="0px" viewBox="0 0 512 512" style="enable-background:new 0 0 512 512;" xml:space="preserve">
<g>
	<g>
		<path d="M342.625,158.257c-19.111-19.111-50.04-19.111-69.152,0c-19.065,19.066-19.065,50.087,0,69.154    c19.113,19.111,50.04,19.111,69.152,0C361.736,208.302,361.738,177.371,342.625,158.257z"/>
	</g>
</g>
<g>
	<g>
		<path d="M493.268,0H18.732C8.387,0,0,8.387,0,18.732v474.537C0,503.613,8.387,512,18.732,512h474.537    c10.345,0,18.732-8.387,18.732-18.732V18.732C512,8.387,503.613,0,493.268,0z M369.116,253.9    c-28.932,28.932-73.768,33.209-107.425,11.782l-60.089,60.089l8.99,8.99c7.314,7.315,7.314,19.175,0,26.49    c-3.658,3.658-8.452,5.487-13.245,5.487c-4.794,0-9.588-1.828-13.246-5.487l-8.99-8.99l-12.299,12.299l8.99,8.99    c7.314,7.315,7.314,19.175,0,26.49c-7.314,7.314-19.174,7.318-26.49,0l-22.234-22.236c-7.314-7.314-7.314-19.175,0-26.49    l112.125-112.125c-21.254-33.391-17.342-78.301,11.781-107.425c33.673-33.673,88.462-33.673,122.134,0    C402.865,165.516,402.873,220.146,369.116,253.9z"/>
	</g>
</g>
<g>
</g>
<g>
</g>
<g>
</g>
<g>
</g>
<g>
</g>
<g>
</g>
<g>
</g>
<g>
</g>
<g>
</g>
<g>
</g>
<g>
</g>
<g>
</g>
<g>
</g>
<g>
</g>
<g>
</g>
</svg>
