<?xml version="1.0" encoding="iso-8859-1"?>
<!-- Generator: Adobe Illustrator 19.0.0, SVG Export Plug-In . SVG Version: 6.00 Build 0)  -->
<svg xmlns="http://www.w3.org/2000/svg" xmlns:xlink="http://www.w3.org/1999/xlink" version="1.1" id="Layer_1" x="0px" y="0px" viewBox="0 0 512 512" style="enable-background:new 0 0 512 512;" xml:space="preserve">
<g>
	<g>
		<path d="M232.507,198.947c-17.648-17.648-46.369-17.651-64.02,0c-17.649,17.649-17.649,46.368,0,64.019    c17.65,17.651,46.369,17.649,64.02,0C250.158,245.316,250.157,216.597,232.507,198.947z"/>
	</g>
</g>
<g>
	<g>
		<path d="M459.238,126.724L337.415,4.901C334.257,1.741,329.902,0,325.599,0H64.557c-9.22,0-16.696,7.475-16.696,16.696v478.609    c0,9.22,7.475,16.696,16.696,16.696h382.887c9.22,0,16.696-7.475,16.696-16.696V138.541    C464.139,134.351,462.452,129.939,459.238,126.724z M385.273,367.294l-48.439,48.437c-7.03,7.032-18.652,6.407-24.871-1.412    l-76.192-95.779c-3.694-4.642-4.532-10.702-2.659-15.981c-28.455,12.978-63.947,8.308-88.237-15.983    c-30.67-30.669-30.67-80.572,0-111.24c30.738-30.741,80.497-30.746,111.241,0c23.824,23.822,29.131,59.246,15.943,88.25    c5.289-1.891,11.367-1.059,16.021,2.645l95.78,76.193C391.652,348.621,392.323,360.247,385.273,367.294z M342.305,121.834v-64.82    l64.82,64.82H342.305z"/>
	</g>
</g>
<g>
</g>
<g>
</g>
<g>
</g>
<g>
</g>
<g>
</g>
<g>
</g>
<g>
</g>
<g>
</g>
<g>
</g>
<g>
</g>
<g>
</g>
<g>
</g>
<g>
</g>
<g>
</g>
<g>
</g>
</svg>
