<?xml version="1.0" encoding="iso-8859-1"?>
<!-- Generator: Adobe Illustrator 19.0.0, SVG Export Plug-In . SVG Version: 6.00 Build 0)  -->
<svg xmlns="http://www.w3.org/2000/svg" xmlns:xlink="http://www.w3.org/1999/xlink" version="1.1" id="Layer_1" x="0px" y="0px" viewBox="0 0 512 512" style="enable-background:new 0 0 512 512;" xml:space="preserve">
<g>
	<g>
		<path d="M489.739,233.739h-12.24c-10.475-105.01-94.228-188.763-199.238-199.238v-12.24C278.261,9.966,268.295,0,256,0    c-12.295,0-22.261,9.966-22.261,22.261v12.24C128.729,44.976,44.976,128.729,34.501,233.739h-12.24C9.966,233.739,0,243.705,0,256    c0,12.295,9.966,22.261,22.261,22.261h12.24c10.475,105.01,94.228,188.763,199.238,199.238v12.24    c0,12.295,9.966,22.261,22.261,22.261c12.295,0,22.261-9.966,22.261-22.261v-12.24c105.01-10.475,188.763-94.227,199.238-199.238    h12.24c12.295,0,22.261-9.966,22.261-22.261C512,243.705,502.034,233.739,489.739,233.739z M233.739,432.698    c-80.435-10.074-144.363-74.002-154.437-154.437h96.257c7.804,28.161,30.019,50.376,58.18,58.18V432.698z M233.739,175.559    c-28.161,7.804-50.376,30.019-58.18,58.18H79.302c10.074-80.435,74.002-144.363,154.437-154.437V175.559z M278.261,432.698    v-96.257c28.161-7.804,50.376-30.019,58.18-58.18h96.257C422.624,358.696,358.696,422.624,278.261,432.698z M336.441,233.739    c-7.804-28.161-30.019-50.376-58.18-58.18V79.302c80.435,10.074,144.363,74.002,154.437,154.437H336.441z"/>
	</g>
</g>
<g>
</g>
<g>
</g>
<g>
</g>
<g>
</g>
<g>
</g>
<g>
</g>
<g>
</g>
<g>
</g>
<g>
</g>
<g>
</g>
<g>
</g>
<g>
</g>
<g>
</g>
<g>
</g>
<g>
</g>
</svg>
