<?xml version="1.0" encoding="iso-8859-1"?>
<!-- Generator: Adobe Illustrator 19.0.0, SVG Export Plug-In . SVG Version: 6.00 Build 0)  -->
<svg xmlns="http://www.w3.org/2000/svg" xmlns:xlink="http://www.w3.org/1999/xlink" version="1.1" id="Layer_1" x="0px" y="0px" viewBox="0 0 512.001 512.001" style="enable-background:new 0 0 512.001 512.001;" xml:space="preserve">
<g>
	<g>
		<path d="M315.027,393.817c-42.688-42.689-4.858-4.864-47.546-47.552l42.236-42.235c7.498-7.497,7.498-19.653,0-27.153    c-7.497-7.498-19.654-7.498-27.153,0l-42.236,42.235l-47.447-47.448l42.235-42.235c7.498-7.497,7.498-19.654,0-27.153    s-19.654-7.498-27.153,0l-42.235,42.235l-23.508-23.508c-0.022-0.022-0.046-0.04-0.068-0.061l-23.969-23.968    c-7.497-7.497-19.654-7.497-27.153,0c-7.498,7.497-7.498,19.654,0,27.153l10.456,10.456l-55.77,55.77    c-2.264,2.264-3.926,5.057-4.835,8.128l-26.116,88.245c-1.998,6.748-0.142,14.049,4.835,19.025l29.748,29.748L5.624,479.224    c-7.498,7.497-7.498,19.654,0,27.153c7.498,7.498,19.654,7.498,27.153,0l43.726-43.726l29.748,29.748    c4.957,4.959,12.248,6.836,19.025,4.835l88.243-26.117c3.069-0.908,5.864-2.57,8.128-4.833l55.771-55.77l10.456,10.456    c7.498,7.498,19.654,7.498,27.153,0C322.525,413.473,322.525,401.316,315.027,393.817z M180.262,412.727    c-7.5,7.5-19.654,7.498-27.153,0L99.272,358.89c-7.498-7.497-7.498-19.654,0-27.153c7.497-7.497,19.654-7.497,27.153,0    l53.837,53.837C187.76,393.072,187.76,405.23,180.262,412.727z"/>
	</g>
</g>
<g>
	<g>
		<path d="M506.376,5.624c-7.497-7.5-19.654-7.497-27.153,0l-43.726,43.725L405.749,19.6c-4.975-4.978-12.274-6.828-19.025-4.835    L298.48,40.882c-3.069,0.909-5.864,2.572-8.128,4.835l-55.77,55.77l-10.456-10.456c-7.498-7.498-19.654-7.498-27.153,0    c-7.498,7.497-7.498,19.654,0,27.153c9.272,9.272,179.853,179.854,196.842,196.843c7.496,7.498,19.653,7.5,27.153,0    c7.498-7.497,7.498-19.654,0-27.153l-10.456-10.456l55.77-55.77c2.264-2.264,3.926-5.057,4.835-8.128l26.116-88.245    c1.997-6.748,0.141-14.049-4.835-19.025l-29.748-29.748l43.726-43.725C513.876,25.278,513.876,13.121,506.376,5.624z     M412.728,180.261c-7.498,7.5-19.654,7.498-27.153,0l-53.837-53.837c-7.498-7.497-7.498-19.654,0-27.153    c7.497-7.497,19.654-7.497,27.153,0l53.837,53.837C420.226,160.605,420.226,172.763,412.728,180.261z"/>
	</g>
</g>
<g>
</g>
<g>
</g>
<g>
</g>
<g>
</g>
<g>
</g>
<g>
</g>
<g>
</g>
<g>
</g>
<g>
</g>
<g>
</g>
<g>
</g>
<g>
</g>
<g>
</g>
<g>
</g>
<g>
</g>
</svg>
