<?xml version="1.0" encoding="iso-8859-1"?>
<!-- Generator: Adobe Illustrator 19.0.0, SVG Export Plug-In . SVG Version: 6.00 Build 0)  -->
<svg xmlns="http://www.w3.org/2000/svg" xmlns:xlink="http://www.w3.org/1999/xlink" version="1.1" id="Layer_1" x="0px" y="0px" viewBox="0 0 512 512" style="enable-background:new 0 0 512 512;" xml:space="preserve">
<g>
	<g>
		<path d="M459.238,126.724L337.415,4.901C334.27,1.753,329.891,0,325.599,0H64.557c-9.22,0-16.696,7.475-16.696,16.696v478.609    c0,9.22,7.475,16.696,16.696,16.696h382.887c9.22,0,16.696-7.475,16.696-16.696V138.541    C464.139,134.31,462.438,129.924,459.238,126.724z M355.062,422.312H156.938c-9.22,0-16.696-7.475-16.696-16.696    s7.475-16.696,16.696-16.696h198.124c9.22,0,16.696,7.475,16.696,16.696S364.282,422.312,355.062,422.312z M355.062,333.614    H156.938c-9.22,0-16.696-7.475-16.696-16.696s7.475-16.696,16.696-16.696h198.124c9.22,0,16.696,7.475,16.696,16.696    S364.282,333.614,355.062,333.614z M355.062,244.916H156.938c-9.22,0-16.696-7.475-16.696-16.696    c0-9.22,7.475-16.696,16.696-16.696h198.124c9.22,0,16.696,7.475,16.696,16.696C371.758,237.441,364.282,244.916,355.062,244.916z     M342.305,121.834v-64.82l64.82,64.82H342.305z"/>
	</g>
</g>
<g>
</g>
<g>
</g>
<g>
</g>
<g>
</g>
<g>
</g>
<g>
</g>
<g>
</g>
<g>
</g>
<g>
</g>
<g>
</g>
<g>
</g>
<g>
</g>
<g>
</g>
<g>
</g>
<g>
</g>
</svg>
