<?xml version="1.0" encoding="iso-8859-1"?>
<!-- Generator: Adobe Illustrator 19.0.0, SVG Export Plug-In . SVG Version: 6.00 Build 0)  -->
<svg xmlns="http://www.w3.org/2000/svg" xmlns:xlink="http://www.w3.org/1999/xlink" version="1.1" id="Layer_1" x="0px" y="0px" viewBox="0 0 512 512" style="enable-background:new 0 0 512 512;" xml:space="preserve">
<g>
	<g>
		<path d="M422.957,0H89.044c-9.22,0-16.696,7.475-16.696,16.696v478.609c0,9.22,7.475,16.696,16.696,16.696h333.913    c9.22,0,16.696-7.475,16.696-16.696V16.696C439.652,7.475,432.177,0,422.957,0z M272.696,313.736v13.192h16.108    c9.22,0,16.696,7.475,16.696,16.696s-7.475,16.696-16.696,16.696h-65.607c-9.22,0-16.696-7.475-16.696-16.696    s7.475-16.696,16.696-16.696h16.108v-13.154c-34.952,13.931-72.319-11.989-73.007-48.453    c-0.451-23.965,15.307-44.782,37.156-51.769c-5.493-33.489,21.531-64.066,56.15-61.747c30.847,2.048,54.033,30.401,48.957,61.732    c20.988,6.718,36.515,26.319,37.215,49.105C346.952,301.079,308.292,327.999,272.696,313.736z"/>
	</g>
</g>
<g>
</g>
<g>
</g>
<g>
</g>
<g>
</g>
<g>
</g>
<g>
</g>
<g>
</g>
<g>
</g>
<g>
</g>
<g>
</g>
<g>
</g>
<g>
</g>
<g>
</g>
<g>
</g>
<g>
</g>
</svg>
