<?xml version="1.0" encoding="iso-8859-1"?>
<!-- Generator: Adobe Illustrator 19.0.0, SVG Export Plug-In . SVG Version: 6.00 Build 0)  -->
<svg xmlns="http://www.w3.org/2000/svg" xmlns:xlink="http://www.w3.org/1999/xlink" version="1.1" id="Layer_1" x="0px" y="0px" viewBox="0 0 512.001 512.001" style="enable-background:new 0 0 512.001 512.001;" xml:space="preserve">
<g>
	<g>
		<path d="M484.349,272.27c34.215-73.071,45.227-164.778-18.302-213.283c3.037-29.94-20.446-57.936-52.486-57.936    c-26.069,0-42.753,15.063-49.376,33.681c-29.171,2.888-60.035,12.021-90.892,26.497C156.068,6.35,56.542,36.116,37.841,129.883    C15.996,136.322,0,156.549,0,180.451c0,27.5,20.917,49.497,46.764,52.412c4.174,13.102,9.371,26.277,15.519,39.409    c-83.521,178.378,32.49,294.63,211.032,211.03C451.643,566.801,567.974,450.866,484.349,272.27z M363.077,69.213    c6.106,21.493,24.848,37.282,50.485,37.282c14.235,0,27.654-5.865,37.388-15.622c37.083,34.517,30.143,94.913,12.56,142.871    c-36.834-59.911-91.723-114.809-151.652-151.658C329.54,75.577,346.78,71.249,363.077,69.213z M234.791,82.078    c-60.842,37.439-115.344,92.588-151.667,151.666c-1.016-2.773-1.987-5.544-2.903-8.309c15.166-9.301,25.223-26.02,25.223-44.983    c0-22.08-13.672-41.036-33.02-48.871C90.037,61.461,165.551,56.693,234.791,82.078z M83.124,310.798    c36.764,59.794,91.614,114.742,151.667,151.665C107.716,509.05,36.396,438.254,83.124,310.798z M100.354,272.27    c36.285-68.736,101.269-134.993,173.041-172.92c70.011,36.98,135.87,102.801,172.884,172.92    c-36.988,70.068-102.843,135.947-172.962,172.962C203.245,408.242,137.369,342.388,100.354,272.27z M311.842,462.461    c59.798-36.765,114.744-91.613,151.667-151.666C510.163,438.042,439.122,509.126,311.842,462.461z"/>
	</g>
</g>
<g>
	<g>
		<path d="M273.317,198.151c-40.869,0-74.119,33.249-74.119,74.119s33.25,74.119,74.119,74.119s74.118-33.249,74.118-74.119    S314.185,198.151,273.317,198.151z"/>
	</g>
</g>
<g>
</g>
<g>
</g>
<g>
</g>
<g>
</g>
<g>
</g>
<g>
</g>
<g>
</g>
<g>
</g>
<g>
</g>
<g>
</g>
<g>
</g>
<g>
</g>
<g>
</g>
<g>
</g>
<g>
</g>
</svg>
