<?xml version="1.0" encoding="iso-8859-1"?>
<!-- Generator: Adobe Illustrator 19.0.0, SVG Export Plug-In . SVG Version: 6.00 Build 0)  -->
<svg xmlns="http://www.w3.org/2000/svg" xmlns:xlink="http://www.w3.org/1999/xlink" version="1.1" id="Layer_1" x="0px" y="0px" viewBox="0 0 512 512" style="enable-background:new 0 0 512 512;" xml:space="preserve">
<g>
	<g>
		<path d="M209.607,184.184c-16.816,0-26.725,9.308-26.725,30.028v79.576c0,20.72,9.91,30.029,26.725,30.029    s27.026-9.31,27.026-30.029v-79.576C236.633,193.492,226.423,184.184,209.607,184.184z"/>
	</g>
</g>
<g>
	<g>
		<path d="M493.268,0H18.732C8.387,0,0,8.387,0,18.732v474.537C0,503.613,8.387,512,18.732,512h474.537    c10.345,0,18.732-8.387,18.732-18.732V18.732C512,8.387,503.613,0,493.268,0z M283.477,293.788    c0,51.648-32.431,70.867-73.87,70.867c-41.44,0-73.571-19.219-73.571-70.867v-79.576c0-51.648,32.13-70.867,73.571-70.867    c41.441,0,73.87,19.219,73.87,70.867V293.788z M348.937,362.853c-11.711,0-23.422-4.805-23.422-14.413V195.594L316.807,201    c-17.721,11.812-32.129-20.964-13.513-32.13l39.638-24.023c8.945-5.591,29.427,0.341,29.427,12.613v190.98h0    C372.359,358.048,360.648,362.853,348.937,362.853z"/>
	</g>
</g>
<g>
</g>
<g>
</g>
<g>
</g>
<g>
</g>
<g>
</g>
<g>
</g>
<g>
</g>
<g>
</g>
<g>
</g>
<g>
</g>
<g>
</g>
<g>
</g>
<g>
</g>
<g>
</g>
<g>
</g>
</svg>
