<?xml version="1.0" encoding="iso-8859-1"?>
<!-- Generator: Adobe Illustrator 19.0.0, SVG Export Plug-In . SVG Version: 6.00 Build 0)  -->
<svg xmlns="http://www.w3.org/2000/svg" xmlns:xlink="http://www.w3.org/1999/xlink" version="1.1" id="Layer_1" x="0px" y="0px" viewBox="0 0 511.999 511.999" style="enable-background:new 0 0 511.999 511.999;" xml:space="preserve">
<g>
	<g>
		<path d="M272,160.018v67.893c0,21.141-32,21.167-32,0v-67.893c-87.031-55.175-173.822,42.285-121.803,145.515    c2.709,5.397,8.245,8.8,14.283,8.8h247.04c6.037,0,11.573-3.403,14.283-8.8C445.958,202.033,358.853,104.956,272,160.018z"/>
	</g>
</g>
<g>
	<g>
		<path d="M256,77.298c-8.832,0-16,7.168-16,16v66.72c5.781,3.659,11.168,7.883,16,12.576c4.832-4.693,10.219-8.917,16-12.576    v-66.72C272,84.466,264.832,77.298,256,77.298z"/>
	</g>
</g>
<g>
	<g>
		<path d="M472.578,346.338H39.422C17.685,346.338,0,364.022,0,385.76v9.519c0,21.738,17.685,39.422,39.422,39.422h433.155    c21.738,0,39.422-17.685,39.422-39.422v-9.519C512,364.022,494.315,346.338,472.578,346.338z"/>
	</g>
</g>
<g>
	<g>
		<path d="M419.255,165.714c25.691,39.894,30.708,94.862,5.824,148.624h33.086c6.044,0,11.572-3.406,14.29-8.803    C506.558,237.819,471.675,172.221,419.255,165.714z"/>
	</g>
</g>
<g>
	<g>
		<path d="M92.745,165.713c-52.551,6.523-87.224,72.262-53.201,139.822c2.719,5.397,8.247,8.803,14.291,8.803h33.086    C61.936,260.361,67.17,205.445,92.745,165.713z"/>
	</g>
</g>
<g>
</g>
<g>
</g>
<g>
</g>
<g>
</g>
<g>
</g>
<g>
</g>
<g>
</g>
<g>
</g>
<g>
</g>
<g>
</g>
<g>
</g>
<g>
</g>
<g>
</g>
<g>
</g>
<g>
</g>
</svg>
