<?xml version="1.0" encoding="iso-8859-1"?>
<!-- Generator: Adobe Illustrator 19.0.0, SVG Export Plug-In . SVG Version: 6.00 Build 0)  -->
<svg xmlns="http://www.w3.org/2000/svg" xmlns:xlink="http://www.w3.org/1999/xlink" version="1.1" id="Layer_1" x="0px" y="0px" viewBox="0 0 512 512" style="enable-background:new 0 0 512 512;" xml:space="preserve">
<g>
	<g>
		<path d="M433.933,389.424H171.907c-9.404,0-17.029,7.624-17.029,17.029v88.518c0,9.404,7.624,17.029,17.029,17.029h262.026    c9.404,0,17.029-7.624,17.029-17.029v-88.518C450.962,397.049,443.337,389.424,433.933,389.424z"/>
	</g>
</g>
<g>
	<g>
		<path d="M393.492,152.88c-0.055-0.007-0.109-0.015-0.164-0.022L263.504,136.65V51.955C263.504,23.307,240.198,0,211.55,0    c-28.648,0-51.955,23.307-51.955,51.955v176.478l-24.59-15.758c-23.205-14.866-54.218-7.14-67.729,16.883    c-11.121,19.771-7.085,44.148,9.812,59.281l74.28,66.529h276.767c4.378-11.022,7.711-17.557,7.711-28.764l0.002-125.28    C435.848,176.959,417.64,156.133,393.492,152.88z"/>
	</g>
</g>
<g>
</g>
<g>
</g>
<g>
</g>
<g>
</g>
<g>
</g>
<g>
</g>
<g>
</g>
<g>
</g>
<g>
</g>
<g>
</g>
<g>
</g>
<g>
</g>
<g>
</g>
<g>
</g>
<g>
</g>
</svg>
