<?xml version="1.0" encoding="iso-8859-1"?>
<!-- Generator: Adobe Illustrator 19.0.0, SVG Export Plug-In . SVG Version: 6.00 Build 0)  -->
<svg xmlns="http://www.w3.org/2000/svg" xmlns:xlink="http://www.w3.org/1999/xlink" version="1.1" id="Layer_1" x="0px" y="0px" viewBox="0 0 512 512" style="enable-background:new 0 0 512 512;" xml:space="preserve">
<g>
	<g>
		<path d="M356.174,55.652h-27.826V16.696c0-9.22-7.475-16.696-16.696-16.696H200.348c-9.22,0-16.696,7.475-16.696,16.696v38.956    h-27.826c-9.22,0-16.696,7.475-16.696,16.696v422.956c0,9.22,7.475,16.696,16.696,16.696h200.348    c9.22,0,16.696-7.475,16.696-16.696V72.348C372.87,63.127,365.394,55.652,356.174,55.652z M256,464.696    c-30.687,0-55.652-24.966-55.652-55.652c0-30.687,24.966-55.652,55.652-55.652c30.687,0,55.652,24.966,55.652,55.652    C311.652,439.73,286.687,464.696,256,464.696z M256,339.478c-30.687,0-55.652-24.966-55.652-55.652    c0-30.687,24.966-55.652,55.652-55.652c30.687,0,55.652,24.966,55.652,55.652C311.652,314.513,286.687,339.478,256,339.478z     M256,214.261c-30.687,0-55.652-24.966-55.652-55.652s24.966-55.652,55.652-55.652c30.687,0,55.652,24.966,55.652,55.652    C311.652,189.295,286.687,214.261,256,214.261z"/>
	</g>
</g>
<g>
</g>
<g>
</g>
<g>
</g>
<g>
</g>
<g>
</g>
<g>
</g>
<g>
</g>
<g>
</g>
<g>
</g>
<g>
</g>
<g>
</g>
<g>
</g>
<g>
</g>
<g>
</g>
<g>
</g>
</svg>
