<?xml version="1.0" encoding="iso-8859-1"?>
<!-- Generator: Adobe Illustrator 19.0.0, SVG Export Plug-In . SVG Version: 6.00 Build 0)  -->
<svg xmlns="http://www.w3.org/2000/svg" xmlns:xlink="http://www.w3.org/1999/xlink" version="1.1" id="Layer_1" x="0px" y="0px" viewBox="0 0 512 512" style="enable-background:new 0 0 512 512;" xml:space="preserve">
<g>
	<g>
		<path d="M212.391,359.626c-32.102,0-58.22,26.117-58.22,58.22c0,32.102,26.117,58.219,58.22,58.219    c32.102,0,58.22-26.116,58.22-58.219C270.61,385.743,244.493,359.626,212.391,359.626z"/>
	</g>
</g>
<g>
	<g>
		<path d="M370.042,359.626c-32.102,0-58.22,26.117-58.22,58.22c0,32.102,26.117,58.219,58.22,58.219    c32.102,0,58.218-26.116,58.218-58.219C428.261,385.743,402.144,359.626,370.042,359.626z"/>
	</g>
</g>
<g>
	<g>
		<path d="M495.301,88.625H99.35l-6.402-38.717c-1.332-8.06-8.302-13.972-16.472-13.972h-59.78C7.475,35.936,0,43.411,0,52.632    s7.475,16.696,16.696,16.696h45.618c10.75,64.995,41.389,250.293,42.014,254.066c1.332,8.06,8.302,13.972,16.472,13.972h338.892    c8.17,0,15.14-5.912,16.472-13.972l35.61-215.349C513.454,97.877,505.601,88.625,495.301,88.625z M229.086,250.368    c0,9.22-7.475,16.696-16.696,16.696s-16.696-7.475-16.696-16.696v-74.747c0-9.22,7.475-16.696,16.696-16.696    s16.696,7.475,16.696,16.696V250.368z M306.941,250.368c0,9.22-7.475,16.696-16.696,16.696s-16.696-7.475-16.696-16.696v-74.747    c0-9.22,7.475-16.696,16.696-16.696s16.696,7.475,16.696,16.696V250.368z M384.794,250.368c0,9.22-7.475,16.696-16.695,16.696    c-9.22,0-16.696-7.475-16.696-16.696v-74.747c0-9.22,7.475-16.696,16.696-16.696c9.22,0,16.695,7.475,16.695,16.696V250.368z"/>
	</g>
</g>
<g>
</g>
<g>
</g>
<g>
</g>
<g>
</g>
<g>
</g>
<g>
</g>
<g>
</g>
<g>
</g>
<g>
</g>
<g>
</g>
<g>
</g>
<g>
</g>
<g>
</g>
<g>
</g>
<g>
</g>
</svg>
