<?xml version="1.0" encoding="iso-8859-1"?>
<!-- Generator: Adobe Illustrator 19.0.0, SVG Export Plug-In . SVG Version: 6.00 Build 0)  -->
<svg xmlns="http://www.w3.org/2000/svg" xmlns:xlink="http://www.w3.org/1999/xlink" version="1.1" id="Layer_1" x="0px" y="0px" viewBox="0 0 511.999 511.999" style="enable-background:new 0 0 511.999 511.999;" xml:space="preserve">
<g>
	<g>
		<path d="M504.519,379.464L311.854,226.197c-7.834-6.236-19.104-5.596-26.181,1.486l-15.095,15.095l-11.229-11.228    c42.9-56.524,38.583-137.689-12.969-189.242c-56.406-56.407-147.708-56.416-204.122,0c-56.276,56.276-56.276,147.843,0,204.119    c51.554,51.553,132.718,55.872,189.243,12.97l11.229,11.228l-15.095,15.095c-7.081,7.081-7.72,18.347-1.486,26.181    l153.268,192.666c7.332,9.218,21.037,9.961,29.333,1.666l97.435-97.435C514.5,400.485,513.707,386.773,504.519,379.464z     M186.527,164.057h-84.416c-10.875,0-19.691-8.816-19.691-19.691c0-10.875,8.816-19.691,19.691-19.691h84.416    c10.875,0,19.691,8.816,19.691,19.691C206.218,155.241,197.401,164.057,186.527,164.057z"/>
	</g>
</g>
<g>
</g>
<g>
</g>
<g>
</g>
<g>
</g>
<g>
</g>
<g>
</g>
<g>
</g>
<g>
</g>
<g>
</g>
<g>
</g>
<g>
</g>
<g>
</g>
<g>
</g>
<g>
</g>
<g>
</g>
</svg>
