<?xml version="1.0" encoding="iso-8859-1"?>
<!-- Generator: Adobe Illustrator 19.0.0, SVG Export Plug-In . SVG Version: 6.00 Build 0)  -->
<svg xmlns="http://www.w3.org/2000/svg" xmlns:xlink="http://www.w3.org/1999/xlink" version="1.1" id="Layer_1" x="0px" y="0px" viewBox="0 0 512 512" style="enable-background:new 0 0 512 512;" xml:space="preserve">
<g>
	<g>
		<path d="M504.569,379.439L311.866,226.142c-7.837-6.235-19.105-5.595-26.188,1.486l-15.098,15.098l-11.23-11.23    c42.909-56.535,38.592-137.717-12.972-189.28c-56.287-56.288-147.874-56.288-204.16,0c-56.288,56.287-56.288,147.874,0,204.16    c51.561,51.563,132.744,55.884,189.28,12.972l11.23,11.23l-15.098,15.098c-7.082,7.082-7.722,18.35-1.486,26.188L379.44,504.568    c7.337,9.221,21.043,9.962,29.339,1.665l97.454-97.454C514.55,400.462,513.762,386.753,504.569,379.439z M186.514,163.991h-22.521    v22.521c0,10.877-8.818,19.695-19.695,19.695s-19.695-8.818-19.695-19.695v-22.521h-22.522c-10.877,0-19.695-8.818-19.695-19.695    c0-10.877,8.818-19.695,19.695-19.695h22.521v-22.522c0-10.877,8.818-19.695,19.695-19.695c10.877,0,19.695,8.818,19.695,19.695    V124.6h22.521c10.877,0,19.695,8.818,19.695,19.695S197.391,163.991,186.514,163.991z"/>
	</g>
</g>
<g>
</g>
<g>
</g>
<g>
</g>
<g>
</g>
<g>
</g>
<g>
</g>
<g>
</g>
<g>
</g>
<g>
</g>
<g>
</g>
<g>
</g>
<g>
</g>
<g>
</g>
<g>
</g>
<g>
</g>
</svg>
