<?xml version="1.0" encoding="iso-8859-1"?>
<!-- Generator: Adobe Illustrator 19.0.0, SVG Export Plug-In . SVG Version: 6.00 Build 0)  -->
<svg xmlns="http://www.w3.org/2000/svg" xmlns:xlink="http://www.w3.org/1999/xlink" version="1.1" id="Layer_1" x="0px" y="0px" viewBox="0 0 512.001 512.001" style="enable-background:new 0 0 512.001 512.001;" xml:space="preserve">
<g>
	<g>
		<path d="M457.028,239.808c-58.373,76.469-138.845,157.397-217.242,217.241C363.969,467.056,467.033,363.966,457.028,239.808z"/>
	</g>
</g>
<g>
	<g>
		<path d="M498.975,13.294c-33.042-33.042-102.488,2.952-142.725,27.507c12.418,5.771,24.346,12.634,35.66,20.547    c15.593-8.646,69.142-35.424,81.793-22.781c16.935,16.935-29.565,94.651-43.478,115.778    C364.696,41.502,207.518,19.551,113.521,113.543c-56.934,56.933-71.376,137.183-48.666,206.184    C30,369.125-25.638,460.089,13.272,498.996C111.331,597.057,597.148,111.467,498.975,13.294z M38.546,473.724    c-16.553-16.551,27.542-91.575,43.465-115.72c16.756,28.872,41.006,54.035,72.255,72.219    C91.397,471.475,48.442,483.621,38.546,473.724z"/>
	</g>
</g>
<g>
</g>
<g>
</g>
<g>
</g>
<g>
</g>
<g>
</g>
<g>
</g>
<g>
</g>
<g>
</g>
<g>
</g>
<g>
</g>
<g>
</g>
<g>
</g>
<g>
</g>
<g>
</g>
<g>
</g>
</svg>
