<?xml version="1.0" encoding="iso-8859-1"?>
<!-- Generator: Adobe Illustrator 19.0.0, SVG Export Plug-In . SVG Version: 6.00 Build 0)  -->
<svg xmlns="http://www.w3.org/2000/svg" xmlns:xlink="http://www.w3.org/1999/xlink" version="1.1" id="Layer_1" x="0px" y="0px" viewBox="0 0 512 512" style="enable-background:new 0 0 512 512;" xml:space="preserve">
<g>
	<g>
		<path d="M221.818,294.564c-7.703,0-15.003-1.755-21.525-4.882l-17.011,16.857l13.647,13.647c9.062,9.061,4.89,24.554-7.467,27.868    l-69.462,18.612c-12.455,3.336-23.691-8.128-20.4-20.401l18.612-69.462c3.316-12.377,18.821-16.515,27.867-7.467l13.646,13.647    l17.008-16.853c-3.129-6.525-4.886-13.829-4.886-21.537V91.18H16.657C7.458,91.18,0,98.638,0,107.837v341.906    c0,9.199,7.458,16.657,16.657,16.657h341.918c9.199,0,16.657-7.458,16.657-16.657V294.564H221.818z"/>
	</g>
</g>
<g>
	<g>
		<path d="M495.343,45.601H221.818c-9.199,0-16.657,7.458-16.657,16.657v182.337c0,9.199,7.458,16.657,16.657,16.657h273.526    c9.199,0,16.657-7.458,16.657-16.657V62.257C512,53.058,504.542,45.601,495.343,45.601z"/>
	</g>
</g>
<g>
</g>
<g>
</g>
<g>
</g>
<g>
</g>
<g>
</g>
<g>
</g>
<g>
</g>
<g>
</g>
<g>
</g>
<g>
</g>
<g>
</g>
<g>
</g>
<g>
</g>
<g>
</g>
<g>
</g>
</svg>
