<?xml version="1.0" encoding="iso-8859-1"?>
<!-- Generator: Adobe Illustrator 19.0.0, SVG Export Plug-In . SVG Version: 6.00 Build 0)  -->
<svg xmlns="http://www.w3.org/2000/svg" xmlns:xlink="http://www.w3.org/1999/xlink" version="1.1" id="Layer_1" x="0px" y="0px" viewBox="0 0 512 512" style="enable-background:new 0 0 512 512;" xml:space="preserve">
<g>
	<g>
		<path d="M422.957,0H89.044c-9.22,0-16.696,7.475-16.696,16.696v478.609c0,9.22,7.475,16.696,16.696,16.696h333.913    c9.22,0,16.696-7.475,16.696-16.696V16.696C439.652,7.475,432.177,0,422.957,0z M292.507,317.555    c-7.278,0-13.896-1.328-19.811-3.456v12.829h16.109c9.22,0,16.696,7.475,16.696,16.696s-7.475,16.696-16.696,16.696h-65.608    c-9.22,0-16.696-7.475-16.696-16.696s7.475-16.696,16.696-16.696h16.108v-12.829c-5.915,2.128-12.533,3.456-19.811,3.456    c-29.833,0-53.202-26.731-53.202-60.856c0-38.134,29.056-74.725,81.815-103.033c4.931-2.645,10.857-2.645,15.787,0    c52.759,28.308,81.816,64.899,81.816,103.033C345.71,290.824,322.341,317.555,292.507,317.555z"/>
	</g>
</g>
<g>
</g>
<g>
</g>
<g>
</g>
<g>
</g>
<g>
</g>
<g>
</g>
<g>
</g>
<g>
</g>
<g>
</g>
<g>
</g>
<g>
</g>
<g>
</g>
<g>
</g>
<g>
</g>
<g>
</g>
</svg>
