<?xml version="1.0" encoding="iso-8859-1"?>
<!-- Generator: Adobe Illustrator 19.0.0, SVG Export Plug-In . SVG Version: 6.00 Build 0)  -->
<svg xmlns="http://www.w3.org/2000/svg" xmlns:xlink="http://www.w3.org/1999/xlink" version="1.1" id="Layer_1" x="0px" y="0px" viewBox="0 0 512 512" style="enable-background:new 0 0 512 512;" xml:space="preserve">
<g>
	<g>
		<path d="M161.74,180.956l76.4,44.109V83.349H17.86C7.997,83.349,0,91.346,0,101.209v309.581c0,9.864,7.997,17.86,17.86,17.86    H238.14V286.934l-76.4,44.109c-11.875,6.857-26.791-1.71-26.791-15.467V196.423C134.949,182.682,149.859,174.095,161.74,180.956z"/>
	</g>
</g>
<g>
	<g>
		<path d="M494.14,83.349H273.86v141.717l76.4-44.109c11.899-6.87,26.791,1.744,26.791,15.467v119.153    c0,13.83-14.992,22.28-26.791,15.467l-76.4-44.109v141.717H494.14c9.864,0,17.86-7.997,17.86-17.86V101.209    C512,91.346,504.003,83.349,494.14,83.349z"/>
	</g>
</g>
<g>
</g>
<g>
</g>
<g>
</g>
<g>
</g>
<g>
</g>
<g>
</g>
<g>
</g>
<g>
</g>
<g>
</g>
<g>
</g>
<g>
</g>
<g>
</g>
<g>
</g>
<g>
</g>
<g>
</g>
</svg>
