<?xml version="1.0" encoding="iso-8859-1"?>
<!-- Generator: Adobe Illustrator 19.0.0, SVG Export Plug-In . SVG Version: 6.00 Build 0)  -->
<svg xmlns="http://www.w3.org/2000/svg" xmlns:xlink="http://www.w3.org/1999/xlink" version="1.1" id="Layer_1" x="0px" y="0px" viewBox="0 0 511.999 511.999" style="enable-background:new 0 0 511.999 511.999;" xml:space="preserve">
<g>
	<g>
		<path d="M506.77,184.699l-54.578-54.577c-7.113-7.112-18.754-6.964-25.669,0.424c-12.427,13.323-33.199,13.407-45.837,0.77    c-12.531-12.532-12.594-33.354,0.762-45.83c7.372-6.891,7.575-18.533,0.432-25.677L327.302,5.232    c-6.974-6.975-18.283-6.975-25.258,0L5.231,302.044c-6.975,6.975-6.975,18.283,0,25.258L59.78,381.85    c6.97,6.972,18.286,6.974,25.258,0c12.468-12.467,32.645-12.469,45.114,0c12.468,12.468,12.467,32.645,0,45.112    c-6.97,6.969-6.975,18.284,0,25.258l54.548,54.548c6.97,6.972,18.286,6.974,25.258,0l296.812-296.812    C513.739,202.989,513.745,191.674,506.77,184.699z M399.244,245.696L245.696,399.244c-6.974,6.975-18.283,6.976-25.258,0    L112.756,291.563c-6.975-6.975-6.975-18.283,0-25.258l153.549-153.547c6.974-6.975,18.283-6.975,25.258,0l107.681,107.681    C406.219,227.413,406.219,238.721,399.244,245.696z"/>
	</g>
</g>
<g>
</g>
<g>
</g>
<g>
</g>
<g>
</g>
<g>
</g>
<g>
</g>
<g>
</g>
<g>
</g>
<g>
</g>
<g>
</g>
<g>
</g>
<g>
</g>
<g>
</g>
<g>
</g>
<g>
</g>
</svg>
