<?xml version="1.0" encoding="iso-8859-1"?>
<!-- Generator: Adobe Illustrator 19.0.0, SVG Export Plug-In . SVG Version: 6.00 Build 0)  -->
<svg xmlns="http://www.w3.org/2000/svg" xmlns:xlink="http://www.w3.org/1999/xlink" version="1.1" id="Layer_1" x="0px" y="0px" viewBox="0 0 512 512" style="enable-background:new 0 0 512 512;" xml:space="preserve">
<g>
	<g>
		<path d="M449.159,54.037c-12.303,0-373.158,0-386.319,0c-10.395,0-18.822,8.427-18.822,18.822v60.522    c0,10.395,8.427,18.822,18.822,18.822c8.516,0,235.047,0,253.77,0h132.549c10.395,0,18.822-8.427,18.822-18.822V72.859    C467.981,62.463,459.554,54.037,449.159,54.037z"/>
	</g>
</g>
<g>
	<g>
		<path d="M62.841,193.716c-10.395,0-18.822,8.427-18.822,18.822v60.507c0,10.396,8.426,18.822,18.822,18.822h172.222v-98.151    H62.841z"/>
	</g>
</g>
<g>
	<g>
		<path d="M449.159,193.716H276.577v98.151h172.582c10.395,0,18.822-8.427,18.822-18.822v-60.507    C467.981,202.143,459.554,193.716,449.159,193.716z"/>
	</g>
</g>
<g>
	<g>
		<path d="M18.822,333.381C8.427,333.381,0,341.808,0,352.203v86.938c0,10.395,8.427,18.822,18.822,18.822h216.241V333.381H18.822z"/>
	</g>
</g>
<g>
	<g>
		<path d="M493.178,333.381H276.577v124.582h216.601c10.395,0,18.822-8.427,18.822-18.822v-86.938    C512,341.808,503.573,333.381,493.178,333.381z"/>
	</g>
</g>
<g>
</g>
<g>
</g>
<g>
</g>
<g>
</g>
<g>
</g>
<g>
</g>
<g>
</g>
<g>
</g>
<g>
</g>
<g>
</g>
<g>
</g>
<g>
</g>
<g>
</g>
<g>
</g>
<g>
</g>
</svg>
