<?xml version="1.0" encoding="iso-8859-1"?>
<!-- Generator: Adobe Illustrator 19.0.0, SVG Export Plug-In . SVG Version: 6.00 Build 0)  -->
<svg xmlns="http://www.w3.org/2000/svg" xmlns:xlink="http://www.w3.org/1999/xlink" version="1.1" id="Layer_1" x="0px" y="0px" viewBox="0 0 512 512" style="enable-background:new 0 0 512 512;" xml:space="preserve">
<g>
	<g>
		<path d="M54.093,259.946L8.16,286.466c-10.871,6.276-10.888,22.017,0,28.303l45.934,26.521    c10.797,6.235,24.512-1.501,24.512-14.151v-53.04C78.605,261.547,64.982,253.659,54.093,259.946z"/>
	</g>
</g>
<g>
	<g>
		<path d="M503.84,286.465l-45.934-26.519c-10.869-6.276-24.512,1.579-24.512,14.151v53.04c0,12.657,13.708,20.39,24.512,14.151    l45.934-26.521C514.711,308.491,514.728,292.75,503.84,286.465z"/>
	</g>
</g>
<g>
	<g>
		<path d="M113.232,342.59c-6.735,0-12.195,5.46-12.195,12.195v39.211c0,6.735,5.46,12.195,12.195,12.195h129.437v-63.6v-0.001    H113.232z"/>
	</g>
</g>
<g>
	<g>
		<path d="M398.768,342.592H269.564v63.6h129.204c6.735,0,12.195-5.46,12.195-12.195v-39.211    C410.963,348.051,405.503,342.591,398.768,342.592z"/>
	</g>
</g>
<g>
	<g>
		<path d="M398.768,252.106H269.564v63.59h129.204c6.735,0,12.195-5.46,12.195-12.195v-39.201    C410.963,257.565,405.503,252.106,398.768,252.106z"/>
	</g>
</g>
<g>
	<g>
		<path d="M113.232,252.105c-6.735,0-12.195,5.46-12.195,12.195v39.201c0,6.735,5.46,12.195,12.195,12.195h129.437v-63.59v-0.001    H113.232z"/>
	</g>
</g>
<g>
	<g>
		<path d="M398.768,105.808c-5.376,0-280.182,0-285.536,0c-6.735,0-12.195,5.46-12.195,12.195v97.527    c0,6.735,5.46,12.195,12.195,12.195c5.358,0,280.161,0,285.536,0c6.735,0,12.195-5.46,12.195-12.195v-97.527    C410.963,111.267,405.503,105.808,398.768,105.808z"/>
	</g>
</g>
<g>
</g>
<g>
</g>
<g>
</g>
<g>
</g>
<g>
</g>
<g>
</g>
<g>
</g>
<g>
</g>
<g>
</g>
<g>
</g>
<g>
</g>
<g>
</g>
<g>
</g>
<g>
</g>
<g>
</g>
</svg>
