<?xml version="1.0" encoding="iso-8859-1"?>
<!-- Generator: Adobe Illustrator 19.0.0, SVG Export Plug-In . SVG Version: 6.00 Build 0)  -->
<svg xmlns="http://www.w3.org/2000/svg" xmlns:xlink="http://www.w3.org/1999/xlink" version="1.1" id="Layer_1" x="0px" y="0px" viewBox="0 0 512 512" style="enable-background:new 0 0 512 512;" xml:space="preserve">
<g>
	<g>
		<path d="M493.715,0.012H293.541c-10.098,0-18.285,8.187-18.285,18.285v200.174c0,10.098,8.187,18.285,18.285,18.285h200.174    c10.098,0,18.285-8.187,18.285-18.285V18.297C512,8.199,503.813,0.012,493.715,0.012z M475.43,200.186H311.826V36.582H475.43    V200.186z"/>
	</g>
</g>
<g>
	<g>
		<path d="M293.541,273.326c-8.459,0-16.476-1.927-23.637-5.361l-63.357,63.357l14.981,14.981c9.949,9.947,5.37,26.957-8.198,30.591    l-76.251,20.432c-13.723,3.676-25.988-8.983-22.394-22.394l20.431-76.251c3.644-13.589,20.662-18.129,30.592-8.196l14.981,14.981    l63.358-63.358c-3.433-7.162-5.36-15.176-5.36-23.634v-118.38H18.285C8.187,100.092,0,108.279,0,118.377v375.326    c0,10.098,8.187,18.285,18.285,18.285h375.337c10.098,0,18.285-8.187,18.285-18.285V273.326H293.541z"/>
	</g>
</g>
<g>
</g>
<g>
</g>
<g>
</g>
<g>
</g>
<g>
</g>
<g>
</g>
<g>
</g>
<g>
</g>
<g>
</g>
<g>
</g>
<g>
</g>
<g>
</g>
<g>
</g>
<g>
</g>
<g>
</g>
</svg>
