<?xml version="1.0" encoding="iso-8859-1"?>
<!-- Generator: Adobe Illustrator 19.0.0, SVG Export Plug-In . SVG Version: 6.00 Build 0)  -->
<svg xmlns="http://www.w3.org/2000/svg" xmlns:xlink="http://www.w3.org/1999/xlink" version="1.1" id="Layer_1" x="0px" y="0px" viewBox="0 0 512 512" style="enable-background:new 0 0 512 512;" xml:space="preserve">
<g>
	<g>
		<path d="M493.715,0.012H293.541c-10.098,0-18.285,8.187-18.285,18.285v200.174c0,10.098,8.187,18.285,18.285,18.285h200.174    c10.098,0,18.285-8.187,18.285-18.285V18.297C512,8.199,503.813,0.012,493.715,0.012z"/>
	</g>
</g>
<g>
	<g>
		<path d="M293.541,273.325c-8.459,0-16.475-1.927-23.637-5.361l-88.684,88.684l37.684-3.583    c10.06-0.969,18.977,6.419,19.934,16.472c0.956,10.053-6.419,18.977-16.472,19.934l-88.256,8.392    c-0.007,0-0.015,0.001-0.021,0.002l-0.011,0.001c-11.493,1.089-20.952-8.601-19.937-19.855c0.002-0.027,0-0.052,0.004-0.079    l0.001-0.015c0-0.005,0.001-0.01,0.001-0.015l8.392-88.258c0.956-10.053,9.87-17.436,19.934-16.472    c10.053,0.956,17.428,9.88,16.472,19.934l-3.584,37.684l88.685-88.685c-3.433-7.162-5.36-15.176-5.36-23.634v-118.38H18.285    C8.187,100.092,0,108.279,0,118.377v375.326c0,10.098,8.187,18.285,18.285,18.285h375.337c10.098,0,18.285-8.187,18.285-18.285    V273.325H293.541z"/>
	</g>
</g>
<g>
</g>
<g>
</g>
<g>
</g>
<g>
</g>
<g>
</g>
<g>
</g>
<g>
</g>
<g>
</g>
<g>
</g>
<g>
</g>
<g>
</g>
<g>
</g>
<g>
</g>
<g>
</g>
<g>
</g>
</svg>
