<?xml version="1.0" encoding="iso-8859-1"?>
<!-- Generator: Adobe Illustrator 19.0.0, SVG Export Plug-In . SVG Version: 6.00 Build 0)  -->
<svg xmlns="http://www.w3.org/2000/svg" xmlns:xlink="http://www.w3.org/1999/xlink" version="1.1" id="Layer_1" x="0px" y="0px" viewBox="0 0 512 512" style="enable-background:new 0 0 512 512;" xml:space="preserve">
<g>
	<g>
		<path d="M493.715,0.012H293.541c-10.098,0-18.285,8.187-18.285,18.285v200.174c0,10.098,8.187,18.285,18.285,18.285h200.174    c10.098,0,18.285-8.187,18.285-18.285V18.297C512,8.199,503.813,0.012,493.715,0.012z"/>
	</g>
</g>
<g>
	<g>
		<path d="M293.541,273.325c-8.459,0-16.476-1.927-23.637-5.362l-63.357,63.357l14.981,14.981    c9.948,9.947,5.368,26.957-8.196,30.591l-76.251,20.431c-13.499,3.613-26.056-8.729-22.394-22.394l20.431-76.251    c3.641-13.589,20.661-18.128,30.591-8.196l14.981,14.981l63.358-63.358c-3.433-7.162-5.36-15.176-5.36-23.634V100.092H18.285    C8.187,100.092,0,108.279,0,118.377v375.326c0,10.098,8.187,18.285,18.285,18.285h375.337c10.098,0,18.285-8.187,18.285-18.285    V273.325H293.541z"/>
	</g>
</g>
<g>
</g>
<g>
</g>
<g>
</g>
<g>
</g>
<g>
</g>
<g>
</g>
<g>
</g>
<g>
</g>
<g>
</g>
<g>
</g>
<g>
</g>
<g>
</g>
<g>
</g>
<g>
</g>
<g>
</g>
</svg>
