<?xml version="1.0" encoding="iso-8859-1"?>
<!-- Generator: Adobe Illustrator 19.0.0, SVG Export Plug-In . SVG Version: 6.00 Build 0)  -->
<svg xmlns="http://www.w3.org/2000/svg" xmlns:xlink="http://www.w3.org/1999/xlink" version="1.1" id="Layer_1" x="0px" y="0px" viewBox="0 0 512 512" style="enable-background:new 0 0 512 512;" xml:space="preserve">
<g>
	<g>
		<path d="M493.715,0.013h-200.17c-10.098,0-18.285,8.187-18.285,18.285v300.249c0,10.098,8.187,18.285,18.285,18.285h200.17    c10.098,0,18.285-8.186,18.285-18.285V18.298C512,8.2,503.813,0.013,493.715,0.013z"/>
	</g>
</g>
<g>
	<g>
		<path d="M293.545,373.401c-30.247,0-54.854-24.608-54.854-54.854v-19.37l-32.142,32.142l14.981,14.981    c9.948,9.947,5.368,26.954-8.196,30.592l-76.251,20.431c-13.727,3.678-25.991-8.972-22.394-22.394l20.431-76.251    c3.64-13.591,20.659-18.128,30.591-8.198l14.981,14.981l58.001-58.002v-147.37H18.285C8.187,100.091,0,108.277,0,118.375v375.327    c0,10.098,8.187,18.285,18.285,18.285h375.339c10.098,0,18.285-8.187,18.285-18.285V373.401H293.545z"/>
	</g>
</g>
<g>
</g>
<g>
</g>
<g>
</g>
<g>
</g>
<g>
</g>
<g>
</g>
<g>
</g>
<g>
</g>
<g>
</g>
<g>
</g>
<g>
</g>
<g>
</g>
<g>
</g>
<g>
</g>
<g>
</g>
</svg>
