<?xml version="1.0" encoding="iso-8859-1"?>
<!-- Generator: Adobe Illustrator 19.0.0, SVG Export Plug-In . SVG Version: 6.00 Build 0)  -->
<svg xmlns="http://www.w3.org/2000/svg" xmlns:xlink="http://www.w3.org/1999/xlink" version="1.1" id="Layer_1" x="0px" y="0px" viewBox="0 0 512 512" style="enable-background:new 0 0 512 512;" xml:space="preserve">
<g>
	<g>
		<path d="M495.343,45.596c-8.898,0-259.057,0-273.519,0c-9.199,0-16.657,7.458-16.657,16.657v182.349    c0,9.199,7.458,16.657,16.657,16.657c10.65,0,266.54,0,273.519,0c9.199,0,16.657-7.458,16.657-16.657V62.252    C512,53.053,504.542,45.596,495.343,45.596z M296.339,227.944h-57.856V78.909h57.856V227.944z M387.506,227.944h-57.855V78.909    h57.855V227.944z M478.686,227.944H420.82V78.909h57.866V227.944z"/>
	</g>
</g>
<g>
	<g>
		<path d="M221.826,294.572c-7.706,0-15.009-1.756-21.533-4.884l-12.135,12.135l13.648,13.648    c9.064,9.061,4.892,24.557-7.468,27.867l-69.463,18.612c-12.546,3.36-23.664-8.222-20.4-20.4l18.612-69.463    c3.319-12.379,18.821-16.514,27.868-7.467l13.648,13.648l12.136-12.136c-3.127-6.524-4.883-13.825-4.883-21.53V91.18H16.657    C7.458,91.18,0,98.638,0,107.837v341.911c0,9.199,7.458,16.657,16.657,16.657h341.922c9.199,0,16.657-7.458,16.657-16.657V294.572    H221.826z"/>
	</g>
</g>
<g>
</g>
<g>
</g>
<g>
</g>
<g>
</g>
<g>
</g>
<g>
</g>
<g>
</g>
<g>
</g>
<g>
</g>
<g>
</g>
<g>
</g>
<g>
</g>
<g>
</g>
<g>
</g>
<g>
</g>
</svg>
