<?xml version="1.0" encoding="iso-8859-1"?>
<!-- Generator: Adobe Illustrator 19.0.0, SVG Export Plug-In . SVG Version: 6.00 Build 0)  -->
<svg xmlns="http://www.w3.org/2000/svg" xmlns:xlink="http://www.w3.org/1999/xlink" version="1.1" id="Layer_1" x="0px" y="0px" viewBox="0 0 512 512" style="enable-background:new 0 0 512 512;" xml:space="preserve">
<g>
	<g>
		<path d="M493.715,0.012H293.541c-10.098,0-18.285,8.187-18.285,18.285v100.081c0,0.024,0.004,0.046,0.004,0.071v100.006v100.091    c0,10.098,8.187,18.285,18.285,18.285h200.17c10.098,0,18.285-8.187,18.285-18.285V218.455V118.379v-0.002V18.297    C512,8.199,503.813,0.012,493.715,0.012z M475.43,300.262L475.43,300.262H311.83V236.74H475.43V300.262z M475.43,200.17H311.83    v-63.507H475.43V200.17z"/>
	</g>
</g>
<g>
	<g>
		<path d="M293.545,373.401c-30.247,0-54.854-24.608-54.854-54.854v-19.369l-32.144,32.143l14.981,14.981    c9.948,9.947,5.368,26.957-8.196,30.591l-76.251,20.431c-13.784,3.69-25.977-9.023-22.394-22.394l20.432-76.251    c3.64-13.587,20.657-18.13,30.591-8.197l14.981,14.981l58.001-58.001l-0.002-147.372H18.285C8.187,100.091,0,108.278,0,118.376    v375.327c0,10.098,8.187,18.285,18.285,18.285h375.339c10.098,0,18.285-8.187,18.285-18.285V373.401H293.545z"/>
	</g>
</g>
<g>
</g>
<g>
</g>
<g>
</g>
<g>
</g>
<g>
</g>
<g>
</g>
<g>
</g>
<g>
</g>
<g>
</g>
<g>
</g>
<g>
</g>
<g>
</g>
<g>
</g>
<g>
</g>
<g>
</g>
</svg>
