<?xml version="1.0" encoding="iso-8859-1"?>
<!-- Generator: Adobe Illustrator 19.0.0, SVG Export Plug-In . SVG Version: 6.00 Build 0)  -->
<svg xmlns="http://www.w3.org/2000/svg" xmlns:xlink="http://www.w3.org/1999/xlink" version="1.1" id="Layer_1" x="0px" y="0px" viewBox="0 0 512 512" style="enable-background:new 0 0 512 512;" xml:space="preserve">
<g>
	<g>
		<path d="M493.715,0.211H293.541c-10.098,0-18.285,8.187-18.285,18.285v66.725v66.207c0,0.04-0.006,0.078-0.006,0.118    s0.006,0.078,0.006,0.118v66.608c0,10.098,8.187,18.285,18.285,18.285h200.174c10.098,0,18.285-8.187,18.285-18.285V85.221V18.496    C512,8.398,503.813,0.211,493.715,0.211z M375.338,199.987h-63.512v-30.155h0h63.512V199.987z M375.338,133.262h-63.512v-29.756h0    h63.512V133.262z M475.429,199.988h-63.523v-30.155h63.523V199.988z M475.429,133.262h-63.523v-29.756h63.523V133.262z"/>
	</g>
</g>
<g>
	<g>
		<path d="M293.54,273.127c-8.459,0-16.475-1.927-23.636-5.362l-63.356,63.357l14.98,14.98c9.947,9.946,5.373,26.954-8.198,30.592    l-76.251,20.432c-13.738,3.692-25.983-8.98-22.394-22.394l20.431-76.251c3.642-13.587,20.657-18.131,30.592-8.198l14.981,14.981    l63.357-63.357c-3.433-7.162-5.36-15.176-5.36-23.634V99.894H18.285C8.187,99.894,0,108.081,0,118.179v375.324    c0,10.098,8.187,18.285,18.285,18.285h375.337c10.098,0,18.285-8.187,18.285-18.285V273.127H293.54z"/>
	</g>
</g>
<g>
</g>
<g>
</g>
<g>
</g>
<g>
</g>
<g>
</g>
<g>
</g>
<g>
</g>
<g>
</g>
<g>
</g>
<g>
</g>
<g>
</g>
<g>
</g>
<g>
</g>
<g>
</g>
<g>
</g>
</svg>
