<?xml version="1.0" encoding="iso-8859-1"?>
<!-- Generator: Adobe Illustrator 19.0.0, SVG Export Plug-In . SVG Version: 6.00 Build 0)  -->
<svg xmlns="http://www.w3.org/2000/svg" xmlns:xlink="http://www.w3.org/1999/xlink" version="1.1" id="Layer_1" x="0px" y="0px" viewBox="0 0 512 512" style="enable-background:new 0 0 512 512;" xml:space="preserve">
<g>
	<g>
		<path d="M70.443,286.465l-45.932-26.519C13.641,253.668,0,261.525,0,274.096v53.038c0,12.585,13.646,20.424,24.511,14.151    l45.932-26.518C81.313,308.489,81.33,292.751,70.443,286.465z"/>
	</g>
</g>
<g>
	<g>
		<path d="M487.489,259.945l-45.932,26.519c-10.869,6.275-10.889,22.014,0,28.302l45.932,26.518    c10.796,6.233,24.511-1.499,24.511-14.151v-53.038C512,261.544,498.376,253.658,487.489,259.945z"/>
	</g>
</g>
<g>
	<g>
		<path d="M113.238,342.586c-6.734,0-12.194,5.46-12.194,12.194v39.209c0,6.734,5.46,12.194,12.194,12.194h129.431v-63.597v-0.001    H113.238z"/>
	</g>
</g>
<g>
	<g>
		<path d="M398.762,342.588H269.564v63.597h129.198c6.734,0,12.194-5.46,12.194-12.194v-39.209    C410.956,348.047,405.496,342.587,398.762,342.588z"/>
	</g>
</g>
<g>
	<g>
		<path d="M398.762,252.106H269.564v63.587h129.198c6.734,0,12.194-5.46,12.194-12.194v-39.2    C410.956,257.565,405.496,252.106,398.762,252.106z"/>
	</g>
</g>
<g>
	<g>
		<path d="M113.238,252.105c-6.734,0-12.194,5.46-12.194,12.194v39.2c0,6.734,5.46,12.194,12.194,12.194h129.431v-63.587v-0.001    H113.238z"/>
	</g>
</g>
<g>
	<g>
		<path d="M398.762,105.815c-5.376,0-280.17,0-285.524,0c-6.734,0-12.194,5.46-12.194,12.194v97.523    c0,6.734,5.46,12.194,12.194,12.194c5.357,0,280.149,0,285.524,0c6.734,0,12.194-5.46,12.194-12.194v-97.523    C410.956,111.273,405.496,105.815,398.762,105.815z"/>
	</g>
</g>
<g>
</g>
<g>
</g>
<g>
</g>
<g>
</g>
<g>
</g>
<g>
</g>
<g>
</g>
<g>
</g>
<g>
</g>
<g>
</g>
<g>
</g>
<g>
</g>
<g>
</g>
<g>
</g>
<g>
</g>
</svg>
