<?xml version="1.0" encoding="iso-8859-1"?>
<!-- Generator: Adobe Illustrator 19.0.0, SVG Export Plug-In . SVG Version: 6.00 Build 0)  -->
<svg xmlns="http://www.w3.org/2000/svg" xmlns:xlink="http://www.w3.org/1999/xlink" version="1.1" id="Layer_1" x="0px" y="0px" viewBox="0 0 512 512" style="enable-background:new 0 0 512 512;" xml:space="preserve">
<g>
	<g>
		<path d="M134.968,154.713H11.885C5.321,154.713,0,160.034,0,166.598v59.696c0,6.564,5.321,11.885,11.885,11.885h123.083    c6.564,0,11.885-5.321,11.885-11.885v-59.696C146.853,160.034,141.532,154.713,134.968,154.713z"/>
	</g>
</g>
<g>
	<g>
		<path d="M500.115,273.82H377.019c-6.564,0-11.885,5.322-11.885,11.885v59.71c0,6.564,5.321,11.885,11.885,11.885h123.096    c6.564,0,11.885-5.321,11.885-11.885v-59.71C512,279.141,506.679,273.82,500.115,273.82z"/>
	</g>
</g>
<g>
	<g>
		<path d="M500.115,154.685H377.019c-6.564,0-11.885,5.321-11.885,11.885v59.724c0,6.564,5.321,11.885,11.885,11.885h123.096    c6.564,0,11.885-5.321,11.885-11.885V166.57C512,160.006,506.679,154.685,500.115,154.685z"/>
	</g>
</g>
<g>
	<g>
		<path d="M317.595,35.55H194.513c-6.564,0-11.885,5.321-11.885,11.885v59.738c0,6.564,5.321,11.885,11.885,11.885h123.081    c6.564,0,11.885-5.321,11.886-11.885V47.435C329.48,40.871,324.159,35.55,317.595,35.55z"/>
	</g>
</g>
<g>
	<g>
		<path d="M134.968,35.55H11.885C5.321,35.55,0,40.871,0,47.435v59.738c0,6.564,5.321,11.885,11.885,11.885h123.083    c6.564,0,11.885-5.321,11.885-11.885V47.435C146.853,40.871,141.532,35.55,134.968,35.55z"/>
	</g>
</g>
<g>
	<g>
		<path d="M135.102,273.807H12.019c-6.564,0-11.885,5.321-11.885,11.885v59.723c0,6.564,5.321,11.885,11.885,11.885h123.083    c6.564,0,11.885-5.321,11.885-11.885v-59.723C146.987,279.128,141.666,273.807,135.102,273.807z"/>
	</g>
</g>
<g>
	<g>
		<path d="M317.594,392.955H194.526c-6.563,0-11.885,5.321-11.885,11.885v59.723c0,6.564,5.321,11.885,11.885,11.885h123.068    c6.564,0,11.885-5.321,11.885-11.885V404.84C329.479,398.276,324.158,392.955,317.594,392.955z"/>
	</g>
</g>
<g>
	<g>
		<path d="M500.115,392.957H377.019c-6.564,0-11.885,5.321-11.885,11.885v59.723c0,6.564,5.321,11.885,11.885,11.885h123.096    c6.564,0,11.885-5.322,11.885-11.885v-59.723C512,398.277,506.679,392.957,500.115,392.957z"/>
	</g>
</g>
<g>
	<g>
		<path d="M317.594,154.713H194.526c-6.564,0-11.885,5.321-11.885,11.885v178.817c0,6.564,5.321,11.885,11.885,11.885h123.068    c6.564,0,11.885-5.321,11.885-11.885V166.598C329.479,160.034,324.158,154.713,317.594,154.713z M289.055,315.416h-65.988V196.596    h65.988V315.416z"/>
	</g>
</g>
<g>
</g>
<g>
</g>
<g>
</g>
<g>
</g>
<g>
</g>
<g>
</g>
<g>
</g>
<g>
</g>
<g>
</g>
<g>
</g>
<g>
</g>
<g>
</g>
<g>
</g>
<g>
</g>
<g>
</g>
</svg>
