<?xml version="1.0" encoding="iso-8859-1"?>
<!-- Generator: Adobe Illustrator 19.0.0, SVG Export Plug-In . SVG Version: 6.00 Build 0)  -->
<svg xmlns="http://www.w3.org/2000/svg" xmlns:xlink="http://www.w3.org/1999/xlink" version="1.1" id="Layer_1" x="0px" y="0px" viewBox="0 0 512 512" style="enable-background:new 0 0 512 512;" xml:space="preserve">
<g>
	<g>
		<path d="M17.557,379.277C7.861,379.277,0,387.137,0,396.833v56.454c0,9.696,7.861,17.557,17.557,17.557h202.042v-91.568H17.557z"/>
	</g>
</g>
<g>
	<g>
		<path d="M0,266.556v56.44c0,9.696,7.861,17.557,17.557,17.557h202.042v-91.554H17.557C7.861,248.999,0,256.86,0,266.556z"/>
	</g>
</g>
<g>
	<g>
		<path d="M460.029,38.366c-14.687,0-420.897,0-442.472,0C7.861,38.366,0,46.227,0,55.923v133.465    c0,9.696,7.861,17.557,17.557,17.557c19.294,0,423.069,0,442.472,0c9.696,0,17.557-7.861,17.557-17.557V55.923    C477.586,46.227,469.725,38.366,460.029,38.366z"/>
	</g>
</g>
<g>
	<g>
		<path d="M497.331,263.603c-19.516-19.481-51.249-19.477-70.735,0.012l-12.436,12.436l70.75,70.731l12.433-12.433    C516.911,314.782,516.866,283.101,497.331,263.603z"/>
	</g>
</g>
<g>
	<g>
		<path d="M389.329,300.88l-89.378,89.367c-2.674,2.675-4.414,6.14-4.959,9.882l-7.784,53.385c-1.395,9.57,5.23,20.12,18.753,20.12    c3.002,0,6.241-0.597,54.854-7.682c3.742-0.545,7.209-2.285,9.882-4.959l89.383-89.383L389.329,300.88z"/>
	</g>
</g>
<g>
	<g>
		<polygon points="258.323,248.999 258.323,340.553 299.99,340.553 391.552,248.999   "/>
	</g>
</g>
<g>
	<g>
		<path d="M410.507,470.844h49.522c9.696,0,17.557-7.861,17.557-17.557v-49.522L410.507,470.844z"/>
	</g>
</g>
<g>
</g>
<g>
</g>
<g>
</g>
<g>
</g>
<g>
</g>
<g>
</g>
<g>
</g>
<g>
</g>
<g>
</g>
<g>
</g>
<g>
</g>
<g>
</g>
<g>
</g>
<g>
</g>
<g>
</g>
</svg>
