<?xml version="1.0" encoding="iso-8859-1"?>
<!-- Generator: Adobe Illustrator 19.0.0, SVG Export Plug-In . SVG Version: 6.00 Build 0)  -->
<svg xmlns="http://www.w3.org/2000/svg" xmlns:xlink="http://www.w3.org/1999/xlink" version="1.1" id="Layer_1" x="0px" y="0px" viewBox="0 0 512 512" style="enable-background:new 0 0 512 512;" xml:space="preserve">
<g>
	<g>
		<path d="M493.715,0.012H293.541c-10.098,0-18.285,8.187-18.285,18.285v200.174c0,10.098,8.187,18.285,18.285,18.285h200.174    c10.098,0,18.285-8.187,18.285-18.285V18.297C512,8.199,503.813,0.012,493.715,0.012z M375.343,200.186h-63.517v-63.518h0h63.517    V200.186z M375.343,100.099h-63.517V36.582h63.517V100.099z M475.429,200.186h-63.517v-63.518h63.517V200.186z M475.43,100.099    h-63.517V36.582h63.517V100.099z"/>
	</g>
</g>
<g>
	<g>
		<path d="M293.54,273.326c-8.459,0-16.475-1.927-23.637-5.361l-63.356,63.357l14.981,14.981c9.949,9.947,5.37,26.957-8.198,30.591    l-76.251,20.431c-13.498,3.616-26.055-8.732-22.394-22.394l20.432-76.251c3.644-13.591,20.662-18.129,30.592-8.197l14.981,14.981    l63.358-63.358c-3.433-7.16-5.36-15.175-5.36-23.633V100.092H18.285C8.187,100.092,0,108.279,0,118.377v375.326    c0,10.098,8.187,18.285,18.285,18.285h375.337c10.098,0,18.285-8.187,18.285-18.285V273.326H293.54z"/>
	</g>
</g>
<g>
</g>
<g>
</g>
<g>
</g>
<g>
</g>
<g>
</g>
<g>
</g>
<g>
</g>
<g>
</g>
<g>
</g>
<g>
</g>
<g>
</g>
<g>
</g>
<g>
</g>
<g>
</g>
<g>
</g>
</svg>
