<?xml version="1.0" encoding="iso-8859-1"?>
<!-- Generator: Adobe Illustrator 19.0.0, SVG Export Plug-In . SVG Version: 6.00 Build 0)  -->
<svg xmlns="http://www.w3.org/2000/svg" xmlns:xlink="http://www.w3.org/1999/xlink" version="1.1" id="Layer_1" x="0px" y="0px" viewBox="0 0 512 512" style="enable-background:new 0 0 512 512;" xml:space="preserve">
<g>
	<g>
		<path d="M495.304,61.217H16.696C7.475,61.217,0,68.693,0,77.913c0,3.729,0,351.982,0,356.174c0,9.22,7.475,16.696,16.696,16.696    h478.609c9.22,0,16.696-7.475,16.696-16.696c0-5.513,0-344.179,0-356.174C512,68.693,504.525,61.217,495.304,61.217z     M478.609,238.368l-81.029-85.896c-6.511-6.903-17.655-7.034-24.29,0L216.755,318.418l-77.956-82.646    c-6.489-6.879-17.645-7.041-24.29,0l-81.117,85.994V94.609h445.217V238.368z"/>
	</g>
</g>
<g>
	<g>
		<path d="M216.754,133.812c-27.721,0-50.275,22.554-50.275,50.274c0,27.721,22.554,50.275,50.275,50.275    c27.721,0,50.274-22.554,50.274-50.275C267.028,156.366,244.474,133.812,216.754,133.812z"/>
	</g>
</g>
<g>
</g>
<g>
</g>
<g>
</g>
<g>
</g>
<g>
</g>
<g>
</g>
<g>
</g>
<g>
</g>
<g>
</g>
<g>
</g>
<g>
</g>
<g>
</g>
<g>
</g>
<g>
</g>
<g>
</g>
</svg>
