<?xml version="1.0" encoding="iso-8859-1"?>
<!-- Generator: Adobe Illustrator 19.0.0, SVG Export Plug-In . SVG Version: 6.00 Build 0)  -->
<svg xmlns="http://www.w3.org/2000/svg" xmlns:xlink="http://www.w3.org/1999/xlink" version="1.1" id="Layer_1" x="0px" y="0px" viewBox="0 0 512.001 512.001" style="enable-background:new 0 0 512.001 512.001;" xml:space="preserve">
<g>
	<g>
		<path d="M41.827,357.55L4.922,400.54c-6.882,8.018-6.428,19.983,1.044,27.454l24.751,24.751L15.403,468.06    c-7.892,7.892-7.892,20.688,0,28.58c7.891,7.892,20.688,7.894,28.58,0l15.315-15.315l24.756,24.756    c7.472,7.472,19.437,7.926,27.454,1.044l42.991-36.905L41.827,357.55z"/>
	</g>
</g>
<g>
	<g>
		<path d="M473.837,38.211c-50.944-50.945-133.393-50.951-184.342,0c-20.65,20.65-32.998,46.689-36.858,73.766L68.232,326.792    l117.024,117.024l214.8-184.394c27.016-3.834,53.044-16.134,73.78-36.87C524.66,171.73,524.66,89.035,473.837,38.211z"/>
	</g>
</g>
<g>
</g>
<g>
</g>
<g>
</g>
<g>
</g>
<g>
</g>
<g>
</g>
<g>
</g>
<g>
</g>
<g>
</g>
<g>
</g>
<g>
</g>
<g>
</g>
<g>
</g>
<g>
</g>
<g>
</g>
</svg>
