<?xml version="1.0" encoding="iso-8859-1"?>
<!-- Generator: Adobe Illustrator 19.0.0, SVG Export Plug-In . SVG Version: 6.00 Build 0)  -->
<svg xmlns="http://www.w3.org/2000/svg" xmlns:xlink="http://www.w3.org/1999/xlink" version="1.1" id="Layer_1" x="0px" y="0px" viewBox="0 0 512 512" style="enable-background:new 0 0 512 512;" xml:space="preserve">
<g>
	<g>
		<rect x="68.371" y="319.432" width="375.263" height="96.323"/>
	</g>
</g>
<g>
	<g>
		<path d="M426.931,223.19h-38.886v-91.14C388.046,59.237,328.809,0,255.997,0S123.947,59.237,123.947,132.049v91.14H85.062    c-9.22,0-16.696,7.475-16.696,16.696v46.157h375.26v-46.157C443.627,230.665,436.152,223.19,426.931,223.19z M354.655,223.19    H157.339v-91.14c0-54.4,44.258-98.658,98.658-98.658s98.658,44.258,98.658,98.658V223.19z"/>
	</g>
</g>
<g>
	<g>
		<path d="M68.366,449.148v46.157c0,9.22,7.475,16.696,16.696,16.696h341.869c9.22,0,16.696-7.475,16.696-16.696v-46.157H68.366z"/>
	</g>
</g>
<g>
</g>
<g>
</g>
<g>
</g>
<g>
</g>
<g>
</g>
<g>
</g>
<g>
</g>
<g>
</g>
<g>
</g>
<g>
</g>
<g>
</g>
<g>
</g>
<g>
</g>
<g>
</g>
<g>
</g>
</svg>
