<?xml version="1.0" encoding="iso-8859-1"?>
<!-- Generator: Adobe Illustrator 19.0.0, SVG Export Plug-In . SVG Version: 6.00 Build 0)  -->
<svg xmlns="http://www.w3.org/2000/svg" xmlns:xlink="http://www.w3.org/1999/xlink" version="1.1" id="Layer_1" x="0px" y="0px" viewBox="0 0 512.001 512.001" style="enable-background:new 0 0 512.001 512.001;" xml:space="preserve">
<g>
	<g>
		<path d="M274.13,46.971c-62.627-62.628-164.53-62.627-227.159,0c-62.628,62.627-62.628,164.531,0,227.159    c62.63,62.63,164.535,62.626,227.159,0C336.758,211.502,336.758,109.599,274.13,46.971z M239.646,239.646    c-43.613,43.613-114.577,43.613-158.19,0c-43.613-43.613-43.613-114.577,0-158.19c43.615-43.613,114.577-43.612,158.19,0    C283.259,125.069,283.259,196.033,239.646,239.646z"/>
	</g>
</g>
<g>
	<g>
		<path d="M504.858,470.373L316.17,281.686c-10.037,12.875-21.635,24.474-34.471,34.498l188.674,188.674    c9.522,9.522,24.961,9.523,34.485,0C514.381,495.336,514.381,479.897,504.858,470.373z"/>
	</g>
</g>
<g>
</g>
<g>
</g>
<g>
</g>
<g>
</g>
<g>
</g>
<g>
</g>
<g>
</g>
<g>
</g>
<g>
</g>
<g>
</g>
<g>
</g>
<g>
</g>
<g>
</g>
<g>
</g>
<g>
</g>
</svg>
