<?xml version="1.0" encoding="iso-8859-1"?>
<!-- Generator: Adobe Illustrator 19.0.0, SVG Export Plug-In . SVG Version: 6.00 Build 0)  -->
<svg xmlns="http://www.w3.org/2000/svg" xmlns:xlink="http://www.w3.org/1999/xlink" version="1.1" id="Layer_1" x="0px" y="0px" viewBox="0 0 512 512" style="enable-background:new 0 0 512 512;" xml:space="preserve">
<g>
	<g>
		<path d="M474.374,96.049c-6.867-6.87-18.004-6.867-24.872,0l-78.404,78.402c-6.868,6.868-6.868,18.005,0,24.872    c6.867,6.87,18.005,6.867,24.872,0l78.404-78.402C481.242,114.053,481.242,102.917,474.374,96.049z"/>
	</g>
</g>
<g>
	<g>
		<path d="M494.413,238.415H383.534c-9.713,0-17.587,7.875-17.587,17.587c0,9.713,7.875,17.587,17.587,17.587h110.878    c9.713,0,17.587-7.875,17.587-17.587C512,246.289,504.126,238.415,494.413,238.415z"/>
	</g>
</g>
<g>
	<g>
		<path d="M474.374,391.084l-78.404-78.404c-6.868-6.867-18.005-6.867-24.872,0c-6.868,6.868-6.868,18.005,0,24.872l78.404,78.403    c6.868,6.869,18.004,6.87,24.872,0C481.242,409.088,481.242,397.951,474.374,391.084z"/>
	</g>
</g>
<g>
	<g>
		<path d="M17.587,162.015C7.874,162.015,0,169.89,0,179.602v152.799c0,9.713,7.874,17.587,17.587,17.587h109.086V162.015H17.587z"/>
	</g>
</g>
<g>
	<g>
		<path d="M288.09,50.884l-126.241,93.753v222.733l126.241,93.753c11.512,8.551,28.073,0.41,28.073-14.119v-382    C316.163,50.567,299.67,42.283,288.09,50.884z"/>
	</g>
</g>
<g>
</g>
<g>
</g>
<g>
</g>
<g>
</g>
<g>
</g>
<g>
</g>
<g>
</g>
<g>
</g>
<g>
</g>
<g>
</g>
<g>
</g>
<g>
</g>
<g>
</g>
<g>
</g>
<g>
</g>
</svg>
