<?xml version="1.0" encoding="iso-8859-1"?>
<!-- Generator: Adobe Illustrator 19.0.0, SVG Export Plug-In . SVG Version: 6.00 Build 0)  -->
<svg xmlns="http://www.w3.org/2000/svg" xmlns:xlink="http://www.w3.org/1999/xlink" version="1.1" id="Layer_1" x="0px" y="0px" viewBox="0 0 512.001 512.001" style="enable-background:new 0 0 512.001 512.001;" xml:space="preserve">
<g>
	<g>
		<path d="M481.878,58.207L260.301,0.53c-2.744-0.706-5.889-0.707-8.6,0C242.437,2.941,37.755,56.219,30.123,58.204    C21.726,60.39,16.305,68.529,17.524,77.12l19.502,137.403c17.952,126.519,96.611,237.2,211.084,295.54    c0.007,0.003,0.015,0.007,0.022,0.011c4.694,2.428,10.344,2.706,15.738,0c0.007-0.003,0.014-0.007,0.021-0.01    c114.175-58.194,193.081-168.662,211.083-295.54l19.502-137.401C495.697,68.531,490.275,60.392,481.878,58.207z M441.18,209.728    c-15.111,106.498-77.209,200.342-168.111,256.096V39.125l185.473,48.279L441.18,209.728z"/>
	</g>
</g>
<g>
</g>
<g>
</g>
<g>
</g>
<g>
</g>
<g>
</g>
<g>
</g>
<g>
</g>
<g>
</g>
<g>
</g>
<g>
</g>
<g>
</g>
<g>
</g>
<g>
</g>
<g>
</g>
<g>
</g>
</svg>
