<?xml version="1.0" encoding="iso-8859-1"?>
<!-- Generator: Adobe Illustrator 19.0.0, SVG Export Plug-In . SVG Version: 6.00 Build 0)  -->
<svg xmlns="http://www.w3.org/2000/svg" xmlns:xlink="http://www.w3.org/1999/xlink" version="1.1" id="Layer_1" x="0px" y="0px" viewBox="0 0 512 512" style="enable-background:new 0 0 512 512;" xml:space="preserve">
<g>
	<g>
		<path d="M23.814,194.48v123.038h464.372V194.48H23.814z M127.631,282.791c-14.773,0-26.791-12.018-26.791-26.791    s12.018-26.791,26.791-26.791c14.773,0,26.791,12.018,26.791,26.791S142.404,282.791,127.631,282.791z M393.299,273.86H213.172    c-9.864,0-17.86-7.997-17.86-17.86s7.997-17.86,17.86-17.86h180.127c9.864,0,17.86,7.997,17.86,17.86    S403.163,273.86,393.299,273.86z"/>
	</g>
</g>
<g>
	<g>
		<path d="M23.814,353.241V494.14c0,9.864,7.997,17.86,17.86,17.86h428.651c9.864,0,17.86-7.997,17.86-17.86V353.241H23.814z     M127.631,459.41c-14.773,0-26.791-12.018-26.791-26.791s12.018-26.791,26.791-26.791c14.773,0,26.791,12.018,26.791,26.791    S142.404,459.41,127.631,459.41z M393.299,450.48H213.172c-9.864,0-17.86-7.997-17.86-17.86c0-9.864,7.997-17.86,17.86-17.86    h180.127c9.864,0,17.86,7.997,17.86,17.86C411.16,442.484,403.163,450.48,393.299,450.48z"/>
	</g>
</g>
<g>
	<g>
		<path d="M470.326,0H41.674c-9.864,0-17.86,7.997-17.86,17.86v140.899h464.372V17.86C488.186,7.997,480.189,0,470.326,0z     M127.631,106.171c-14.773,0-26.791-12.018-26.791-26.791c0-14.773,12.019-26.791,26.791-26.791    c14.773,0,26.791,12.018,26.791,26.791C154.422,94.153,142.404,106.171,127.631,106.171z M393.299,97.241H213.172    c-9.864,0-17.86-7.997-17.86-17.86c0-9.864,7.997-17.86,17.86-17.86h180.127c9.864,0,17.86,7.997,17.86,17.86    C411.16,89.244,403.163,97.241,393.299,97.241z"/>
	</g>
</g>
<g>
</g>
<g>
</g>
<g>
</g>
<g>
</g>
<g>
</g>
<g>
</g>
<g>
</g>
<g>
</g>
<g>
</g>
<g>
</g>
<g>
</g>
<g>
</g>
<g>
</g>
<g>
</g>
<g>
</g>
</svg>
