<?xml version="1.0" encoding="iso-8859-1"?>
<!-- Generator: Adobe Illustrator 19.0.0, SVG Export Plug-In . SVG Version: 6.00 Build 0)  -->
<svg xmlns="http://www.w3.org/2000/svg" xmlns:xlink="http://www.w3.org/1999/xlink" version="1.1" id="Layer_1" x="0px" y="0px" viewBox="0 0 512 512" style="enable-background:new 0 0 512 512;" xml:space="preserve">
<g>
	<g>
		<path d="M496,133.333H16c-8.836,0-16,7.164-16,16v213.333c0,8.836,7.164,16,16,16h480c8.836,0,16-7.164,16-16V149.333    C512,140.497,504.836,133.333,496,133.333z M122.205,272H58.998c-8.836,0-16-7.164-16-16c0-8.836,7.164-16,16-16h63.206    c8.836,0,16,7.164,16,16C138.205,264.836,131.041,272,122.205,272z M205.937,217.003l-33.09,89.133    c-3.076,8.287-12.289,12.506-20.569,9.43c-8.284-3.075-12.507-12.284-9.43-20.569l33.09-89.133    c3.075-8.284,12.285-12.508,20.569-9.43C204.79,199.51,209.012,208.718,205.937,217.003z M287.603,272h-63.207    c-8.836,0-16-7.164-16-16c0-8.836,7.164-16,16-16h63.207c8.836,0,16,7.164,16,16C303.603,264.836,296.441,272,287.603,272z     M369.153,217.003l-33.09,89.133c-3.076,8.287-12.289,12.506-20.568,9.43c-8.284-3.075-12.507-12.284-9.43-20.569l33.09-89.133    c3.075-8.284,12.285-12.508,20.568-9.43C368.005,199.51,372.228,208.718,369.153,217.003z M453.002,272h-63.206    c-8.836,0-16-7.164-16-16c0-8.836,7.164-16,16-16h63.206c8.836,0,16,7.164,16,16C469.002,264.836,461.839,272,453.002,272z"/>
	</g>
</g>
<g>
</g>
<g>
</g>
<g>
</g>
<g>
</g>
<g>
</g>
<g>
</g>
<g>
</g>
<g>
</g>
<g>
</g>
<g>
</g>
<g>
</g>
<g>
</g>
<g>
</g>
<g>
</g>
<g>
</g>
</svg>
