<?xml version="1.0" encoding="iso-8859-1"?>
<!-- Generator: Adobe Illustrator 19.0.0, SVG Export Plug-In . SVG Version: 6.00 Build 0)  -->
<svg xmlns="http://www.w3.org/2000/svg" xmlns:xlink="http://www.w3.org/1999/xlink" version="1.1" id="Layer_1" x="0px" y="0px" viewBox="0 0 512 512" style="enable-background:new 0 0 512 512;" xml:space="preserve">
<g>
	<g>
		<path d="M493.268,0H18.732C8.387,0,0,8.387,0,18.732v474.537C0,503.613,8.387,512,18.732,512h474.537    c10.345,0,18.732-8.387,18.732-18.732V18.732C512,8.387,503.613,0,493.268,0z M206.453,323.818    c24.023,0,25.524-18.32,26.425-30.029c0.9-11.112,11.109-14.115,23.122-14.115c16.214,0,23.722,4.205,23.722,22.222    c0,39.938-32.431,62.759-75.371,62.759c-39.337,0-72.068-19.217-72.068-70.866v-79.576c0-51.648,32.732-70.868,72.068-70.868    c42.942,0,75.371,21.621,75.371,59.757c0,18.017-7.508,22.222-23.422,22.222c-12.613,0-22.821-3.303-23.422-14.112    c-0.301-7.807-1.201-27.027-26.725-27.027c-17.117,0-27.026,9.609-27.026,30.029v79.576    C179.128,314.207,189.037,323.818,206.453,323.818z M381.521,252.949h-33.932v95.79c0,8.409-11.11,14.115-23.723,14.115    c-12.912,0-22.82-5.704-22.82-14.115V198.599c0-34.835,24.022-60.359,52.85-60.359h21.62c11.711,0,17.415,9.91,17.415,19.52    c0,9.91-5.704,19.517-17.415,19.517h-11.411c-9.609,0-16.516,5.105-16.516,16.217v26.424h33.933v-0.001    c7.508,0,11.411,8.407,11.411,16.515C392.933,244.841,389.029,252.949,381.521,252.949z"/>
	</g>
</g>
<g>
</g>
<g>
</g>
<g>
</g>
<g>
</g>
<g>
</g>
<g>
</g>
<g>
</g>
<g>
</g>
<g>
</g>
<g>
</g>
<g>
</g>
<g>
</g>
<g>
</g>
<g>
</g>
<g>
</g>
</svg>
