<?xml version="1.0" encoding="iso-8859-1"?>
<!-- Generator: Adobe Illustrator 19.0.0, SVG Export Plug-In . SVG Version: 6.00 Build 0)  -->
<svg xmlns="http://www.w3.org/2000/svg" xmlns:xlink="http://www.w3.org/1999/xlink" version="1.1" id="Layer_1" x="0px" y="0px" viewBox="0 0 512 512" style="enable-background:new 0 0 512 512;" xml:space="preserve">
<g>
	<g>
		<path d="M110.939,241.543l-83.478-48.196c-11.105-6.412-25.043,1.613-25.043,14.458v96.393c0,12.931,14.005,20.833,25.043,14.457    l83.478-48.196C122.046,264.047,122.063,247.965,110.939,241.543z"/>
	</g>
</g>
<g>
	<g>
		<path d="M484.539,193.35l-83.478,48.196c-11.107,6.412-11.124,22.495,0,28.917l83.478,48.196    c11.032,6.371,25.043-1.533,25.043-14.457v-96.393C509.582,194.985,495.664,186.927,484.539,193.35z"/>
	</g>
</g>
<g>
	<g>
		<path d="M155.826,0c-9.22,0-16.696,7.475-16.696,16.696v478.609c0,9.22,7.475,16.696,16.696,16.696h83.478V0H155.826z"/>
	</g>
</g>
<g>
	<g>
		<path d="M356.174,0h-83.478v512h83.478c9.22,0,16.696-7.475,16.696-16.696V16.696C372.87,7.475,365.394,0,356.174,0z"/>
	</g>
</g>
<g>
</g>
<g>
</g>
<g>
</g>
<g>
</g>
<g>
</g>
<g>
</g>
<g>
</g>
<g>
</g>
<g>
</g>
<g>
</g>
<g>
</g>
<g>
</g>
<g>
</g>
<g>
</g>
<g>
</g>
</svg>
