<?xml version="1.0" encoding="iso-8859-1"?>
<!-- Generator: Adobe Illustrator 19.0.0, SVG Export Plug-In . SVG Version: 6.00 Build 0)  -->
<svg xmlns="http://www.w3.org/2000/svg" xmlns:xlink="http://www.w3.org/1999/xlink" version="1.1" id="Layer_1" x="0px" y="0px" viewBox="0 0 512 512" style="enable-background:new 0 0 512 512;" xml:space="preserve">
<g>
	<g>
		<path d="M255.997,0c-83.274,0-143.544,33.993-143.545,64.827c0,30.549,59.752,64.826,143.544,64.826    c83.974,0,143.544-34.355,143.544-64.826C399.54,33.943,339.133,0,255.997,0z"/>
	</g>
</g>
<g>
	<g>
		<g>
			<path d="M112.453,130.573c2.586,1.84,2.9,2.05,0-0.013V130.573z"/>
			<path d="M399.54,130.573v-0.013C396.951,132.378,397.162,132.244,399.54,130.573z"/>
		</g>
	</g>
</g>
<g>
	<g>
		<path d="M399.541,130.561c-39.587,27.765-94.774,38.478-143.544,38.478c-48.648,0-104.813-10.921-143.544-38.478    c0,66.773-0.151,62.9,0.368,65.916c7.731,44.812,97.415,60.626,143.176,60.626c43.797,0,135.713-17.37,143.176-60.626    C399.784,192.919,399.541,195.048,399.541,130.561z M156.38,210.465c-7.742,0-14.019-6.276-14.019-14.019    c0-7.742,6.277-14.019,14.019-14.019c7.742,0,14.019,6.277,14.019,14.019C170.399,204.189,164.122,210.465,156.38,210.465z     M346.335,219.201c-43.705,14.701-95.729,17.332-141.027,9.778c-9.961-1.662-16.689-11.085-15.027-21.047    c1.662-9.961,11.086-16.677,21.046-15.027c39.653,6.616,85.572,4.339,123.349-8.369c9.574-3.222,19.94,1.93,23.162,11.503    C361.056,205.611,355.907,215.98,346.335,219.201z"/>
	</g>
</g>
<g>
	<g>
		<path d="M255.997,423.936c-47.843,0-104.396-10.669-143.544-38.466v61.702c0,30.77,60.112,64.828,143.544,64.828    c83.171,0,143.544-33.957,143.544-64.828V385.47C360.699,413.083,304.392,423.936,255.997,423.936z M156.38,464.985    c-7.742,0-14.019-6.277-14.019-14.019s6.277-14.019,14.019-14.019c7.742,0,14.019,6.277,14.019,14.019    C170.399,458.708,164.122,464.985,156.38,464.985z M346.335,473.721c-43.705,14.701-95.729,17.332-141.027,9.778    c-9.961-1.662-16.689-11.085-15.027-21.047c1.662-9.961,11.086-16.677,21.046-15.027c39.653,6.616,85.572,4.339,123.349-8.369    c9.574-3.223,19.94,1.931,23.162,11.503C361.056,460.131,355.907,470.5,346.335,473.721z"/>
	</g>
</g>
<g>
	<g>
		<path d="M399.54,258.011c-38.785,27.564-94.933,38.473-143.543,38.473c-46.888,0-104.263-10.592-143.543-38.473    c0,64.555-0.244,62.368,0.366,65.926c7.742,44.919,97.709,60.611,143.177,60.611c74.032,0,137.644-28.466,143.177-60.611    C399.801,320.284,399.54,321.686,399.54,258.011z M156.377,331.63c-7.741,0-14.019-6.278-14.019-14.019    c0-7.741,6.278-14.019,14.019-14.019s14.019,6.278,14.019,14.019C170.396,325.352,164.118,331.63,156.377,331.63z M346.329,340.37    c-43.906,14.761-95.876,17.29-141.019,9.777c-9.96-1.67-16.689-11.093-15.031-21.053c1.67-9.96,11.093-16.689,21.053-15.019    c39.483,6.574,85.403,4.391,123.343-8.375c9.57-3.218,19.944,1.926,23.162,11.508C361.055,326.778,355.91,337.152,346.329,340.37z    "/>
	</g>
</g>
<g>
</g>
<g>
</g>
<g>
</g>
<g>
</g>
<g>
</g>
<g>
</g>
<g>
</g>
<g>
</g>
<g>
</g>
<g>
</g>
<g>
</g>
<g>
</g>
<g>
</g>
<g>
</g>
<g>
</g>
</svg>
