<?xml version="1.0" encoding="iso-8859-1"?>
<!-- Generator: Adobe Illustrator 19.0.0, SVG Export Plug-In . SVG Version: 6.00 Build 0)  -->
<svg xmlns="http://www.w3.org/2000/svg" xmlns:xlink="http://www.w3.org/1999/xlink" version="1.1" id="Layer_1" x="0px" y="0px" viewBox="0 0 512 512" style="enable-background:new 0 0 512 512;" xml:space="preserve">
<g>
	<g>
		<path d="M98.292,312.23l-55.468,25.06c-5.434,2.456-9.427,7.29-10.81,13.092L0,484.748l90.328-90.328    c7.523-7.524,19.722-7.524,27.246,0c7.524,7.523,7.524,19.722,0,27.246l-90.326,90.326l134.359-32.02    c5.802-1.382,10.635-5.374,13.091-10.81l25.06-55.467L98.292,312.23z"/>
	</g>
</g>
<g>
	<g>
		<path d="M489.172,22.813c-31.219-31.221-82.118-30.274-112.146,2.151L131.088,290.535l90.365,90.365l265.571-245.94    C519.412,104.966,520.481,54.119,489.172,22.813z"/>
	</g>
</g>
<g>
</g>
<g>
</g>
<g>
</g>
<g>
</g>
<g>
</g>
<g>
</g>
<g>
</g>
<g>
</g>
<g>
</g>
<g>
</g>
<g>
</g>
<g>
</g>
<g>
</g>
<g>
</g>
<g>
</g>
</svg>
