<?xml version="1.0" encoding="iso-8859-1"?>
<!-- Generator: Adobe Illustrator 19.0.0, SVG Export Plug-In . SVG Version: 6.00 Build 0)  -->
<svg xmlns="http://www.w3.org/2000/svg" xmlns:xlink="http://www.w3.org/1999/xlink" version="1.1" id="Layer_1" x="0px" y="0px" viewBox="0 0 512 512" style="enable-background:new 0 0 512 512;" xml:space="preserve">
<g>
	<g>
		<path d="M494.933,70.796h-33.236V39.822c0-9.425-7.641-17.067-17.067-17.067H67.369c-9.425,0-17.067,7.641-17.067,17.067v30.974    H17.067C7.641,70.796,0,78.437,0,87.863s7.641,17.067,17.067,17.067h33.236v30.973c0,9.425,7.641,17.067,17.067,17.067h33.234    v171.931h310.793V152.967h33.234c9.425,0,17.067-7.641,17.067-17.067v-30.971h33.236c9.425,0,17.067-7.641,17.067-17.067    S504.359,70.796,494.933,70.796z M315.762,278.36H196.238c-9.425,0-17.067-7.641-17.067-17.067    c0-9.425,7.641-17.067,17.067-17.067h119.524c9.425,0,17.067,7.641,17.067,17.067C332.828,270.718,325.187,278.36,315.762,278.36z     M315.762,215.436H196.238c-9.425,0-17.067-7.641-17.067-17.067c0-9.425,7.641-17.067,17.067-17.067h119.524    c9.425,0,17.067,7.641,17.067,17.067C332.828,207.795,325.187,215.436,315.762,215.436z"/>
	</g>
</g>
<g>
	<g>
		<path d="M494.933,407.071h-33.236v-30.973c0-9.425-7.641-17.067-17.067-17.067H67.369c-9.425,0-17.067,7.641-17.067,17.067v30.973    H17.067C7.641,407.071,0,414.712,0,424.137s7.641,17.067,17.067,17.067h33.236v30.974c0,9.425,7.641,17.067,17.067,17.067h377.262    c9.425,0,17.067-7.641,17.067-17.067v-30.974h33.236c9.425,0,17.067-7.641,17.067-17.067S504.359,407.071,494.933,407.071z"/>
	</g>
</g>
<g>
</g>
<g>
</g>
<g>
</g>
<g>
</g>
<g>
</g>
<g>
</g>
<g>
</g>
<g>
</g>
<g>
</g>
<g>
</g>
<g>
</g>
<g>
</g>
<g>
</g>
<g>
</g>
<g>
</g>
</svg>
