<?xml version="1.0" encoding="iso-8859-1"?>
<!-- Generator: Adobe Illustrator 19.0.0, SVG Export Plug-In . SVG Version: 6.00 Build 0)  -->
<svg xmlns="http://www.w3.org/2000/svg" xmlns:xlink="http://www.w3.org/1999/xlink" version="1.1" id="Layer_1" x="0px" y="0px" viewBox="0 0 512 512" style="enable-background:new 0 0 512 512;" xml:space="preserve">
<g>
	<g>
		<path d="M441.888,17.106H201.415c-14.883,0-26.947,12.064-26.947,26.947c0,14.883,12.064,26.947,26.947,26.947h240.473    c14.883,0,26.947-12.064,26.947-26.947C468.836,29.171,456.771,17.106,441.888,17.106z"/>
	</g>
</g>
<g>
	<g>
		<path d="M441.888,229.053H201.415c-14.883,0-26.947,12.064-26.947,26.947s12.064,26.947,26.947,26.947h240.473    c14.883,0,26.947-12.064,26.947-26.947S456.771,229.053,441.888,229.053z"/>
	</g>
</g>
<g>
	<g>
		<path d="M441.888,440.999H201.415c-14.883,0-26.947,12.064-26.947,26.947c0,14.883,12.064,26.947,26.947,26.947h240.473    c14.883,0,26.947-12.064,26.947-26.947C468.836,453.063,456.771,440.999,441.888,440.999z"/>
	</g>
</g>
<g>
	<g>
		<path d="M87.219,0C62.927,0,43.164,19.763,43.164,44.055c0,24.292,19.763,44.055,44.055,44.055    c24.293,0,44.055-19.765,44.055-44.056C131.274,19.762,111.511,0,87.219,0z"/>
	</g>
</g>
<g>
	<g>
		<path d="M87.219,211.946c-24.292,0-44.055,19.763-44.055,44.054s19.763,44.054,44.055,44.054    c24.293,0,44.055-19.763,44.055-44.054S111.511,211.946,87.219,211.946z"/>
	</g>
</g>
<g>
	<g>
		<path d="M87.219,423.892c-24.292,0-44.055,19.763-44.055,44.055S62.927,512,87.219,512c24.293,0,44.054-19.762,44.054-44.054    S111.511,423.892,87.219,423.892z"/>
	</g>
</g>
<g>
</g>
<g>
</g>
<g>
</g>
<g>
</g>
<g>
</g>
<g>
</g>
<g>
</g>
<g>
</g>
<g>
</g>
<g>
</g>
<g>
</g>
<g>
</g>
<g>
</g>
<g>
</g>
<g>
</g>
</svg>
