<?xml version="1.0" encoding="iso-8859-1"?>
<!-- Generator: Adobe Illustrator 19.0.0, SVG Export Plug-In . SVG Version: 6.00 Build 0)  -->
<svg xmlns="http://www.w3.org/2000/svg" xmlns:xlink="http://www.w3.org/1999/xlink" version="1.1" id="Layer_1" x="0px" y="0px" viewBox="0 0 512 512" style="enable-background:new 0 0 512 512;" xml:space="preserve">
<g>
	<g>
		<path d="M479.053,17.86c0-9.864-7.997-17.86-17.86-17.86H342.242c-9.864,0-17.86,7.997-17.86,17.86    c0,1.669,0.012,173.423,0.012,271.074c0,37.719-30.682,68.406-68.392,68.406c-37.712,0-68.394-30.687-68.394-68.406    c0-12.032,0-259.192,0-271.074c0-9.864-7.997-17.86-17.86-17.86H50.796c-9.864,0-17.86,7.997-17.86,17.86    c0,11.886,0,259.045,0,271.074C32.934,411.934,133.002,512,255.999,512c122.999,0,223.065-100.066,223.065-223.065    C479.065,285.217,479.053,36.09,479.053,17.86z M151.885,118.939h-83.23V35.721h83.23V118.939z M443.332,118.939h-83.23V35.721    h83.23V118.939z"/>
	</g>
</g>
<g>
</g>
<g>
</g>
<g>
</g>
<g>
</g>
<g>
</g>
<g>
</g>
<g>
</g>
<g>
</g>
<g>
</g>
<g>
</g>
<g>
</g>
<g>
</g>
<g>
</g>
<g>
</g>
<g>
</g>
</svg>
