<?xml version="1.0" encoding="iso-8859-1"?>
<!-- Generator: Adobe Illustrator 19.0.0, SVG Export Plug-In . SVG Version: 6.00 Build 0)  -->
<svg xmlns="http://www.w3.org/2000/svg" xmlns:xlink="http://www.w3.org/1999/xlink" version="1.1" id="Layer_1" x="0px" y="0px" viewBox="0 0 511.999 511.999" style="enable-background:new 0 0 511.999 511.999;" xml:space="preserve">
<g>
	<g>
		<path d="M435.696,0H126.482C89.607,0,59.606,29.994,59.606,66.862v378.276c0,36.867,30.001,66.862,66.876,66.862h309.216    c9.22,0,16.696-7.475,16.696-16.696V117.042V16.696C452.392,7.475,444.917,0,435.696,0z M393.205,373.435    c0,9.22-7.475,16.696-16.696,16.696H135.489c-9.22,0-16.696-7.475-16.696-16.696V238.913c0-9.271,7.56-16.696,16.696-16.696    h241.021c9.109,0,16.696,7.403,16.696,16.696V373.435z M419.002,100.346h-292.52c-18.463,0-33.485-15.022-33.485-33.485    c0-18.455,15.021-33.47,33.485-33.47h292.52V100.346z"/>
	</g>
</g>
<g>
	<g>
		<path d="M206.642,255.607c12.084,6.002,38.912,19.326,49.358,24.514c10.449-5.189,37.284-18.518,49.357-24.514H206.642z"/>
	</g>
</g>
<g>
	<g>
		<path d="M309.702,290.732l23.545,16.168c7.601,5.219,9.531,15.612,4.312,23.214c-5.22,7.603-15.618,9.53-23.214,4.312    l-38.874-26.693l-12.045,5.983c-4.966,2.464-10.539,2.143-14.855,0l-12.046-5.983l-38.874,26.693    c-7.601,5.219-17.993,3.289-23.214-4.312c-5.219-7.602-3.289-17.995,4.313-23.214l23.545-16.168l-50.111-24.888v90.893h207.629    v-90.893L309.702,290.732z"/>
	</g>
</g>
<g>
</g>
<g>
</g>
<g>
</g>
<g>
</g>
<g>
</g>
<g>
</g>
<g>
</g>
<g>
</g>
<g>
</g>
<g>
</g>
<g>
</g>
<g>
</g>
<g>
</g>
<g>
</g>
<g>
</g>
</svg>
