<?xml version="1.0" encoding="iso-8859-1"?>
<!-- Generator: Adobe Illustrator 19.0.0, SVG Export Plug-In . SVG Version: 6.00 Build 0)  -->
<svg xmlns="http://www.w3.org/2000/svg" xmlns:xlink="http://www.w3.org/1999/xlink" version="1.1" id="Layer_1" x="0px" y="0px" viewBox="0 0 511.999 511.999" style="enable-background:new 0 0 511.999 511.999;" xml:space="preserve">
<g>
	<g>
		<path d="M435.696,0H126.482C89.607,0,59.606,29.994,59.606,66.862v378.276c0,36.867,30.001,66.862,66.876,66.862    c13.541,0,289.278,0,309.216,0c9.22,0,16.696-7.475,16.696-16.696c0-7.534,0-471.277,0-478.609C452.392,7.475,444.917,0,435.696,0    z M176.569,478.609h-33.391V133.738h33.391V478.609z M419.001,372.469l-89.783-51.836c-11.125-6.423-11.106-22.505,0-28.917    l89.783-51.837V372.469z M419.002,100.346c-10.641,0-282.939,0-292.52,0c-18.463,0-33.485-15.022-33.485-33.485    c0-18.455,15.021-33.47,33.485-33.47h292.52V100.346z"/>
	</g>
</g>
<g>
</g>
<g>
</g>
<g>
</g>
<g>
</g>
<g>
</g>
<g>
</g>
<g>
</g>
<g>
</g>
<g>
</g>
<g>
</g>
<g>
</g>
<g>
</g>
<g>
</g>
<g>
</g>
<g>
</g>
</svg>
