<?xml version="1.0" encoding="iso-8859-1"?>
<!-- Generator: Adobe Illustrator 19.0.0, SVG Export Plug-In . SVG Version: 6.00 Build 0)  -->
<svg xmlns="http://www.w3.org/2000/svg" xmlns:xlink="http://www.w3.org/1999/xlink" version="1.1" id="Layer_1" x="0px" y="0px" viewBox="0 0 512 512" style="enable-background:new 0 0 512 512;" xml:space="preserve">
<g>
	<g>
		<path d="M386.855,200.142h-56.907v-36.98c0-8.836-7.164-16-16-16H272V77.568c0-8.836-7.164-16-16-16c-8.836,0-16,7.164-16,16    v69.594h-41.94c-8.836,0-16,7.164-16,16v36.98h-56.914C56.14,200.142,0,256.282,0,325.286s56.14,125.146,125.145,125.146    c56.217,0,105.478-37.521,120.55-91.49h20.61c15.053,53.904,64.259,91.49,120.55,91.49c69.005,0,125.145-56.14,125.145-125.146    S455.86,200.142,386.855,200.142z M167.862,341.286h-26.718v26.717c0,8.836-7.164,16-16,16s-16-7.164-16-16v-26.717H82.428    c-8.836,0-16-7.164-16-16c0-8.836,7.164-16,16-16h26.717v-26.718c0-8.836,7.164-16,16-16s16,7.164,16,16v26.718h26.718    c8.836,0,16,7.164,16,16C183.862,334.123,176.699,341.286,167.862,341.286z M380.982,364.587c-9.231,9.231-24.196,9.231-33.427,0    c-9.231-9.231-9.231-24.196,0-33.427c9.231-9.231,24.196-9.231,33.427,0C390.213,340.389,390.213,355.356,380.982,364.587z     M426.155,319.414c-9.231,9.231-24.196,9.231-33.427,0c-9.231-9.231-9.231-24.196,0-33.427c9.231-9.231,24.196-9.231,33.427,0    C435.385,295.218,435.385,310.183,426.155,319.414z"/>
	</g>
</g>
<g>
</g>
<g>
</g>
<g>
</g>
<g>
</g>
<g>
</g>
<g>
</g>
<g>
</g>
<g>
</g>
<g>
</g>
<g>
</g>
<g>
</g>
<g>
</g>
<g>
</g>
<g>
</g>
<g>
</g>
</svg>
