<?xml version="1.0" encoding="iso-8859-1"?>
<!-- Generator: Adobe Illustrator 19.0.0, SVG Export Plug-In . SVG Version: 6.00 Build 0)  -->
<svg xmlns="http://www.w3.org/2000/svg" xmlns:xlink="http://www.w3.org/1999/xlink" version="1.1" id="Layer_1" x="0px" y="0px" viewBox="0 0 512 512" style="enable-background:new 0 0 512 512;" xml:space="preserve">
<g>
	<g>
		<path d="M256.012,0C27.184,0-84.781,277.175,75.013,436.969c100.038,100.038,261.949,100.046,361.996,0    C596.666,277.312,485.02,0,256.012,0z M372.654,372.614c-64.315,64.315-168.968,64.319-233.287,0    c-61.034-61.035-63.444-156.731-11.445-220.603l-4.581-4.581c-9.284-9.285-5.011-25.157,7.651-28.549l43.79-11.734    c12.681-3.399,24.291,8.239,20.9,20.9l-11.733,43.79c-3.386,12.628-19.247,16.956-28.55,7.651l-3.179-3.179    c-39.262,50.995-35.868,125.025,11.28,172.174c51.01,51.01,134.011,51.01,185.021,0c51.043-51.043,51.043-133.978,0-185.02    c-6.664-6.664-6.664-17.469,0-24.133c6.663-6.664,17.469-6.664,24.133,0C437.037,203.71,437.037,308.232,372.654,372.614z"/>
	</g>
</g>
<g>
</g>
<g>
</g>
<g>
</g>
<g>
</g>
<g>
</g>
<g>
</g>
<g>
</g>
<g>
</g>
<g>
</g>
<g>
</g>
<g>
</g>
<g>
</g>
<g>
</g>
<g>
</g>
<g>
</g>
</svg>
