<?xml version="1.0" encoding="iso-8859-1"?>
<!-- Generator: Adobe Illustrator 19.0.0, SVG Export Plug-In . SVG Version: 6.00 Build 0)  -->
<svg xmlns="http://www.w3.org/2000/svg" xmlns:xlink="http://www.w3.org/1999/xlink" version="1.1" id="Layer_1" x="0px" y="0px" viewBox="0 0 512 512" style="enable-background:new 0 0 512 512;" xml:space="preserve">
<g>
	<g>
		<path d="M328.794,5.605c-10.916-3.232-21.912,4.955-21.912,16.365v138.729c0,9.425,7.641,17.067,17.067,17.067h39.234L256,315.155    L148.818,177.767h39.234c9.425,0,17.067-7.641,17.067-17.067V21.971c0-11.406-10.993-19.599-21.912-16.365    C77.67,36.857,0,134.607,0,251.107c0,141.503,114.507,256,256,256c141.503,0,256-114.507,256-256    C512,134.547,434.272,36.84,328.794,5.605z"/>
	</g>
</g>
<g>
</g>
<g>
</g>
<g>
</g>
<g>
</g>
<g>
</g>
<g>
</g>
<g>
</g>
<g>
</g>
<g>
</g>
<g>
</g>
<g>
</g>
<g>
</g>
<g>
</g>
<g>
</g>
<g>
</g>
</svg>
