<?xml version="1.0" encoding="iso-8859-1"?>
<!-- Generator: Adobe Illustrator 19.0.0, SVG Export Plug-In . SVG Version: 6.00 Build 0)  -->
<svg xmlns="http://www.w3.org/2000/svg" xmlns:xlink="http://www.w3.org/1999/xlink" version="1.1" id="Layer_1" x="0px" y="0px" viewBox="0 0 512 512" style="enable-background:new 0 0 512 512;" xml:space="preserve">
<g>
	<g>
		<path d="M256.004,22.059C8.141,22.059-94.407,340.52,106.11,485.707c9.967,7.215,23.89,4.981,31.098-4.976    c7.213-9.962,4.984-23.885-4.977-31.098C-33.424,329.689,51.162,66.599,256.004,66.599c204.685,0,289.48,263.038,123.784,383.025    c-9.962,7.213-12.19,21.136-4.976,31.098c7.214,9.961,21.137,12.189,31.099,4.975C606.479,340.457,503.711,22.059,256.004,22.059z    "/>
	</g>
</g>
<g>
	<g>
		<path d="M256.003,115.59c-156.536,0-222.306,200.63-96.263,293.506c9.902,7.297,23.843,5.184,31.138-4.717    c7.297-9.901,5.185-23.843-4.717-31.138c-91.479-67.41-43.906-213.111,69.843-213.111c113.614,0,161.433,145.622,69.843,213.112    c-9.901,7.295-12.013,21.237-4.717,31.138c7.299,9.905,21.241,12.01,31.136,4.716C478.234,316.273,412.613,115.59,256.003,115.59z    "/>
	</g>
</g>
<g>
	<g>
		<path d="M256.004,214.69c-34.997,0-63.468,28.472-63.468,63.468s28.472,63.468,63.468,63.468s63.468-28.472,63.468-63.468    S291.001,214.69,256.004,214.69z"/>
	</g>
</g>
<g>
</g>
<g>
</g>
<g>
</g>
<g>
</g>
<g>
</g>
<g>
</g>
<g>
</g>
<g>
</g>
<g>
</g>
<g>
</g>
<g>
</g>
<g>
</g>
<g>
</g>
<g>
</g>
<g>
</g>
</svg>
