<?xml version="1.0" encoding="iso-8859-1"?>
<!-- Generator: Adobe Illustrator 19.0.0, SVG Export Plug-In . SVG Version: 6.00 Build 0)  -->
<svg xmlns="http://www.w3.org/2000/svg" xmlns:xlink="http://www.w3.org/1999/xlink" version="1.1" id="Layer_1" x="0px" y="0px" viewBox="0 0 512 512" style="enable-background:new 0 0 512 512;" xml:space="preserve">
<g>
	<g>
		<path d="M495.304,136.746h-87.171L391.71,80.397c-2.077-7.125-8.607-12.024-16.029-12.024H256    c-7.422,0-13.952,4.898-16.029,12.024l-16.423,56.349h-53.412v-28.887c0-9.22-7.475-16.696-16.696-16.696H62.277    c-9.22,0-16.696,7.475-16.696,16.696v28.887H16.696C7.475,136.746,0,144.221,0,153.441v273.49c0,9.22,7.475,16.696,16.696,16.696    h478.609c9.22,0,16.696-7.475,16.696-16.696v-273.49C512,144.221,504.525,136.746,495.304,136.746z M131.304,379.813H84.415    c-9.22,0-16.696-7.475-16.696-16.696s7.475-16.696,16.696-16.696h46.888c9.22,0,16.696,7.475,16.696,16.696    S140.524,379.813,131.304,379.813z M131.304,330.103H84.415c-9.22,0-16.696-7.475-16.696-16.696s7.475-16.696,16.696-16.696    h46.888c9.22,0,16.696,7.475,16.696,16.696S140.524,330.103,131.304,330.103z M315.841,375.255    c-46.907,0-85.068-38.162-85.068-85.069c0-46.907,38.162-85.068,85.068-85.068c46.907,0,85.069,38.161,85.069,85.068    C400.909,337.094,362.748,375.255,315.841,375.255z"/>
	</g>
</g>
<g>
</g>
<g>
</g>
<g>
</g>
<g>
</g>
<g>
</g>
<g>
</g>
<g>
</g>
<g>
</g>
<g>
</g>
<g>
</g>
<g>
</g>
<g>
</g>
<g>
</g>
<g>
</g>
<g>
</g>
</svg>
