<?xml version="1.0" encoding="iso-8859-1"?>
<!-- Generator: Adobe Illustrator 19.0.0, SVG Export Plug-In . SVG Version: 6.00 Build 0)  -->
<svg xmlns="http://www.w3.org/2000/svg" xmlns:xlink="http://www.w3.org/1999/xlink" version="1.1" id="Layer_1" x="0px" y="0px" viewBox="0 0 512 512" style="enable-background:new 0 0 512 512;" xml:space="preserve">
<g>
	<g>
		<path d="M256,0C114.51,0,0,114.497,0,256c0,141.49,114.497,256,256,256c141.49,0,256-114.497,256-256C512,114.51,397.503,0,256,0z     M256,420.908c-140.217,0-214.484-162.778-128.102-268.881l-4.582-4.582c-9.287-9.286-5.012-25.161,7.652-28.552l43.795-11.735    c12.677-3.4,24.295,8.236,20.902,20.902l-11.734,43.795c-3.381,12.617-19.238,16.968-28.554,7.652l-3.179-3.179    C87.388,260.504,145.901,386.775,256,386.775c9.425,0,17.067,7.641,17.067,17.067C273.067,413.267,265.425,420.908,256,420.908z     M388.684,364.554c9.286,9.286,5.012,25.161-7.652,28.552l-43.795,11.735c-12.663,3.395-24.302-8.214-20.902-20.902l11.734-43.795    c3.401-12.685,19.282-16.921,28.554-7.652l3.179,3.179c65.786-85.446,4.793-210.448-103.803-210.448    c-9.425,0-17.067-7.641-17.067-17.067c0-9.425,7.641-17.067,17.067-17.067c138.579,0,215.527,161.498,128.102,268.881    L388.684,364.554z"/>
	</g>
</g>
<g>
</g>
<g>
</g>
<g>
</g>
<g>
</g>
<g>
</g>
<g>
</g>
<g>
</g>
<g>
</g>
<g>
</g>
<g>
</g>
<g>
</g>
<g>
</g>
<g>
</g>
<g>
</g>
<g>
</g>
</svg>
