<?xml version="1.0" encoding="iso-8859-1"?>
<!-- Generator: Adobe Illustrator 19.0.0, SVG Export Plug-In . SVG Version: 6.00 Build 0)  -->
<svg xmlns="http://www.w3.org/2000/svg" xmlns:xlink="http://www.w3.org/1999/xlink" version="1.1" id="Layer_1" x="0px" y="0px" viewBox="0 0 512 512" style="enable-background:new 0 0 512 512;" xml:space="preserve">
<g>
	<g>
		<path d="M187.992,249.39L86.798,148.195c-6.655-6.655-17.446-6.655-24.102,0L4.992,205.9c-6.656,6.655-6.656,17.446,0,24.102    l101.194,101.194c6.656,6.655,17.445,6.656,24.102,0l57.704-57.704C194.648,266.837,194.648,256.046,187.992,249.39z"/>
	</g>
</g>
<g>
	<g>
		<path d="M506.44,401.925L278.914,194.551l-55.559,55.559L430.73,477.637c6.551,7.189,17.777,7.44,24.646,0.57l51.634-51.634    C513.883,419.7,513.622,408.47,506.44,401.925z"/>
	</g>
</g>
<g>
	<g>
		<path d="M360.872,84.212c-28.039-56.569-99.712-71.914-148.318-36.318c-5.929-1.972-12.722-0.617-17.441,4.102l-78.154,78.153    l89.075,89.075l78.154-78.154c3.195-3.194,4.991-7.528,4.991-12.049c0-0.167-0.019-0.332-0.025-0.499    c13.122-8.883,29.016-12.747,45.14-10.689c5.233,0.67,10.483-1.123,14.213-4.854l9.145-9.145    C362.825,98.661,364.12,90.766,360.872,84.212z"/>
	</g>
</g>
<g>
</g>
<g>
</g>
<g>
</g>
<g>
</g>
<g>
</g>
<g>
</g>
<g>
</g>
<g>
</g>
<g>
</g>
<g>
</g>
<g>
</g>
<g>
</g>
<g>
</g>
<g>
</g>
<g>
</g>
</svg>
