<?xml version="1.0" encoding="iso-8859-1"?>
<!-- Generator: Adobe Illustrator 19.0.0, SVG Export Plug-In . SVG Version: 6.00 Build 0)  -->
<svg xmlns="http://www.w3.org/2000/svg" xmlns:xlink="http://www.w3.org/1999/xlink" version="1.1" id="Layer_1" x="0px" y="0px" viewBox="0 0 512 512" style="enable-background:new 0 0 512 512;" xml:space="preserve">
<g>
	<g>
		<path d="M426.935,223.189h-38.886v-91.14C388.049,59.237,328.812,0,256,0S123.951,59.237,123.951,132.049    c0,9.22,7.475,16.696,16.696,16.696h54.597c9.22,0,16.696-7.475,16.696-16.696s-7.475-16.696-16.696-16.696h-36.489    c7.954-46.48,48.533-81.962,97.245-81.962c54.4,0,98.658,44.258,98.658,98.658v91.14H85.065c-9.22,0-16.696,7.475-16.696,16.696    v255.419c0,9.22,7.475,16.696,16.696,16.696h341.869c9.22,0,16.696-7.475,16.696-16.696v-255.42    C443.63,230.664,436.155,223.189,426.935,223.189z M272.696,393.293v42.163c0,9.22-7.475,16.696-16.696,16.696    c-9.22,0-16.696-7.475-16.696-16.696v-42.163c-22.968-7.133-39.693-28.582-39.693-53.866c0-31.094,25.296-56.389,56.389-56.389    c31.094,0,56.389,25.296,56.389,56.389C312.389,364.71,295.663,386.158,272.696,393.293z"/>
	</g>
</g>
<g>
</g>
<g>
</g>
<g>
</g>
<g>
</g>
<g>
</g>
<g>
</g>
<g>
</g>
<g>
</g>
<g>
</g>
<g>
</g>
<g>
</g>
<g>
</g>
<g>
</g>
<g>
</g>
<g>
</g>
</svg>
