<?xml version="1.0" encoding="iso-8859-1"?>
<!-- Generator: Adobe Illustrator 19.0.0, SVG Export Plug-In . SVG Version: 6.00 Build 0)  -->
<svg xmlns="http://www.w3.org/2000/svg" xmlns:xlink="http://www.w3.org/1999/xlink" version="1.1" id="Layer_1" x="0px" y="0px" viewBox="0 0 512 512" style="enable-background:new 0 0 512 512;" xml:space="preserve">
<g>
	<g>
		<path d="M256,0C114.512,0,0,114.497,0,256c0,141.488,114.497,256,256,256c141.488,0,256-114.497,256-256    C512,114.512,397.503,0,256,0z M256,34.133c94.643,0,175.619,59.574,207.44,143.185L342.5,212.821    c-15.892-31.705-48.686-53.532-86.5-53.532s-70.607,21.827-86.5,53.532L48.56,177.318C80.381,93.707,161.357,34.133,256,34.133z     M238.933,477.216c-114.394-8.743-204.8-104.62-204.8-221.216c0-15.746,1.66-31.109,4.795-45.937l120.933,35.5    c-5.547,51.44,30.112,96.85,79.072,105.609V477.216z M218.649,256c0-20.596,16.755-37.351,37.351-37.351    s37.351,16.755,37.351,37.351S276.596,293.351,256,293.351S218.649,276.595,218.649,256z M273.067,477.217V351.173    c48.952-8.757,84.621-54.156,79.072-105.609l120.933-35.5c3.135,14.826,4.795,30.19,4.795,45.935    C477.867,372.596,387.461,468.473,273.067,477.217z"/>
	</g>
</g>
<g>
</g>
<g>
</g>
<g>
</g>
<g>
</g>
<g>
</g>
<g>
</g>
<g>
</g>
<g>
</g>
<g>
</g>
<g>
</g>
<g>
</g>
<g>
</g>
<g>
</g>
<g>
</g>
<g>
</g>
</svg>
