<?xml version="1.0" encoding="iso-8859-1"?>
<!-- Generator: Adobe Illustrator 19.0.0, SVG Export Plug-In . SVG Version: 6.00 Build 0)  -->
<svg xmlns="http://www.w3.org/2000/svg" xmlns:xlink="http://www.w3.org/1999/xlink" version="1.1" id="Layer_1" x="0px" y="0px" viewBox="0 0 511.999 511.999" style="enable-background:new 0 0 511.999 511.999;" xml:space="preserve">
<g>
	<g>
		<path d="M179.561,11.571C77.439,43.372,0.003,139.233,0.003,256.002c0,60.792,21.063,118.337,59.71,164.338    c2.108-79.92,30.102-156.247,81.442-218.929c-4.485-8.13-7.045-17.465-7.045-27.388c0-31.368,25.52-56.888,56.888-56.888    c12.076,0,23.276,3.793,32.497,10.235c19.233-12.592,39.458-23.226,60.441-31.848C254.915,60.275,219.41,31.889,179.561,11.571z"/>
	</g>
</g>
<g>
	<g>
		<path d="M375.429,273.063c-12.547,0-22.755,10.208-22.755,22.755c0,12.547,10.208,22.755,22.755,22.755    c12.547,0,22.755-10.208,22.755-22.755C398.185,283.271,387.977,273.063,375.429,273.063z"/>
	</g>
</g>
<g>
	<g>
		<path d="M229.739,1.336c33.586,22.135,63.389,49.796,88.233,82.159c36.156-10.742,73.97-15.757,112.513-14.792    C375.085,17.004,302.275-6.009,229.739,1.336z"/>
	</g>
</g>
<g>
	<g>
		<path d="M190.997,151.267c-12.547,0-22.755,10.208-22.755,22.755c0,12.547,10.208,22.755,22.755,22.755    c12.547,0,22.755-10.208,22.755-22.755C213.753,161.475,203.545,151.267,190.997,151.267z"/>
	</g>
</g>
<g>
	<g>
		<path d="M463.036,105.369c-41.816-5.318-84.162-2.628-124.507,7.849c24.049,38.798,40.53,81.806,48.507,126.907    c25.82,5.374,45.282,28.302,45.282,55.694c0,26.518-18.238,48.852-42.829,55.127c-7.025,53.455-25.922,104.181-54.734,148.754    c100.919-32.493,177.241-127.775,177.241-243.698C511.996,201.109,494.82,148.861,463.036,105.369z"/>
	</g>
</g>
<g>
	<g>
		<path d="M318.543,295.819c0-23.395,14.198-43.528,34.426-52.256c-7.904-42.732-24.26-83.341-48.089-119.617    c-21.039,7.997-41.277,18.211-60.45,30.542c2.236,6.095,3.455,12.675,3.455,19.534c0,31.368-25.52,56.888-56.888,56.888    c-9.002,0-17.516-2.111-25.09-5.848C113.476,290.129,88.593,371.2,94.631,454.756c53.515,43.613,121.493,63.273,190.18,55.628    c37.579-46.087,62.174-101.811,70.475-161.374C333.834,340.858,318.543,320.095,318.543,295.819z"/>
	</g>
</g>
<g>
</g>
<g>
</g>
<g>
</g>
<g>
</g>
<g>
</g>
<g>
</g>
<g>
</g>
<g>
</g>
<g>
</g>
<g>
</g>
<g>
</g>
<g>
</g>
<g>
</g>
<g>
</g>
<g>
</g>
</svg>
