<?xml version="1.0" encoding="iso-8859-1"?>
<!-- Generator: Adobe Illustrator 19.0.0, SVG Export Plug-In . SVG Version: 6.00 Build 0)  -->
<svg xmlns="http://www.w3.org/2000/svg" xmlns:xlink="http://www.w3.org/1999/xlink" version="1.1" id="Layer_1" x="0px" y="0px" viewBox="0 0 512 512" style="enable-background:new 0 0 512 512;" xml:space="preserve">
<g>
	<g>
		<path d="M196.573,484.319C210.851,501.23,232.186,512,256,512c23.814,0,45.149-10.77,59.427-27.681H196.573z"/>
	</g>
</g>
<g>
	<g>
		<path d="M153.188,378.496v55.736c0,9.22,7.475,16.696,16.696,16.696h172.232c9.22,0,16.696-7.475,16.696-16.696v-55.736H153.188z"/>
	</g>
</g>
<g>
	<g>
		<rect x="244.491" y="275.489" width="23.017" height="69.621"/>
	</g>
</g>
<g>
	<g>
		<path d="M203.039,225.978c-4.443,0-8.058,3.614-8.058,8.057c0,4.443,3.615,8.058,8.058,8.058h8.057v-8.058    C211.096,229.592,207.482,225.978,203.039,225.978z"/>
	</g>
</g>
<g>
	<g>
		<path d="M308.954,225.979c-4.443,0-8.058,3.614-8.058,8.057v8.058h8.058c4.443,0,8.057-3.615,8.057-8.058    S313.397,225.979,308.954,225.979z"/>
	</g>
</g>
<g>
	<g>
		<path d="M256,0C161.331,0,84.313,77.018,84.313,171.687c0,54.379,25.584,105.125,68.875,137.498v35.919h57.908v-69.619h-8.057    c-22.855,0-41.45-18.594-41.45-41.45c0-22.855,18.595-41.449,41.45-41.449s41.449,18.593,41.449,41.449v8.058h23.017v-8.058    c0-22.855,18.594-41.449,41.45-41.449s41.449,18.593,41.449,41.449s-18.593,41.45-41.449,41.45h-8.058v69.619h57.916v-35.919    c43.291-32.373,68.875-83.119,68.875-137.498C427.687,77.018,350.669,0,256,0z"/>
	</g>
</g>
<g>
</g>
<g>
</g>
<g>
</g>
<g>
</g>
<g>
</g>
<g>
</g>
<g>
</g>
<g>
</g>
<g>
</g>
<g>
</g>
<g>
</g>
<g>
</g>
<g>
</g>
<g>
</g>
<g>
</g>
</svg>
