<?xml version="1.0" encoding="iso-8859-1"?>
<!-- Generator: Adobe Illustrator 19.0.0, SVG Export Plug-In . SVG Version: 6.00 Build 0)  -->
<svg xmlns="http://www.w3.org/2000/svg" xmlns:xlink="http://www.w3.org/1999/xlink" version="1.1" id="Layer_1" x="0px" y="0px" viewBox="0 0 512 512" style="enable-background:new 0 0 512 512;" xml:space="preserve">
<g>
	<g>
		<path d="M437.072,41.644c-55.525-55.525-145.87-55.525-201.395,0L40.501,236.82c-9.756,9.755-9.755,25.572,0,35.328    c9.755,9.756,25.572,9.756,35.328,0L271.006,76.971c36.046-36.045,94.695-36.045,130.739,0c36.133,36.132,36.13,94.609,0,130.738    L157.258,452.197c-13.152,13.154-34.556,13.154-47.708,0c-13.154-13.152-13.152-34.555,0-47.708l233.144-233.146    c9.756-9.755,9.755-25.572,0-35.328s-25.572-9.756-35.328,0L74.221,369.159c-32.632,32.634-32.632,85.733,0,118.365    c32.635,32.635,85.733,32.632,118.364,0.001l244.487-244.487C492.734,187.378,492.727,97.298,437.072,41.644z"/>
	</g>
</g>
<g>
</g>
<g>
</g>
<g>
</g>
<g>
</g>
<g>
</g>
<g>
</g>
<g>
</g>
<g>
</g>
<g>
</g>
<g>
</g>
<g>
</g>
<g>
</g>
<g>
</g>
<g>
</g>
<g>
</g>
</svg>
