<?xml version="1.0" encoding="iso-8859-1"?>
<!-- Generator: Adobe Illustrator 19.0.0, SVG Export Plug-In . SVG Version: 6.00 Build 0)  -->
<svg xmlns="http://www.w3.org/2000/svg" xmlns:xlink="http://www.w3.org/1999/xlink" version="1.1" id="Layer_1" x="0px" y="0px" viewBox="0 0 512 512" style="enable-background:new 0 0 512 512;" xml:space="preserve">
<g>
	<g>
		<path d="M446.512,0H65.488c-9.864,0-17.86,7.997-17.86,17.86V494.14c0,9.864,7.997,17.86,17.86,17.86h381.023    c9.864,0,17.86-7.997,17.86-17.86V17.86C464.372,7.997,456.375,0,446.512,0z M180.655,121.592h150.691    c9.864,0,17.86,7.997,17.86,17.86c0,9.864-7.997,17.86-17.86,17.86H180.655c-9.864,0-17.86-7.997-17.86-17.86    C162.795,129.588,170.79,121.592,180.655,121.592z M123.123,217.151c0-9.864,7.997-17.86,17.86-17.86h77.699    c9.864,0,17.86,7.997,17.86,17.86v77.699c0,9.864-7.997,17.86-17.86,17.86h-77.699c-9.864,0-17.86-7.997-17.86-17.86V217.151z     M371.017,390.408H140.983c-9.864,0-17.86-7.997-17.86-17.86s7.997-17.86,17.86-17.86h230.032c9.864,0,17.86,7.997,17.86,17.86    S380.88,390.408,371.017,390.408z M371.017,312.709h-79.342c-9.864,0-17.86-7.997-17.86-17.86c0-9.864,7.997-17.86,17.86-17.86    h79.342c9.864,0,17.86,7.997,17.86,17.86C388.877,304.713,380.88,312.709,371.017,312.709z M371.017,235.012h-79.342    c-9.864,0-17.86-7.997-17.86-17.86c0-9.864,7.997-17.86,17.86-17.86h79.342c9.864,0,17.86,7.997,17.86,17.86    C388.877,227.015,380.88,235.012,371.017,235.012z"/>
	</g>
</g>
<g>
</g>
<g>
</g>
<g>
</g>
<g>
</g>
<g>
</g>
<g>
</g>
<g>
</g>
<g>
</g>
<g>
</g>
<g>
</g>
<g>
</g>
<g>
</g>
<g>
</g>
<g>
</g>
<g>
</g>
</svg>
