<?xml version="1.0" encoding="iso-8859-1"?>
<!-- Generator: Adobe Illustrator 19.0.0, SVG Export Plug-In . SVG Version: 6.00 Build 0)  -->
<svg xmlns="http://www.w3.org/2000/svg" xmlns:xlink="http://www.w3.org/1999/xlink" version="1.1" id="Layer_1" x="0px" y="0px" viewBox="0 0 512 512" style="enable-background:new 0 0 512 512;" xml:space="preserve">
<g>
	<g>
		<path d="M94.244,193.35l-83.478,48.196c-11.105,6.411-11.126,22.492,0,28.917l83.478,48.197    c11.03,6.369,25.043-1.532,25.043-14.458v-96.393C119.287,194.984,105.367,186.927,94.244,193.35z"/>
	</g>
</g>
<g>
	<g>
		<path d="M501.235,241.54l-83.478-48.196c-11.106-6.413-25.044,1.614-25.044,14.458v96.393c0,12.859,13.943,20.868,25.044,14.458    l83.478-48.197C512.339,264.046,512.361,247.965,501.235,241.54z"/>
	</g>
</g>
<g>
	<g>
		<path d="M356.174,0h-83.478v58.795c0,9.22-7.475,16.696-16.696,16.696s-16.696-7.475-16.696-16.696V0h-83.478    c-9.22,0-16.696,7.475-16.696,16.696v478.609c0,9.22,7.475,16.696,16.696,16.696h83.478v-58.795    c0-9.22,7.475-16.696,16.696-16.696s16.696,7.475,16.696,16.696V512h83.478c9.22,0,16.696-7.475,16.696-16.696V16.696    C372.87,7.475,365.394,0,356.174,0z M272.696,386.177c0,9.22-7.475,16.696-16.696,16.696s-16.696-7.475-16.696-16.696v-42.1    c0-9.22,7.475-16.696,16.696-16.696s16.696,7.475,16.696,16.696V386.177z M272.696,277.05c0,9.22-7.475,16.696-16.696,16.696    s-16.696-7.475-16.696-16.696v-42.1c0-9.22,7.475-16.696,16.696-16.696s16.696,7.475,16.696,16.696V277.05z M272.696,167.923    c0,9.22-7.475,16.696-16.696,16.696s-16.696-7.475-16.696-16.696v-42.1c0-9.22,7.475-16.696,16.696-16.696    s16.696,7.475,16.696,16.696V167.923z"/>
	</g>
</g>
<g>
</g>
<g>
</g>
<g>
</g>
<g>
</g>
<g>
</g>
<g>
</g>
<g>
</g>
<g>
</g>
<g>
</g>
<g>
</g>
<g>
</g>
<g>
</g>
<g>
</g>
<g>
</g>
<g>
</g>
</svg>
