<?xml version="1.0" encoding="iso-8859-1"?>
<!-- Generator: Adobe Illustrator 19.0.0, SVG Export Plug-In . SVG Version: 6.00 Build 0)  -->
<svg xmlns="http://www.w3.org/2000/svg" xmlns:xlink="http://www.w3.org/1999/xlink" version="1.1" id="Layer_1" x="0px" y="0px" viewBox="0 0 512 512" style="enable-background:new 0 0 512 512;" xml:space="preserve">
<g>
	<g>
		<path d="M216.74,132.612c-28.37,0-51.45,23.081-51.45,51.45c0,28.371,23.08,51.451,51.45,51.451s51.45-23.081,51.45-51.451    C268.19,155.692,245.11,132.612,216.74,132.612z"/>
	</g>
</g>
<g>
	<g>
		<path d="M494.14,416.287h-42.127c0-18.674,0-319.846,0-338.439c0-9.864-7.997-17.86-17.86-17.86H95.713V17.86    C95.713,7.997,87.716,0,77.853,0c-9.864,0-17.86,7.997-17.86,17.86v42.132H17.86C7.997,59.992,0,67.989,0,77.853    c0,9.864,7.997,17.86,17.86,17.86h42.127c0,13.864,0,322.829,0,338.439c0,9.864,7.997,17.86,17.86,17.86h338.439v42.127    c0,9.864,7.997,17.86,17.86,17.86c9.864,0,17.86-7.997,17.86-17.86v-42.132h42.132c9.864,0,17.86-7.997,17.86-17.86    C512,424.284,504.003,416.287,494.14,416.287z M416.292,259.923l-50.95-53.997c-6.966-7.384-18.895-7.51-25.983,0.001    L226.78,325.275L172.7,267.94c-7.039-7.467-18.957-7.445-25.985,0l-51.007,54.071V95.708h320.583V259.923z"/>
	</g>
</g>
<g>
</g>
<g>
</g>
<g>
</g>
<g>
</g>
<g>
</g>
<g>
</g>
<g>
</g>
<g>
</g>
<g>
</g>
<g>
</g>
<g>
</g>
<g>
</g>
<g>
</g>
<g>
</g>
<g>
</g>
</svg>
