<?xml version="1.0" encoding="iso-8859-1"?>
<!-- Generator: Adobe Illustrator 19.0.0, SVG Export Plug-In . SVG Version: 6.00 Build 0)  -->
<svg xmlns="http://www.w3.org/2000/svg" xmlns:xlink="http://www.w3.org/1999/xlink" version="1.1" id="Layer_1" x="0px" y="0px" viewBox="0 0 512 512" style="enable-background:new 0 0 512 512;" xml:space="preserve">
<g>
	<g>
		<path d="M422.957,0H89.044c-9.22,0-16.696,7.475-16.696,16.696v478.609c0,9.22,7.475,16.696,16.696,16.696h333.913    c9.22,0,16.696-7.475,16.696-16.696V16.696C439.652,7.475,432.177,0,422.957,0z M184.162,462.214h-39.466    c-9.22,0-16.696-7.475-16.696-16.696s7.475-16.696,16.696-16.696h39.466c9.22,0,16.696,7.475,16.696,16.696    S193.382,462.214,184.162,462.214z M294.957,467.779c0,9.22-7.475,16.696-16.696,16.696h-44.522    c-9.22,0-16.696-7.475-16.696-16.696v-44.522c0-9.22,7.475-16.696,16.696-16.696h44.522c9.22,0,16.696,7.475,16.696,16.696    V467.779z M367.304,462.214h-39.466c-9.22,0-16.696-7.475-16.696-16.696s7.475-16.696,16.696-16.696h39.466    c9.22,0,16.696,7.475,16.696,16.696S376.525,462.214,367.304,462.214z M384,362.34c0,9.22-7.475,16.696-16.696,16.696H144.696    c-9.22,0-16.696-7.475-16.696-16.696V72.348c0-9.22,7.475-16.696,16.696-16.696h222.609c9.22,0,16.696,7.475,16.696,16.696V362.34    z"/>
	</g>
</g>
<g>
</g>
<g>
</g>
<g>
</g>
<g>
</g>
<g>
</g>
<g>
</g>
<g>
</g>
<g>
</g>
<g>
</g>
<g>
</g>
<g>
</g>
<g>
</g>
<g>
</g>
<g>
</g>
<g>
</g>
</svg>
