<?xml version="1.0" encoding="iso-8859-1"?>
<!-- Generator: Adobe Illustrator 21.0.0, SVG Export Plug-In . SVG Version: 6.00 Build 0)  -->
<svg xmlns="http://www.w3.org/2000/svg" xmlns:xlink="http://www.w3.org/1999/xlink" version="1.1" id="Capa_1" x="0px" y="0px" viewBox="0 0 511 511" style="enable-background:new 0 0 511 511;" xml:space="preserve" width="512" height="512">
<g>
	<g>
		<path d="M487.5,92h-71.529c-4.142,0-7.5,3.358-7.5,7.5s3.358,7.5,7.5,7.5H487.5c4.687,0,8.5,3.813,8.5,8.5v280    c0,4.687-3.813,8.5-8.5,8.5h-464c-4.687,0-8.5-3.813-8.5-8.5v-280c0-4.687,3.813-8.5,8.5-8.5h355.941c4.142,0,7.5-3.358,7.5-7.5    s-3.358-7.5-7.5-7.5H23.5C10.542,92,0,102.542,0,115.5v280C0,408.458,10.542,419,23.5,419h464c12.958,0,23.5-10.542,23.5-23.5    v-280C511,102.542,500.458,92,487.5,92z"/>
		<path d="M207,155.5c0-4.142-3.358-7.5-7.5-7.5h-144c-4.142,0-7.5,3.358-7.5,7.5v160c0,4.142,3.358,7.5,7.5,7.5h144    c4.142,0,7.5-3.358,7.5-7.5V155.5z M95,308v-24.5c0-4.687,3.813-8.5,8.5-8.5h48c4.687,0,8.5,3.813,8.5,8.5V308H95z M192,308h-17    v-24.5c0-12.958-10.542-23.5-23.5-23.5h-48C90.542,260,80,270.542,80,283.5V308H63V163h129V308z"/>
		<path d="M127.5,259c21.78,0,39.5-17.72,39.5-39.5S149.28,180,127.5,180S88,197.72,88,219.5S105.72,259,127.5,259z M127.5,195    c13.509,0,24.5,10.991,24.5,24.5S141.009,244,127.5,244S103,233.009,103,219.5S113.991,195,127.5,195z"/>
		<path d="M247.5,148c-4.142,0-7.5,3.358-7.5,7.5s3.358,7.5,7.5,7.5h136c4.142,0,7.5-3.358,7.5-7.5s-3.358-7.5-7.5-7.5H247.5z"/>
		<path d="M247.5,203h64c4.142,0,7.5-3.358,7.5-7.5s-3.358-7.5-7.5-7.5h-64c-4.142,0-7.5,3.358-7.5,7.5S243.358,203,247.5,203z"/>
		<path d="M463,195.5c0-4.142-3.358-7.5-7.5-7.5h-112c-4.142,0-7.5,3.358-7.5,7.5s3.358,7.5,7.5,7.5h112    C459.642,203,463,199.642,463,195.5z"/>
		<path d="M423.5,228h-176c-4.142,0-7.5,3.358-7.5,7.5s3.358,7.5,7.5,7.5h176c4.142,0,7.5-3.358,7.5-7.5S427.642,228,423.5,228z"/>
		<path d="M351,275.5c0-4.142-3.358-7.5-7.5-7.5h-96c-4.142,0-7.5,3.358-7.5,7.5s3.358,7.5,7.5,7.5h96    C347.642,283,351,279.642,351,275.5z"/>
		<path d="M423.5,268h-48c-4.142,0-7.5,3.358-7.5,7.5s3.358,7.5,7.5,7.5h48c4.142,0,7.5-3.358,7.5-7.5S427.642,268,423.5,268z"/>
		<path d="M247.5,308c-4.142,0-7.5,3.358-7.5,7.5s3.358,7.5,7.5,7.5h56c4.142,0,7.5-3.358,7.5-7.5s-3.358-7.5-7.5-7.5H247.5z"/>
		<path d="M335.5,323h88c4.142,0,7.5-3.358,7.5-7.5s-3.358-7.5-7.5-7.5h-88c-4.142,0-7.5,3.358-7.5,7.5S331.358,323,335.5,323z"/>
		<path d="M55.5,348c-4.142,0-7.5,3.358-7.5,7.5s3.358,7.5,7.5,7.5h40c4.142,0,7.5-3.358,7.5-7.5s-3.358-7.5-7.5-7.5H55.5z"/>
		<path d="M199.5,348h-72c-4.142,0-7.5,3.358-7.5,7.5s3.358,7.5,7.5,7.5h72c4.142,0,7.5-3.358,7.5-7.5S203.642,348,199.5,348z"/>
	</g>
</g>















</svg>
